<?xml version="1.0" encoding="UTF-8"?><svg xmlns="http://www.w3.org/2000/svg" width="1914" height="1077" viewBox="0 0 1914 1077"><defs><style>.cls-1{fill:none;}.cls-1,.cls-2,.cls-3,.cls-4,.cls-5,.cls-6,.cls-7,.cls-8,.cls-9,.cls-10,.cls-11,.cls-12{stroke-width:0px;}.cls-13{stroke:#aeeff2;stroke-miterlimit:10;}.cls-13,.cls-10{fill:#fff;}.cls-2{fill:#f79e83;}.cls-3{fill:#d2985f;}.cls-4{fill:#aeeff2;}.cls-5{fill:#9e9178;}.cls-6{fill:#8cbdcc;}.cls-7{fill:#8c8065;}.cls-8{fill:#91ddff;}.cls-9{fill:#f2b778;}.cls-11{fill:#f0edaf;}.cls-12{fill:#e7f4f8;}</style></defs><g id="Layer_5"><path class="cls-9" d="m1914.33,3.51c-.04-.94-.08-1.89-.11-2.83-23.34,3.47-47.01,5.04-70.48,5.73-37.75,1.11-75.51-.34-113.2-2.2-43.37-2.13-86.73-4.66-130.11-6.76-4.4-.21-8.81-.43-13.21-.64h-248.36c-14.79,1.99-29.6,3.52-44.43,3.29-22.47-.36-44.87-1.78-67.27-3.29H135.72c-.68.38-1.49.61-2.45.61-18.83-.01-37.66-.38-56.47.44-1.38.06-2.47-.36-3.25-1.04H10.73c-.3.07-.6.14-.92.17-1.59.17-3.28.12-4.94-.17H-.31v517h1920V79.05c-2.63-25.13-4.26-50.38-5.36-75.55Z"/><path class="cls-6" d="m1914.43,703.11c0-3.29,2.61-4.9,5.16-4.82-.01-2.67-.02-5.35-.03-8.02,0-.42.05-.82.13-1.19v-249.27H-.31v262.3c.4.68.64,1.52.64,2.51,0,1.03.01,2.06.02,3.09.74,8.3,4.2,16.39,3.12,24.79-.38,2.96-1.01,5.87-1.72,8.76.68,10.51,1.39,21.03,1.69,31.55h1911.28c-.26-23.23-.28-46.47-.28-69.7Z"/><path class="cls-10" d="m1512.19,658.31c21.73-2.55,44.35-6.07,44.34-6.12-.01-.08-44.37,5.88-44.34,6.12Z"/><path class="cls-4" d="m1512.19,659.81c13.96-1.64,27.89-3.54,41.78-5.69,1.02-.16,2.38-.15,3.32-.63,1.2-.62.81-2.37-.36-2.74-.48-.15-1.09.02-1.56.08-1.08.14-2.17.28-3.25.42-3.66.48-7.33.97-10.99,1.47-8.05,1.08-16.1,2.17-24.14,3.33-1.3.19-2.61.38-3.91.58-.75.12-1.79.15-2.18.93-.88,1.72,1.71,3.24,2.59,1.51-.26.51-1.31.71-.5.6.31-.04.63-.11.94-.16,1.07-.17,2.14-.33,3.22-.48,3.51-.51,7.03-1,10.54-1.48,7.76-1.07,15.52-2.12,23.29-3.15,1.32-.17,2.65-.35,3.97-.52.38-.05.76-.08,1.13-.14s.64.08.06-.1l-.36-2.74c.64-.33,0-.08-.31-.03-.61.1-1.22.2-1.83.29-2.16.34-4.31.66-6.47.98-6.96,1.03-13.93,2.01-20.91,2.92-4.68.62-9.37,1.2-14.06,1.75-1.89.22-1.92,3.23,0,3Z"/><path class="cls-12" d="m1914.43,703.68c-35.08-11.65-73.64,1.61-134.91-3.33-100.01-8.06-149.74-55.77-234.4-46.04-6.12.7-34.06,4.19-34.09,4-83.23,9.75-122.9,9.88-219.56,5-95.13-4.8-95.33,36.82-208.53,47-130.78,11.77-156.29-41.47-264.67-16-79.73,18.74-104.9,46.56-149.38,59-72.45,20.26-92.57-38.05-211.54-60-76.91-14.19-75.79,8.84-269.87,17.08-24.97,1.06-139.26,5.91-187.15-1.42.12,20.6.85,41.2.87,61.81,0,.79-.15,1.48-.42,2.08.07,4.27-.72,8.42-1,12.68.45,1.57.91,3.16,1.4,4.77,122.43,397.69,1840.16,39.64,1913.61-8.85-.36-25.92-.39-51.86-.39-77.78Z"/><path class="cls-4" d="m1914.83,702.24c-33.29-10.57-70.15-2.38-104.32-2.23-44.75.19-87.58-9.03-129.89-22.92-33.42-10.97-66.77-23.33-102.24-25.28-29.62-1.63-59.64,4.32-89.04,7.42-36.64,3.86-73.34,6.03-110.19,5.69-20.33-.18-40.65-.93-60.96-1.84-20.69-.92-41.42-2.69-62.1-.73-26.17,2.47-49.42,11.98-73.4,22.02-34.26,14.35-69.64,22.24-106.7,25.01-37.93,2.84-75.28-.29-112.32-8.69-27.35-6.2-54.41-13.82-82.61-14.76-38.1-1.27-76.51,8.3-111.96,21.57-28.54,10.69-54.43,26.85-82.62,38.2-25.34,10.2-51.36,13.8-77.51,4.57-26.24-9.26-49.94-24.95-75.52-35.83-43.68-18.58-93.27-30.87-141.06-25.97-18.23,1.87-36.31,5.1-54.46,7.64-32.86,4.6-65.9,7.77-99.01,9.99-64.33,4.31-129.36,6.91-193.81,4.79-14.8-.49-29.68-1.2-44.35-3.37-.94-.14-1.91.38-1.9,1.45.16,21.21,1.81,42.72.46,63.88-.43,6.74-1.31,12.25.73,18.72.81,2.57,1.69,5.13,2.64,7.65,3.67,9.76,8.34,19.13,13.93,27.94,11.75,18.54,27.27,34.41,44.6,47.79,42.48,32.81,94.67,51.85,146.08,65.42,68.01,17.96,138.37,26.65,208.41,31.68,83.6,6,167.57,6.35,251.32,3.82,91.14-2.75,182.15-9.06,272.92-17.62,91.09-8.58,181.96-19.48,272.58-32.12,85.25-11.9,170.28-25.36,255.04-40.3,72.05-12.71,143.93-26.46,215.51-41.64,51.93-11.01,103.79-22.62,155.13-36.14,16.49-4.35,32.96-8.86,49.2-14.08,7.94-2.55,19.91-4.82,26.55-10.23,4.42-3.61,2.29-9.6,2.23-15.24-.22-21.6-.24-43.21-.24-64.82,0-1.93-3-1.93-3,0,0,17.28.01,34.57.13,51.85.03,3.7.05,7.41.09,11.11.03,2.85,1.34,9.74.44,12.37-.75,2.2.25.6-.96,2.02-1.4,1.65-5.46,2.65-7.4,3.45-8.59,3.52-17.5,6.3-26.37,9.01-30.64,9.37-61.8,17.09-92.96,24.54-45.87,10.98-91.98,20.98-138.18,30.47-57.9,11.89-115.98,22.91-174.18,33.23-66.02,11.71-132.19,22.5-198.51,32.37-71.52,10.65-143.21,20.22-215.04,28.52-72.64,8.4-145.44,15.52-218.37,20.93s-141.99,8.94-213.1,10.25c-65.93,1.21-131.94.43-197.76-3.74-58.11-3.68-116.22-9.91-173.36-21.27-46.89-9.32-93.73-21.96-137.19-42.19-34.21-15.92-67.22-37.08-90.97-66.88-10.49-13.16-18.95-27.97-24.58-43.85-3.47-9.78-1.92-18.54-1.93-28.76,0-16.95-.3-33.95-.79-50.9-.02-.69-.53-4.1-.19-4.61,1.09-1.63-1.36.11,1.72-.72,1.15-.31,3.38.43,4.58.57,4.87.56,9.77.97,14.66,1.31,10.67.74,21.36,1.13,32.05,1.37,87.58,1.95,176.78-1.71,263.69-12.47,25.93-3.21,51.72-8.28,77.75-10.58,26.08-2.29,51.86,1.2,77.29,7.05,25,5.74,49.2,14.2,72.39,25.13,16.64,7.84,32.6,17.08,49.37,24.63,31.28,14.07,61.27,13.24,92.95.32,17.15-6.99,33.28-16.18,49.95-24.2,24.14-11.6,49.29-20.58,75.29-27.01,23.56-5.83,47.65-9.23,71.95-7.9,19.48,1.06,38.51,5.21,57.43,9.73,46.06,11,90.89,17.2,138.4,13.11,25.42-2.19,50.72-6.44,75.01-14.38,16.69-5.45,32.55-12.87,48.83-19.37,17.56-7.01,35.61-11.72,54.51-13.16,27.93-2.14,56.25,1.1,84.18,2.06,49.75,1.71,99.08.12,148.59-5.19,17.31-1.86,34.58-4.02,51.88-6,24.56-2.82,48.99-.93,73.02,4.77,49.16,11.66,95.01,32.85,145.54,39.4,28.66,3.72,57.31,3.12,86.08,1.39,21.79-1.31,44.05-3.05,65.18,3.65,1.84.59,2.63-2.31.8-2.89Z"/><ellipse class="cls-4" cx="1286.19" cy="739.31" rx="66.5" ry="33.5"/><ellipse class="cls-4" cx="1431.69" cy="722.31" rx="35" ry="16.5"/><ellipse class="cls-4" cx="1836.69" cy="730.31" rx="50" ry="8.5"/><ellipse class="cls-13" cx="121.69" cy="668.31" rx="45" ry="16.5"/><ellipse class="cls-13" cx="656.19" cy="705.81" rx="45" ry="16.5"/><ellipse class="cls-13" cx="1769.19" cy="656.81" rx="45" ry="16.5"/><ellipse class="cls-4" cx="422.69" cy="772.81" rx="90" ry="17"/><path class="cls-7" d="m215.69,388.81c19.51-4.81,36.09,1.33,43,4,68.68,26.5,95.57,142.37,61,176-11.97,11.65-31.65,12.76-71,15-24.34,1.38-30.42-1.6-69,0-25.97,1.08-27.9,2.62-32,0-32.31-20.64-6.63-176.61,68-195Z"/><path class="cls-7" d="m414.69,513.81c12.9-3.79,23.86-1.08,28,0,42.95,11.19,67.74,70.99,54,88-5.59,6.92-12.41.38-56,6-7.49.97-22.08,3.07-43,5-24.09,2.23-26.27,1.43-28,0-16.05-13.32,1.42-86.2,45-99Z"/><path class="cls-5" d="m456.3,521.35c-4.35.6-8.91,1.29-12.38,3.99s-5.24,8.08-2.58,11.57c2.17,2.84,6.16,3.33,9.4,4.81s6.04,5.84,3.55,8.4c-.9.93-2.24,1.27-3.49,1.6-5.03,1.3-10.26,3.17-13.48,7.25s-3.3,10.99,1.07,13.8c1.29.83,2.84,1.24,4.03,2.21s1.88,2.88.86,4.02c-.37.41-.88.64-1.38.87-6.24,2.88-11.97,6.86-16.85,11.7-3.29,3.26-6.2,8.74-3.03,12.11,1.56,1.65,4.01,2,6.27,2.24,17.69,1.82,35.53,2.07,53.26.75,4.88-.36,10.18-1.04,13.63-4.52,3.74-3.78,4.13-9.69,3.77-15-1.58-23.09-13.52-45.28-31.93-59.32-3.42-2.61-7.04-4.94-10.66-7.27"/><path class="cls-5" d="m278.06,410.68c-17.15-2.74-35.55,4.72-45.95,18.64-2,2.67-3.78,5.89-3.19,9.17.27,1.49,1.02,2.86,1.9,4.09,6.67,9.35,21.29,12.82,23.73,24.04.22,1.01.32,2.09-.05,3.06-.52,1.35-1.82,2.2-3.04,2.96-5.01,3.12-10.02,6.24-15.03,9.35-5.91,3.68-11.88,7.4-16.76,12.38-1.28,1.31-2.51,2.76-2.99,4.52-1.06,3.9,2,7.89,5.64,9.64s7.81,1.95,11.76,2.86c4.8,1.1,9.49,3.39,12.56,7.24s4.24,9.42,2.08,13.85c-3.07,6.3-10.99,8.09-17.82,9.67-6.53,1.51-13.15,3.58-18.25,7.93-5.21,4.45-8.32,10.85-10.71,17.27-.77,2.06-1.48,4.33-.77,6.4.57,1.67,1.96,2.92,3.39,3.94,7.2,5.16,16.39,6.55,25.22,7.23,21.07,1.62,42.39.07,63-4.61,4.61-1.05,9.24-2.27,13.41-4.5,3.84-2.06,7.2-4.93,10.21-8.08,14.59-15.25,21.27-37.7,17.38-58.44-3.3-17.58-13.48-33.13-18.27-50.37-1.46-5.24-2.42-10.64-4.55-15.64-3.03-7.13-8.26-13.06-13.4-18.86-5.31-5.99-11.14-12.3-18.94-14.12"/><path class="cls-2" d="m1919.04,29.44c-1.18-4.44-2.16-8.92-2.41-13.51-.37-6.66-.26-13.33-.01-20-25.21-.03-50.41-.12-75.62-.25-25.24-.13-50.48-.29-75.72-.4-12.62-.06-25.24-.1-37.86-.13-10.05-.02-20.24-.56-30.26.16-14.26,1.01-28.35,3.62-42.65,4.34-9.22.46-21.7,1.1-30.55-3.69,0,0,0,0,0,0-9.44,0-18.87-.2-28.3-.49-.8.8-1.93,1.32-3.39,1.32-21.68,0-43.35.1-65.03.24-37.98.23-75.97.56-113.96.59-13.15.01-26.28.97-39.43.95-8.57-.01-17.87-.26-26.36-2.66-.8,1.02-2.05,1.72-3.74,1.72-39.19-.01-78.46-1.57-117.64-.8-29.89.59-62.26,8.05-91.34-1.88-.18-.06-.36-.13-.53-.21-.78,1.2-2.11,2.05-3.98,2.06-29.1.02-58.18,1.04-87.27,1.91-26.27.79-52.55,1.44-78.83,1.09-12.88-.17-25.75-.59-38.61-1.36-10.68-.64-21.42-2.31-32.11-2.57-12.97-.31-25.92.51-38.89-.21-.49.29-1.08.51-1.79.61-29.78,4.29-59.88,4.56-89.89,3.09-27.16-1.33-54.07-3.87-81.3-3.8-27.73.07-55.47,1.11-83.19.11-4.3-.16-8.57-.32-12.85-.44-11.87.65-23.74,1.22-35.64,1.25-.61,0-1.17-.09-1.67-.25-8.14.61-16.27,1.33-24.4,1.95-22.93,1.75-46.24,2.7-68.84-2.16h-26.63c-8.87,1.5-17.72,3.08-26.65,4.11-3.05.35-4.63-1.75-4.75-4.11h-5.37c-13.35,1.04-26.72,1.79-40.11,2.24-71.69,2.42-143.68-.2-215.38-1.73-.72.48-1.62.77-2.71.77-18.83-.01-37.66-.38-56.47.44-.8.03-1.51-.09-2.11-.34C52.86.4,30.65,3.41,9.88-3.16c-2.24.24-4.67.04-6.93-.65-1.1.09-2.2.19-3.3.28C-.15,0,.08,3.52.39,7.04c1.21,13.85.1,27.8,1.66,41.63.33,2.94-1.34,4.6-3.41,5,.66,15.4,1.03,30.8.48,46.2,1.11.85,1.88,2.23,1.88,4.13v1.89c.22.96.22,1.99,0,2.95v10.86c0,1.38-.4,2.47-1.04,3.3.32,4.32.35,8.67.35,12.98,0,1.2-.31,2.18-.81,2.97.27,3.68.51,7.36.46,11.06-.14,10.83.31,21.68,0,32.51,7.67,1.77,13.65,2.83,16.96,3.42,108.77,19.18,154.45-49.58,304-79.67,121.56-24.46,122.77,14.66,297.27,0,187.31-15.73,190.61-61.19,321.95-59.52,54.66.7,95.34,10.92,103.98,13.2,57.14,15.05,51.75,27.99,121.22,48.37,26.52,7.78,56.91,14.58,92.52,17.14,0,0,15.45,1.11,31.17,1.07,92.16-.23,505.02-123.97,630.32-79.87-.88-5.59-.73-11.39-.32-17.2Z"/><path class="cls-11" d="m1921.3,932.75c-.32-8.74-.59-17.48-.8-26.21-4.07-46.67-5.42-93.49-5.86-140.33-81.54-3.41-166.75-4.63-216.19,6.4-120.36,26.84-254.56,31.86-447.83,15.42-124.47-10.59-112.38,14.83-417.71,26.72-108.63,4.23-92.58.33-212.87,5.14-182.77,7.31-204.26,15.7-271.11,2.06-89.69-18.3-105.21-44.46-164.67-33.91-62.83,11.14-48.2,7.19-123.51,5.14-24.87-.68-42.39-14.12-59.96-18.92-.04,1.76-.2,3.5-.39,5.24,2.14,29.08-1.1,58.3.82,87.41.08,1.21-.22,2.18-.75,2.93.02.17.03.34.03.51v4.39c0,.4-.06.78-.15,1.14.09.39.15.8.15,1.26v33.22c.42,4.49.82,8.98,1.2,13.48.11,1.3-.21,2.33-.8,3.1,0,13.34-.03,26.67-.4,40.01-.03,1.15-.38,2.09-.93,2.83.71,11.47,1.2,22.94,1.23,34.45,0,1.29-.37,2.32-.98,3.1-1.97,23.55-.9,47.16-.07,70.75,5.39.33,10.78.68,16.16,1.05.71-1.51,2.14-2.66,4.32-2.66,101.84,0,203.68-1.02,305.51-2.04,179.81-1.8,359.66-3.6,539.46.21,59.97,1.27,120.05,2.63,180.01,5.67.42-2.06,1.99-3.84,4.71-3.84,71.85,0,143.7-.69,215.55-1.55,127.08-1.52,254.16-3.59,381.25-3.24,62.55.17,125.13.68,187.67,1.77,28.37.5,56.73,1.15,85.1,1.72.49-11.16,1.51-22.3,2.55-33.44-.06-15.84-.13-31.67-.24-47.51-.14-20.48-.32-40.96-.51-61.44Z"/></g><g id="Layer_9"><polygon class="cls-3" points="98.57 363.81 96.34 391.12 69.14 385.32 76.76 407.11 56.65 412.68 83.49 430.21 109.6 429.06 123.06 433.9 138.33 467.97 142.91 466.7 128.23 432.2 135.19 419.26 157.1 386.09 136.76 390.89 131.83 368.55 114.33 386.95 98.57 363.81"/><polygon class="cls-3" points="272.73 242.32 251.12 261.8 234.67 241.66 224.58 262.63 205.23 255.24 212.86 284.1 233.55 298.33 240.27 309.79 227.04 344.53 231.45 346.21 245.43 311.49 260.16 305.68 301 293.12 282.03 285 294.56 265.16 267.84 269.03 272.73 242.32"/><polygon class="cls-3" points="99.34 143.4 97.11 170.72 69.91 164.91 77.53 186.7 57.42 192.27 84.27 209.81 110.37 208.65 123.83 213.49 139.1 247.56 143.68 246.29 129 211.79 135.96 198.86 157.87 165.69 137.53 170.48 132.6 148.14 115.1 166.54 99.34 143.4"/><polygon class="cls-3" points="106.66 589.02 104.43 616.34 77.23 610.53 84.85 632.32 64.75 637.89 91.59 655.43 117.69 654.27 131.16 659.11 146.42 693.18 151 691.91 136.32 657.41 143.28 644.48 165.2 611.31 144.85 616.1 139.92 593.76 122.42 612.16 106.66 589.02"/><polygon class="cls-3" points="117.08 871.84 114.86 899.16 87.66 893.35 95.27 915.14 75.17 920.71 102.01 938.25 128.12 937.09 141.58 941.93 156.85 976 161.43 974.73 146.74 940.24 153.71 927.3 175.62 894.13 155.28 898.92 150.34 876.59 132.84 894.99 117.08 871.84"/><polygon class="cls-3" points="1716.87 340.75 1714.94 367.49 1691.27 361.81 1697.9 383.14 1680.41 388.6 1703.76 405.76 1726.48 404.63 1738.19 409.36 1751.47 442.71 1755.45 441.47 1742.68 407.7 1748.74 395.04 1767.8 362.57 1750.11 367.26 1745.81 345.4 1730.58 363.41 1716.87 340.75"/><polygon class="cls-3" points="1868.4 221.83 1849.61 240.91 1835.29 221.19 1826.51 241.72 1809.67 234.49 1816.31 262.74 1834.32 276.66 1840.16 287.88 1828.66 321.89 1832.49 323.53 1844.65 289.54 1857.46 283.85 1893 271.57 1876.5 263.62 1887.4 244.2 1864.15 247.98 1868.4 221.83"/><polygon class="cls-3" points="1717.55 125.01 1715.61 151.75 1691.94 146.06 1698.57 167.39 1681.08 172.85 1704.43 190.01 1727.15 188.88 1738.86 193.61 1752.14 226.96 1756.13 225.72 1743.35 191.96 1749.41 179.29 1768.47 146.82 1750.78 151.52 1746.48 129.65 1731.25 147.66 1717.55 125.01"/><polygon class="cls-3" points="1723.91 561.2 1721.98 587.94 1698.31 582.26 1704.94 603.59 1687.45 609.04 1710.8 626.21 1733.52 625.08 1745.23 629.81 1758.51 663.16 1762.49 661.92 1749.72 628.15 1755.78 615.49 1774.84 583.02 1757.15 587.71 1752.85 565.85 1737.62 583.86 1723.91 561.2"/><polygon class="cls-3" points="1860.26 468.26 1841.46 487.34 1827.14 467.61 1818.36 488.15 1801.52 480.91 1808.17 509.16 1826.17 523.08 1832.01 534.31 1820.51 568.31 1824.34 569.96 1836.5 535.97 1849.32 530.28 1884.85 517.99 1868.35 510.04 1879.25 490.62 1856 494.41 1860.26 468.26"/><polygon class="cls-3" points="1860.26 702.32 1841.46 721.39 1827.14 701.67 1818.36 722.2 1801.52 714.97 1808.17 743.22 1826.17 757.14 1832.01 768.36 1820.51 802.37 1824.34 804.02 1836.5 770.02 1849.32 764.34 1884.85 752.05 1868.35 744.1 1879.25 724.68 1856 728.47 1860.26 702.32"/><polygon class="cls-3" points="263.36 494.07 241.76 513.56 225.31 493.41 215.21 514.38 195.86 506.99 203.5 535.85 224.19 550.08 230.9 561.54 217.68 596.28 222.09 597.96 236.06 563.24 250.79 557.43 291.64 544.87 272.67 536.76 285.2 516.91 258.48 520.78 263.36 494.07"/><polygon class="cls-3" points="263.36 733.18 241.76 752.67 225.31 732.52 215.21 753.5 195.86 746.11 203.5 774.97 224.19 789.19 230.9 800.65 217.68 835.4 222.09 837.08 236.06 802.35 250.79 796.54 291.64 783.99 272.67 775.87 285.2 756.03 258.48 759.9 263.36 733.18"/></g><g id="Layer_7"><path class="cls-11" d="m84.5,107.09h0c.46-.3,29.12-29.7,59-34.38,37.8-5.91,54.78,31.31,91,25.15,25.15-4.28,21.48-23,53-33.54,33.61-11.24,80.88-4.36,102,17.61,11.68,12.14,8.63,21.9,19,25.15,19.13,6.01,34.39-25.63,69-27.67,26.94-1.59,52.29,15.54,65,31.86,4.25,5.45,14.65,18.81,13,36.05-2.8,29.31-38.99,55.09-72,56.18-35.48,1.17-42.04-27.01-81-27.67-36.46-.61-42.24,23.87-80,22.64-34.1-1.12-41.53-21.49-72-18.45-25.6,2.55-27.06,17.6-54,25.15-41.74,11.7-100.74-6.88-115-36.05-11.65-23.84,3-62.04,3-62.05Z"/><path class="cls-11" d="m280.88,162.99h0c.46-.3,29.12-29.7,59-34.38,37.8-5.91,54.78,31.31,91,25.15,25.15-4.28,21.48-23,53-33.54,33.61-11.24,80.88-4.36,102,17.61,11.68,12.14,8.63,21.9,19,25.15,19.13,6.01,34.39-25.63,69-27.67,26.94-1.59,52.29,15.54,65,31.86,4.25,5.45,14.65,18.81,13,36.05-2.8,29.31-38.99,55.09-72,56.18-35.48,1.17-42.04-27.01-81-27.67-36.46-.61-42.24,23.87-80,22.64-34.1-1.12-41.53-21.49-72-18.45-25.6,2.55-27.06,17.6-54,25.15-41.74,11.7-100.74-6.88-115-36.05-11.65-23.84,3-62.04,3-62.05Z"/><path class="cls-9" d="m76.82,124.64c2.22-16.45,11.42-30.77,22.9-40.34,11.48-9.57,25.1-14.87,38.78-18.51,15.73-4.19,33.12-6.07,47.16,3.33,5.89,3.95,10.82,9.66,16.58,13.86,12.41,9.04,28.6,10.29,41.89,3.22,10.67-5.68,19.09-16.05,29.34-22.74,13.6-8.87,29.57-10.74,45.06-11.86,17.8-1.28,36.81-1.45,52.01,9.63,11.85,8.64,20.22,23.4,32.89,30.2,17.62,9.46,38.07,1.09,55.97-7.59s37.94-17.74,55.97-9.45c11.1,5.1,19.44,16.04,27.35,26.6,12.88,17.21,26.7,38.28,22.52,60.77-15.46-5.17-31.41-8.26-47.45-9.2-12.69-.74-25.42-.14-38.12-.42-31.66-.71-63.02-6.92-94.53-10.65-82.53-9.78-165.74-2.53-248.47,4.52-22.74,1.94-48.87,2.36-64.3-17.58"/><path class="cls-2" d="m283.11,173.65c2.15-15.34,11.04-28.69,22.14-37.61,11.1-8.92,24.26-13.87,37.49-17.26,15.2-3.9,32.01-5.66,45.59,3.1,5.7,3.68,10.46,9.01,16.03,12.92,12,8.43,27.65,9.59,40.5,3,10.32-5.29,18.45-14.96,28.36-21.2,13.15-8.27,28.59-10.02,43.56-11.06,17.21-1.2,35.58-1.35,50.28,8.98,11.46,8.06,19.54,21.81,31.79,28.16,17.03,8.82,36.8,1.01,54.1-7.08s36.68-16.54,54.11-8.81c10.73,4.76,18.79,14.95,26.44,24.8,12.46,16.04,25.81,35.68,21.77,56.65-14.94-4.82-30.36-7.7-45.87-8.57-12.27-.69-24.57-.13-36.85-.39-30.6-.66-60.92-6.45-91.38-9.93-79.78-9.11-160.22-2.36-240.2,4.21-21.99,1.81-47.24,2.2-62.16-16.39"/><path class="cls-11" d="m1874.5,92.34h0c-.44-.22-28.05-22.29-56.85-25.8-36.42-4.44-52.78,23.5-87.68,18.88-24.23-3.21-20.7-17.26-51.06-25.17-32.38-8.44-77.92-3.27-98.27,13.21-11.25,9.11-8.32,16.43-18.31,18.88-18.43,4.51-33.14-19.23-66.48-20.77-25.96-1.19-50.38,11.66-62.63,23.91-4.09,4.09-14.11,14.12-12.53,27.06,2.69,22,37.57,41.34,69.37,42.16,34.18.88,40.51-20.27,78.04-20.77,35.12-.46,40.7,17.92,77.08,16.99,32.85-.84,40.02-16.12,69.37-13.84,24.66,1.92,26.07,13.21,52.03,18.88,40.22,8.78,97.06-5.17,110.8-27.06,11.23-17.89-2.89-46.56-2.89-46.56Z"/><path class="cls-11" d="m1685.29,134.3h0c-.44-.22-28.05-22.29-56.85-25.8-36.42-4.44-52.78,23.5-87.68,18.88-24.23-3.21-20.7-17.26-51.06-25.17-32.38-8.44-77.92-3.27-98.27,13.21-11.25,9.11-8.32,16.43-18.31,18.88-18.43,4.51-33.14-19.23-66.48-20.77-25.96-1.19-50.38,11.66-62.63,23.91-4.09,4.09-14.11,14.12-12.53,27.06,2.69,22,37.57,41.34,69.37,42.16,34.18.88,40.51-20.27,78.04-20.77,35.12-.46,40.7,17.92,77.08,16.99,32.85-.84,40.02-16.12,69.37-13.84,24.66,1.92,26.07,13.21,52.03,18.88,40.22,8.78,97.06-5.17,110.8-27.06,11.23-17.89-2.89-46.56-2.89-46.56Z"/><path class="cls-9" d="m1884.54,100.26c-2.14-12.35-11.01-23.09-22.07-30.28-11.06-7.18-24.18-11.16-37.37-13.9-15.15-3.14-31.91-4.56-45.44,2.5-5.68,2.96-10.42,7.25-15.98,10.4-11.96,6.79-27.56,7.72-40.36,2.42-10.28-4.26-18.39-12.05-28.27-17.06-13.1-6.66-28.49-8.06-43.41-8.9-17.15-.96-35.46-1.09-50.11,7.23-11.42,6.49-19.48,17.56-31.68,22.67-16.98,7.1-36.67.82-53.92-5.7-17.25-6.52-36.56-13.32-53.93-7.09-10.69,3.83-18.73,12.03-26.35,19.96-12.41,12.91-25.72,28.73-21.7,45.6,14.89-3.88,30.26-6.2,45.72-6.9,12.23-.56,24.49-.1,36.73-.31,30.5-.53,60.72-5.19,91.07-7.99,79.52-7.34,159.69-1.9,239.4,3.39,21.91,1.45,47.08,1.77,61.95-13.2"/><path class="cls-2" d="m1679.62,133.3c-2.07-11.51-10.64-21.53-21.33-28.23-10.69-6.7-23.38-10.41-36.12-12.95-14.65-2.93-30.85-4.25-43.92,2.33-5.49,2.76-10.08,6.76-15.45,9.7-11.56,6.33-26.64,7.2-39.02,2.25-9.94-3.97-17.78-11.23-27.32-15.91-12.67-6.21-27.54-7.52-41.97-8.3-16.58-.9-34.28-1.02-48.44,6.74-11.04,6.05-18.83,16.37-30.63,21.13-16.41,6.62-35.45.76-52.13-5.31-16.67-6.07-35.34-12.41-52.13-6.61-10.34,3.57-18.11,11.22-25.48,18.61-12,12.04-24.86,26.78-20.97,42.52,14.4-3.62,29.25-5.78,44.19-6.43,11.82-.52,23.67-.09,35.51-.29,29.48-.49,58.7-4.84,88.04-7.45,76.87-6.84,154.37-1.77,231.42,3.16,21.18,1.35,45.52,1.65,59.89-12.3"/></g><g id="Layer_8"><line class="cls-8" x1="1313" y1="265" x2="1316" y2="359"/><line class="cls-8" x1="1512" y1="265" x2="1508" y2="459"/><line class="cls-8" x1="1286" y1="255" x2="1276" y2="508"/><line class="cls-8" x1="1753" y1="196" x2="1756" y2="567"/><line class="cls-1" x1="938" y1="255" x2="933" y2="514"/><line class="cls-8" x1="517" y1="312" x2="518" y2="391"/><line class="cls-8" x1="134" y1="255" x2="141" y2="399"/><line class="cls-8" x1="77" y1="288" x2="84" y2="393"/><line class="cls-8" x1="733.55" y1="434.42" x2="740.55" y2="578.42"/><line class="cls-8" x1="652.55" y1="324.42" x2="659.55" y2="468.42"/><line class="cls-8" x1="888.37" y1="500.95" x2="891.37" y2="594.95"/><line class="cls-8" x1="1026.37" y1="658.95" x2="1029.37" y2="752.95"/><line class="cls-8" x1="777.37" y1="674.95" x2="780.37" y2="768.95"/><line class="cls-8" x1="333.89" y1="546.8" x2="340.89" y2="690.8"/><line class="cls-8" x1="208.89" y1="677.8" x2="215.89" y2="821.8"/><line class="cls-8" x1="114.89" y1="763.8" x2="121.89" y2="907.8"/><line class="cls-8" x1="972.52" y1="163.09" x2="975.52" y2="257.09"/><line class="cls-8" x1="866.52" y1="169.09" x2="869.52" y2="263.09"/></g></svg>