<?xml version="1.0" encoding="UTF-8"?><svg id="Layer_2" xmlns="http://www.w3.org/2000/svg" viewBox="0 0 258.58 233.38"><defs><style>.cls-1{fill:none;stroke:#000;stroke-miterlimit:10;stroke-width:.2px;}.cls-2,.cls-3,.cls-4,.cls-5,.cls-6,.cls-7{stroke-width:0px;}.cls-3{fill:#b2b2b2;}.cls-4{fill:#666;}.cls-5{fill:#fff;}.cls-6{fill:#f6921e;}.cls-7{fill:#ffd077;}</style></defs><g id="havmåge_efterår"><g id="ben_copy_2"><rect class="cls-6" x="90.9" y="180.33" width="5" height="24"/><rect class="cls-6" x="106.9" y="180.33" width="5" height="24"/></g><path id="næb" class="cls-6" d="m33.4,37.83s5,6,4,13L.4,51.83s-2-5,3-8l18.03-.82c2.6-.12,5.12-.91,7.32-2.31l4.65-2.87Z"/><path id="krop" class="cls-5" d="m32.4,37.4c0-.83-.04-1.65-.11-2.48-.31-4.1.23-20.84,29.11-26.09,28.3-5.14,32.33,33.09,32.9,44.09.19,3.72,1.02,7.39,2.61,10.76,4.37,9.26,16.15,24.15,47.48,30.15,13.81,2.64,25.72,7.27,35.65,12.49,20.54,10.79,20.78,40.25.49,51.5-14.01,7.77-30.66,15.58-47.14,20.01-41,11-78,2-99-28,0,0-18.77-28.15-3.58-72.64,1.02-2.98,1.58-6.09,1.58-9.24v-30.55Z"/><path id="sort_på_vinge" class="cls-2" d="m219.4,127.83l38,22s7,2-13,11c0,0-77-9-85-14s5-21,5-21l55,2Z"/><g id="grå_vinge_copy_2"><path class="cls-3" d="m99.5,119.21c.93-5.02,9.36-38.37,66.3-21.85,1.07.31,2.12.71,3.14,1.19,8.78,4.09,50.74,27.69,67.39,37.3,3.25,1.87,3.42,4.94.21,6.58-6.89,3.51-21.06,14.98-61.14,16.41-55.63,1.99-73.76-10.83-75.96-38.45-.03-.39-.01-.78.06-1.17Z"/></g><g id="_øje_copy_2"><circle class="cls-2" cx="63.4" cy="30.83" r="4.5"/><circle class="cls-5" cx="64.9" cy="29.33" r="2"/></g><path class="cls-7" d="m52.9,10.33s36,8,36,34-58.08,32.86-58.08,32.86c0,0-27.03,73.1,31.52,96.12s78.57-79.92,78.57-79.92c0,0-25.91-6.73-33.97-16.39s-11.45-16.27-13.25-29.47,7.2-28.2-8.8-42.2-38,4-38,4"/><path class="cls-7" d="m130.7,89.91s11.82-.01,27.19,4.42c4.55,1.31,9.32,3.43,11,4,7.69,2.63,20.02,8.85,38.04,20.38-.07,3.94-.64,9.41-1.58,15.91-1.23,8.46-3.35,17.95-6.89,22.04-7.07,8.18-82.07,1.18-87.07-5.82s-30.38-41.84,19.31-60.92Z"/><g id="gummistøvler"><path class="cls-4" d="m66.15,219.27l.25,1.56s5,5,27,1v1h4l-.32-2.68-30.93-.88Z"/><path class="cls-7" d="m87.4,189.83s2,14,3,17-20,1-20,1c0,0-7,2-5,10s31.68,2.32,31.68,2.32l2.32-31.32s-7,2-12,1Z"/><circle class="cls-5" cx="93.4" cy="207.83" r=".5"/><circle class="cls-5" cx="90.4" cy="191.83" r=".5"/><circle class="cls-5" cx="86.4" cy="210.83" r=".5"/><circle class="cls-5" cx="94.4" cy="214.83" r=".5"/><circle class="cls-5" cx="87.4" cy="219.83" r=".5"/><circle class="cls-5" cx="82.4" cy="214.83" r=".5"/><circle class="cls-5" cx="76.4" cy="210.83" r=".5"/><circle class="cls-5" cx="76.4" cy="218.83" r=".5"/><circle class="cls-5" cx="70.4" cy="208.83" r=".5"/><circle class="cls-5" cx="69.4" cy="214.83" r=".5"/><circle class="cls-5" cx="92.4" cy="200.83" r=".5"/><circle class="cls-5" cx="96.4" cy="203.83" r=".5"/><circle class="cls-5" cx="96.4" cy="197.83" r=".5"/><circle class="cls-5" cx="90.4" cy="196.83" r=".5"/><circle class="cls-5" cx="96.4" cy="192.83" r=".5"/><path class="cls-4" d="m81.15,229.27l.25,1.56s5,5,27,1v1h4l-.32-2.68-30.93-.88Z"/><path class="cls-7" d="m102.4,199.83s2,14,3,17-20,1-20,1c0,0-7,2-5,10s31.68,2.32,31.68,2.32l2.32-31.32s-7,2-12,1Z"/><circle class="cls-5" cx="108.4" cy="217.83" r=".5"/><circle class="cls-5" cx="105.4" cy="201.83" r=".5"/><circle class="cls-5" cx="101.4" cy="220.83" r=".5"/><circle class="cls-5" cx="109.4" cy="224.83" r=".5"/><circle class="cls-5" cx="102.4" cy="229.83" r=".5"/><circle class="cls-5" cx="97.4" cy="224.83" r=".5"/><circle class="cls-5" cx="91.4" cy="220.83" r=".5"/><circle class="cls-5" cx="91.4" cy="228.83" r=".5"/><circle class="cls-5" cx="85.4" cy="218.83" r=".5"/><circle class="cls-5" cx="84.4" cy="224.83" r=".5"/><circle class="cls-5" cx="107.4" cy="210.83" r=".5"/><circle class="cls-5" cx="111.4" cy="213.83" r=".5"/><circle class="cls-5" cx="111.4" cy="207.83" r=".5"/><circle class="cls-5" cx="105.4" cy="206.83" r=".5"/><circle class="cls-5" cx="111.4" cy="202.83" r=".5"/></g><path class="cls-1" d="m115.75,153.06s-42.24-41.57,14.95-63.15"/></g></svg>