<?xml version="1.0" encoding="UTF-8"?><svg id="Layer_2" xmlns="http://www.w3.org/2000/svg" viewBox="0 0 264.92 228.77"><defs><style>.cls-1{fill:none;stroke:#006837;stroke-miterlimit:10;}.cls-2,.cls-3,.cls-4,.cls-5,.cls-6,.cls-7,.cls-8{stroke-width:0px;}.cls-3{fill:#b2b2b2;}.cls-4{fill:#a865b5;}.cls-5{fill:#ff8484;}.cls-6{fill:#fff;}.cls-7{fill:#f6921e;}.cls-8{fill:#ffd077;}</style></defs><g id="havmåge_forår"><path class="cls-1" d="m22.75,40.49c-9.34,4.8-13.83,14.66-10.04,22.03"/><path class="cls-1" d="m19.49,35.17c-3.2,10,.6,20.14,8.49,22.67"/><path class="cls-4" d="m10.82,56.22c0,1.5-.86,2.82-1.45,3.54-.27.33-.78.33-1.05,0-.59-.72-1.45-2.03-1.45-3.54s.86-2.82,1.45-3.54c.27-.33.78-.33,1.05,0,.59.72,1.45,2.03,1.45,3.54Z"/><path class="cls-4" d="m7.01,56.22c.97,1.15,1.15,2.71,1.16,3.64,0,.43-.38.76-.81.68-.91-.17-2.42-.63-3.38-1.78s-1.15-2.71-1.16-3.64c0-.43.38-.76.81-.68.91.17,2.42.63,3.38,1.78Z"/><path class="cls-4" d="m4.08,58.67c1.48.26,2.62,1.34,3.23,2.04.28.33.19.83-.18,1.04-.81.45-2.25,1.07-3.73.81s-2.62-1.34-3.23-2.04c-.28-.33-.19-.83.18-1.04.81-.45,2.25-1.07,3.73-.81Z"/><path class="cls-4" d="m3.42,62.43c1.3-.75,2.87-.66,3.79-.51.43.07.68.51.53.91-.33.87-1.04,2.27-2.34,3.02s-2.87.66-3.79.51c-.43-.07-.68-.51-.53-.91.33-.87,1.04-2.27,2.34-3.02Z"/><path class="cls-4" d="m5.32,65.73c.51-1.41,1.78-2.35,2.57-2.83.37-.22.85-.05.99.36.3.87.67,2.41.15,3.82s-1.78,2.35-2.57,2.83c-.37.22-.85.05-.99-.36-.3-.87-.67-2.41-.15-3.82Z"/><path class="cls-4" d="m8.91,67.04c-.51-1.41-.15-2.94.15-3.82.14-.41.62-.58.99-.36.8.47,2.06,1.41,2.57,2.83s.15,2.94-.15,3.82c-.14.41-.62.58-.99.36-.8-.47-2.06-1.41-2.57-2.83Z"/><path class="cls-4" d="m12.49,65.74c-1.3-.75-2.01-2.16-2.34-3.02-.15-.4.1-.84.53-.91.91-.15,2.49-.24,3.79.51s2.01,2.16,2.34,3.02c.15.4-.1.84-.53.91-.91.15-2.49.24-3.79-.51Z"/><path class="cls-4" d="m14.4,62.44c-1.48.26-2.93-.36-3.73-.81-.38-.21-.47-.71-.18-1.04.61-.7,1.75-1.78,3.23-2.04,1.48-.26,2.93.36,3.73.81.38.21.47.71.18,1.04-.61.7-1.75,1.78-3.23,2.04Z"/><path class="cls-4" d="m13.74,58.68c-.97,1.15-2.47,1.6-3.38,1.78-.42.08-.81-.24-.81-.68.01-.93.2-2.49,1.16-3.64s2.47-1.6,3.38-1.78c.42-.08.81.24.81.68-.01.93-.2,2.49-1.16,3.64Z"/><circle class="cls-8" cx="8.91" cy="61.46" r="2.04"/><path class="cls-5" d="m28.26,52.39c0,1.5-.86,2.82-1.45,3.54-.27.33-.78.33-1.05,0-.59-.72-1.45-2.03-1.45-3.54s.86-2.82,1.45-3.54c.27-.33.78-.33,1.05,0,.59.72,1.45,2.03,1.45,3.54Z"/><path class="cls-5" d="m24.44,52.39c.97,1.15,1.15,2.71,1.16,3.64,0,.43-.38.76-.81.68-.91-.17-2.42-.63-3.38-1.78s-1.15-2.71-1.16-3.64c0-.43.38-.76.81-.68.91.17,2.42.63,3.38,1.78Z"/><path class="cls-5" d="m21.52,54.84c1.48.26,2.62,1.34,3.23,2.04.28.33.19.83-.18,1.04-.81.45-2.25,1.07-3.73.81s-2.62-1.34-3.23-2.04c-.28-.33-.19-.83.18-1.04.81-.45,2.25-1.07,3.73-.81Z"/><path class="cls-5" d="m20.85,58.59c1.3-.75,2.87-.66,3.79-.51.43.07.68.51.53.91-.33.87-1.04,2.27-2.34,3.02s-2.87.66-3.79.51c-.43-.07-.68-.51-.53-.91.33-.87,1.04-2.27,2.34-3.02Z"/><path class="cls-5" d="m22.76,61.9c.51-1.41,1.78-2.35,2.57-2.83.37-.22.85-.05.99.36.3.87.67,2.41.15,3.82s-1.78,2.35-2.57,2.83c-.37.22-.85.05-.99-.36-.3-.87-.67-2.41-.15-3.82Z"/><path class="cls-5" d="m26.34,63.21c-.51-1.41-.15-2.94.15-3.82.14-.41.62-.58.99-.36.8.47,2.06,1.41,2.57,2.83s.15,2.94-.15,3.82c-.14.41-.62.58-.99.36-.8-.47-2.06-1.41-2.57-2.83Z"/><path class="cls-5" d="m29.93,61.9c-1.3-.75-2.01-2.16-2.34-3.02-.15-.4.1-.84.53-.91.91-.15,2.49-.24,3.79.51s2.01,2.16,2.34,3.02c.15.4-.1.84-.53.91-.91.15-2.49.24-3.79-.51Z"/><path class="cls-5" d="m31.84,58.6c-1.48.26-2.93-.36-3.73-.81-.38-.21-.47-.71-.18-1.04.61-.7,1.75-1.78,3.23-2.04,1.48-.26,2.93.36,3.73.81.38.21.47.71.18,1.04-.61.7-1.75,1.78-3.23,2.04Z"/><path class="cls-5" d="m31.18,54.84c-.97,1.15-2.47,1.6-3.38,1.78-.42.08-.81-.24-.81-.68.01-.93.2-2.49,1.16-3.64s2.47-1.6,3.38-1.78c.42-.08.81.24.81.68-.01.93-.2,2.49-1.16,3.64Z"/><circle class="cls-8" cx="26.34" cy="57.63" r="2.04"/><g id="ben_copy_3"><path class="cls-7" d="m96.73,172.76l-.32,30.74s-10-3-21-2c0,0-3,9,0,13,0,0,14,2,26-5l1-37-5.68.26Z"/><path class="cls-7" d="m113.73,173.34l-.32,40.56s-10-3.96-21-2.64c0,0-3,11.87,0,17.15,0,0,14,2.64,26-6.6l1-48.82-5.68.34Z"/></g><path id="næb" class="cls-7" d="m39.73,29.5s5,6,4,13l-37,1s-2-5,3-8l18.03-.82c2.6-.12,5.12-.91,7.32-2.31l4.65-2.87Z"/><path id="krop" class="cls-6" d="m38.73,29.07c0-.83-.04-1.65-.11-2.48-.31-4.1.23-20.84,29.11-26.09,28.3-5.14,32.33,33.09,32.9,44.09.19,3.72,1.02,7.39,2.61,10.76,4.37,9.26,16.15,24.15,47.48,30.15,13.81,2.64,25.72,7.27,35.65,12.49,20.54,10.79,20.78,40.25.49,51.5-14.01,7.77-30.66,15.58-47.14,20.01-41,11-78,2-99-28,0,0-18.77-28.15-3.58-72.64,1.02-2.98,1.58-6.09,1.58-9.24v-30.55Z"/><path id="sort_på_vinge" class="cls-2" d="m225.73,119.5l38,22s7,2-13,11c0,0-77-9-85-14s5-21,5-21l55,2Z"/><g id="grå_vinge_copy_3"><path class="cls-3" d="m105.84,110.88c.93-5.02,9.36-38.37,66.3-21.85,1.07.31,2.12.71,3.14,1.19,8.78,4.09,50.74,27.69,67.39,37.3,3.25,1.87,3.42,4.94.21,6.58-6.89,3.51-21.06,14.98-61.14,16.41-55.63,1.99-73.76-10.83-75.96-38.45-.03-.39-.01-.78.06-1.17Z"/></g><g id="_øje_copy_4"><circle class="cls-2" cx="69.73" cy="22.5" r="4.5"/><circle class="cls-6" cx="71.23" cy="21" r="2"/></g><g id="blomsterkrans"><path class="cls-4" d="m68.34,8.66c-.71.41-1.63.43-2.17.41-.25-.01-.42-.21-.35-.4.14-.42.48-1.11,1.19-1.52s1.63-.43,2.17-.41c.25.01.42.21.35.4-.14.42-.48,1.11-1.19,1.52Z"/><path class="cls-4" d="m67.06,7.19c-.22.68-.9,1.18-1.34,1.44-.2.12-.49.06-.59-.13-.22-.4-.52-1.1-.29-1.78s.9-1.18,1.34-1.44c.2-.12.49-.06.59.13.22.4.52,1.1.29,1.78Z"/><path class="cls-4" d="m64.91,6.74c.37.64.25,1.37.12,1.8-.06.2-.33.3-.55.21-.49-.19-1.27-.57-1.64-1.21s-.25-1.37-.12-1.8c.06-.2.33-.3.55-.21.49.19,1.27.57,1.64,1.21Z"/><path class="cls-4" d="m62.9,7.51c.79.3,1.28.92,1.52,1.31.11.18-.01.4-.26.45-.52.11-1.43.22-2.22-.08s-1.28-.92-1.52-1.31c-.11-.18.01-.4.26-.45.52-.11,1.43-.22,2.22.08Z"/><path class="cls-4" d="m61.98,9.14c.84-.19,1.71.04,2.21.22.23.08.31.31.16.48-.31.35-.92.91-1.76,1.1s-1.71-.04-2.21-.22c-.23-.08-.31-.31-.16-.48.31-.35.92-.91,1.76-1.1Z"/><path class="cls-4" d="m62.56,10.87c.5-.58,1.35-.86,1.86-.98.24-.06.48.08.5.28.04.43.02,1.17-.48,1.76s-1.35.86-1.86.98c-.24.06-.48-.08-.5-.28-.04-.43-.02-1.17.48-1.76Z"/><path class="cls-4" d="m64.39,11.89c-.08-.7.35-1.36.65-1.72.14-.17.43-.19.61-.05.38.31.95.89,1.03,1.59s-.35,1.36-.65,1.72c-.14.17-.43.19-.61.05-.38-.31-.95-.89-1.03-1.59Z"/><path class="cls-4" d="m66.6,11.73c-.62-.5-.81-1.22-.87-1.65-.03-.2.18-.37.43-.35.54.04,1.43.19,2.06.69s.81,1.22.87,1.65c.03.2-.18.37-.43.35-.54-.04-1.43-.19-2.06-.69Z"/><path class="cls-4" d="m68.16,10.45c-.87-.06-1.59-.51-1.98-.82-.18-.14-.16-.38.05-.49.44-.25,1.25-.6,2.12-.54s1.59.51,1.98.82c.18.14.16.38-.05.49-.44.25-1.25.6-2.12.54Z"/><ellipse class="cls-8" cx="65.21" cy="9.35" rx="1.19" ry=".96"/><path class="cls-4" d="m101.13,14.69c-.71.41-1.63.43-2.17.41-.25-.01-.42-.21-.35-.4.14-.42.48-1.11,1.19-1.52s1.63-.43,2.17-.41c.25.01.42.21.35.4-.14.42-.48,1.11-1.19,1.52Z"/><path class="cls-4" d="m99.84,13.23c-.22.68-.9,1.18-1.34,1.44-.2.12-.49.06-.59-.13-.22-.4-.52-1.1-.29-1.78s.9-1.18,1.34-1.44c.2-.12.49-.06.59.13.22.4.52,1.1.29,1.78Z"/><path class="cls-4" d="m97.7,12.77c.37.64.25,1.37.12,1.8-.06.2-.33.3-.55.21-.49-.19-1.27-.57-1.64-1.21s-.25-1.37-.12-1.8c.06-.2.33-.3.55-.21.49.19,1.27.57,1.64,1.21Z"/><path class="cls-4" d="m95.69,13.54c.79.3,1.28.92,1.52,1.31.11.18-.01.4-.26.45-.52.11-1.43.22-2.22-.08s-1.28-.92-1.52-1.31c-.11-.18.01-.4.26-.45.52-.11,1.43-.22,2.22.08Z"/><path class="cls-4" d="m94.76,15.17c.84-.19,1.71.04,2.21.22.23.08.31.31.16.48-.31.35-.92.91-1.76,1.1s-1.71-.04-2.21-.22c-.23-.08-.31-.31-.16-.48.31-.35.92-.91,1.76-1.1Z"/><path class="cls-4" d="m95.35,16.9c.5-.58,1.35-.86,1.86-.98.24-.06.48.08.5.28.04.43.02,1.17-.48,1.76s-1.35.86-1.86.98c-.24.06-.48-.08-.5-.28-.04-.43-.02-1.17.48-1.76Z"/><path class="cls-4" d="m97.17,17.92c-.08-.7.35-1.36.65-1.72.14-.17.43-.19.61-.05.38.31.95.89,1.03,1.59s-.35,1.36-.65,1.72c-.14.17-.43.19-.61.05-.38-.31-.95-.89-1.03-1.59Z"/><path class="cls-4" d="m99.38,17.76c-.62-.5-.81-1.22-.87-1.65-.03-.2.18-.37.43-.35.54.04,1.43.19,2.06.69s.81,1.22.87,1.65c.03.2-.18.37-.43.35-.54-.04-1.43-.19-2.06-.69Z"/><path class="cls-4" d="m100.94,16.48c-.87-.06-1.59-.51-1.98-.82-.18-.14-.16-.38.05-.49.44-.25,1.25-.6,2.12-.54s1.59.51,1.98.82c.18.14.16.38-.05.49-.44.25-1.25.6-2.12.54Z"/><ellipse class="cls-8" cx="97.99" cy="15.39" rx="1.19" ry=".96"/><path class="cls-4" d="m52.69,2.34c0,.93-.66,1.74-1.1,2.18-.21.21-.59.21-.8,0-.45-.44-1.1-1.25-1.1-2.18s.66-1.74,1.1-2.18c.21-.21.59-.21.8,0,.45.44,1.1,1.25,1.1,2.18Z"/><path class="cls-4" d="m49.78,2.33c.74.71.88,1.67.89,2.24,0,.27-.29.47-.61.42-.69-.11-1.84-.39-2.58-1.1s-.88-1.67-.89-2.24c0-.27.29-.47.61-.42.69.11,1.84.39,2.58,1.1Z"/><path class="cls-4" d="m47.55,3.85c1.13.16,2,.83,2.46,1.26.22.2.15.51-.14.64-.62.28-1.72.66-2.85.5s-2-.83-2.46-1.26c-.22-.2-.15-.51.14-.64.62-.28,1.72-.66,2.85-.5Z"/><path class="cls-4" d="m47.04,6.16c.99-.46,2.19-.41,2.89-.32.33.04.52.31.4.56-.25.53-.79,1.4-1.78,1.86s-2.19.41-2.89.32c-.33-.04-.52-.31-.4-.56.25-.53.79-1.4,1.78-1.86Z"/><path class="cls-4" d="m48.49,8.2c.39-.87,1.35-1.45,1.96-1.74.28-.14.65-.03.75.22.23.54.51,1.48.12,2.35s-1.35,1.45-1.96,1.74c-.28.14-.65.03-.75-.22-.23-.54-.51-1.48-.12-2.35Z"/><path class="cls-4" d="m51.23,9.01c-.39-.87-.12-1.82.12-2.35.11-.25.47-.36.75-.22.61.29,1.57.87,1.96,1.74s.12,1.82-.12,2.35c-.11.25-.47.36-.75.22-.61-.29-1.57-.87-1.96-1.74Z"/><path class="cls-4" d="m53.96,8.2c-.99-.46-1.53-1.33-1.78-1.86-.12-.25.08-.52.4-.56.7-.09,1.89-.15,2.89.32s1.53,1.33,1.78,1.86c.12.25-.08.52-.4.56-.7.09-1.89.15-2.89-.32Z"/><path class="cls-4" d="m55.42,6.17c-1.13.16-2.23-.22-2.85-.5-.29-.13-.35-.44-.14-.64.46-.43,1.33-1.1,2.46-1.26s2.23.22,2.85.5c.29.13.35.44.14.64-.46.43-1.33,1.1-2.46,1.26Z"/><path class="cls-4" d="m54.91,3.85c-.74.71-1.89.99-2.58,1.1-.32.05-.62-.15-.61-.42.01-.57.15-1.53.89-2.24s1.89-.99,2.58-1.1c.32-.05.62.15.61.42-.01.57-.15,1.53-.89,2.24Z"/><ellipse class="cls-8" cx="51.23" cy="5.57" rx="1.55" ry="1.26"/><path class="cls-4" d="m82.62,9.25c0,.93-.66,1.74-1.1,2.18-.21.21-.59.21-.8,0-.45-.44-1.1-1.25-1.1-2.18s.66-1.74,1.1-2.18c.21-.21.59-.21.8,0,.45.44,1.1,1.25,1.1,2.18Z"/><path class="cls-4" d="m79.71,9.25c.74.71.88,1.67.89,2.24,0,.27-.29.47-.61.42-.69-.11-1.84-.39-2.58-1.1s-.88-1.67-.89-2.24c0-.27.29-.47.61-.42.69.11,1.84.39,2.58,1.1Z"/><path class="cls-4" d="m77.48,10.76c1.13.16,2,.83,2.46,1.26.22.2.15.51-.14.64-.62.28-1.72.66-2.85.5s-2-.83-2.46-1.26c-.22-.2-.15-.51.14-.64.62-.28,1.72-.66,2.85-.5Z"/><path class="cls-4" d="m76.97,13.08c.99-.46,2.19-.41,2.89-.32.33.04.52.31.4.56-.25.53-.79,1.4-1.78,1.86s-2.19.41-2.89.32c-.33-.04-.52-.31-.4-.56.25-.53.79-1.4,1.78-1.86Z"/><path class="cls-4" d="m78.43,15.12c.39-.87,1.35-1.45,1.96-1.74.28-.14.65-.03.75.22.23.54.51,1.48.12,2.35s-1.35,1.45-1.96,1.74c-.28.14-.65.03-.75-.22-.23-.54-.51-1.48-.12-2.35Z"/><path class="cls-4" d="m81.16,15.93c-.39-.87-.12-1.82.12-2.35.11-.25.47-.36.75-.22.61.29,1.57.87,1.96,1.74s.12,1.82-.12,2.35c-.11.25-.47.36-.75.22-.61-.29-1.57-.87-1.96-1.74Z"/><path class="cls-4" d="m83.9,15.12c-.99-.46-1.53-1.33-1.78-1.86-.12-.25.08-.52.4-.56.7-.09,1.89-.15,2.89.32s1.53,1.33,1.78,1.86c.12.25-.08.52-.4.56-.7.09-1.89.15-2.89-.32Z"/><path class="cls-4" d="m85.35,13.09c-1.13.16-2.23-.22-2.85-.5-.29-.13-.35-.44-.14-.64.46-.43,1.33-1.1,2.46-1.26s2.23.22,2.85.5c.29.13.35.44.14.64-.46.43-1.33,1.1-2.46,1.26Z"/><path class="cls-4" d="m84.85,10.77c-.74.71-1.89.99-2.58,1.1-.32.05-.62-.15-.61-.42.01-.57.15-1.53.89-2.24s1.89-.99,2.58-1.1c.32-.05.62.15.61.42-.01.57-.15,1.53-.89,2.24Z"/><ellipse class="cls-8" cx="81.16" cy="12.49" rx="1.55" ry="1.26"/><path class="cls-5" d="m74,8.68c0,.76-.54,1.42-.91,1.79-.17.17-.49.17-.66,0-.37-.36-.91-1.03-.91-1.79s.54-1.42.91-1.79c.17-.17.49-.17.66,0,.37.36.91,1.03.91,1.79Z"/><path class="cls-5" d="m71.62,8.68c.6.58.72,1.37.73,1.84,0,.22-.24.38-.5.34-.57-.09-1.51-.32-2.11-.9s-.72-1.37-.73-1.84c0-.22.24-.38.5-.34.57.09,1.51.32,2.11.9Z"/><path class="cls-5" d="m69.79,9.92c.92.13,1.64.68,2.02,1.03.18.17.12.42-.11.52-.51.23-1.41.54-2.33.41s-1.64-.68-2.02-1.03c-.18-.17-.12-.42.11-.52.51-.23,1.41-.54,2.33-.41Z"/><path class="cls-5" d="m69.38,11.82c.81-.38,1.79-.33,2.37-.26.27.03.42.26.33.46-.21.44-.65,1.15-1.46,1.53s-1.79.33-2.37.26c-.27-.03-.42-.26-.33-.46.21-.44.65-1.15,1.46-1.53Z"/><path class="cls-5" d="m70.57,13.49c.32-.71,1.11-1.19,1.61-1.43.23-.11.53-.02.62.18.19.44.42,1.22.1,1.93s-1.11,1.19-1.61,1.43c-.23.11-.53.02-.62-.18-.19-.44-.42-1.22-.1-1.93Z"/><path class="cls-5" d="m72.81,14.15c-.32-.71-.09-1.49.1-1.93.09-.21.39-.29.62-.18.5.24,1.29.71,1.61,1.43s.09,1.49-.1,1.93c-.09.21-.39.29-.62.18-.5-.24-1.29-.71-1.61-1.43Z"/><path class="cls-5" d="m75.05,13.49c-.81-.38-1.25-1.09-1.46-1.53-.1-.2.06-.43.33-.46.57-.07,1.55-.12,2.37.26s1.25,1.09,1.46,1.53c.1.2-.06.43-.33.46-.57.07-1.55.12-2.37-.26Z"/><path class="cls-5" d="m76.24,11.82c-.92.13-1.83-.18-2.33-.41-.24-.11-.29-.36-.11-.52.38-.35,1.09-.9,2.02-1.03s1.83.18,2.33.41c.24.11.29.36.11.52-.38.35-1.09.9-2.02,1.03Z"/><path class="cls-5" d="m75.83,9.92c-.6.58-1.54.81-2.11.9-.26.04-.51-.12-.5-.34,0-.47.12-1.26.73-1.84s1.54-.81,2.11-.9c.26-.04.51.12.5.34,0,.47-.12,1.26-.73,1.84Z"/><ellipse class="cls-8" cx="72.81" cy="11.33" rx="1.27" ry="1.03"/><path class="cls-5" d="m61.91,5.31c-.52.71-1.48,1.1-2.07,1.27-.28.08-.57-.06-.62-.29-.1-.5-.15-1.37.37-2.08s1.48-1.1,2.07-1.27c.28-.08.57.06.62.29.1.5.15,1.37-.37,2.08Z"/><path class="cls-5" d="m59.67,4.24c.17.82-.26,1.61-.57,2.05-.15.21-.49.25-.71.1-.47-.34-1.2-.97-1.37-1.79s.26-1.61.57-2.05c.15-.21.49-.25.71-.1.47.34,1.2.97,1.37,1.79Z"/><path class="cls-5" d="m57.1,4.59c.78.54,1.08,1.37,1.19,1.87.05.23-.17.45-.47.44-.63-.01-1.69-.12-2.47-.66s-1.08-1.37-1.19-1.87c-.05-.23.17-.45.47-.44.63.01,1.69.12,2.47.66Z"/><path class="cls-5" d="m55.41,6.19c1.02,0,1.92.49,2.4.81.23.15.22.43,0,.58-.49.32-1.39.79-2.42.78s-1.92-.49-2.4-.81c-.23-.15-.22-.43,0-.58.49-.32,1.39-.79,2.42-.78Z"/><path class="cls-5" d="m55.39,8.29c.79-.53,1.86-.62,2.49-.62.29,0,.51.21.46.45-.12.5-.44,1.33-1.23,1.86s-1.86.62-2.49.62c-.29,0-.51-.21-.46-.45.12-.5.44-1.33,1.23-1.86Z"/><path class="cls-5" d="m57.05,9.91c.19-.81.93-1.44,1.41-1.77.22-.15.56-.1.7.11.3.45.72,1.25.53,2.06s-.93,1.44-1.41,1.77c-.22.15-.56.1-.7-.11-.3-.45-.72-1.25-.53-2.06Z"/><path class="cls-5" d="m59.6,10.3c-.5-.72-.43-1.59-.33-2.09.05-.23.35-.37.62-.29.59.19,1.54.58,2.05,1.3s.43,1.59.33,2.09c-.05.23-.35.37-.62.29-.59-.19-1.54-.58-2.05-1.3Z"/><path class="cls-5" d="m61.86,9.26c-.96-.29-1.59-.99-1.91-1.43-.15-.21-.03-.47.25-.54.6-.16,1.64-.36,2.6-.07s1.59.99,1.91,1.43c.15.21.03.47-.25.54-.6.16-1.64.36-2.6.07Z"/><path class="cls-5" d="m62.78,7.29c-.97.28-2.01.07-2.6-.1-.28-.08-.39-.34-.24-.55.33-.44.98-1.13,1.94-1.4s2.01-.07,2.6.1c.28.08.39.34.24.55-.33.44-.98,1.13-1.94,1.4Z"/><ellipse class="cls-8" cx="58.97" cy="7.27" rx="1.39" ry="1.12"/><path class="cls-5" d="m93.27,12.23c-.52.71-1.48,1.1-2.07,1.27-.28.08-.57-.06-.62-.29-.1-.5-.15-1.37.37-2.08s1.48-1.1,2.07-1.27c.28-.08.57.06.62.29.1.5.15,1.37-.37,2.08Z"/><path class="cls-5" d="m91.03,11.16c.17.82-.26,1.61-.57,2.05-.15.21-.49.25-.71.1-.47-.34-1.2-.97-1.37-1.79s.26-1.61.57-2.05c.15-.21.49-.25.71-.1.47.34,1.2.97,1.37,1.79Z"/><path class="cls-5" d="m88.46,11.51c.78.54,1.08,1.37,1.19,1.87.05.23-.17.45-.47.44-.63-.01-1.69-.12-2.47-.66s-1.08-1.37-1.19-1.87c-.05-.23.17-.45.47-.44.63.01,1.69.12,2.47.66Z"/><path class="cls-5" d="m86.78,13.11c1.02,0,1.92.49,2.4.81.23.15.22.43,0,.58-.49.32-1.39.79-2.42.78s-1.92-.49-2.4-.81c-.23-.15-.22-.43,0-.58.49-.32,1.39-.79,2.42-.78Z"/><path class="cls-5" d="m86.75,15.21c.79-.53,1.86-.62,2.49-.62.29,0,.51.21.46.45-.12.5-.44,1.33-1.23,1.86s-1.86.62-2.49.62c-.29,0-.51-.21-.46-.45.12-.5.44-1.33,1.23-1.86Z"/><path class="cls-5" d="m88.41,16.83c.19-.81.93-1.44,1.41-1.77.22-.15.56-.1.7.11.3.45.72,1.25.53,2.06s-.93,1.44-1.41,1.77c-.22.15-.56.1-.7-.11-.3-.45-.72-1.25-.53-2.06Z"/><path class="cls-5" d="m90.96,17.22c-.5-.72-.43-1.59-.33-2.09.05-.23.35-.37.62-.29.59.19,1.54.58,2.05,1.3s.43,1.59.33,2.09c-.05.23-.35.37-.62.29-.59-.19-1.54-.58-2.05-1.3Z"/><path class="cls-5" d="m93.23,16.18c-.96-.29-1.59-.99-1.91-1.43-.15-.21-.03-.47.25-.54.6-.16,1.64-.36,2.6-.07s1.59.99,1.91,1.43c.15.21.03.47-.25.54-.6.16-1.64.36-2.6.07Z"/><path class="cls-5" d="m94.14,14.21c-.97.28-2.01.07-2.6-.1-.28-.08-.39-.34-.24-.55.33-.44.98-1.13,1.94-1.4s2.01-.07,2.6.1c.28.08.39.34.24.55-.33.44-.98,1.13-1.94,1.4Z"/><ellipse class="cls-8" cx="90.34" cy="14.18" rx="1.39" ry="1.12"/></g></g></svg>