<?xml version="1.0" encoding="UTF-8"?><svg id="Layer_3" xmlns="http://www.w3.org/2000/svg" width="1920" height="1080" viewBox="0 0 1920 1080"><defs><style>.cls-1{fill:#d4f6ff;stroke:#000;stroke-width:.5px;}.cls-1,.cls-2{stroke-miterlimit:10;}.cls-2{stroke:#b0f1f4;}.cls-2,.cls-3{fill:#fff;}.cls-4{fill:#48afc4;}.cls-4,.cls-5,.cls-6,.cls-7,.cls-8,.cls-9,.cls-10,.cls-11,.cls-12,.cls-13,.cls-3,.cls-14,.cls-15,.cls-16,.cls-17,.cls-18,.cls-19,.cls-20,.cls-21{stroke-width:0px;}.cls-5{fill:#62afc4;}.cls-6{fill:#8200d0;}.cls-7{fill:#daf8f9;}.cls-8{fill:#aaedff;}.cls-9{fill:#b0f1f4;}.cls-10{fill:#a4fcfc;}.cls-11{fill:#8e8265;}.cls-12{fill:#a09378;}.cls-13{fill:#ffdc7f;}.cls-14{fill:#ffa015;}.cls-15{fill:#edefce;}.cls-16{fill:#ff2a30;}.cls-17{fill:#ffb4d8;}.cls-18{fill:#fbffe9;}.cls-19{fill:#ffd817;}.cls-20{fill:#eaf400;}.cls-21{fill:#f268ba;}</style></defs><path class="cls-10" d="m1920.75-.42h-2.64c-8.17.91-16.46.53-24.73,0h-55.88c-5.42.17-10.84.29-16.26.29-.65,0-1.24-.11-1.76-.29h-20.01c-5.64.83-11.83.36-17.46,0h-56.84c-1.4.01-2.81,0-4.21,0h-20.36c-7.75.91-15.75.2-23.51,0h-28.02c-.91,0-1.82,0-2.72,0h-20.54c-3.11.11-6.22.08-9.33,0h-56.83c-2.05.21-4.43.31-6.7,0h-29.31c-.95.03-1.91.04-2.85,0h-23.9c-11.49.51-23.12-.1-34.53.03-2.17.02-4.75.2-7.16-.03h-56.23s-.01,0-.02,0h-6.24c-.35.08-.72.14-1.12.13-2.77-.02-5.55-.06-8.33-.13h-18.49c-2.13.36-4.37.19-6.63,0H1.4v517h1920V75.98c-.23-25.47-.52-50.93-.65-76.4Z"/><rect class="cls-4" x="1.4" y="442.58" width="1920" height="333"/><path class="cls-3" d="m1498.9,661.08c21.73-2.55,44.35-6.07,44.34-6.12-.01-.08-44.37,5.88-44.34,6.12Z"/><path class="cls-9" d="m1498.9,662.58c13.96-1.64,27.89-3.54,41.78-5.69,1.02-.16,2.38-.14,3.32-.63,1.2-.62.81-2.37-.36-2.74-.48-.15-1.09.02-1.56.08-1.08.14-2.17.28-3.25.42-3.66.48-7.33.97-10.99,1.47-8.05,1.08-16.1,2.17-24.14,3.33-1.3.19-2.61.38-3.91.58-.75.12-1.79.15-2.18.93-.88,1.72,1.71,3.24,2.59,1.51-.26.51-1.31.71-.5.6.31-.04.63-.11.94-.16,1.07-.17,2.14-.33,3.22-.48,3.51-.51,7.03-1,10.54-1.48,7.76-1.07,15.52-2.12,23.29-3.15,1.32-.17,2.65-.35,3.97-.52.38-.05.76-.08,1.13-.14s.64.08.06-.1l-.36-2.74c.64-.33,0-.08-.31-.03-.61.1-1.22.2-1.83.29-2.16.34-4.31.66-6.47.98-6.96,1.03-13.93,2.01-20.91,2.92-4.68.62-9.37,1.2-14.06,1.75-1.89.22-1.92,3.23,0,3Z"/><path class="cls-3" d="m1923.3,717.64c-41.68-29.34-82.49-8.53-156.59-14.52-99.75-8.06-149.36-55.77-233.8-46.04-6.1.7-33.98,4.19-34,4-83.02,9.75-122.59,9.88-219,5-94.89-4.8-95.09,36.82-208,47-130.45,11.77-155.89-41.47-264-16-79.53,18.74-104.63,46.56-149,59-72.27,20.26-92.34-38.05-211-60-76.72-14.19-75.6,8.84-269.19,17.08-23.76,1.01-128.6,5.47-179.67-.49.45,8.61,1.49,17.34.69,25.85-.3,3.19-.96,6.27-1.83,9.29.31,7.13.66,14.26.99,21.4.65,13.99,1.86,28.27,1.13,42.36,169.64,368.19,1833.11,19.63,1901.88-27.49,1.47-1.01,2.39-1.64,23.33-16.01-.39-16.82-1.01-33.63-1.93-50.43Z"/><path class="cls-9" d="m1924.06,716.35c-26.62-18.24-56.95-17.01-87.84-15.13-44.4,2.69-87.72,1.07-130.99-10.2-35.63-9.28-69.69-24.14-105.74-31.84-31.99-6.83-62.45-3.93-94.53-.23-34.2,3.95-68.47,7.43-102.91,8.43-41.78,1.21-83.42-1.26-125.15-2.94-30.13-1.21-58.48,3.22-86.38,14.61-28.51,11.64-56,23.01-86.56,28.36-41.78,7.31-85.09,8.17-126.93.94-28.41-4.9-56.01-13.88-84.6-17.76-34.6-4.7-68.65.14-102.1,9.44-33.65,9.36-63.97,24.5-95.11,39.88-25.17,12.44-53.03,22.86-81.48,17.22-25.9-5.13-48.9-20.56-72.36-31.9-45.4-21.94-98.24-38.09-149.31-34.77-17.08,1.11-34.01,4.11-50.92,6.61-29.82,4.41-59.75,7.81-89.8,10.22-68.3,5.46-137.51,8.2-206.03,6.6-15.45-.36-30.92-1-46.28-2.73-.77-.09-1.54.76-1.5,1.5.7,11.54.52,21.76-.7,33.22-.93,8.72.26,18.01.71,26.82.51,10.01,1.21,20.01,1.17,30.03-.02,5.56-.58,8.58,1.76,13.31,4.61,9.31,10.19,18.11,16.53,26.34,13.63,17.69,30.64,32.5,49.1,44.96,46.2,31.19,100.93,48.83,154.79,61.34,69.92,16.24,141.76,23.85,213.33,27.91,84.76,4.81,169.78,4.26,254.58.92,91.09-3.59,182.03-10.54,272.72-19.65,90.22-9.07,180.23-20.33,269.97-33.29,83.96-12.12,167.7-25.75,251.17-40.84,69.76-12.61,139.36-26.22,208.64-41.26,49.18-10.68,98.31-21.87,146.86-35.15,21.35-5.84,46.96-10.5,65.78-22.87,2.19-1.44,4.33-2.97,6.5-4.46,4.31-2.96,13.12-6.61,15.81-10.88,2.43-3.85.08-14.54-.07-19.08-.36-10.81-.84-21.61-1.43-32.41-.1-1.92-3.1-1.93-3,0,.42,7.8.79,15.6,1.1,23.41.28,7.14,2.83,19.1-.33,25.6-2.94,6.05-14,11.17-19.89,15.09-1.99,1.33-3.95,2.53-6.12,3.57-7.2,3.48-14.97,5.93-22.56,8.38-28.61,9.25-57.86,16.6-87.04,23.75-44.51,10.91-89.27,20.8-134.13,30.18-56.81,11.89-113.81,22.9-170.93,33.22-65.65,11.87-131.47,22.82-197.43,32.87-71.59,10.9-143.34,20.73-215.24,29.3-73.04,8.71-146.23,16.14-219.56,21.89-71.26,5.59-142.66,9.61-214.13,11.3-66.8,1.59-133.69,1.19-200.42-2.56-59.12-3.33-118.24-9.18-176.47-20.12-47.92-9-95.8-21.3-140.46-41.17-34.98-15.56-68.9-36.24-93.89-65.72-5.64-6.66-10.77-13.75-15.26-21.23-2.09-3.48-4.4-7.11-5.95-10.88-1.83-4.45-1.33-8.72-1.35-13.56-.04-8.26-.55-16.51-.99-24.75-.41-7.65-1.11-15.4-1.11-23.06s2-15.75,1.84-23.83c-.06-3.33-2.06-10.18-.71-12.96,1.17-2.41.87-1.89,4.09-1.58,5,.48,10.01.83,15.02,1.13,23.32,1.36,46.71,1.44,70.06,1.22,83.39-.78,167.15-4.7,249.71-16.81,22.02-3.23,44.15-7.45,66.49-7.26,36.17.31,73.13,9.78,106.57,22.85,19.18,7.5,37.35,17.02,55.63,26.42,13.72,7.05,27.8,14.07,42.98,17.36,33.82,7.34,65.89-7.18,95.38-22.22,44.88-22.89,92.84-42.22,143.7-45.46,39.58-2.52,76.39,9.42,114.67,17.13,49.55,9.99,101.4,9.49,150.86-1.01,19.65-4.17,38.51-10.64,56.99-18.42,15.4-6.48,30.65-13.36,46.92-17.41,22.86-5.69,46.02-5.41,69.38-4.27,28.13,1.38,56.28,2.6,84.44,2.69,44.85.14,89.42-3.82,133.92-9.09,20.82-2.47,41.38-5.4,62.42-3.8,23.58,1.79,46.38,8.15,68.78,15.44,50.96,16.58,100.39,32.13,154.61,32.49,42.77.28,91.27-12.78,129.14,13.17,1.6,1.09,3.1-1.5,1.51-2.59Z"/><ellipse class="cls-5" cx="1287.9" cy="742.08" rx="66.5" ry="33.5"/><ellipse class="cls-5" cx="1433.4" cy="725.08" rx="35" ry="16.5"/><ellipse class="cls-5" cx="1838.4" cy="733.08" rx="50" ry="8.5"/><ellipse class="cls-2" cx="123.4" cy="671.08" rx="45" ry="16.5"/><ellipse class="cls-2" cx="657.9" cy="708.58" rx="45" ry="16.5"/><ellipse class="cls-2" cx="1770.9" cy="659.58" rx="45" ry="16.5"/><ellipse class="cls-5" cx="424.4" cy="775.58" rx="90" ry="17"/><path class="cls-11" d="m217.4,391.58c19.51-4.81,36.09,1.33,43,4,68.68,26.5,95.57,142.37,61,176-11.97,11.65-31.65,12.76-71,15-24.34,1.38-30.42-1.6-69,0-25.97,1.08-27.9,2.62-32,0-32.31-20.64-6.63-176.61,68-195Z"/><path class="cls-11" d="m416.4,516.58c12.9-3.79,23.86-1.08,28,0,42.95,11.19,67.74,70.99,54,88-5.59,6.92-12.41.38-56,6-7.49.97-22.08,3.07-43,5-24.09,2.23-26.27,1.43-28,0-16.05-13.32,1.42-86.2,45-99Z"/><path class="cls-12" d="m458.01,524.12c-4.35.6-8.91,1.29-12.38,3.99s-5.24,8.08-2.58,11.57c2.17,2.84,6.16,3.33,9.4,4.81s6.04,5.84,3.55,8.4c-.9.93-2.24,1.27-3.49,1.6-5.03,1.3-10.26,3.17-13.48,7.25s-3.3,10.99,1.07,13.8c1.29.83,2.84,1.24,4.03,2.21s1.88,2.88.86,4.02c-.37.41-.88.64-1.38.87-6.24,2.88-11.97,6.86-16.85,11.7-3.29,3.26-6.2,8.74-3.03,12.11,1.56,1.65,4.01,2,6.27,2.24,17.69,1.82,35.53,2.07,53.26.75,4.88-.36,10.18-1.04,13.63-4.52,3.74-3.78,4.13-9.69,3.77-15-1.58-23.09-13.52-45.28-31.93-59.32-3.42-2.61-7.04-4.94-10.66-7.27"/><path class="cls-12" d="m279.77,413.45c-17.15-2.74-35.55,4.72-45.95,18.64-2,2.67-3.78,5.89-3.19,9.17.27,1.49,1.02,2.86,1.9,4.09,6.67,9.35,21.29,12.82,23.73,24.04.22,1.01.32,2.09-.05,3.06-.52,1.35-1.82,2.2-3.04,2.96-5.01,3.12-10.02,6.24-15.03,9.35-5.91,3.68-11.88,7.4-16.76,12.38-1.28,1.31-2.51,2.76-2.99,4.52-1.06,3.9,2,7.89,5.64,9.64s7.81,1.95,11.76,2.86c4.8,1.1,9.49,3.39,12.56,7.24s4.24,9.42,2.08,13.85c-3.07,6.3-10.99,8.09-17.82,9.67-6.53,1.51-13.15,3.58-18.25,7.93-5.21,4.45-8.32,10.85-10.71,17.27-.77,2.06-1.48,4.33-.77,6.4.57,1.67,1.96,2.92,3.39,3.94,7.2,5.16,16.39,6.55,25.22,7.23,21.07,1.62,42.39.07,63-4.61,4.61-1.05,9.24-2.27,13.41-4.5,3.84-2.06,7.2-4.93,10.21-8.08,14.59-15.25,21.27-37.7,17.38-58.44-3.3-17.58-13.48-33.13-18.27-50.37-1.46-5.24-2.42-10.64-4.55-15.64-3.03-7.13-8.26-13.06-13.4-18.86-5.31-5.99-11.14-12.3-18.94-14.12"/><path class="cls-7" d="m1920.76-.76c-15.38,2.28-31.19-.53-46.65-.58-17.64-.06-35.24,1.21-52.88,1.21-1.6,0-2.8-.62-3.61-1.56-5.74.38-11.47.76-17.21,1.12-7.59,1.34-16.31.09-23.37-.12-5.89-.18-11.72.1-17.6.09-3.78,0-7.78-.28-11.16-2.09-14.63,3.36-30.66,1.94-45.41,2.09-.25,0-.48-.01-.71-.04-8.42,1.24-17.17.38-25.64.19-.6-.01-1.15-.11-1.64-.28-12.69.08-25.44.56-38.11.13-1.14-.04-2.1-.39-2.88-.96-.73.5-1.66.82-2.78.82-7.48.65-14.94.35-22.42.02-3.3-.15-7.45.3-11.1-.36-.19.07-.38.13-.58.16-2.44.33-4.68.3-7.04.04-7.12.08-14.23.5-21.33-.04-.31.09-.62.15-.94.18-2.17.17-4.3.01-6.46-.09-.45.19-.93.33-1.43.38-2.77.3-6.16.39-9.09-.44-.53.19-1.12.3-1.78.29-5.87-.03-11.74-.24-17.61-.37-.44.13-.92.21-1.45.22-3.49.02-8.89.88-12.95-.27-.66.36-1.46.57-2.39.57-3.53-.01-7.05-.16-10.57-.45-.01,0-.02,0-.03,0-13.77,1.26-27.83.34-41.59.5-3.09.03-6.99.38-10.09-.57-.68.36-1.5.57-2.48.53-1.6-.06-3.2-.19-4.8-.3-5.37.12-10.71-.1-16.08-.16-4.62-.05-9.21.31-13.81-.29-.41-.05-.8-.14-1.17-.25-.72.46-1.62.72-2.7.7-.73-.02-1.46-.06-2.18-.11-.35.12-.71.22-1.09.26-1.85.2-3.62.03-5.39-.26-.56.25-1.2.4-1.9.41-2.3.04-4.53.05-6.73-.46-.67.38-1.45.62-2.35.61-4.63-.03-9.29-.11-13.92-.31-1.38-.06-2.88-.16-4.29-.51-.68.4-1.51.65-2.48.67-1.62.03-3.21-.09-4.79-.29-4.05,1.2-8.59-.07-12.97.06-8.01.23-16.02-.13-24.03.1-3.78.11-7.04.46-9.64-.77-.62.29-1.34.45-2.17.44-6.16-.04-12.32-.51-18.48-.49-4.71.02-10.17,1.01-14.8,0-2.96-.65-4.48-2.39-5.18-4.65-18.2.25-36.36-1.45-54.55-1.75-27.15-.45-54.2,3.24-81.35,3.5-15.47.15-32.19-.41-47.63-4.52-11.89.33-23.59,2.33-35.4,3.71-12.51,1.46-25,1.41-37.57.96-46.12-1.66-92.46-1.21-138.61-1.24-11.44,0-22.89.03-34.33-.39-.93-.03-1.86-.09-2.79-.15-8.19,5.39-17.89,3.41-27.08,3.02-11.73-.5-23.54-.28-35.28-.46-11.75-.18-23.49-.12-35.23-.78-7.87-.44-15.84-1-23.74-.65-.43.22-.92.38-1.49.47-.9.15-1.79.27-2.68.37-11.85,1.59-23.72,1.45-35.67,1.72-13.08.3-26.16.32-39.24.14-26.28-.36-52.54-1.51-78.79-2.65-1.63-.07-2.84-.77-3.65-1.77-22.9,1.16-45.82,1.74-68.74,2.01-55.05.66-110.11-.43-165.16.36-55.15.8-110.19,1.42-165.35.43C110.53-4.65,56.56-6.1,2.58-6.2c1.19,19.69,2.61,39.36,3.34,59.07.1,2.6-1.47,4.14-3.4,4.64.15,9.24.53,18.45,1.39,27.68,1.2,12.93.1,25.96,1.66,38.87.33,2.74-1.33,4.29-3.39,4.67.66,14.38,1.02,28.76.47,43.14,1.11.8,1.87,2.08,1.87,3.86v1.77c.22.9.22,1.85,0,2.75v10.14c0,1.28-.4,2.31-1.04,3.08.32,4.03.34,8.09.35,12.12,0,1.12-.31,2.04-.8,2.77.27,3.44.5,6.88.46,10.33-.14,10.12.3,20.24,0,30.35,7.63,1.65,13.58,2.64,16.86,3.19,108.16,17.91,153.59-46.3,302.3-74.4,120.87-22.84,122.08,13.69,295.61,0,186.26-14.69,189.54-57.13,320.15-55.57,54.36.65,94.8,10.2,103.4,12.32,56.82,14.05,51.46,26.13,120.54,45.16,26.37,7.26,56.59,13.61,92,16,0,0,15.36,1.04,31,1,94.14-.22,524.8-122.14,636.33-70.86-.05-42.22-.72-84.43-.93-126.64Z"/><path class="cls-15" d="m1925.48,869.13c.4-33.14.53-66.29-.21-99.42-83.74-3.57-172.9-5.24-223.87,5.87-119.87,26.12-253.51,31-446,15-123.96-10.31-111.92,14.43-416,26-108.18,4.12-92.2.32-212,5-182.02,7.11-203.43,15.27-270,2-89.32-17.81-104.78-43.26-164-33-62.57,10.84-48,7-123,5-29.13-.78-48.14-18.75-69-20-.73-.04-1.46-.04-2.18-.01,1.01,18.58,2.33,37.53-1.78,55.75-.09.4-.21.75-.36,1.08.06,5.29.18,10.59.42,15.9,1,22.32-.05,44.66.15,66.99.19,22.26,1.13,44.45-.15,66.69-1.28,22.16-.07,44.27.15,66.44.11,10.74-1.36,22.11-1.21,33.22,56.43-.06,112.86-.57,169.29-.33,52.66.23,105.27,2.08,157.92,2.91,52.51.83,105.02.41,157.53-.11,51.28-.51,102.56-.71,153.84-1.13,22.83-.19,45.98.15,68.56,3.31.8-.86,1.96-1.43,3.49-1.42,35.27.06,70.3,2.39,105.56.37,25.13-1.44,51.56-2.78,75.31,6.01,6.25-.66,12.5-1.32,18.75-1.95,37.5-3.78,75.09-6.97,112.71-3.15l390.83,3.69c13.87-4.77,28.89-6.34,43.45-7.38,17.94-1.28,35.95-1.25,53.92-.8,28.9.72,57.81,3.77,86.71,3.83.77,0,1.44.15,2.02.4.03,0,.05,0,.08,0,33.08-1.95,66.36-1.55,99.48-1.55,1.24,0,2.25.38,3.01.98,7.6-.25,15.19.18,22.79.17,9.21-.02,18.42-.58,27.63-.77,16.02-.32,32.05-.37,48.08-.38.03,0,.05,0,.08,0h49.64c1.41,0,2.51.47,3.31,1.21,16.6-.53,33.18-2.3,49.79-2.37,1.1,0,2.02.32,2.77.84,5.84-.74,11.71-1.19,17.65-.86,1.09-1.76,2.35-3.75,3.76-5.98-.54-17.35-.55-34.73-.45-52.09.29-51.99.92-103.96,1.54-155.95Z"/><path class="cls-6" d="m1634.51,888.98c16.76-40.47-23.95-40.47-7.18,0-16.76-40.47-45.55-11.68-5.08,5.08-40.47-16.76-40.47,23.95,0,7.18-40.47,16.76-11.68,45.55,5.08,5.08-16.76,40.47,23.95,40.47,7.18,0,16.76,40.47,45.55,11.68,5.08-5.08,40.47,16.76,40.47-23.95,0-7.18,40.47-16.76,11.68-45.55-5.08-5.08Z"/><circle class="cls-19" cx="1630.92" cy="897.65" r="7.43"/><path class="cls-6" d="m52.99,859.59c16.76-40.47-23.95-40.47-7.18,0-16.76-40.47-45.55-11.68-5.08,5.08-40.47-16.76-40.47,23.95,0,7.18-40.47,16.76-11.68,45.55,5.08,5.08-16.76,40.47,23.95,40.47,7.18,0,16.76,40.47,45.55,11.68,5.08-5.08,40.47,16.76,40.47-23.95,0-7.18,40.47-16.76,11.68-45.55-5.08-5.08Z"/><circle class="cls-19" cx="49.4" cy="868.26" r="7.43"/><path class="cls-6" d="m936.99,982.59c16.76-40.47-23.95-40.47-7.18,0-16.76-40.47-45.55-11.68-5.08,5.08-40.47-16.76-40.47,23.95,0,7.18-40.47,16.76-11.68,45.55,5.08,5.08-16.76,40.47,23.95,40.47,7.18,0,16.76,40.47,45.55,11.68,5.08-5.08,40.47,16.76,40.47-23.95,0-7.18,40.47-16.76,11.68-45.55-5.08-5.08Z"/><circle class="cls-19" cx="933.4" cy="991.26" r="7.43"/><path class="cls-6" d="m1357.99,987.59c16.76-40.47-23.95-40.47-7.18,0-16.76-40.47-45.55-11.68-5.08,5.08-40.47-16.76-40.47,23.95,0,7.18-40.47,16.76-11.68,45.55,5.08,5.08-16.76,40.47,23.95,40.47,7.18,0,16.76,40.47,45.55,11.68,5.08-5.08,40.47,16.76,40.47-23.95,0-7.18,40.47-16.76,11.68-45.55-5.08-5.08Z"/><circle class="cls-19" cx="1354.4" cy="996.26" r="7.43"/><path class="cls-6" d="m474.99,955.59c16.76-40.47-23.95-40.47-7.18,0-16.76-40.47-45.55-11.68-5.08,5.08-40.47-16.76-40.47,23.95,0,7.18-40.47,16.76-11.68,45.55,5.08,5.08-16.76,40.47,23.95,40.47,7.18,0,16.76,40.47,45.55,11.68,5.08-5.08,40.47,16.76,40.47-23.95,0-7.18,40.47-16.76,11.68-45.55-5.08-5.08Z"/><circle class="cls-19" cx="471.4" cy="964.26" r="7.43"/><path class="cls-21" d="m1608.81,984.43c6.05-14.61-19.67-14.61-13.62,0-6.05-14.61-24.24,3.58-9.63,9.63-14.61-6.05-14.61,19.67,0,13.62-14.61,6.05,3.58,24.24,9.63,9.63-6.05,14.61,19.67,14.61,13.62,0,6.05,14.61,24.24-3.58,9.63-9.63,14.61,6.05,14.61-19.67,0-13.62,14.61-6.05-3.58-24.24-9.63-9.63Z"/><circle class="cls-14" cx="1602" cy="1000.87" r="7.07"/><path class="cls-21" d="m1777.8,837.01c6.05-14.61-19.67-14.61-13.62,0-6.05-14.61-24.24,3.58-9.63,9.63-14.61-6.05-14.61,19.67,0,13.62-14.61,6.05,3.58,24.24,9.63,9.63-6.05,14.61,19.67,14.61,13.62,0,6.05,14.61,24.24-3.58,9.63-9.63,14.61,6.05,14.61-19.67,0-13.62,14.61-6.05-3.58-24.24-9.63-9.63Z"/><circle class="cls-14" cx="1770.99" cy="853.45" r="7.07"/><path class="cls-21" d="m1099.8,910.01c6.05-14.61-19.67-14.61-13.62,0-6.05-14.61-24.24,3.58-9.63,9.63-14.61-6.05-14.61,19.67,0,13.62-14.61,6.05,3.58,24.24,9.63,9.63-6.05,14.61,19.67,14.61,13.62,0,6.05,14.61,24.24-3.58,9.63-9.63,14.61,6.05,14.61-19.67,0-13.62,14.61-6.05-3.58-24.24-9.63-9.63Z"/><circle class="cls-14" cx="1092.99" cy="926.45" r="7.07"/><path class="cls-21" d="m736.8,997.01c6.05-14.61-19.67-14.61-13.62,0-6.05-14.61-24.24,3.58-9.63,9.63-14.61-6.05-14.61,19.67,0,13.62-14.61,6.05,3.58,24.24,9.63,9.63-6.05,14.61,19.67,14.61,13.62,0,6.05,14.61,24.24-3.58,9.63-9.63,14.61,6.05,14.61-19.67,0-13.62,14.61-6.05-3.58-24.24-9.63-9.63Z"/><circle class="cls-14" cx="729.99" cy="1013.45" r="7.07"/><path class="cls-21" d="m319.8,1009.01c6.05-14.61-19.67-14.61-13.62,0-6.05-14.61-24.24,3.58-9.63,9.63-14.61-6.05-14.61,19.67,0,13.62-14.61,6.05,3.58,24.24,9.63,9.63-6.05,14.61,19.67,14.61,13.62,0,6.05,14.61,24.24-3.58,9.63-9.63,14.61,6.05,14.61-19.67,0-13.62,14.61-6.05-3.58-24.24-9.63-9.63Z"/><circle class="cls-14" cx="312.99" cy="1025.45" r="7.07"/><path class="cls-21" d="m1294.8,852.01c6.05-14.61-19.67-14.61-13.62,0-6.05-14.61-24.24,3.58-9.63,9.63-14.61-6.05-14.61,19.67,0,13.62-14.61,6.05,3.58,24.24,9.63,9.63-6.05,14.61,19.67,14.61,13.62,0,6.05,14.61,24.24-3.58,9.63-9.63,14.61,6.05,14.61-19.67,0-13.62,14.61-6.05-3.58-24.24-9.63-9.63Z"/><circle class="cls-14" cx="1287.99" cy="868.45" r="7.07"/><path class="cls-17" d="m1467.56,918.24c32.41,34.08.06,46.53,1.24-.48-1.18,47.01-32.86,32.95,1.22.54-34.08,32.41-46.53.06.48,1.24-47.01-1.18-32.95-32.86-.54,1.22-32.41-34.08-.06-46.53-1.24.48,1.18-47.01,32.86-32.95-1.22-.54,34.08-32.41,46.53-.06-.48-1.24,47.01,1.18,32.95,32.86.54-1.22Z"/><circle class="cls-20" cx="1468.76" cy="919.5" r="2.48"/><path class="cls-17" d="m1198.19,1012.2c32.41,34.08.06,46.53,1.24-.48-1.18,47.01-32.86,32.95,1.22.54-34.08,32.41-46.53.06.48,1.24-47.01-1.18-32.95-32.86-.54,1.22-32.41-34.08-.06-46.53-1.24.48,1.18-47.01,32.86-32.95-1.22-.54,34.08-32.41,46.53-.06-.48-1.24,47.01,1.18,32.95,32.86.54-1.22Z"/><circle class="cls-20" cx="1199.39" cy="1013.46" r="2.48"/><path class="cls-17" d="m996.55,874.63c32.41,34.08.06,46.53,1.24-.48-1.18,47.01-32.86,32.95,1.22.54-34.08,32.41-46.53.06.48,1.24-47.01-1.18-32.95-32.86-.54,1.22-32.41-34.08-.06-46.53-1.24.48,1.18-47.01,32.86-32.95-1.22-.54,34.08-32.41,46.53-.06-.48-1.24,47.01,1.18,32.95,32.86.54-1.22Z"/><circle class="cls-20" cx="997.75" cy="875.89" r="2.48"/><path class="cls-17" d="m235.32,933.41c32.41,34.08.06,46.53,1.24-.48-1.18,47.01-32.86,32.95,1.22.54-34.08,32.41-46.53.06.48,1.24-47.01-1.18-32.95-32.86-.54,1.22-32.41-34.08-.06-46.53-1.24.48,1.18-47.01,32.86-32.95-1.22-.54,34.08-32.41,46.53-.06-.48-1.24,47.01,1.18,32.95,32.86.54-1.22Z"/><circle class="cls-20" cx="236.52" cy="934.67" r="2.48"/><path class="cls-17" d="m633.42,888.63c32.41,34.08.06,46.53,1.24-.48-1.18,47.01-32.86,32.95,1.22.54-34.08,32.41-46.53.06.48,1.24-47.01-1.18-32.95-32.86-.54,1.22-32.41-34.08-.06-46.53-1.24.48,1.18-47.01,32.86-32.95-1.22-.54,34.08-32.41,46.53-.06-.48-1.24,47.01,1.18,32.95,32.86.54-1.22Z"/><circle class="cls-20" cx="634.62" cy="889.89" r="2.48"/><ellipse class="cls-13" cx="1750.54" cy="293.09" rx="4.99" ry="14.35"/><ellipse class="cls-13" cx="1750.54" cy="325.69" rx="32.13" ry="29.17"/><rect class="cls-13" x="1646.96" y="592.29" width="206.54" height="21.53" rx="10.76" ry="10.76"/><rect class="cls-16" x="1700.31" y="550.48" width="100.15" height="41.81"/><rect class="cls-18" x="1699.68" y="511.79" width="101.08" height="40.87"/><rect class="cls-16" x="1700" y="469.99" width="100.15" height="41.81"/><rect class="cls-18" x="1700" y="429.12" width="101.08" height="40.87"/><rect class="cls-16" x="1699.06" y="387.31" width="100.15" height="41.81"/><rect class="cls-1" x="1718.4" y="328.66" width="32.13" height="41.49"/><rect class="cls-1" x="1750.54" y="328.66" width="32.13" height="41.49"/><rect class="cls-13" x="1705.92" y="370.15" width="88.92" height="21.53" rx="10.76" ry="10.76"/><path class="cls-4" d="m173,132.26h0c.46-.3,29.12-29.7,59-34.38,37.8-5.91,54.78,31.31,91,25.15,25.15-4.28,21.48-23,53-33.54,33.61-11.24,80.88-4.36,102,17.61,11.68,12.14,8.63,21.9,19,25.15,19.13,6.01,34.39-25.63,69-27.67,26.94-1.59,52.29,15.54,65,31.86,4.25,5.45,14.65,18.81,13,36.05-2.8,29.31-38.99,55.09-72,56.18-35.48,1.17-42.04-27.01-81-27.67-36.46-.61-42.24,23.87-80,22.64-34.1-1.12-41.53-21.49-72-18.45-25.6,2.55-27.06,17.6-54,25.15-41.74,11.7-100.74-6.88-115-36.05-11.65-23.84,3-62.04,3-62.05Z"/><path class="cls-8" d="m165.31,149.82c2.22-16.45,11.42-30.77,22.9-40.34,11.48-9.57,25.1-14.87,38.78-18.51,15.73-4.19,33.12-6.07,47.16,3.33,5.89,3.95,10.82,9.66,16.58,13.86,12.41,9.04,28.6,10.29,41.89,3.22,10.67-5.68,19.09-16.05,29.34-22.74,13.6-8.87,29.57-10.74,45.06-11.86,17.8-1.28,36.81-1.45,52.01,9.63,11.85,8.64,20.22,23.4,32.89,30.2,17.62,9.46,38.07,1.09,55.97-7.59,17.9-8.68,37.94-17.74,55.97-9.45,11.1,5.1,19.44,16.04,27.35,26.6,12.88,17.21,26.7,38.28,22.52,60.77-15.46-5.17-31.41-8.26-47.45-9.2-12.69-.74-25.42-.14-38.12-.42-31.66-.71-63.02-6.92-94.53-10.65-82.53-9.78-165.74-2.53-248.47,4.52-22.74,1.94-48.87,2.36-64.3-17.58"/><path class="cls-4" d="m1426,120.26h0c.46-.3,29.12-29.7,59-34.38,37.8-5.91,54.78,31.31,91,25.15,25.15-4.28,21.48-23,53-33.54,33.61-11.24,80.88-4.36,102,17.61,11.68,12.14,8.63,21.9,19,25.15,19.13,6.01,34.39-25.63,69-27.67,26.94-1.59,52.29,15.54,65,31.86,4.25,5.45,14.65,18.81,13,36.05-2.8,29.31-38.99,55.09-72,56.18-35.48,1.17-42.04-27.01-81-27.67-36.46-.61-42.24,23.87-80,22.64-34.1-1.12-41.53-21.49-72-18.45-25.6,2.55-27.06,17.6-54,25.15-41.74,11.7-100.74-6.88-115-36.05-11.65-23.84,3-62.04,3-62.05Z"/><path class="cls-8" d="m1418.31,137.82c2.22-16.45,11.42-30.77,22.9-40.34,11.48-9.57,25.1-14.87,38.78-18.51,15.73-4.19,33.12-6.07,47.16,3.33,5.89,3.95,10.82,9.66,16.58,13.86,12.41,9.04,28.6,10.29,41.89,3.22,10.67-5.68,19.09-16.05,29.34-22.74,13.6-8.87,29.57-10.74,45.06-11.86,17.8-1.28,36.81-1.45,52.01,9.63,11.85,8.64,20.22,23.4,32.89,30.2,17.62,9.46,38.07,1.09,55.97-7.59,17.9-8.68,37.94-17.74,55.97-9.45,11.1,5.1,19.44,16.04,27.35,26.6,12.88,17.21,26.7,38.28,22.52,60.77-15.46-5.17-31.41-8.26-47.45-9.2-12.69-.74-25.42-.14-38.12-.42-31.66-.71-63.02-6.92-94.53-10.65-82.53-9.78-165.74-2.53-248.47,4.52-22.74,1.94-48.87,2.36-64.3-17.58"/><path class="cls-4" d="m523,175.49h0c.46-.3,29.12-29.7,59-34.38,37.8-5.91,54.78,31.31,91,25.15,25.15-4.28,21.48-23,53-33.54,33.61-11.24,80.88-4.36,102,17.61,11.68,12.14,8.63,21.9,19,25.15,19.13,6.01,34.39-25.63,69-27.67,26.94-1.59,52.29,15.54,65,31.86,4.25,5.45,14.65,18.81,13,36.05-2.8,29.31-38.99,55.09-72,56.18-35.48,1.17-42.04-27.01-81-27.67-36.46-.61-42.24,23.87-80,22.64-34.1-1.12-41.53-21.49-72-18.45-25.6,2.55-27.06,17.6-54,25.15-41.74,11.7-100.74-6.88-115-36.05-11.65-23.84,3-62.04,3-62.05Z"/><path class="cls-8" d="m515.32,193.04c2.22-16.45,11.42-30.77,22.9-40.34,11.48-9.57,25.1-14.87,38.78-18.51,15.73-4.19,33.12-6.07,47.16,3.33,5.89,3.95,10.82,9.66,16.58,13.86,12.41,9.04,28.6,10.29,41.89,3.22,10.67-5.68,19.09-16.05,29.34-22.74,13.6-8.87,29.57-10.74,45.06-11.86,17.8-1.28,36.81-1.45,52.01,9.63,11.85,8.64,20.22,23.4,32.89,30.2,17.62,9.46,38.07,1.09,55.97-7.59,17.9-8.68,37.94-17.74,55.97-9.45,11.1,5.1,19.44,16.04,27.35,26.6,12.88,17.21,26.7,38.28,22.52,60.77-15.46-5.17-31.41-8.26-47.45-9.2-12.69-.74-25.42-.14-38.12-.42-31.66-.71-63.02-6.92-94.53-10.65-82.53-9.78-165.74-2.53-248.47,4.52-22.74,1.94-48.87,2.36-64.3-17.58"/><path class="cls-4" d="m1178.83,222.17h0c.46-.3,29.12-29.7,59-34.38,37.8-5.91,54.78,31.31,91,25.15,25.15-4.28,21.48-23,53-33.54,33.61-11.24,80.88-4.36,102,17.61,11.68,12.14,8.63,21.9,19,25.15,19.13,6.01,34.39-25.63,69-27.67,26.94-1.59,52.29,15.54,65,31.86,4.25,5.45,14.65,18.81,13,36.05-2.8,29.31-38.99,55.09-72,56.18-35.48,1.17-42.04-27.01-81-27.67-36.46-.61-42.24,23.87-80,22.64-34.1-1.12-41.53-21.49-72-18.45-25.6,2.55-27.06,17.6-54,25.15-41.74,11.7-100.74-6.88-115-36.05-11.65-23.84,3-62.04,3-62.05Z"/><path class="cls-8" d="m1171.14,239.73c2.22-16.45,11.42-30.77,22.9-40.34,11.48-9.57,25.1-14.87,38.78-18.51,15.73-4.19,33.12-6.07,47.16,3.33,5.89,3.95,10.82,9.66,16.58,13.86,12.41,9.04,28.6,10.29,41.89,3.22,10.67-5.68,19.09-16.05,29.34-22.74,13.6-8.87,29.57-10.74,45.06-11.86,17.8-1.28,36.81-1.45,52.01,9.63,11.85,8.64,20.22,23.4,32.89,30.2,17.62,9.46,38.07,1.09,55.97-7.59,17.9-8.68,37.94-17.74,55.97-9.45,11.1,5.1,19.44,16.04,27.35,26.6,12.88,17.21,26.7,38.28,22.52,60.77-15.46-5.17-31.41-8.26-47.45-9.2-12.69-.74-25.42-.14-38.12-.42-31.66-.71-63.02-6.92-94.53-10.65-82.53-9.78-165.74-2.53-248.47,4.52-22.74,1.94-48.87,2.36-64.3-17.58"/></svg>