<?xml version="1.0" encoding="UTF-8"?><svg id="Layer_2" xmlns="http://www.w3.org/2000/svg" width="556" height="547.49" viewBox="0 0 556 547.49"><defs><style>.cls-1,.cls-2,.cls-3{stroke-miterlimit:10;}.cls-1,.cls-3{stroke:#000;}.cls-1,.cls-4{fill:#ffd3a4;}.cls-2{stroke:#ffd93b;}.cls-2,.cls-5{fill:#ffaf50;}.cls-3{fill:#a8a28a;}.cls-6,.cls-7,.cls-5,.cls-8,.cls-4,.cls-9{stroke-width:0px;}.cls-7{fill:#f7edc6;}.cls-8{fill:#fccda2;}.cls-9{fill:#f4f0e4;}</style></defs><ellipse class="cls-3" cx="275.47" cy="274.99" rx="229.5" ry="225.5"/><rect class="cls-6" x="247.85" y="239.4" width="25.88" height="56.32" rx="10.2" ry="10.2" transform="translate(521.57 535.13) rotate(180)"/><ellipse class="cls-6" cx="259.17" cy="200.54" rx="12.4" ry="12.95"/><rect class="cls-6" x="287.74" y="181.96" width="20.48" height="113.77" rx="8.07" ry="8.07"/><path class="cls-6" d="m295.38,295.8c6.08,2.4,12.84,3.61,19.38,3.38,7.59-.26,14.54-2.27,21.41-5.38,2.25-1.02,4.2-3.99,4.83-6.28.69-2.51.38-5.86-1.06-8.09s-3.6-4.22-6.28-4.83l-2.79-.38c-1.9,0-3.66.48-5.3,1.43-.44.2-.89.4-1.33.59l2.51-1.06c-3.45,1.44-7.03,2.47-10.74,3.01l2.79-.38c-3.59.48-7.19.48-10.78,0l2.79.38c-3.38-.49-6.66-1.4-9.85-2.65-2.38-.94-5.98-.18-8.09,1.06s-4.26,3.77-4.83,6.28c-.61,2.69-.48,5.7,1.06,8.09l1.64,2.13c1.31,1.3,2.85,2.2,4.63,2.7h0Z"/><path class="cls-6" d="m165.97,379.91c-.32-9.25-.26-18.52.2-27.76.23-4.58.56-9.16.98-13.72.21-2.28.45-4.56.71-6.84.13-1.14.27-2.28.41-3.41.07-.57.15-1.14.22-1.71.09-.69.09-.65-.02.13.04-.32.09-.65.13-.97l-8.81,3.59c.35.23.7.45,1.04.69.23.16.45.32.68.49-.61-.48-.74-.58-.39-.3.64.54,1.28,1.07,1.89,1.64,1.28,1.2,2.48,2.5,3.61,3.84.55.65,1.08,1.31,1.61,1.98.92,1.15-.78-1.04.11.14.26.34.52.68.77,1.02,1.14,1.53,2.26,3.07,3.39,4.61,4.85,6.63,9.71,13.26,14.56,19.89,1.15,1.57,2.4,2.6,4.38,2.86,1.74.23,3.85-.22,5.04-1.65,10.24-12.26,20.48-24.52,30.73-36.78l-10.24-4.24c-.23,16.63.3,33.28,1.62,49.86.38,4.76.82,9.51,1.33,14.26.17,1.64.55,3.04,1.76,4.24,1.04,1.04,2.75,1.82,4.24,1.76,2.97-.13,6.36-2.66,6-6-1.76-16.54-2.76-33.16-2.97-49.79-.06-4.78-.05-9.55.01-14.33.03-2.39-1.54-4.57-3.69-5.48s-5.03-.59-6.55,1.24c-10.24,12.26-20.48,24.52-30.73,36.78l9.42,1.21c-5.05-6.9-10.1-13.8-15.15-20.7-4.79-6.54-9.5-13.17-16.43-17.62-1.6-1.03-3.65-1.02-5.34-.3-1.53.65-3.23,2.11-3.47,3.89-2.63,19.05-3.74,38.24-3.07,57.47.11,3.13,2.68,6.15,6,6s6.12-2.64,6-6h0Z"/><path class="cls-6" d="m259.68,391.79c.18-3,.38-6,.63-9,.12-1.38.25-2.77.4-4.15.07-.69.15-1.38.23-2.07.05-.38.1-.76.14-1.15.06-.46.04-.31-.06.45.03-.23.06-.46.1-.69.83-5.83,2.08-11.62,4.08-17.16.23-.63.47-1.27.72-1.89.22-.56.65-.78-.1.2.12-.16.23-.53.3-.7.52-1.16,1.07-2.31,1.67-3.43,1.13-2.13,2.41-4.19,3.83-6.14.16-.21.91-.86.21-.3s.08-.1.23-.29c.32-.39.64-.78.97-1.16.82-.94,1.67-1.85,2.57-2.72.84-.82,1.72-1.6,2.63-2.33.67-.54.56,0-.2.15.13-.03.52-.38.59-.43.55-.39,1.1-.77,1.67-1.12.98-.62,1.98-1.18,3.02-1.69.42-.21.94-.35,1.32-.61-1.12.76-.78.33-.25.12.4-.15.8-.3,1.2-.43.96-.32,1.94-.59,2.94-.79.31-.06,1.95-.31.8-.16s-.03.01.17,0c.32-.03.65-.06.97-.07.98-.06,1.96-.06,2.93,0,.49.03.98.1,1.46.12.82.04-1.63-.27-.46-.07.32.06.64.11.97.17.96.18,1.91.42,2.85.71.52.16,1.03.33,1.54.53.2.07.41.18.61.24-1.55-.42-.73-.32-.24-.09.88.41,1.74.87,2.57,1.37.46.28.91.58,1.35.89.16.11.34.28.52.38-1.44-.81-.59-.47-.2-.14.78.65,1.52,1.36,2.21,2.11.32.35.6.77.94,1.1-1.01-1-.61-.82-.35-.44.21.31.43.62.64.94.54.83.93,1.73,1.41,2.58.39.7-.57-1.47-.15-.36.08.21.16.42.23.63.28.8.52,1.62.71,2.45.16.68.3,1.36.41,2.05.01.06.23,1.58.1.58s.05.53.06.59c.16,1.55.26,3.11.36,4.66.91,14.14,1.8,28.28,2.71,42.42.2,3.13,2.62,6.15,6,6,3.08-.14,6.21-2.65,6-6-.86-13.48-1.72-26.96-2.58-40.44-.42-6.64-.79-13.32-3.85-19.37-2.35-4.63-6.3-8.52-10.74-11.15s-9.68-4.12-14.92-4.44-10.73,1.01-15.66,3.27c-9.88,4.54-17.49,13.84-21.92,23.57-6.11,13.43-7.44,28.18-8.32,42.73-.19,3.14,2.9,6.14,6,6,3.41-.15,5.8-2.64,6-6h0Z"/><path class="cls-6" d="m265.57,372.11h45.11c3.14,0,6.15-2.76,6-6s-2.64-6-6-6h-45.11c-3.14,0-6.15,2.76-6,6s2.64,6,6,6h0Z"/><path class="cls-6" d="m348.28,333.74c.14,19.54.99,39.07,2.54,58.54.25,3.12,2.58,6.15,6,6,3.04-.14,6.27-2.65,6-6-1.55-19.48-2.4-39-2.54-58.54-.02-3.14-2.74-6.15-6-6s-6.02,2.64-6,6h0Z"/><path class="cls-6" d="m355.27,339.64c1.08-.28,2.17-.53,3.26-.74.52-.1,1.04-.18,1.56-.26,1-.16-.47.07-.55.07.4,0,.82-.1,1.22-.14,2.21-.22,4.43-.27,6.65-.17,1.11.05,2.22.14,3.32.27.23.03.46.06.7.09-1.71-.19-.93-.13-.55-.07.69.12,1.39.23,2.08.36,2.19.43,4.35,1.01,6.46,1.72,1,.34,1.99.72,2.98,1.11.93.37-.38-.14-.45-.19.28.18.66.29.97.43.54.25,1.07.5,1.6.76,2.01,1.01,3.96,2.14,5.82,3.4.49.33.98.67,1.46,1.02.19.14.38.28.57.42.8.59-.29-.22-.37-.29.83.83,1.86,1.51,2.73,2.29,1.73,1.56,3.35,3.24,4.84,5.02.35.41.67.84,1.02,1.26-1.19-1.43.1.16.35.52.7.98,1.36,1.99,1.98,3.03.66,1.09,1.27,2.2,1.82,3.35.13.26.24.53.37.79.61,1.3-.32-.89,0-.03.27.75.56,1.49.8,2.25.38,1.23.47,2.57.87,3.77-.38-1.14-.08-.81-.06-.33.02.35.05.71.06,1.06.03.78,0,1.55-.06,2.33-.08,1.2.07-.3.05-.33.09.15-.17.86-.21,1.05-.12.52-.27,1.03-.44,1.53-.09.27-.2.53-.29.8-.27.76.69-1.41.14-.36-.26.49-.5.98-.78,1.46s-.6.92-.91,1.37-.54.29.34-.43c-.15.12-.29.35-.42.5-.72.84-1.52,1.61-2.35,2.33-.21.18-.43.36-.65.54-.62.52,1.26-.91.28-.21-.42.3-.83.6-1.26.88-.96.64-1.95,1.23-2.96,1.79-.92.5-1.86.97-2.81,1.42-.48.22-.96.44-1.44.65-.15.07-1.24.53-.25.11s-.21.08-.41.16c-2.25.91-4.54,1.73-6.83,2.52-2.87,1-5.76,1.94-8.69,2.72-1.53.41-3.07.78-4.63,1.09-.7.14-1.4.27-2.11.38-.11.02-1.49.28-.46.08s-.47.05-.67.07c-1.45.16-2.92.24-4.38.24-.82,0-1.65-.03-2.47-.08-.27-.02-.55-.04-.82-.07-.5-.05-1.49-.41-.03.02-1.43-.41-2.94-.56-4.37-1.02-.26-.08-.52-.17-.78-.26-.36-.13-1.59-.37-.11,0-.76-.19-1.59-.75-2.26-1.12-2.75-1.51-6.67-.77-8.21,2.15s-.79,6.6,2.15,8.21c11.7,6.4,25.19,4.31,37.33.4,5.3-1.71,10.61-3.59,15.65-5.97,4.5-2.12,9.01-4.95,12.23-8.8,4.09-4.87,6.43-10.99,5.8-17.43s-3.26-12.68-6.97-18.08c-5.99-8.7-14.33-15.71-24.05-19.88-11.24-4.83-23.67-6.27-35.58-3.13-3.03.8-5.18,4.32-4.19,7.38s4.13,5.05,7.38,4.19h0Z"/><path class="cls-6" d="m353.33,193.82c.13,22.17.79,44.33,1.98,66.46.34,6.27.72,12.54,1.14,18.81.21,3.12,2.61,6.15,6,6,3.07-.14,6.23-2.65,6-6-1.49-22.11-2.46-44.25-2.89-66.41-.12-6.29-.2-12.57-.24-18.86-.02-3.14-2.75-6.15-6-6s-6.02,2.64-6,6h0Z"/><path class="cls-6" d="m360.18,199.77c1.37-.43,2.75-.8,4.15-1.11.64-.14,1.28-.27,1.93-.38.32-.06.64-.11.97-.16.16-.02.32-.04.48-.07.75-.12-1.38.15-.62.09,2.77-.23,5.5-.42,8.28-.28.7.04,1.41.09,2.11.16.32.03.65.07.97.1,1.32.14-1.11-.18-.14-.03,1.4.22,2.8.47,4.19.78,2.75.63,5.44,1.48,8.06,2.53.22.09,1.32.54.37.15s.14.07.36.17c.72.32,1.43.66,2.13,1.01,1.27.63,2.51,1.31,3.74,2.03,1.28.76,2.54,1.57,3.77,2.42.57.4,1.13.8,1.69,1.22.14.1.28.21.42.31.52.38-.56-.44-.52-.41.31.26.64.51.96.76,2.4,1.94,4.65,4.06,6.75,6.32,1.03,1.11,2.02,2.25,2.98,3.43.23.28.44.59.69.86.02.03-.77-1.01-.38-.49.11.15.22.29.33.44.52.69,1.02,1.39,1.52,2.1,1.83,2.64,3.48,5.4,4.94,8.26.38.75.75,1.5,1.1,2.26.18.39.35.79.54,1.19.35.76-.4-1.01-.09-.23.11.27.22.54.33.81.68,1.72,1.28,3.47,1.77,5.24.26.93.49,1.86.69,2.81.09.43.18.87.26,1.31.04.22.07.44.11.66.14.79-.05.1-.02-.28-.07.83.2,1.8.24,2.64.05.96.06,1.91.03,2.87-.02.51-.05,1.03-.09,1.54-.02.22-.05.44-.06.66-.04.68.06-.46.08-.5-.34.73-.32,1.86-.52,2.66-.17.71-.38,1.42-.61,2.12-.13.4-.27.79-.42,1.19-.06.17-.13.33-.2.5-.27.72.53-1.14.19-.46-.65,1.29-1.28,2.56-2.07,3.77-.19.28-.38.56-.57.84-.16.22-.95,1.28-.34.47s-.12.13-.27.31c-.25.3-.51.59-.78.88-.98,1.07-2.03,2.08-3.14,3.03-.26.22-.51.43-.77.64-.13.11-.26.21-.39.32-.5.41.61-.46.55-.42-.6.41-1.17.87-1.77,1.28-2.35,1.62-4.85,3.03-7.4,4.32-1.28.64-2.57,1.25-3.88,1.84-.59.27-1.18.53-1.78.79-.29.13-.59.25-.88.38-.19.08-.38.16-.58.24-.75.32-.55.2.08-.03-3.38,1.25-6.66,2.72-10.07,3.89s-6.79,2.15-10.29,2.83c-.8.16-1.61.29-2.42.42-1.15.18,1.14-.12-.02,0-.54.05-1.07.11-1.61.16-1.65.13-3.32.17-4.98.1-.85-.04-1.71-.21-2.55-.21-.02,0,1.29.2.62.08-.19-.04-.39-.06-.58-.09-.45-.08-.9-.17-1.35-.26-.77-.17-1.54-.37-2.29-.6-.8-.24-1.64-.72-2.45-.86.14.03,1.27.58.32.13-.18-.09-.37-.17-.55-.26-.37-.18-.74-.36-1.1-.56-.8-.43-1.58-.9-2.35-1.4-2.64-1.72-6.75-.62-8.21,2.15-1.58,2.99-.66,6.38,2.15,8.21,14.13,9.2,31.34,5.58,46.03-.15,12.6-4.92,26.09-10.54,33.88-22.24,9.56-14.36,5.01-32.65-3.07-46.53-6.82-11.72-16.94-21.86-29.11-27.97-11.86-5.96-25.28-8.2-38.33-5.4-1.45.31-2.89.7-4.31,1.14-2.99.94-5.21,4.22-4.19,7.38s4.17,5.2,7.38,4.19h0Z"/><path class="cls-1" d="m118.56,227.48v12.08l62.61,53.77,9.43,3.73h8.32l10.55-4.48,54.34-58.63c-1.39-3.79-2.79-7.58-4.18-11.36-2.79-2.85-5.58-5.7-8.37-8.55-3.19-1.22-6.38-2.44-9.56-3.66l3.59-7.33c-1.65-3.77-3.29-7.53-4.94-11.3l-9.43-8.22c-5.17.4-10.34.8-15.51,1.2-3.19-4.88-6.38-9.77-9.56-14.65-5.98-2.03-11.95-4.07-17.93-6.1-5.98,2.03-11.95,4.07-17.93,6.1-2.79,6.1-5.58,12.21-8.37,18.31-4.78-1.63-9.56-3.26-14.35-4.88-2.99,2-5.98,4-8.97,6-1.39,3.7-2.79,7.4-4.18,11.1.4,4.48.8,8.95,1.2,13.43-4.38,1.63-8.77,3.26-13.15,4.88-1.2,2.85-2.39,5.7-3.59,8.55Z"/><path class="cls-7" d="m135.32,215c10.48,12.99,21.29,25.7,32.43,38.12,3.17,3.54,6.38,7.05,9.6,10.54.33.36.86-.18.53-.53-11.32-12.25-22.33-24.79-32.99-37.62-3.04-3.66-6.05-7.34-9.04-11.04-.3-.38-.83.16-.53.53h0Z"/><path class="cls-7" d="m161.31,189.02c3.45,16.69,8.09,33.12,13.89,49.15,1.66,4.59,3.42,9.15,5.27,13.67.18.44.91.25.72-.2-6.44-15.77-11.77-31.98-15.89-48.51-1.19-4.75-2.27-9.52-3.26-14.31-.1-.47-.82-.27-.72.2h0Z"/><path class="cls-7" d="m215.17,184.68c.11,17.59-2.61,35.17-8.08,51.9-1.57,4.81-3.37,9.54-5.38,14.18-.19.44.46.82.65.38,7.03-16.23,11.42-33.54,12.95-51.16.44-5.08.64-10.19.61-15.29,0-.48-.75-.48-.75,0h0Z"/><path class="cls-7" d="m242.12,210.44c-4.17,15.16-11.64,29.38-21.84,41.36-2.86,3.36-5.94,6.54-9.2,9.52-.36.33.17.86.53.53,11.63-10.64,20.8-23.84,26.84-38.39,1.73-4.18,3.19-8.46,4.39-12.82.13-.47-.6-.66-.72-.2h0Z"/><path class="cls-9" d="m172.34,176.95c2.89,10.77,5.99,21.48,9.31,32.13.14.46.87.26.72-.2-3.31-10.65-6.41-21.36-9.31-32.13-.13-.47-.85-.27-.72.2h0Z"/><path class="cls-9" d="m190.6,171.48c0,8.11,0,16.22,0,24.33,0,.48.75.48.75,0,0-8.11,0-16.22,0-24.33,0-.48-.75-.48-.75,0h0Z"/><path class="cls-9" d="m208.81,177.7c-2.93,13.44-6.3,26.78-10.1,40-.13.46.59.66.72.2,3.8-13.22,7.16-26.56,10.1-40,.1-.47-.62-.67-.72-.2h0Z"/><path class="cls-9" d="m227.17,192.57c-.03,8.05-1.19,16.04-3.45,23.76-.14.46.59.66.72.2,2.28-7.79,3.45-15.85,3.47-23.96,0-.48-.75-.48-.75,0h0Z"/><path class="cls-9" d="m249.48,220.22c-1,4.68-2.78,9.15-5.29,13.22-.25.41.39.79.65.38,2.54-4.13,4.36-8.66,5.37-13.4.1-.47-.62-.67-.72-.2h0Z"/><path class="cls-8" d="m132.96,218.22c5.65,4.18,9.1,10.79,13.16,16.37,4.48,6.14,9.31,12.02,14.5,17.57,2.93,3.14,5.97,6.17,9.11,9.1,1.41,1.32,3.54-.8,2.12-2.12-5.62-5.24-10.92-10.82-15.85-16.72-4.86-5.82-9.06-12.03-13.47-18.18-2.32-3.23-4.85-6.23-8.06-8.6-1.55-1.15-3.05,1.45-1.51,2.59h0Z"/><path class="cls-8" d="m157.44,189.96c3.34,16.11,7.41,32.07,12.2,47.82,1.38,4.54,2.82,9.06,4.31,13.56.6,1.82,3.5,1.04,2.89-.8-5.19-15.65-9.69-31.51-13.46-47.56-1.08-4.59-2.09-9.2-3.05-13.82-.39-1.89-3.28-1.09-2.89.8h0Z"/><path class="cls-8" d="m169.12,227.92c-.82,4.2,1.2,7.84,2.98,11.49,1.91,3.92,3.17,8.11,3.85,12.42.3,1.9,3.19,1.09,2.89-.8-.63-4.01-1.79-7.89-3.44-11.6-1.46-3.29-4.13-6.92-3.39-10.71.37-1.89-2.52-2.69-2.89-.8h0Z"/><path class="cls-8" d="m216.06,185.74c-1.04,18.74-2.14,37.9-9.26,55.5-1.87,4.62-4.2,9.06-6.96,13.22-1.07,1.61,1.53,3.12,2.59,1.51,10.43-15.71,13.93-34.66,15.51-53.13.49-5.69.8-11.39,1.12-17.1.11-1.93-2.89-1.92-3,0h0Z"/><path class="cls-8" d="m242.5,212.91c.38,2.07-.69,4.09-1.62,5.87-1.02,1.96-2.05,3.92-3.08,5.88-2.04,3.88-4.08,7.76-6.16,11.61-3.45,6.37-7.11,12.75-12.03,18.12-2.76,3.01-5.87,5.61-9.44,7.6l1.82,2.36c10.9-8.43,20.21-18.8,27.51-30.49,1.03-1.64-1.57-3.15-2.59-1.51-7.17,11.48-16.34,21.61-27.04,29.88-1.38,1.07.38,3.16,1.82,2.36,6.74-3.77,11.92-9.61,16.16-15.97,4.75-7.12,8.57-14.86,12.55-22.43,1.23-2.34,2.53-4.67,3.68-7.06,1.08-2.24,1.78-4.5,1.32-7-.35-1.9-3.24-1.09-2.89.8h0Z"/><path class="cls-8" d="m187.79,172.04c-.67,7.1-.99,14.24-.95,21.37.01,1.93,3.01,1.93,3,0-.04-7.14.28-14.27.95-21.37.18-1.92-2.82-1.91-3,0h0Z"/><path class="cls-8" d="m205.55,177.82c-.32,3.37-1.39,6.6-2.34,9.83s-1.77,6.46-2.6,9.71c-1.65,6.48-3.33,13-6.15,19.09-.81,1.74,1.78,3.27,2.59,1.51,2.94-6.34,4.74-13.06,6.46-19.81.86-3.39,1.73-6.79,2.73-10.14s1.98-6.69,2.32-10.19c.18-1.92-2.82-1.91-3,0h0Z"/><path class="cls-8" d="m169.75,178.74c-.42,10.99,5.23,20.7,8.26,30.94.55,1.85,3.44,1.06,2.89-.8-2.95-9.95-8.56-19.47-8.16-30.14.07-1.93-2.93-1.93-3,0h0Z"/><path class="cls-8" d="m127.19,242.21c2.31,4.04,5.78,7.14,9.39,10,4.19,3.3,8.41,6.58,12.56,9.93,8.48,6.86,16.81,13.91,25.08,21.02,4.72,4.06,9.42,8.14,14.12,12.22,1.45,1.26,3.58-.85,2.12-2.12-16.35-14.19-32.72-28.39-49.82-41.68-4.06-3.15-8.26-6.35-10.85-10.89-.96-1.68-3.55-.17-2.59,1.51h0Z"/><path class="cls-8" d="m168.3,272.87c-4.11-2.33-7.79-5.26-10.99-8.73l-1.82,2.36c6.01,3.59,11.37,8.12,15.94,13.42.53.61,1.58.54,2.12,0,.63-.63.51-1.49,0-2.12-3.06-3.83-6.11-7.66-9.17-11.5-.51-.63-1.59-.53-2.12,0-.63.63-.51,1.49,0,2.12,3.06,3.83,6.11,7.66,9.17,11.5l2.12-2.12c-4.73-5.48-10.33-10.17-16.55-13.88-1.49-.89-2.96,1.12-1.82,2.36,3.36,3.64,7.28,6.76,11.6,9.2,1.68.95,3.2-1.64,1.51-2.59h0Z"/><path class="cls-8" d="m167.46,260.1c6.01,7.19,12.02,14.38,18.03,21.57,1.08,1.29,3.36-.43,2.36-1.82-5.56-7.67-11.12-15.35-16.69-23.02l-2.36,1.82c5.86,5.04,11.18,10.68,15.86,16.83.98,1.29,3.18.61,2.74-1.16-1.16-4.66-2.84-9.16-5.03-13.43l-2.59,1.51c2.2,3.18,3.99,6.61,5.33,10.24.66,1.79,3.34,1.11,2.89-.8-1.46-6.25-3.47-12.34-5.99-18.25-.66-1.55-3.38-.42-2.74,1.16,2.31,5.69,4.63,11.39,6.94,17.08l2.2-1.69c-4.89-3.57-8.93-8.18-12.07-13.34-1-1.65-3.56-.16-2.59,1.51,3.65,6.32,7.31,12.64,10.96,18.97.84,1.46,3.23.49,2.74-1.16-2.03-6.86-3.45-13.89-4.23-21l-2.8.76c2.43,5.45,4.86,10.89,7.29,16.34.71,1.59,3.14.44,2.74-1.16-1.71-6.76-3.41-13.51-5.12-20.27l-2.89.8c1.73,5.01,3.46,10.01,5.19,15.02l2.74-1.16c-3.81-6.9-7.62-13.8-11.43-20.71-.86-1.55-3.06-.45-2.74,1.16,1.62,8.08,5.17,15.69,10.48,22,.79.94,2.72.22,2.56-1.06-.91-7.45-1.82-14.9-2.73-22.35l-2.95.4c1.22,7.34,3.16,14.54,5.82,21.49.56,1.46,3.05,1.42,2.95-.4-.46-8.06-.01-16.14,1.39-24.08l-2.95-.4c.27,9.19.54,18.37.81,27.56.05,1.66,2.51,2.08,2.95.4,1.89-7.22,3.78-14.44,5.66-21.65l-2.89-.8c-1.89,9.5-2.96,19.15-3.2,28.83-.04,1.66,2.6,2.08,2.95.4,1.4-6.74,3.74-13.22,7.1-19.24l-2.74-1.16c-1.47,4.14-2.93,8.28-4.4,12.42l2.95.4c-.23-5.79.51-11.52,2.22-17.06l-2.95-.4c-.14,6.85-1.32,13.61-3.51,20.1-.58,1.72,1.81,2.45,2.74,1.16,5.05-7.04,9.33-14.58,12.85-22.49l-2.74-1.16c-2.52,6.89-5.04,13.77-7.56,20.66-.51,1.38,1.56,2.6,2.51,1.46,4.92-5.9,9.54-12.06,13.84-18.43.98-1.46-1.15-2.93-2.36-1.82-7.3,6.74-11.6,16.13-12.89,25.9-.19,1.41,1.7,1.82,2.56,1.06,6.77-5.97,12.68-12.82,17.73-20.3.88-1.3-.81-2.73-2.05-2.05-5.66,3.1-10.18,7.94-13.22,13.59-.92,1.71,1.52,3.11,2.59,1.51,4.36-6.47,9.72-12.28,15.96-16.97l-1.82-2.36c-6.04,5.75-10.52,12.89-13.42,20.69-.44,1.17,1.17,2.47,2.2,1.69,3.38-2.54,6.76-5.08,10.14-7.61l-1.82-2.36c-5.33,5.75-9.89,12.18-13.62,19.07-.79,1.47,1.13,3.07,2.36,1.82,4.34-4.43,8.67-8.87,13.01-13.3,1.37-1.4-.67-3.37-2.12-2.12-5.02,4.33-9.18,9.57-12.42,15.34-.89,1.58,1.07,2.82,2.36,1.82,5.79-4.55,11.15-9.62,16.05-15.13,1.28-1.44-.71-3.47-2.12-2.12-7.71,7.37-13.86,17.17-23.8,21.81-4.54,2.12-9.47,2.4-14.16.61s-8.7-5.31-11.92-9.16c-3.92-4.69-6.89-10.11-9.82-15.44l-2.36,1.82c6.53,7.8,13.05,15.6,19.58,23.4l2.12-2.12c-15.18-11.81-28.96-25.34-41.2-40.17-1.23-1.49-3.34.64-2.12,2.12,12.24,14.83,26.03,28.35,41.2,40.17,1.51,1.18,3.38-.61,2.12-2.12-6.53-7.8-13.05-15.6-19.58-23.4-1.12-1.34-3.15.37-2.36,1.82,5.28,9.61,11.27,20.42,21.7,25.22,4.79,2.2,10.03,2.74,15.09,1.13s9.88-5.14,13.83-8.96c4.82-4.65,8.94-9.96,13.79-14.59l-2.12-2.12c-4.9,5.51-10.26,10.58-16.05,15.13l2.36,1.82c3.12-5.57,7.11-10.56,11.95-14.73l-2.12-2.12c-4.34,4.43-8.67,8.87-13.01,13.3l2.36,1.82c3.61-6.68,7.98-12.89,13.15-18.46,1.1-1.18-.39-3.43-1.82-2.36-3.38,2.54-6.76,5.08-10.14,7.61l2.2,1.69c2.72-7.31,7-13.98,12.65-19.36,1.2-1.14-.43-3.4-1.82-2.36-6.67,5.02-12.37,11.12-17.04,18.05l2.59,1.51c2.82-5.23,6.91-9.65,12.15-12.52l-2.05-2.05c-4.9,7.27-10.68,13.89-17.26,19.69l2.56,1.06c1.18-8.97,5.34-17.61,12.01-23.78l-2.36-1.82c-4.15,6.16-8.61,12.12-13.37,17.83l2.51,1.46c2.52-6.89,5.04-13.77,7.56-20.66.58-1.58-2.05-2.71-2.74-1.16-3.52,7.91-7.81,15.46-12.85,22.49l2.74,1.16c2.27-6.74,3.47-13.79,3.62-20.9.04-1.73-2.45-1.99-2.95-.4-1.79,5.77-2.57,11.82-2.33,17.86.07,1.73,2.38,1.99,2.95.4,1.47-4.14,2.93-8.28,4.4-12.42.57-1.61-1.92-2.62-2.74-1.16-3.47,6.23-5.95,12.98-7.4,19.96l2.95.4c.23-9.42,1.25-18.79,3.09-28.03.37-1.87-2.4-2.68-2.89-.8-1.89,7.22-3.78,14.44-5.66,21.65l2.95.4c-.27-9.19-.54-18.37-.81-27.56-.05-1.61-2.64-2.13-2.95-.4-1.45,8.21-1.97,16.55-1.5,24.88l2.95-.4c-2.66-6.95-4.6-14.15-5.82-21.49-.27-1.65-3.15-1.28-2.95.4.91,7.45,1.82,14.9,2.73,22.35l2.56-1.06c-4.98-5.92-8.2-13.12-9.71-20.68l-2.74,1.16c3.81,6.9,7.62,13.8,11.43,20.71.81,1.46,3.31.48,2.74-1.16-1.73-5.01-3.46-10.01-5.19-15.02-.63-1.81-3.37-1.09-2.89.8,1.71,6.76,3.41,13.51,5.12,20.27l2.74-1.16c-2.43-5.45-4.86-10.89-7.29-16.34-.59-1.33-2.95-.69-2.8.76.81,7.38,2.23,14.68,4.34,21.8l2.74-1.16c-3.65-6.32-7.31-12.64-10.96-18.97l-2.59,1.51c3.41,5.63,7.83,10.53,13.14,14.42,1.01.74,2.69-.51,2.2-1.69-2.31-5.69-4.63-11.39-6.94-17.08l-2.74,1.16c2.41,5.66,4.29,11.54,5.68,17.53l2.89-.8c-1.43-3.87-3.29-7.55-5.64-10.95-1.09-1.58-3.48-.22-2.59,1.51,2.08,4.05,3.63,8.3,4.73,12.71l2.74-1.16c-4.84-6.36-10.27-12.22-16.33-17.43-1.2-1.03-3.42.35-2.36,1.82,5.56,7.67,11.12,15.35,16.69,23.02l2.36-1.82c-6.01-7.19-12.02-14.38-18.03-21.57-1.24-1.48-3.35.65-2.12,2.12h0Z"/><path class="cls-8" d="m163.65,266.02c2.98,2.99,5.65,6.25,7.98,9.78l2.36-1.82c-4.42-4.98-8.76-10.02-13.03-15.12l-2.12,2.12c4.6,3.91,8.13,8.81,11.6,13.7l2.36-1.82c-5.02-5.93-11.09-10.93-17.88-14.72-1.45-.81-3.11,1.17-1.82,2.36,2.89,2.64,5.39,5.61,7.48,8.91l2.36-1.82c-3.34-3.31-6.97-6.3-10.85-8.95l-1.16,2.74c2.24.54,4.17,1.8,6.12,2.98s4.05,2.48,6.05,3.76c4.01,2.55,7.96,5.2,11.85,7.92,1.2.84,2.93-.85,2.05-2.05-3.75-5.13-7.19-10.47-10.45-15.93l-2.59,1.51c4.68,6.4,9.82,12.44,15.43,18.05,1.4,1.41,3.28-.64,2.12-2.12-2.84-3.63-6.39-6.64-10.44-8.85-1.3-.71-2.83.73-2.05,2.05,2.01,3.43,4.03,6.87,6.04,10.3l2.05-2.05-4.23-3.1c-1.44-1.05-2.89,1.15-1.82,2.36,2.54,2.86,5.26,5.53,8.17,8,1.49,1.27,3.31-.62,2.12-2.12-2.21-2.78-3.66-6.2-4.13-9.72l-1.9,1.45c1.42.23,2.59.88,3.4,2.1.89,1.35,3.31.54,2.74-1.16-.72-2.15-1.28-4.34-1.63-6.59-.04-.23-.07-.46-.1-.7.05-.65-.24-.57-.84.23,0,.17,1.08.84,1.26,1,.85.72,1.64,1.49,2.4,2.31.89.95,2.58.22,2.56-1.06-.04-2.92-.08-5.84-.12-8.77-.02-1.65-2.55-2.09-2.95-.4-.29,1.24-.57,2.47-.86,3.71l2.74-.36c-2.22-3.12-4.35-6.3-6.37-9.55-.93-1.49-3.05-.49-2.74,1.16.37,2,1.18,3.87,2.39,5.5.85,1.15,2.76.84,2.8-.76.07-3.53-.49-7.83-4.47-8.96-1.1-.31-2.15.75-1.85,1.85.61,2.2,1.76,4.16,3.41,5.74,1.42,1.37,3.32-.65,2.12-2.12-2.45-3-5.05-5.86-7.81-8.58-1.14-1.13-2.74.05-2.51,1.46.5,2.99,1.53,5.84,3.03,8.48l2.36-1.82c-1.09-1.04-2.17-2.08-3.26-3.13s-2.93,0-2.51,1.46c.55,1.92,1.54,3.61,2.97,5.01,1.2,1.18,3.24-.33,2.36-1.82-1.54-2.58-3.46-4.9-5.74-6.87-1.2-1.04-3.42.35-2.36,1.82,2.26,3.1,4.51,6.19,6.77,9.29l2.05-2.05c-2.54-1.46-4.97-3.09-7.25-4.92l-1.46,2.51c4.25,1.74,8.36,3.81,12.32,6.15.97.57,2.28-.16,2.26-1.3-.1-4.92-.2-9.84-.3-14.76l-2.56,1.06c3.46,4.09,6.77,8.31,9.91,12.66.91,1.25,3.43.55,2.74-1.16-1.83-4.54-3.34-9.19-4.54-13.93l-2.89.8c1.11,3.5,2.41,6.92,3.88,10.28.5,1.14,2.54.87,2.74-.36.49-3.07.79-6.15.85-9.26h-3c.3,2.64.6,5.28.91,7.92.22,1.91,2.81,1.94,3,0,.22-2.22.57-4.41,1.02-6.59h-2.89c.64,2.43,1.28,4.87,1.93,7.3.4,1.5,2.43,1.35,2.89,0,1.09-3.16,1.96-6.37,2.62-9.65.38-1.88-2.33-2.66-2.89-.8-1.21,3.99-1.79,8.14-1.73,12.3.03,1.74,2.4,1.97,2.95.4,1.61-4.64,3.44-9.2,5.49-13.66l-2.74-1.16c-.64,4.67-1.02,9.36-1.08,14.07-.02,1.51,2.04,2.01,2.8.76,1.91-3.17,3.63-6.46,5.14-9.84l-2.8-.76c-.44,3.86-.64,7.73-.58,11.61.02,1.39,2.14,2.17,2.8.76,1.7-3.64,3.39-7.28,5.09-10.92.8-1.73-1.71-3.25-2.59-1.51-1.55,3.04-2.99,6.13-4.33,9.27-.6,1.41,1.15,3.25,2.36,1.82,3.03-3.61,6.07-7.22,9.1-10.82l-2.51-1.46c-1.17,4.15-2.76,8.13-4.77,11.94-.79,1.5,1.1,3.02,2.36,1.82,3.14-2.99,6.2-6.07,9.17-9.22l-2.36-1.82c-2.24,4.21-4.13,8.6-5.66,13.12-.43,1.27,1.12,2.32,2.2,1.69,2.84-1.63,5.37-3.72,7.5-6.21,1.15-1.35-.26-3.02-1.82-2.36-4.2,1.8-8.03,4.24-11.49,7.21-1.12.96.07,3.01,1.46,2.51,4.2-1.52,8.17-3.53,11.86-6.04l-2.05-2.05c-2.75,3.79-5.51,7.57-8.26,11.36-.86,1.18.55,2.39,1.69,2.2,6.22-1.03,8.18-7.9,13.34-10.56l-1.51-2.59c-3.92,3.01-7.35,6.47-10.31,10.43-.98,1.31.85,2.65,2.05,2.05,4.03-2.02,7.93-4.28,11.67-6.8l-1.82-2.36c-3.42,3.47-6.58,7.18-9.48,11.1-.9,1.22.85,2.84,2.05,2.05,3.71-2.44,7.42-4.87,11.13-7.31l-1.51-2.59c-3.59,2.5-6.94,5.29-10.03,8.38-1.27,1.27.33,3.04,1.82,2.36,4.05-1.87,7.94-4.04,11.65-6.52l-1.51-2.59c-2.86,2.19-5.55,4.52-7.63,7.49-1,1.42,1.17,2.99,2.36,1.82l2.54-2.51-2.36-1.82c-3.83,4.98-8.33,9.48-13.31,13.32-.65.5-.98,1.28-.54,2.05.36.64,1.41,1.03,2.05.54,5.42-4.17,10.21-8.98,14.38-14.39,1.06-1.38-1.18-2.98-2.36-1.82l-2.54,2.51,2.36,1.82c1.77-2.52,4.12-4.55,6.55-6.41,1.49-1.14.13-3.69-1.51-2.59-3.71,2.47-7.6,4.65-11.65,6.52l1.82,2.36c2.91-2.91,6.05-5.56,9.43-7.91,1.57-1.09.12-3.66-1.51-2.59-3.71,2.44-7.42,4.87-11.13,7.31l2.05,2.05c2.75-3.71,5.77-7.21,9.01-10.49,1.16-1.18-.36-3.33-1.82-2.36-3.75,2.51-7.64,4.78-11.67,6.8l2.05,2.05c2.63-3.51,5.75-6.69,9.24-9.36,1.5-1.15.25-3.5-1.51-2.59-2.56,1.32-4.36,3.53-6.19,5.68s-3.67,4.11-6.44,4.57l1.69,2.2c2.75-3.79,5.51-7.57,8.26-11.36.88-1.21-.85-2.87-2.05-2.05-3.47,2.37-7.19,4.31-11.15,5.74l1.46,2.51c3.26-2.8,6.93-5.05,10.88-6.74l-1.82-2.36c-1.97,2.31-4.26,4.23-6.89,5.74l2.2,1.69c1.45-4.28,3.23-8.42,5.35-12.41.78-1.46-1.14-3.1-2.36-1.82-2.98,3.15-6.04,6.23-9.17,9.22l2.36,1.82c2.13-4.03,3.84-8.27,5.08-12.65.39-1.37-1.51-2.64-2.51-1.46-3.03,3.61-6.07,7.22-9.1,10.82l2.36,1.82c1.34-3.14,2.78-6.23,4.33-9.27l-2.59-1.51-5.09,10.92,2.8.76c-.05-3.88.14-7.75.58-11.61.17-1.45-2.2-2.08-2.8-.76-1.51,3.38-3.23,6.67-5.14,9.84l2.8.76c.06-4.44.37-8.87.98-13.27.1-.75-.12-1.45-.87-1.77-.63-.27-1.56-.07-1.87.61-2.16,4.7-4.09,9.49-5.79,14.38l2.95.4c-.06-3.92.48-7.75,1.62-11.5l-2.89-.8c-.65,3.28-1.53,6.49-2.62,9.65h2.89c-.64-2.43-1.28-4.87-1.93-7.3-.36-1.38-2.58-1.48-2.89,0-.51,2.44-.89,4.91-1.13,7.39h3c-.3-2.64-.6-5.28-.91-7.92-.21-1.87-2.96-1.98-3,0-.06,2.84-.3,5.66-.75,8.46l2.74-.36c-1.37-3.12-2.55-6.32-3.58-9.57-.58-1.83-3.37-1.08-2.89.8,1.2,4.74,2.71,9.39,4.54,13.93l2.74-1.16c-3.29-4.55-6.75-8.98-10.37-13.26-.85-1.01-2.59-.18-2.56,1.06.1,4.92.2,9.84.3,14.76l2.26-1.3c-4.18-2.48-8.53-4.61-13.03-6.45-1.37-.56-2.6,1.59-1.46,2.51,2.48,1.99,5.09,3.8,7.85,5.39,1.22.7,2.98-.78,2.05-2.05-2.26-3.1-4.51-6.19-6.77-9.29l-2.36,1.82c2.09,1.81,3.85,3.89,5.27,6.26l2.36-1.82c-1.07-1.05-1.79-2.25-2.2-3.69l-2.51,1.46c1.09,1.04,2.17,2.08,3.26,3.13,1.22,1.17,3.21-.32,2.36-1.82-1.38-2.42-2.27-5.01-2.73-7.76l-2.51,1.46c2.76,2.72,5.36,5.58,7.81,8.58l2.12-2.12c-1.29-1.24-2.16-2.69-2.64-4.42l-1.85,1.85c2.46.7,2.3,4.07,2.26,6.07l2.8-.76c-1.08-1.45-1.75-3.01-2.08-4.78l-2.74,1.16c2.03,3.25,4.15,6.43,6.37,9.55.7.98,2.43,1,2.74-.36.29-1.24.57-2.47.86-3.71l-2.95-.4c.04,2.92.08,5.84.12,8.77l2.56-1.06c-1.36-1.46-5.77-6.49-7.63-3.25-.74,1.28-.15,3.14.1,4.48.35,1.84.84,3.65,1.43,5.43l2.74-1.16c-1.21-1.83-3.01-3.13-5.19-3.48-.83-.13-2.04.38-1.9,1.45.58,4.4,2.24,8.36,5,11.84l2.12-2.12c-2.91-2.48-5.63-5.15-8.17-8l-1.82,2.36c1.41,1.03,2.82,2.07,4.23,3.1,1.26.92,2.77-.84,2.05-2.05-2.01-3.43-4.03-6.87-6.04-10.3l-2.05,2.05c3.84,2.1,7.13,4.93,9.83,8.38l2.12-2.12c-5.42-5.43-10.43-11.25-14.96-17.44-1.11-1.52-3.6-.18-2.59,1.51,3.26,5.46,6.7,10.8,10.45,15.93l2.05-2.05c-4.02-2.82-8.1-5.54-12.25-8.17-2-1.27-4.02-2.52-6.05-3.75s-4.09-2.48-6.43-3.04c-1.69-.4-2.55,1.79-1.16,2.74,3.67,2.51,7.09,5.35,10.24,8.48,1.19,1.18,3.29-.35,2.36-1.82-2.23-3.51-4.89-6.71-7.95-9.51l-1.82,2.36c6.59,3.67,12.4,8.49,17.27,14.25,1.09,1.29,3.34-.42,2.36-1.82-3.61-5.09-7.28-10.24-12.07-14.31-1.48-1.26-3.36.64-2.12,2.12,4.27,5.1,8.61,10.15,13.03,15.12,1.12,1.26,3.3-.39,2.36-1.82-2.47-3.73-5.29-7.21-8.45-10.38-1.36-1.37-3.49.75-2.12,2.12h0Z"/><path class="cls-4" d="m189.13,288.22c-4.1-2.15-8.16-4.39-12.16-6.73-1.42-.83-3.18,1.25-1.82,2.36,2.37,1.92,4.73,3.85,7.1,5.77l1.82-2.36c-3.28-1.69-6.25-3.82-8.9-6.39l-.66,2.51c4.69-.89,9.24,1.53,13.24,3.67,1.4.75,2.65-.72,2.05-2.05-1.58-3.51-3.7-6.7-6.29-9.55-1.12-1.23-3.4.45-2.36,1.82,2.65,3.45,5.43,6.77,8.39,9.96,1.04,1.13,2.87-.05,2.51-1.46-1.19-4.56-3.65-8.7-7.14-11.89-1.07-.98-2.94-.03-2.51,1.46,1.3,4.45,3.7,8.47,7.05,11.68.87.83,2.68.3,2.56-1.06-.39-4.32-1.27-8.55-2.67-12.65l-2.74,1.16c2.82,3.91,5.63,7.81,8.45,11.72.66.92,2.51,1.05,2.74-.36.96-5.89.84-11.83.66-17.78h-3c.17,5.62.35,11.23.52,16.85l2.95-.4c-1.17-4.38-2.69-8.63-4.51-12.78-.58-1.33-2.32-.68-2.74.36-1.5,3.72-1.65,7.86-.5,11.69.34,1.12,1.66,1.41,2.51.66,3.73-3.31,6.86-7.26,9.26-11.63l-2.74-1.16c-.91,4.32-2.1,8.56-3.55,12.73-.58,1.67,1.85,2.53,2.74,1.16,2.49-3.83,5.4-7.33,8.71-10.47l-2.51-1.46c-1.59,4.42-3.18,8.83-4.77,13.25-.53,1.46,1.5,2.46,2.51,1.46,3.02-2.98,6.04-5.96,9.06-8.93l-2.36-1.82c-2.91,4.34-6.16,8.43-9.73,12.26l2.36,1.82c.67-1.33,1.58-2.37,2.86-3.16l-1.82-2.36c-4.57,3.58-10.4,5.44-16.19,5.2-3.1-.13-5.81-.8-7.87-3.25s-3.38-5.14-4.33-8.01c-.6-1.83-3.5-1.04-2.89.8,1.1,3.34,2.74,6.47,4.97,9.19,2.4,2.91,5.64,3.96,9.31,4.23,6.9.51,13.71-1.79,19.12-6.03,1.35-1.06-.39-3.23-1.82-2.36-1.69,1.04-3.03,2.46-3.93,4.23-.74,1.46,1.14,3.12,2.36,1.82,3.74-4.01,7.14-8.31,10.19-12.86.97-1.44-1.17-2.99-2.36-1.82-3.02,2.98-6.04,5.96-9.06,8.93l2.51,1.46c1.59-4.42,3.18-8.83,4.77-13.25.53-1.48-1.49-2.43-2.51-1.46-3.49,3.32-6.56,7.04-9.18,11.08l2.74,1.16c1.45-4.17,2.63-8.41,3.55-12.73.34-1.6-1.89-2.71-2.74-1.16-2.29,4.17-5.23,7.87-8.79,11.03l2.51.66c-1.02-3.38-.82-6.83.5-10.1l-2.74.36c1.71,3.91,3.1,7.94,4.21,12.06.43,1.61,3,1.32,2.95-.4-.17-5.62-.35-11.23-.52-16.85-.06-1.93-3.06-1.93-3,0,.17,5.66.36,11.37-.56,16.98l2.74-.36c-2.82-3.91-5.63-7.81-8.45-11.72-.92-1.28-3.34-.58-2.74,1.16,1.32,3.84,2.2,7.8,2.57,11.85l2.56-1.06c-2.98-2.86-5.12-6.38-6.28-10.35l-2.51,1.46c3.12,2.86,5.29,6.47,6.36,10.57l2.51-1.46c-2.78-3-5.43-6.11-7.92-9.35l-2.36,1.82c2.42,2.66,4.35,5.66,5.82,8.94l2.05-2.05c-4.82-2.56-9.96-5.03-15.55-3.97-1.12.21-1.43,1.77-.66,2.51,2.82,2.74,6.01,5.05,9.5,6.86,1.43.74,3.21-1.23,1.82-2.36-2.37-1.92-4.73-3.85-7.1-5.77l-1.82,2.36c4,2.33,8.06,4.58,12.16,6.73,1.71.9,3.23-1.69,1.51-2.59h0Z"/><path class="cls-4" d="m167.92,254.41c3.75,5.38,7.94,10.45,12.55,15.12,1.36,1.38,3.48-.74,2.12-2.12-4.43-4.49-8.47-9.34-12.08-14.51-.46-.66-1.31-.97-2.05-.54-.66.38-1,1.38-.54,2.05h0Z"/><path class="cls-4" d="m177.86,240.26c-.56,8.64.65,17.35,3.56,25.5.64,1.81,3.54,1.03,2.89-.8-2.83-7.93-3.99-16.3-3.45-24.71.12-1.93-2.88-1.92-3,0h0Z"/><path class="cls-4" d="m182.38,225.41c-.84,16.09,1.8,32.3,7.75,47.27.7,1.77,3.61,1,2.89-.8-5.86-14.75-8.47-30.62-7.65-46.47.1-1.93-2.9-1.92-3,0h0Z"/><path class="cls-4" d="m193.33,227.77c-1.19,16.31-.59,32.7,1.72,48.89.27,1.9,3.16,1.09,2.89-.8-2.27-15.91-2.78-32.06-1.61-48.09.14-1.93-2.86-1.92-3,0h0Z"/><path class="cls-4" d="m203.06,228.53c0,17.19,0,34.38,0,51.57,0,1.93,3,1.93,3,0,0-17.19,0-34.38,0-51.57,0-1.93-3-1.93-3,0h0Z"/><path class="cls-4" d="m219.96,238.29c-3.69,15.71-8.41,31.17-14.13,46.26-.68,1.81,2.21,2.59,2.89.8,5.72-15.09,10.43-30.55,14.13-46.26.44-1.88-2.45-2.68-2.89-.8h0Z"/><path class="cls-4" d="m231.73,248.55c-2.59,8.18-9.35,14.25-15.45,19.92-6.9,6.42-14.16,12.45-21.73,18.06-1.53,1.14-.04,3.74,1.51,2.59,7.9-5.86,15.49-12.14,22.68-18.85,6.4-5.98,13.16-12.34,15.88-20.92.58-1.85-2.31-2.63-2.89-.8h0Z"/><path class="cls-4" d="m222.24,237.03c-10.67,14.88-21.34,29.76-32,44.63-1.13,1.57,1.47,3.07,2.59,1.51,10.67-14.88,21.34-29.76,32-44.63,1.13-1.57-1.47-3.07-2.59-1.51h0Z"/><path class="cls-4" d="m147.7,242.83c13.44,14.4,25.79,29.79,36.92,46.04,1.08,1.58,3.69.08,2.59-1.51-8.78-12.82-18.31-25.13-28.53-36.84-2.9-3.32-5.86-6.59-8.86-9.81-1.32-1.41-3.44.71-2.12,2.12h0Z"/><path class="cls-4" d="m134.69,243.18c8.41,11.05,17.1,22.44,29.01,29.95,3.05,1.92,7.16,3.3,9.09,6.53.58.98,2,.96,2.59,0,2.84-4.66,5.13-9.63,6.85-14.81.61-1.84-2.28-2.62-2.89-.8-1.64,4.94-3.84,9.65-6.55,14.09h2.59c-1.73-2.9-4.66-4.45-7.52-6.04-3-1.67-5.84-3.61-8.5-5.78-5.43-4.43-10.16-9.64-14.58-15.05-2.57-3.15-5.04-6.37-7.5-9.6-1.15-1.52-3.76-.02-2.59,1.51h0Z"/><path class="cls-4" d="m161.32,237.8c6.1,9.91,12.2,19.82,18.3,29.73,1.01,1.64,3.61.14,2.59-1.51-6.1-9.91-12.2-19.82-18.3-29.73-1.01-1.64-3.61-.14-2.59,1.51h0Z"/><path class="cls-9" d="m201.6,277.49c-1.78-.39-3.81-.19-4.9,1.45s-.31,3.27,1.09,4.32c1.29.96,3.4,2.12,4.84.78s.06-3.18-1.24-3.93c-2.04-1.17-4.62-1.33-6.85-.65-.25.08-.39.44-.17.63,1.44,1.22,3.12,2.12,4.94,2.61.94.25,1.91.39,2.87.42.68.02,1.66.12,2.14-.48.41-.52.16-1.2-.23-1.65-.57-.67-1.51-.99-2.34-1.18-1.81-.41-3.7-.11-5.31.8-.25.14-.23.5,0,.65,2.15,1.36,4.72,2.02,7.25,1.81.75-.06,2.27-.19,1.97-1.34-.12-.46-.56-.9-.87-1.25-.39-.43-.83-.82-1.3-1.16-1.79-1.32-4.09-1.95-6.3-1.64-.9.13-1.88.64-1.37,1.71.47.98,1.73,1.74,2.64,2.27,2.35,1.36,5.13,1.84,7.8,1.37.24-.04.33-.36.22-.55-1.21-2.11-3.57-2.98-5.88-3.19-.7-.06-1.41-.07-2.11-.07-.56,0-1.2-.06-1.73.15-.91.35-1.05,1.33-.57,2.09.57.92,1.64,1.38,2.6,1.77,1.18.48,2.46.81,3.74.9.9.06,1.79-.37,1.74-1.39-.05-.9-.74-1.66-1.44-2.14-2.25-1.53-5.14-1.96-7.76-1.28-.29.08-.34.42-.17.63,1.84,2.16,4.45,3.72,7.27,4.16.52.08,1.12.1,1.5-.33.34-.38.3-.91.06-1.34-.65-1.16-2.37-1.73-3.57-2.09-.67-.2-1.36-.34-2.06-.41-.65-.07-1.57-.21-2.19.07-.37.17-.72.56-.5.99.14.26.49.36.74.49.4.2.8.38,1.21.56.71.3,1.44.57,2.18.77.49.14,1.09.24,1.37-.31.26-.51-.03-1.14-.23-1.61-.3-.7-.69-1.39-1.19-1.97-.38-.43-1-.82-1.53-.41-.44.34-.39.96-.19,1.42.56,1.33,2.07,2.13,3.47,2.14.13,0,.26-.07.32-.19.48-.9.19-1.92-.51-2.63-.87-.88-2.11-.93-3.25-.66-.71.17-1.38.46-2.06.73-.62.25-1.5.44-2.02.88-1.01.86.45,1.86,1.14,2.23,2.32,1.21,5.23,1.95,7.86,1.56,1.03-.15,1.89-.87,1.62-2s-1.3-1.96-2.19-2.57c-2.21-1.51-5.13-1.88-7.63-.92-.27.11-.36.4-.17.63,2.88,3.43,7.62,5.02,11.98,3.98.29-.07.34-.42.17-.63-2.24-2.61-5.75-4.03-9.17-3.68-1.18.12-3.71.43-3.47,2.14s2.69,2.38,4.07,2.75c2.25.6,4.6.66,6.88.22.18-.04.33-.28.26-.46-1.04-2.54-3.46-4.28-6.18-4.58-1.21-.14-2.93-.03-3.93.77-.52.41-.57,1.06-.19,1.59.44.62,1.2.87,1.89,1.1,2.13.73,4.35,1.15,6.6,1.29.48.03.48-.72,0-.75-1.95-.12-3.88-.47-5.74-1.05-.47-.15-3.11-.94-1.93-1.69.56-.36,1.4-.49,2.05-.54,2.79-.2,5.65,1.45,6.72,4.06l.26-.46c-2.15.41-4.36.35-6.48-.22-1-.27-2.19-.58-2.98-1.29-.33-.29-.74-.78-.47-1.24s.97-.56,1.42-.67c3.59-.89,7.49.46,9.88,3.24l.17-.63c-4.12.98-8.54-.56-11.25-3.79l-.17.63c1.6-.61,3.33-.66,4.97-.16.82.25,1.61.64,2.3,1.16.64.48,1.89,1.47,1.61,2.39s-1.87.71-2.59.69c-1.04-.04-2.07-.19-3.07-.47s-1.98-.66-2.89-1.15c-.2-.11-.42-.21-.59-.36-.3-.26-.38-.46.01-.68.48-.27,1.06-.43,1.57-.64,1.1-.44,2.41-1.08,3.62-.74.89.25,1.73,1.31,1.24,2.23l.32-.19c-.9,0-1.75-.38-2.36-1.06-.14-.15-.71-.86-.49-1.1.05-.06.46.18.51.21.14.11.23.28.32.42.14.2.27.41.4.62.23.4.44.82.57,1.26.07.25.12.44-.23.47-.24.02-.61-.18-.85-.26-.96-.31-1.84-.8-2.77-1.16-.06-.02-.19-.16-.2-.06,0,.11.16-.03.22-.04.23-.03.46-.02.69-.02.49,0,.99.04,1.47.12.94.14,1.87.42,2.73.81.42.19.83.4,1.21.65s1.13,1.04.28,1.2c-.39.08-.95-.12-1.33-.21-.41-.1-.81-.23-1.2-.37-1.87-.69-3.5-1.89-4.79-3.4l-.17.63c1.72-.45,3.53-.37,5.21.22.8.28,1.67.68,2.3,1.25.52.46,1.31,1.84.03,1.88-.89.03-1.86-.23-2.71-.49s-1.84-.62-2.6-1.16c-.32-.22-.65-.54-.79-.92-.24-.64.37-.83.89-.86.99-.05,2.01-.03,2.99.06,2.05.19,4.16.95,5.23,2.82l.22-.55c-1.83.32-3.71.14-5.45-.48-.89-.32-1.73-.75-2.51-1.29-.38-.26-.74-.54-1.07-.85-.18-.17-.46-.38-.52-.64-.1-.4.28-.56.62-.61,1.71-.3,3.56.09,5.07.93.77.43,1.47.98,2.07,1.64.28.31.91.85.37,1.17-.36.21-1.05.15-1.46.17-2.25.08-4.46-.54-6.36-1.74v.65c1.27-.73,2.74-1.02,4.19-.82.69.09,1.43.28,2.03.64.26.15.73.51.74.85.02.5-.67.44-.99.44-2.87.07-5.7-.97-7.89-2.81l-.17.63c1.88-.58,3.92-.5,5.72.3.79.35,1.72.95,1.96,1.84.29,1.08-.8,1.67-1.72,1.55s-1.79-.7-2.5-1.23-1.36-1.29-1.26-2.24c.22-2.18,2.74-2.55,4.46-2.18.47.1.67-.62.2-.72h0Z"/><path class="cls-5" d="m161.65,381.92c-.94-14.07-.9-28.21.13-42.27.26-3.59.57-7.19.99-10.76.02-.17.06-1.31.29-1.42.28-.14,1.3.66,1.58.84,1.12.72,2.13,1.58,3.07,2.52,3.94,3.91,6.61,8.89,9.66,13.47,3.88,5.8,8.57,10.92,14.13,15.14.5.38,1.42.22,1.82-.23,9.63-10.85,19.3-21.76,30.54-30.99l-2.56-1.06c-1.73,15.88-1.25,31.95,1.4,47.7.75,4.44,1.68,8.85,2.77,13.22.47,1.87,3.36,1.08,2.89-.8-4.92-19.61-6.25-40.03-4.06-60.13.16-1.43-1.68-1.79-2.56-1.06-11.24,9.23-20.91,20.14-30.54,30.99l1.82-.23c-5.3-4.02-9.73-9.01-13.38-14.55-3.25-4.93-6.18-10.34-10.61-14.35-1.7-1.54-4.85-4.44-7.34-3.2-1.27.63-1.65,2-1.82,3.3-.25,1.9-.42,3.82-.6,5.73-.7,7.51-1.12,15.04-1.26,22.58-.15,8.53.06,17.06.63,25.57.13,1.92,3.13,1.93,3,0h0Z"/><path class="cls-5" d="m255.35,391.4c1.42-11.36,2.9-22.85,6.76-33.69,3.14-8.82,8.21-17.73,15.97-23.27s20.57-7.84,28.06-.24c3.16,3.21,5,7.52,6.3,11.76,1.51,4.92,2.38,10.02,3.24,15.09,2.29,13.42,3.77,26.96,4.51,40.55.1,1.92,3.1,1.93,3,0-.7-12.88-2.08-25.72-4.14-38.45-.89-5.53-1.78-11.11-3.29-16.5-1.29-4.63-3.1-9.22-6.12-13-7.08-8.87-20.1-8.9-29.52-3.98-8.97,4.68-15.18,13.59-19.1,22.68-5.33,12.34-7.01,25.83-8.67,39.06-.24,1.91,2.76,1.89,3,0h0Z"/><path class="cls-5" d="m260.08,367.91c18.6,0,37.2,0,55.8,0,1.93,0,1.93-3,0-3-18.6,0-37.2,0-55.8,0-1.93,0-1.93,3,0,3h0Z"/><path class="cls-5" d="m352.27,334.57c4.19,19.85,5.57,40.24,4.17,60.49-.13,1.93,2.87,1.92,3,0,1.41-20.5-.03-41.17-4.28-61.28-.4-1.89-3.29-1.09-2.89.8h0Z"/><path class="cls-5" d="m357.34,333.75c9.97-.71,20.2.54,29.31,4.83,8.01,3.77,14.84,9.75,19.64,17.2,2.41,3.75,4.3,7.82,5.55,12.1,1.13,3.86,2.88,9.88-.73,12.96-1.82,1.55-4.18,2.69-6.27,3.84-2.27,1.25-4.58,2.41-6.94,3.47-4.61,2.09-9.39,3.8-14.26,5.14-10.89,2.99-22.23,3.99-33.47,2.95-1.92-.18-1.91,2.82,0,3,10.62.99,21.38.15,31.74-2.4s20.77-6.79,29.73-12.7c2.06-1.36,3.61-3.11,4.2-5.55s.35-4.88-.09-7.27c-.88-4.73-2.59-9.33-4.84-13.58-4.35-8.18-11.03-15.17-19.05-19.81-10.41-6.02-22.63-8.01-34.52-7.17-1.91.14-1.93,3.14,0,3h0Z"/><path class="cls-5" d="m257.75,246.75v39.59c0,1.93,3,1.93,3,0v-39.59c0-1.93-3-1.93-3,0h0Z"/><path class="cls-5" d="m294.15,192.36c.8,16.56,1.6,33.12,2.4,49.68.4,8.36.81,16.72,1.21,25.09.2,4.14.4,8.28.6,12.42.09,1.93.08,3.9.32,5.81.19,1.53.81,3,2.35,3.59,1.85.7,4.3.28,6.24.27,2.32-.01,4.63-.03,6.95-.04,4.71-.03,9.43-.05,14.14-.08,1.93-.01,1.93-3.01,0-3-7.94.04-15.88.09-23.82.13-.58,0-2,.28-2.51-.1-.48-.36-.42-1.34-.45-1.86-.12-1.99-.19-3.97-.29-5.96l-.58-11.92c-.76-15.73-1.52-31.46-2.28-47.19-.43-8.94-.86-17.88-1.3-26.83-.09-1.92-3.09-1.93-3,0h0Z"/><path class="cls-5" d="m356.34,197.15c4.5,23.19,6.37,46.86,5.63,70.47-.21,6.69-.64,13.36-1.26,20.02-.18,1.92,2.82,1.91,3,0,2.24-23.75,1.83-47.74-1.26-71.4-.87-6.66-1.94-13.29-3.22-19.89-.37-1.89-3.26-1.09-2.89.8h0Z"/><path class="cls-5" d="m358.69,197.75c12.94-.42,26.29-.45,38.73,3.64,5.91,1.94,11.55,4.89,16.27,8.97s8.27,8.84,11,14.24,4.45,11.22,5.04,17.17c.31,3.07.33,6.18.03,9.26-.32,3.31-1.12,6.77-3.48,9.24s-5.42,4.04-8.22,5.75-5.87,3.48-8.87,5.1c-6.27,3.38-12.74,6.4-19.45,8.8-14.5,5.2-30.18,7.49-45.33,3.84-1.88-.45-2.68,2.44-.8,2.89,14.12,3.4,28.81,1.93,42.56-2.38,7.02-2.2,13.82-5.09,20.38-8.4s13.03-6.84,18.94-11.06c2.84-2.03,4.96-4.49,6.11-7.82s1.34-6.7,1.37-10.05c.05-6.46-1.17-12.96-3.52-18.97-4.72-12.12-13.72-22.01-25.65-27.32-12.52-5.57-26.51-6.28-40.02-6.04-1.7.03-3.39.08-5.08.13-1.93.06-1.93,3.06,0,3h0Z"/><path class="cls-5" d="m260.08,192.11c.09.03.18.06.27.1.19.07-.03,0-.09-.04.14.09.32.15.47.23.14.08.28.16.42.25.07.04.14.09.2.14.11.08.23.25.01,0,.22.24.51.44.73.67.12.12.23.25.34.38.03.04.07.08.1.12.07.09.04.05-.08-.1.06.05.11.15.15.21.2.28.38.58.55.88.09.17.17.34.26.52.12.26-.07-.19,0-.02.03.08.06.16.1.25.12.33.23.68.31,1.02.04.19.08.39.11.58,0,.04.01.07.02.11.02.11.01.07-.02-.13.04.08.02.24.03.32l2.8-.76c-1.42-3.24-4.45-6-8.02-6.56-.77-.12-1.65.2-1.85,1.05-.16.72.22,1.72,1.05,1.85.36.06.72.13,1.07.24.19.06.38.12.57.19.05.02.32.13.1.04s.05.02.1.05c.34.16.67.34.98.53.17.11.35.22.51.34.04.03.28.21.1.07s.1.08.13.11c.3.25.58.51.84.79.13.14.27.29.39.44.07.08.14.17.2.25.18.22-.11-.16,0,0,.47.68.9,1.37,1.23,2.14.25.58,1.12.88,1.69.69s1.16-.78,1.1-1.45c-.3-3.65-2.48-7.19-6.06-8.39-.74-.25-1.67.29-1.85,1.05-.19.83.25,1.58,1.05,1.85h0Z"/><ellipse class="cls-2" cx="505.66" cy="373.79" rx="19.47" ry="12.04" transform="translate(-52.24 663.9) rotate(-63.95)"/><path class="cls-6" d="m330.51,491.95c-3.08-2.05,173.24-77.05,181.26-189.93,7.89-111.07-148.86-235.11-148.89-235.16h0c.48.7,171.06,152.85,135.94,278.12-26.77,95.5-165.63,148.76-168.31,146.97Z"/><path class="cls-6" d="m489.74,216.18v-25.19c0-1.93-3-1.93-3,0v25.19c0,1.93,3,1.93,3,0h0Z"/><path class="cls-6" d="m469.89,188.38c.61-23.06.55-46.14-.2-69.2-.21-6.47-.48-12.93-.79-19.4-.09-1.92-3.09-1.93-3,0,1.13,23.04,1.58,46.11,1.35,69.18-.06,6.47-.19,12.94-.36,19.42-.05,1.93,2.95,1.93,3,0h0Z"/><path class="cls-6" d="m457.62,178.79c-18.02-3.7-34.59-12.75-48.17-25.06-4.06-3.68-7.86-7.65-11.39-11.84-1.25-1.48-3.36.65-2.12,2.12,12.35,14.63,28.07,26.5,46.02,33.34,4.83,1.84,9.8,3.29,14.86,4.33,1.88.39,2.69-2.5.8-2.89h0Z"/><path class="cls-6" d="m505.14,319.1c13.05,1.25,25.6-5.62,33.65-15.59,2.52-3.12,4.64-6.5,6.36-10.11.83-1.73-1.76-3.26-2.59-1.51-5.37,11.28-15.19,20.84-27.63,23.63-3.22.72-6.51.9-9.79.59-1.92-.18-1.91,2.82,0,3h0Z"/><path class="cls-6" d="m479.89,387.27v-22.58c0-1.93-3-1.93-3,0v22.58c0,1.93,3,1.93,3,0h0Z"/><path class="cls-6" d="m454.47,415.69c11.73,0,23.45,0,35.18,0,1.93,0,1.93-3,0-3-11.73,0-23.45,0-35.18,0-1.93,0-1.93,3,0,3h0Z"/><ellipse class="cls-2" cx="467.68" cy="92.5" rx="11.48" ry="20.24"/><ellipse class="cls-2" cx="396.06" cy="135.69" rx="14.21" ry="20.24"/><ellipse class="cls-2" cx="489" cy="180.23" rx="14.21" ry="20.24"/><ellipse class="cls-2" cx="478.06" cy="343.53" rx="14.21" ry="20.24"/><ellipse class="cls-2" cx="484.62" cy="401.57" rx="14.21" ry="20.24"/><ellipse class="cls-2" cx="450.18" cy="403.59" rx="11.48" ry="18.22"/><ellipse class="cls-2" cx="449.68" cy="136.01" rx="12.07" ry="20.56"/><ellipse class="cls-2" cx="484.39" cy="254.97" rx="12.78" ry="19.43" transform="translate(-61.89 219.98) rotate(-24.1)"/><ellipse class="cls-2" cx="543.43" cy="280.61" rx="12.07" ry="20.56"/><path class="cls-6" d="m505.2,284.64c-3.67-7.97-9.7-14.36-15.79-20.55-1.36-1.38-3.48.74-2.12,2.12,5.92,6.02,11.74,12.18,15.32,19.94.81,1.75,3.39.23,2.59-1.51h0Z"/><path class="cls-9" d="m448.12,119.5c-1.94,1.69-3.5,3.78-4.68,6.06-.22.43.43.81.65.38,1.15-2.23,2.67-4.26,4.56-5.91.36-.32-.17-.85-.53-.53h0Z"/><path class="cls-9" d="m393.68,119.99c-1.68-.23-3.15.73-4.16,2.01-1.15,1.44-1.79,3.21-2.43,4.91-.15.4.48.65.69.29,1.66-2.95,3.64-5.7,5.98-8.16l-.53-.53c-1.46,1.78-2.71,3.7-3.75,5.74-.12.24.02.58.32.56,1.56-.11,3.02-.67,4.26-1.62.31-.24.15-.83-.29-.69-2.29.74-3.85,2.84-4.46,5.09-.13.47.6.67.72.2.55-1.99,1.9-3.91,3.94-4.57l-.29-.69c-1.14.86-2.45,1.42-3.89,1.51l.32.56c1.02-1.98,2.22-3.86,3.64-5.59.3-.37-.19-.89-.53-.53-2.38,2.5-4.41,5.3-6.09,8.31l.69.29c.56-1.48,1.11-2.99,2.03-4.29.81-1.15,2.14-2.3,3.64-2.1.47.06.68-.66.2-.72h0Z"/><path class="cls-9" d="m469.64,79.37c-1.8,1.58-3.59,3.16-5.39,4.74l.64.27c.03-3.5,1.55-7.29,4.6-9.22l-.45-.59c-1.73,2.18-3.46,4.36-5.18,6.54-.14.18-.16.46.08.59,1.98,1.08,4.26.05,5.28-1.83.17-.32-.18-.72-.51-.51-2.42,1.52-4.15,3.88-5.2,6.52-.18.45.55.64.72.2.97-2.45,2.6-4.66,4.85-6.07l-.51-.51c-.83,1.51-2.63,2.45-4.26,1.56l.08.59c1.73-2.18,3.46-4.36,5.18-6.54.24-.31-.06-.84-.45-.59-3.28,2.07-4.94,6.09-4.97,9.86,0,.34.4.47.64.27,1.8-1.58,3.59-3.16,5.39-4.74.36-.32-.17-.85-.53-.53h0Z"/><path class="cls-9" d="m483.98,169.9l2.85.4.1-.74c-4.46.54-7.86,4.02-9.47,8.05l.72.2c.91-5.23,4.15-10.6,9.35-12.45l-.47-.36c-.18,2.53-1.8,5.33-4.5,5.75-.38.06-.33.63,0,.72,2.16.6,4.35,0,6.04-1.44.21-.18.1-.57-.17-.63-1.41-.3-2.73.07-3.85.95-.38.3.15.83.53.53.9-.7,2-1,3.12-.76l-.17-.63c-1.49,1.26-3.42,1.77-5.31,1.25v.72c3.03-.47,4.85-3.64,5.05-6.48.02-.23-.25-.44-.47-.36-5.45,1.94-8.92,7.47-9.88,12.97-.08.48.54.65.72.2,1.47-3.68,4.66-7,8.75-7.5.37-.05.56-.67.1-.74l-2.85-.4c-.47-.07-.68.66-.2.72h0Z"/><path class="cls-9" d="m479.13,244.71c-1.46,2.1-2.13,4.68-2.08,7.23l.74-.1c-.49-1.98-.05-4.11,1.03-5.82.94-1.48,2.49-2.73,4.33-2.56.42.04.51-.66.1-.74-3.42-.66-6.81.79-9.07,3.36l.64.27c.06-1.65,1.05-3.52,2.81-3.81l-.46-.46c-.6,2.49-1.19,4.99-1.79,7.48-.11.47.61.67.72.2.6-2.49,1.19-4.99,1.79-7.48.07-.3-.18-.51-.46-.46-2.09.35-3.29,2.58-3.36,4.53-.01.31.43.51.64.27,2.07-2.36,5.18-3.78,8.34-3.17l.1-.74c-2.06-.18-3.83,1.19-4.91,2.83-1.25,1.89-1.72,4.29-1.18,6.5.1.41.75.32.74-.1-.05-2.42.59-4.85,1.98-6.85.28-.4-.37-.77-.65-.38h0Z"/><path class="cls-9" d="m541.23,266.07l-2.39,4.02.69.29c.77-2.34,2.38-4.2,4.01-5.99.24-.26.01-.75-.36-.63-3.16,1.03-5.43,3.78-6.55,6.83-.15.41.47.64.69.29.77-1.27,1.55-2.54,2.32-3.81.33-.54.64-1.1,1.07-1.56.32-.34.79-.77,1.28-.49l-.13-.51c-1.18,2.05-2.53,3.99-4.05,5.8-.31.36.19.88.53.53,1.07-1.08,1.79-2.46,2.17-3.93.12-.47-.6-.67-.72-.2-.35,1.35-.99,2.61-1.98,3.6l.53.53c1.57-1.85,2.96-3.85,4.17-5.95.1-.18.04-.41-.13-.51-1.26-.74-2.38.7-2.96,1.65-.92,1.49-1.82,2.98-2.74,4.48l.69.29c1.02-2.79,3.14-5.36,6.03-6.3l-.36-.63c-1.72,1.89-3.39,3.86-4.21,6.32-.14.41.47.65.69.29l2.39-4.02c.25-.42-.4-.79-.65-.38h0Z"/><path class="cls-9" d="m474,325.06c-2.43,3.47-4.22,7.36-5.41,11.43-.12.4.48.67.69.29,1.09-2.02,1.65-4.26,2.51-6.38.75-1.85,1.92-4.03,3.95-4.69l-.42-.55c-2.38,3.74-4.55,7.61-6.53,11.58l.69.29c1.03-3.42,2.12-7.38,5.06-9.68.38-.3-.15-.83-.53-.53-3.03,2.38-4.19,6.48-5.26,10.01-.12.4.49.67.69.29,1.98-3.97,4.15-7.84,6.53-11.58.17-.27-.11-.65-.42-.55-2.02.66-3.29,2.57-4.14,4.42-1.04,2.29-1.58,4.77-2.78,6.99l.69.29c1.17-4.01,2.94-7.82,5.34-11.25.28-.4-.37-.77-.65-.38h0Z"/><path class="cls-9" d="m474.22,328.37c.48-.25.91.03,1.14.46l.06-.45c-2.77,2.6-5.11,5.61-7.04,8.88l.69.29c.62-1.98,1.29-3.95,2.03-5.89.08-.21-.13-.5-.36-.47-.99.11-1.76.64-2.34,1.45-.21.3.14.59.42.55.87-.12,1.6-.59,2.15-1.25l-.59-.45c-.84,1.56-1.68,3.12-2.52,4.68l.69.09c-.32-1.11-.4-2.29-.17-3.42.12-.61.36-1.04.89-1.37.43-.27.88-.52,1.31-.79,1.78-1.16,3.39-2.56,4.82-4.13l-.59-.08c.37.59.49,1.23.4,1.91-.06.48.69.47.75,0,.1-.81-.07-1.6-.51-2.29-.12-.19-.42-.26-.59-.08-1.65,1.8-3.52,3.37-5.63,4.6-.39.23-.78.45-1.07.8-.35.43-.49.98-.57,1.52-.19,1.18-.11,2.38.22,3.53.09.3.53.38.69.09.84-1.56,1.68-3.12,2.52-4.68.19-.36-.3-.79-.59-.45-.48.58-1.07.96-1.82,1.06l.42.55c.4-.57.98-1,1.69-1.08l-.36-.47c-.73,1.94-1.41,3.9-2.03,5.89-.13.41.47.65.69.29,1.89-3.22,4.2-6.17,6.92-8.73.12-.12.14-.31.06-.45-.44-.8-1.34-1.17-2.17-.73-.43.23-.05.87.38.65h0Z"/><path class="cls-9" d="m449.36,386.92c-1.33,1.88-2.22,4.04-2.7,6.3-.07.34.37.67.63.36,1.49-1.77,3.29-3.24,5.39-4.24.39-.18.11-.81-.29-.69-3.55,1.06-6.52,3.42-8.69,6.37-.29.39.36.76.65.38,1.97-2.63,3.99-5.38,6.75-7.24.28-.19.21-.74-.19-.7-4.32.39-6.36,5.83-5.5,9.56.11.47.83.27.72-.2-.44-1.89-.1-3.93.85-5.62.82-1.47,2.18-2.83,3.93-2.99l-.19-.7c-2.87,1.94-4.96,4.77-7.02,7.51l.65.38c2.06-2.79,4.9-5.03,8.25-6.03l-.29-.69c-2.14,1.03-4.01,2.55-5.54,4.36l.63.36c.47-2.2,1.33-4.28,2.62-6.12.28-.39-.37-.77-.65-.38h0Z"/><path class="cls-9" d="m505.02,360.4c-2.34,1.98-4.14,4.53-5.39,7.33-.16.35.3.82.59.45,2.53-3.19,5.34-6.91,9.4-8.17l-.29-.69c-3.82,2.03-6.56,5.66-8.08,9.65-.17.45.55.65.72.2,1.46-3.81,4.09-7.27,7.74-9.2.37-.2.12-.81-.29-.69-4.21,1.3-7.11,5.06-9.74,8.37l.59.45c1.22-2.74,2.97-5.23,5.27-7.18.37-.31-.16-.84-.53-.53h0Z"/><path class="cls-9" d="m483.88,386.49c-2.95.33-5.06,2.83-5.83,5.56-.11.4.51.69.69.29,1.76-4,5.12-7.48,9.54-8.33l-.36-.63c-1.89,1.59-4.16,2.59-6.3,3.77s-4.05,2.6-5.35,4.68l.7.19c.2-1.68,1.01-3.25,2.22-4.44,1.26-1.25,2.88-2.01,4.51-2.65l-.36-.63c-1.81,1.91-3.86,3.56-6.15,4.88-.36.21-.12.83.29.69,3.17-1.15,6.46-1.95,9.82-2.33.39-.04.54-.63.1-.74-1.94-.47-3.92.09-5.46,1.32-.82.66-1.48,1.49-1.99,2.41s-.94,2.15-1.96,2.65c-.43.21-.05.86.38.65.83-.4,1.32-1.2,1.74-1.99.5-.94.97-1.85,1.73-2.62,1.4-1.41,3.4-2.17,5.36-1.69l.1-.74c-3.42.39-6.78,1.18-10.02,2.36l.29.69c2.34-1.34,4.45-3.04,6.3-4.99.24-.25,0-.77-.36-.63-1.81.7-3.6,1.55-4.97,2.96-1.28,1.33-2.1,3.01-2.31,4.85-.05.39.52.48.7.19,2.66-4.22,7.9-5.22,11.54-8.3.31-.26-.03-.69-.36-.63-4.58.88-8.16,4.51-9.98,8.67l.69.29c.67-2.37,2.51-4.72,5.11-5.01.47-.05.48-.8,0-.75h0Z"/><ellipse class="cls-2" cx="50.55" cy="374.83" rx="12.08" ry="19.48" transform="translate(-160.73 61.12) rotate(-26.28)"/><path class="cls-6" d="m226.43,492.95c3.09-2.05-173.96-77.03-182.01-189.87-7.92-111.04,149.48-235.04,149.51-235.08h0c-.48.7-171.76,152.8-136.51,278.03,26.88,95.47,166.32,148.71,169.01,146.93Z"/><path class="cls-6" d="m69.53,217.27v-25.18c0-1.93-3-1.93-3,0v25.18c0,1.93,3,1.93,3,0h0Z"/><path class="cls-6" d="m89.47,189.48c-.61-23.06-.55-46.13.2-69.18.21-6.47.48-12.93.8-19.39.09-1.93-2.91-1.92-3,0-1.13,23.03-1.59,46.1-1.36,69.16.07,6.47.19,12.94.36,19.41.05,1.93,3.05,1.93,3,0h0Z"/><path class="cls-6" d="m99.59,182.78c18.47-3.77,35.48-13.06,49.46-25.6,4.17-3.74,8.06-7.78,11.68-12.05,1.24-1.46-.87-3.6-2.12-2.12-12.17,14.35-27.63,26.1-45.33,32.72-4.71,1.76-9.55,3.15-14.48,4.16-1.89.39-1.09,3.28.8,2.89h0Z"/><path class="cls-6" d="m51.07,317.15c-12.33,1.17-23.89-5.2-31.55-14.57-2.41-2.95-4.4-6.22-6.04-9.65-.83-1.74-3.42-.22-2.59,1.51,5.73,12,16.47,22.15,29.71,25.04,3.43.75,6.96.99,10.46.66,1.91-.18,1.92-3.18,0-3h0Z"/><path class="cls-6" d="m79.43,388.3v-22.57c0-1.93-3-1.93-3,0v22.57c0,1.93,3,1.93,3,0h0Z"/><path class="cls-6" d="m101.94,413.72c-11.77,0-23.55,0-35.32,0-1.93,0-1.93,3,0,3,11.77,0,23.55,0,35.32,0,1.93,0,1.93-3,0-3h0Z"/><ellipse class="cls-2" cx="88.69" cy="93.63" rx="11.53" ry="20.24"/><ellipse class="cls-2" cx="160.6" cy="136.8" rx="14.27" ry="20.24"/><ellipse class="cls-2" cx="67.28" cy="181.32" rx="14.27" ry="20.24"/><ellipse class="cls-2" cx="78.26" cy="344.58" rx="14.27" ry="20.24"/><ellipse class="cls-2" cx="71.67" cy="402.59" rx="14.27" ry="20.24"/><ellipse class="cls-2" cx="106.25" cy="404.62" rx="11.53" ry="18.21"/><ellipse class="cls-2" cx="106.76" cy="137.12" rx="12.12" ry="20.56"/><ellipse class="cls-2" cx="71.9" cy="256.04" rx="19.44" ry="12.82" transform="translate(-191.02 216.04) rotate(-65.66)"/><ellipse class="cls-2" cx="12.62" cy="281.68" rx="12.12" ry="20.56"/><path class="cls-6" d="m53.61,287.22c3.59-7.76,9.44-13.92,15.38-19.93,1.36-1.37-.76-3.5-2.12-2.12-6.11,6.18-12.16,12.57-15.85,20.54-.81,1.74,1.78,3.27,2.59,1.51h0Z"/><path class="cls-9" d="m107.79,121.15c1.9,1.65,3.42,3.68,4.58,5.91.22.43.87.05.65-.38-1.18-2.28-2.75-4.37-4.7-6.06-.36-.32-.9.21-.53.53h0Z"/><path class="cls-9" d="m163.18,121.83c1.48-.2,2.81.91,3.62,2.04.94,1.31,1.51,2.85,2.08,4.35l.69-.29c-1.69-3.01-3.74-5.81-6.12-8.31-.34-.36-.83.16-.53.53,1.42,1.72,2.63,3.6,3.65,5.59l.32-.56c-1.44-.1-2.76-.65-3.9-1.51l-.29.69c2.04.65,3.41,2.57,3.96,4.57.13.46.85.27.72-.2-.62-2.26-2.19-4.36-4.48-5.09-.44-.14-.61.45-.29.69,1.25.94,2.71,1.51,4.28,1.61.3.02.45-.33.32-.56-1.05-2.04-2.31-3.96-3.77-5.74l-.53.53c2.34,2.45,4.34,5.2,6,8.15.2.36.84.12.69-.29-.65-1.73-1.31-3.51-2.48-4.96-1.01-1.25-2.49-2.18-4.14-1.95-.48.06-.27.79.2.72h0Z"/><path class="cls-9" d="m86.19,81.03c1.8,1.58,3.61,3.16,5.41,4.74.24.21.64.08.64-.27-.04-3.78-1.71-7.79-4.99-9.86-.39-.24-.7.28-.45.59,1.73,2.18,3.47,4.36,5.2,6.54l.08-.59c-1.63.88-3.45-.05-4.28-1.56l-.51.51c2.25,1.41,3.89,3.62,4.87,6.07.18.44.9.25.72-.2-1.05-2.64-2.79-5-5.22-6.52-.33-.21-.69.2-.51.51,1.03,1.88,3.32,2.91,5.3,1.83.23-.13.22-.41.08-.59-1.73-2.18-3.47-4.36-5.2-6.54l-.45.59c3.06,1.92,4.59,5.7,4.62,9.21l.64-.27c-1.8-1.58-3.61-3.16-5.41-4.74-.36-.32-.89.21-.53.53h0Z"/><path class="cls-9" d="m72.11,170.28l-2.87.4c-.46.06-.28.69.1.74,4.1.49,7.3,3.8,8.79,7.49.18.45.81.28.72-.2-.97-5.52-4.45-11.03-9.92-12.97-.22-.08-.49.13-.47.36.21,2.84,2.03,6,5.07,6.47v-.72c-1.9.53-3.84.01-5.33-1.24l-.17.63c1.13-.24,2.23.05,3.13.76.38.29.91-.23.53-.53-1.13-.88-2.45-1.25-3.86-.95-.26.06-.38.45-.17.63,1.7,1.43,3.89,2.04,6.06,1.44.33-.09.38-.66,0-.72-2.7-.42-4.33-3.21-4.52-5.75l-.47.36c5.22,1.85,8.48,7.2,9.39,12.44l.72-.2c-1.62-4.04-5.04-7.51-9.51-8.05l.1.74,2.87-.4c.48-.07.27-.79-.2-.72h0Z"/><path class="cls-9" d="m76.54,246.17c1.39,2,2.03,4.42,1.98,6.84,0,.42.63.51.74.1.55-2.21.07-4.61-1.18-6.5-1.09-1.64-2.87-3.01-4.93-2.83l.1.74c3.17-.61,6.29.8,8.37,3.17.21.24.65.05.64-.27-.07-1.96-1.28-4.19-3.38-4.53-.28-.05-.53.16-.46.46.6,2.49,1.2,4.98,1.79,7.48.11.47.84.27.72-.2-.6-2.49-1.2-4.98-1.79-7.48l-.46.46c1.76.29,2.77,2.15,2.82,3.81l.64-.27c-2.27-2.58-5.67-4.02-9.1-3.36-.41.08-.32.77.1.74,1.85-.16,3.4,1.08,4.35,2.56,1.09,1.71,1.52,3.84,1.04,5.81l.74.1c.05-2.54-.62-5.12-2.09-7.22-.27-.39-.92-.02-.65.38h0Z"/><path class="cls-9" d="m14.18,267.52l2.4,4.02c.21.36.82.13.69-.29-.82-2.47-2.5-4.43-4.22-6.32l-.36.63c2.9.94,5.02,3.51,6.05,6.3l.69-.29c-.92-1.49-1.82-2.99-2.75-4.48-.59-.95-1.71-2.38-2.97-1.65-.18.1-.24.34-.13.51,1.22,2.1,2.61,4.1,4.19,5.95l.53-.53c-.99-.99-1.63-2.25-1.98-3.6-.12-.47-.84-.27-.72.2.38,1.47,1.1,2.85,2.18,3.93.35.35.84-.17.53-.53-1.53-1.8-2.88-3.75-4.07-5.8l-.13.51c.47-.27.93.12,1.25.45.45.47.77,1.05,1.11,1.6.78,1.27,1.56,2.54,2.33,3.8.21.35.84.12.69-.29-1.13-3.05-3.41-5.8-6.58-6.83-.37-.12-.6.37-.36.63,1.63,1.79,3.25,3.65,4.03,5.99l.69-.29c-.8-1.34-1.6-2.68-2.4-4.02-.25-.41-.9-.04-.65.38h0Z"/><path class="cls-9" d="m81.69,326.49c2.41,3.42,4.18,7.23,5.36,11.25l.69-.29c-1.2-2.22-1.74-4.71-2.79-6.99-.85-1.85-2.13-3.76-4.15-4.42-.31-.1-.6.28-.42.55,2.39,3.74,4.57,7.61,6.55,11.58.19.38.81.12.69-.29-1.07-3.54-2.23-7.63-5.28-10.01-.38-.29-.91.23-.53.53,2.95,2.3,4.05,6.25,5.08,9.68l.69-.29c-1.98-3.97-4.17-7.83-6.55-11.58l-.42.55c2.04.66,3.21,2.83,3.97,4.69.86,2.12,1.43,4.35,2.52,6.37.2.37.81.12.69-.29-1.19-4.07-2.99-7.95-5.43-11.42-.28-.39-.93-.02-.65.38h0Z"/><path class="cls-9" d="m82.49,328.77c-.83-.44-1.73-.07-2.18.73-.08.14-.06.34.06.45,2.73,2.55,5.05,5.51,6.95,8.73.21.36.81.13.69-.29-.62-1.98-1.3-3.94-2.03-5.89l-.36.47c.71.08,1.29.51,1.7,1.08l.42-.55c-.76-.11-1.34-.48-1.83-1.06-.28-.34-.78.09-.59.45.84,1.56,1.69,3.12,2.53,4.67.16.29.6.21.69-.09.32-1.12.41-2.28.24-3.43-.08-.56-.21-1.12-.56-1.58-.29-.37-.7-.6-1.1-.84-2.11-1.23-4-2.8-5.65-4.6-.17-.19-.46-.12-.59.08-.44.69-.6,1.48-.51,2.29.06.47.81.48.75,0-.08-.69.03-1.32.41-1.91l-.59.08c1.44,1.57,3.06,2.97,4.84,4.13.41.26.83.51,1.24.75.53.32.81.71.95,1.32.26,1.16.17,2.38-.15,3.51l.69-.09c-.84-1.56-1.69-3.12-2.53-4.67l-.59.45c.56.66,1.29,1.13,2.16,1.25.28.04.64-.25.42-.55-.58-.81-1.35-1.34-2.35-1.45-.23-.03-.44.26-.36.47.74,1.94,1.42,3.9,2.03,5.89l.69-.29c-1.93-3.27-4.29-6.28-7.07-8.88l.06.45c.24-.43.67-.71,1.15-.46.43.23.81-.42.38-.65h0Z"/><path class="cls-9" d="m106.43,388.33c1.3,1.84,2.17,3.92,2.64,6.12l.63-.36c-1.54-1.82-3.41-3.33-5.56-4.36l-.29.69c3.36,1,6.21,3.23,8.28,6.03l.65-.38c-2.06-2.74-4.16-5.57-7.04-7.51l-.19.7c1.76.16,3.13,1.52,3.95,2.99.94,1.69,1.29,3.73.85,5.62-.11.47.61.67.72.2.87-3.74-1.2-9.17-5.52-9.56-.4-.04-.47.51-.19.7,2.77,1.86,4.8,4.6,6.78,7.24.29.38.94.01.65-.38-2.19-2.96-5.17-5.31-8.73-6.37-.4-.12-.68.5-.29.69,2.1,1,3.91,2.47,5.41,4.24.26.31.7-.03.63-.36-.48-2.25-1.38-4.41-2.71-6.29-.28-.39-.93-.02-.65.38h0Z"/><path class="cls-9" d="m50.66,361.97c2.31,1.94,4.06,4.43,5.29,7.17l.59-.45c-2.64-3.31-5.56-7.06-9.77-8.36-.4-.12-.67.49-.29.69,3.65,1.93,6.3,5.38,7.77,9.19.17.45.9.25.72-.2-1.53-3.99-4.28-7.62-8.11-9.64l-.29.69c4.07,1.26,6.9,4.98,9.44,8.17.29.36.75-.1.59-.45-1.25-2.8-3.06-5.35-5.41-7.33-.37-.31-.9.22-.53.53h0Z"/><path class="cls-9" d="m72.41,388.27c2.6.29,4.46,2.63,5.13,5.01l.69-.29c-1.84-4.17-5.43-7.79-10.02-8.67-.33-.06-.68.36-.36.63,3.66,3.08,8.92,4.07,11.59,8.3.18.29.75.2.7-.19-.22-1.83-1.03-3.52-2.32-4.85-1.38-1.41-3.17-2.26-4.99-2.96-.37-.14-.6.38-.36.63,1.86,1.96,3.98,3.65,6.33,4.99l.29-.69c-3.25-1.18-6.62-1.97-10.06-2.36l.1.74c1.97-.47,3.98.28,5.39,1.69.74.74,1.21,1.63,1.7,2.54.43.81.93,1.65,1.79,2.06.43.21.81-.44.38-.65-1-.48-1.43-1.65-1.93-2.57s-1.19-1.81-2.04-2.48c-1.55-1.23-3.54-1.79-5.48-1.32-.44.11-.29.69.1.74,3.37.38,6.67,1.18,9.86,2.33.4.15.65-.48.29-.69-2.3-1.31-4.35-2.96-6.18-4.87l-.36.63c1.64.64,3.27,1.4,4.53,2.65s2.03,2.75,2.22,4.44l.7-.19c-1.31-2.08-3.25-3.51-5.38-4.68s-4.43-2.18-6.33-3.77l-.36.63c4.42.85,7.81,4.31,9.58,8.32.17.39.8.11.69-.29-.77-2.74-2.9-5.23-5.86-5.56-.48-.05-.47.7,0,.75h0Z"/><ellipse class="cls-2" cx="185.82" cy="50.26" rx="21.16" ry="12.28" transform="translate(-5.43 72.11) rotate(-21.65)"/><path class="cls-6" d="m54.85,225.77c2.29,3.1,86.85-173.71,213.22-181.41,124.35-7.57,262.64,150.22,262.69,150.25h0c-.78-.48-170.49-172.25-310.82-137.39C112.95,83.8,52.85,223.07,54.85,225.77Z"/><path class="cls-6" d="m359.67,69.74c9.26.03,18.53.05,27.79.08,1.93,0,1.93-2.99,0-3-9.26-.03-18.53-.05-27.79-.08-1.93,0-1.93,2.99,0,3h0Z"/><path class="cls-6" d="m249.32,50.95c-1.29-12.7,6.29-24.28,16.26-31.5,3.32-2.4,6.92-4.39,10.68-6,1.77-.76.24-3.34-1.51-2.59-12.61,5.41-24.21,15.77-27.63,29.49-.86,3.46-1.15,7.06-.79,10.61.19,1.9,3.2,1.92,3,0h0Z"/><path class="cls-6" d="m170.86,79.09c8.31.02,16.61.05,24.92.07,1.93,0,1.93-2.99,0-3-8.31-.02-16.61-.05-24.92-.07-1.93,0-1.93,2.99,0,3h0Z"/><path class="cls-6" d="m142.57,101.53c.04-11.77.08-23.55.12-35.32,0-1.93-2.99-1.93-3,0-.04,11.77-.08,23.55-.12,35.32,0,1.93,2.99,1.93,3,0h0Z"/><ellipse class="cls-2" cx="377.35" cy="52.59" rx="14.27" ry="22.34" transform="translate(1.15 112.85) rotate(-17.03)"/><ellipse class="cls-2" cx="219.12" cy="78.06" rx="14.27" ry="22.34" transform="translate(140.53 296.99) rotate(-89.86)"/><ellipse class="cls-2" cx="155.11" cy="71.29" rx="14.27" ry="22.34" transform="translate(83.44 226.23) rotate(-89.86)"/><ellipse class="cls-2" cx="421.75" cy="85.87" rx="11.53" ry="20.1" transform="translate(-6.65 127.32) rotate(-17.03)"/><ellipse class="cls-2" cx="316.86" cy="71.98" rx="13" ry="21.16" transform="translate(141.6 345.6) rotate(-70.16)"/><ellipse class="cls-2" cx="288.77" cy="12.62" rx="12.12" ry="22.69" transform="translate(275.4 301.36) rotate(-89.85)"/><path class="cls-6" d="m282.6,53.59c8.4,3.55,15.27,9.4,21.98,15.44,1.43,1.29,3.56-.83,2.12-2.12-6.88-6.2-13.96-12.27-22.59-15.91-.75-.32-1.6-.22-2.05.54-.37.63-.21,1.74.54,2.05h0Z"/><path class="cls-9" d="m465.66,108.29c-1.86,1.93-4.12,3.43-6.54,4.56-.44.2-.06.85.38.65,2.48-1.16,4.79-2.71,6.69-4.68.34-.35-.19-.88-.53-.53h0Z"/><path class="cls-9" d="m464.73,163.68c.23,1.58-1.15,2.89-2.36,3.66-1.46.92-3.12,1.47-4.75,2.02l.29.69c3.29-1.67,6.38-3.69,9.18-6.09.32-.27-.11-.84-.45-.59-1.95,1.45-4.06,2.67-6.26,3.69l.56.32c.11-1.42.72-2.73,1.63-3.82l-.63-.36c-.77,2.14-2.98,3.42-5.08,3.94-.47.12-.27.84.2.72,2.38-.59,4.75-2.07,5.61-4.47.12-.34-.39-.65-.63-.36-1.05,1.25-1.72,2.71-1.85,4.35-.02.31.33.43.56.32,2.21-1.02,4.31-2.25,6.26-3.69l-.45-.59c-2.75,2.36-5.8,4.34-9.03,5.98-.38.19-.12.82.29.69,1.88-.64,3.86-1.27,5.47-2.47,1.31-.98,2.4-2.42,2.15-4.13-.07-.48-.79-.27-.72.2h0Z"/><path class="cls-9" d="m510.02,86.81c-1.75,1.8-3.5,3.6-5.25,5.39-.22.23-.06.64.27.64,4.02-.02,8.48-1.55,10.87-4.96.21-.3-.21-.73-.51-.51-2.41,1.73-4.82,3.46-7.23,5.18l.51.13c-1.02-1.71.17-3.49,1.75-4.27l-.51-.51c-1.62,2.32-4.11,3.91-6.74,4.85-.45.16-.26.89.2.72,2.83-1.02,5.45-2.7,7.19-5.2.23-.33-.21-.66-.51-.51-1.96.97-3.24,3.25-2.02,5.3.1.16.35.25.51.13,2.41-1.73,4.82-3.46,7.23-5.18l-.51-.51c-2.23,3.19-6.48,4.57-10.22,4.59l.27.64c1.75-1.8,3.5-3.6,5.25-5.39.34-.35-.19-.88-.53-.53h0Z"/><path class="cls-9" d="m411.49,72.46l-.43-2.87c-.05-.36-.67-.36-.72,0-.59,4.36-4.42,7.45-8.35,8.86-.46.17-.27.8.2.72,5.79-.9,12.06-4.15,14.32-9.88.09-.22-.14-.49-.36-.47-2.93.18-6.56,1.84-7.13,5.05h.72c-.59-1.95.04-3.87,1.4-5.33l-.63-.17c.27,1.16-.09,2.24-.86,3.13-.31.36.21.9.53.53.95-1.1,1.38-2.43,1.05-3.86-.06-.27-.44-.37-.63-.17-1.54,1.65-2.26,3.86-1.6,6.06.1.33.66.38.72,0,.5-2.87,3.78-4.33,6.4-4.5l-.36-.47c-2.16,5.47-8.3,8.5-13.8,9.35l.2.72c4.15-1.5,8.24-4.76,8.87-9.39h-.72l.43,2.87c.07.48.79.27.72-.2h0Z"/><path class="cls-9" d="m327.76,76.65c-2.26,1.42-4.93,2.02-7.58,1.96-.42,0-.52.64-.1.74,2.41.55,5.03.1,7.15-1.16,1.72-1.02,3.31-2.78,3.11-4.92l-.74.1c.68,3.27-1.02,6.36-3.54,8.36-.26.21-.04.65.27.64,2.02-.06,4.56-1.15,4.98-3.36.05-.29-.17-.52-.46-.46-2.75.59-5.51,1.18-8.26,1.77-.47.1-.27.82.2.72,2.75-.59,5.51-1.18,8.26-1.77l-.46-.46c-.35,1.87-2.55,2.76-4.25,2.81l.27.64c2.74-2.18,4.46-5.56,3.73-9.09-.08-.41-.78-.32-.74.1.18,1.93-1.31,3.45-2.87,4.34-1.93,1.11-4.28,1.51-6.45,1.02l-.1.74c2.77.06,5.6-.58,7.96-2.06.41-.26.03-.91-.38-.65h0Z"/><path class="cls-9" d="m304.41,14.23c-1.48.79-2.96,1.59-4.45,2.38-.37.2-.12.81.29.69,2.67-.79,4.85-2.46,6.97-4.2l-.63-.36c-1.1,3.03-4.06,5.06-7.01,6.03l.29.69c1.65-.91,3.3-1.81,4.95-2.73.96-.54,2.64-1.67,1.81-2.97-.11-.18-.33-.23-.51-.13-2.28,1.19-4.46,2.55-6.5,4.11l.45.59c1.13-1.01,2.53-1.63,4-1.97.47-.11.27-.83-.2-.72-1.59.37-3.1,1.07-4.33,2.17-.31.28.11.85.45.59,2.04-1.56,4.22-2.92,6.5-4.11l-.51-.13c.31.49-.16.95-.52,1.26-.53.45-1.18.77-1.79,1.1-1.4.77-2.79,1.54-4.19,2.31-.37.2-.12.82.29.69,3.22-1.07,6.33-3.26,7.53-6.56.14-.39-.37-.58-.63-.36-2.02,1.66-4.1,3.26-6.64,4.01l.29.69c1.48-.79,2.96-1.59,4.45-2.38.43-.23.05-.88-.38-.65h0Z"/><path class="cls-9" d="m239.09,81.55c-3.84,2.43-8.05,4.17-12.44,5.32l.29.69c2.51-1.22,5.28-1.73,7.85-2.82,1.92-.81,4-2.02,4.75-4.09.12-.32-.28-.58-.55-.42-4.16,2.38-8.43,4.55-12.8,6.52-.39.18-.11.79.29.69,3.83-1.04,8.33-2.12,11.05-5.25.32-.36-.21-.9-.53-.53-2.63,3.03-7.01,4.05-10.72,5.05l.29.69c4.37-1.96,8.64-4.13,12.8-6.52l-.55-.42c-.77,2.12-3.26,3.24-5.23,3.96-2.34.85-4.78,1.41-7.03,2.5-.39.19-.11.79.29.69,4.44-1.17,8.73-2.94,12.62-5.4.41-.26.03-.91-.38-.65h0Z"/><path class="cls-9" d="m236.52,82.35c.5-.85.04-1.76-.79-2.18-.15-.08-.33-.06-.45.06-2.87,2.77-6.15,5.05-9.66,6.92-.38.2-.12.8.29.69,2.19-.61,4.35-1.28,6.5-2.02l-.47-.36c-.1.74-.61,1.3-1.22,1.7l.55.42c.12-.74.52-1.32,1.11-1.77.38-.29.06-.86-.38-.65-1.72.84-3.44,1.68-5.17,2.52-.3.14-.21.61.09.69,1.23.32,2.51.42,3.77.25,1.19-.16,1.93-.57,2.58-1.57,1.41-2.17,3.16-4.07,5.16-5.72.19-.16.12-.48-.08-.59-.76-.45-1.63-.61-2.5-.51-.48.05-.48.8,0,.75.75-.08,1.47.03,2.13.41l-.08-.59c-1.72,1.43-3.28,3.04-4.59,4.86-.31.43-.58.89-.89,1.32-.4.57-.95.76-1.62.87-1.23.2-2.49.11-3.69-.2l.09.69c1.72-.84,3.44-1.68,5.17-2.52l-.38-.65c-.74.56-1.31,1.28-1.46,2.22-.05.3.25.62.55.42.86-.55,1.45-1.31,1.59-2.34.03-.24-.26-.43-.47-.36-2.15.73-4.32,1.4-6.5,2.02l.29.69c3.57-1.9,6.9-4.23,9.81-7.04l-.45.06c.45.23.81.64.52,1.15-.24.42.41.8.65.38h0Z"/><path class="cls-9" d="m170.75,106.1c-2.06,1.32-4.37,2.16-6.77,2.62l.29.69c2-1.52,3.72-3.38,4.9-5.61l-.69-.29c-1.15,3.46-3.7,6.26-6.7,8.26l.38.65c2.99-2.03,6.11-4.09,8.29-7.02l-.7-.19c-.19,1.83-1.79,3.17-3.33,3.94-1.9.95-4.15,1.27-6.23.83-.47-.1-.67.62-.2.72,2.34.5,4.83.13,6.94-.97,1.76-.92,3.36-2.46,3.57-4.52.04-.41-.5-.45-.7-.19-2.11,2.82-5.15,4.8-8.03,6.75-.4.27-.03.92.38.65,3.17-2.11,5.83-5.05,7.04-8.71.13-.4-.49-.66-.69-.29-1.12,2.11-2.74,3.89-4.63,5.34-.33.25-.15.77.29.69,2.46-.47,4.84-1.34,6.95-2.69.41-.26.03-.91-.38-.65h0Z"/><path class="cls-9" d="m200.05,50.41c-2.17,2.33-4.91,4.05-7.85,5.23l.29.69c3.59-2.58,7.82-5.44,9.33-9.81.14-.41-.47-.65-.69-.29-2.22,3.79-6.12,6.33-10.2,7.74-.45.16-.26.88.2.72,4.26-1.47,8.32-4.13,10.65-8.08l-.69-.29c-.69,2-2.07,3.66-3.58,5.09-1.67,1.58-3.54,2.93-5.4,4.27-.31.23-.14.86.29.69,3.06-1.23,5.92-3,8.19-5.43.33-.35-.2-.88-.53-.53h0Z"/><path class="cls-9" d="m170.95,72.08c-.35,2.75-3.11,4.5-5.58,5.12l.2.72c4.41-1.75,8.64-5.19,9.67-10.03.07-.35-.36-.65-.63-.36-1.68,1.79-2.81,3.96-4.06,6.05-1.32,2.22-2.87,4.22-5.15,5.51-.31.17-.19.74.19.7,1.91-.2,3.7-.94,5.17-2.17,1.59-1.33,2.59-3.15,3.39-5.02.17-.39-.25-.74-.59-.45-2.13,1.83-4.02,3.93-5.52,6.31l.69.29c1.3-3.23,2.19-6.6,2.64-10.05l-.74.1c.54,2.04-.4,4.04-1.92,5.4-.85.75-1.85,1.21-2.86,1.7-.85.41-1.75.89-2.21,1.75-.23.43.42.81.65.38.53-.99,1.78-1.4,2.73-1.86,1.05-.51,2.03-1.16,2.82-2.04,1.35-1.51,2.04-3.54,1.51-5.53-.12-.44-.69-.29-.74.1-.44,3.38-1.33,6.69-2.61,9.85-.16.41.47.63.69.29,1.47-2.32,3.32-4.37,5.41-6.16l-.59-.45c-.74,1.71-1.62,3.38-3.02,4.65s-3.09,1.99-4.9,2.18l.19.7c2.24-1.27,3.84-3.2,5.17-5.37s2.44-4.45,4.19-6.31l-.63-.36c-.98,4.58-4.97,7.86-9.15,9.51-.44.17-.28.84.2.72,2.84-.72,5.73-2.74,6.13-5.84.06-.48-.69-.47-.75,0h0Z"/><ellipse class="cls-2" cx="387.39" cy="495.85" rx="20.76" ry="11.86" transform="translate(-159.34 184.36) rotate(-22.33)"/><path class="cls-6" d="m509.41,323.25c-2.36-2.9-77.31,169.38-200,180.89-120.72,11.33-261.9-135.42-261.94-135.45h0c.78.44,173.11,159.55,308.26,121.54,103.03-28.98,155.74-164.46,153.69-166.99Z"/><path class="cls-6" d="m214.98,482.88c-9.15.28-18.3.56-27.44.85-1.93.06-1.93,3.06,0,3,9.15-.28,18.3-.56,27.44-.85,1.93-.06,1.93-3.06,0-3h0Z"/><path class="cls-6" d="m183.93,464.71c-25.03,1.36-50.1,2.07-75.17,2.13-7.14.02-14.27-.02-21.41-.11-1.93-.02-1.93,2.98,0,3,25.07.31,50.14-.02,75.19-1.01,7.13-.28,14.26-.62,21.39-1.01,1.92-.1,1.93-3.1,0-3h0Z"/><path class="cls-6" d="m176.07,455.32c-4.98-18.18-16.08-34.17-29.92-46.77-4.31-3.92-8.91-7.53-13.7-10.86-1.59-1.1-3.09,1.5-1.51,2.59,15.52,10.78,28.99,24.98,37.16,42.14,2.1,4.4,3.79,8.99,5.08,13.69.51,1.86,3.4,1.07,2.89-.8h0Z"/><path class="cls-6" d="m324.69,497.64c1.79,12.05-5.58,23.38-14.84,30.39-3.15,2.39-6.59,4.38-10.19,6.03-1.75.8-.23,3.39,1.51,2.59,12.12-5.56,23.41-15.91,26.15-29.46.69-3.43.77-6.89.25-10.35-.28-1.9-3.17-1.09-2.89.8h0Z"/><path class="cls-6" d="m401.03,467.65c-8.2.25-16.4.51-24.6.76-1.93.06-1.93,3.06,0,3,8.2-.25,16.4-.51,24.6-.76,1.93-.06,1.93-3.06,0-3h0Z"/><path class="cls-6" d="m427.94,445.22c.45,11.29.9,22.58,1.35,33.87.08,1.92,3.08,1.93,3,0-.45-11.29-.9-22.58-1.35-33.87-.08-1.92-3.08-1.93-3,0h0Z"/><ellipse class="cls-2" cx="79.43" cy="468.74" rx="22.07" ry="11.06" transform="translate(-13 2.39) rotate(-1.59)"/><ellipse class="cls-2" cx="123.74" cy="398.34" rx="22.07" ry="13.69" transform="translate(-10 3.24) rotate(-1.44)"/><ellipse class="cls-2" cx="175.83" cy="486.31" rx="22.07" ry="13.69" transform="translate(-12.19 4.58) rotate(-1.44)"/><ellipse class="cls-2" cx="353.35" cy="470.3" rx="22.07" ry="13.69" transform="translate(-11.74 9.05) rotate(-1.44)"/><ellipse class="cls-2" cx="416.84" cy="474.67" rx="22.07" ry="13.69" transform="translate(-11.82 10.65) rotate(-1.44)"/><ellipse class="cls-2" cx="417.72" cy="441.44" rx="19.86" ry="11.06" transform="translate(-11.67 11.34) rotate(-1.53)"/><ellipse class="cls-2" cx="126.14" cy="449.95" rx="22.42" ry="11.63" transform="translate(-12.33 3.64) rotate(-1.58)"/><ellipse class="cls-2" cx="257.1" cy="479.37" rx="12.48" ry="20.9" transform="translate(-276.45 585.28) rotate(-73.02)"/><ellipse class="cls-2" cx="287.3" cy="535.35" rx="22.42" ry="11.63" transform="translate(-14.62 8.11) rotate(-1.58)"/><path class="cls-6" d="m291.4,495.69c-8.26-3.06-15.22-8.42-21.99-13.91-1.49-1.21-3.62.91-2.12,2.12,7.2,5.84,14.54,11.43,23.32,14.68,1.81.67,2.6-2.23.8-2.89h0Z"/><path class="cls-9" d="m108.66,449.51c1.77-1.92,3.93-3.43,6.27-4.59.43-.21.05-.86-.38-.65-2.39,1.18-4.61,2.74-6.42,4.71-.33.35.2.89.53.53h0Z"/><path class="cls-9" d="m107.29,396.37c-.3-1.54,1.05-2.85,2.21-3.61,1.4-.91,2.98-1.48,4.54-2.05l-.29-.69c-3.16,1.7-6.14,3.74-8.81,6.15-.37.33.16.82.53.53,1.85-1.44,3.86-2.65,5.95-3.69l-.56-.32c-.05,1.37-.59,2.64-1.44,3.71l.63.36c.68-2.1,2.82-3.39,4.84-3.95.46-.13.27-.85-.2-.72-2.29.63-4.61,2.11-5.37,4.47-.11.34.39.66.63.36.98-1.23,1.6-2.66,1.66-4.24.01-.3-.32-.44-.56-.32-2.16,1.07-4.2,2.33-6.11,3.81l.53.53c2.62-2.37,5.55-4.36,8.66-6.03.37-.2.12-.83-.29-.69-1.8.66-3.69,1.32-5.24,2.5-1.27.97-2.36,2.42-2.04,4.09.09.47.81.27.72-.2h0Z"/><path class="cls-9" d="m65.76,471.58c1.65-1.78,3.31-3.56,4.96-5.35.21-.23.07-.65-.27-.64-3.92.15-8.29,1.72-10.53,5.12-.2.3.21.74.51.51,2.31-1.74,4.62-3.47,6.93-5.21l-.51-.13c1.08,1.61-.01,3.34-1.53,4.14l.51.51c1.51-2.3,3.91-3.89,6.44-4.88.45-.17.25-.9-.2-.72-2.73,1.06-5.26,2.74-6.89,5.22-.22.33.2.68.51.51,1.87-.98,3.1-3.22,1.8-5.16-.1-.15-.34-.26-.51-.13-2.31,1.74-4.62,3.47-6.93,5.21l.51.51c2.09-3.17,6.25-4.6,9.89-4.75l-.27-.64c-1.65,1.78-3.31,3.56-4.96,5.35-.33.35.2.89.53.53h0Z"/><path class="cls-9" d="m163.64,482.04l.55,2.73c.09.44.7.29.74-.1.4-4.2,4.16-7.24,7.84-8.67.45-.17.28-.81-.2-.72-5.59,1.04-11.72,4.3-13.74,9.95-.08.22.13.5.36.47,2.81-.27,6.41-1.92,6.84-5.08h-.72c.66,1.84.13,3.71-1.15,5.14l.63.17c-.31-1.1-.01-2.15.7-3.02.3-.37-.22-.9-.53-.53-.89,1.08-1.28,2.38-.89,3.75.07.26.43.38.63.17,1.45-1.62,2.09-3.78,1.34-5.87-.11-.31-.67-.4-.72,0-.38,2.81-3.6,4.29-6.12,4.53l.36.47c1.93-5.39,7.92-8.44,13.22-9.42l-.2-.72c-4.03,1.57-7.95,4.83-8.39,9.39l.74-.1-.55-2.73c-.09-.47-.82-.27-.72.2h0Z"/><path class="cls-9" d="m246.13,475.28c2.18-1.44,4.8-2.1,7.4-2.14.41,0,.53-.66.1-.74-2.42-.45-5.01.06-7.08,1.38-1.67,1.07-3.1,2.79-2.81,4.89l.72-.2c-.81-3.13.75-6.14,3.13-8.12.25-.21.05-.66-.27-.64-1.94.12-4.46,1.21-4.79,3.39-.04.28.16.53.46.46,2.69-.66,5.39-1.31,8.08-1.97.47-.11.27-.84-.2-.72-2.69.66-5.39,1.31-8.08,1.97l.46.46c.27-1.84,2.43-2.73,4.07-2.84l-.27-.64c-2.59,2.16-4.2,5.47-3.32,8.85.12.48.79.26.72-.2-.25-1.83,1.28-3.34,2.71-4.19,1.85-1.1,4.13-1.55,6.26-1.16l.1-.74c-2.72.04-5.49.73-7.78,2.24-.4.26-.03.91.38.65h0Z"/><path class="cls-9" d="m271.79,534.35c1.43-.81,2.86-1.62,4.29-2.43.36-.21.12-.82-.29-.69-2.59.84-4.68,2.51-6.72,4.26l.63.36c.97-2.97,3.82-4.99,6.65-6.01l-.29-.69c-1.57.92-3.14,1.83-4.71,2.75-.91.53-2.64,1.71-1.75,2.96.12.17.32.24.51.13,2.22-1.22,4.34-2.63,6.32-4.21l-.53-.53c-1.08,1.01-2.44,1.65-3.86,2.03-.47.12-.27.85.2.72,1.54-.4,3.02-1.12,4.19-2.22.36-.34-.16-.83-.53-.53-1.93,1.55-4,2.9-6.17,4.1l.51.13c-.33-.46.1-.9.44-1.21.52-.47,1.15-.79,1.75-1.14,1.33-.78,2.66-1.55,4-2.33.36-.21.12-.83-.29-.69-3.09,1.11-6.12,3.3-7.18,6.54-.12.38.36.59.63.36,1.93-1.66,3.93-3.26,6.39-4.07l-.29-.69c-1.43.81-2.86,1.62-4.29,2.43-.42.24-.04.89.38.65h0Z"/><path class="cls-9" d="m333.48,467.64c3.7-2.47,7.79-4.27,12.06-5.52l-.29-.69c-2.37,1.22-5,1.81-7.43,2.87-1.9.83-4.05,2.07-4.73,4.17-.1.31.28.59.55.42,4.01-2.43,8.14-4.65,12.37-6.67.39-.18.11-.81-.29-.69-3.71,1.11-8.12,2.28-10.7,5.39-.31.37.22.9.53.53,2.5-3.02,6.77-4.12,10.37-5.2l-.29-.69c-4.23,2.02-8.36,4.25-12.37,6.67l.55.42c.69-2.11,3.17-3.26,5.08-4,2.24-.88,4.59-1.48,6.74-2.59.38-.2.12-.8-.29-.69-4.32,1.26-8.48,3.09-12.24,5.59-.4.27-.02.92.38.65h0Z"/><path class="cls-9" d="m336,466.75c-.47.85.02,1.72.85,2.09.15.07.33.07.45-.06,2.73-2.76,5.87-5.06,9.25-6.96.37-.21.12-.81-.29-.69-2.13.66-4.24,1.37-6.34,2.15l.47.36c.06-.72.54-1.27,1.11-1.66l-.56-.32c-.09.71-.53,1.25-1.08,1.69-.35.28.09.78.45.59,1.67-.86,3.33-1.72,5-2.59.28-.15.22-.62-.09-.69-1.19-.26-2.41-.32-3.62-.14s-1.97.57-2.61,1.61c-1.31,2.14-2.96,4.01-4.85,5.65-.18.15-.13.48.08.59.82.43,1.69.53,2.59.41.48-.06.27-.79-.2-.72-.69.09-1.4,0-2.02-.33l.08.59c1.64-1.42,3.11-3.02,4.33-4.81.29-.42.53-.87.82-1.29.39-.57.9-.76,1.55-.89,1.2-.24,2.46-.2,3.65.06l-.09-.69c-1.67.86-3.33,1.72-5,2.59l.45.59c.72-.57,1.18-1.3,1.3-2.22.03-.28-.35-.47-.56-.32-.82.55-1.4,1.3-1.49,2.31-.02.23.26.44.47.36,2.09-.77,4.21-1.49,6.34-2.15l-.29-.69c-3.43,1.93-6.63,4.28-9.4,7.08l.45-.06c-.43-.19-.85-.57-.58-1.06.23-.42-.41-.8-.65-.38h0Z"/><path class="cls-9" d="m399.93,441.84c1.99-1.34,4.23-2.22,6.57-2.73l-.36-.63c-1.87,1.5-3.47,3.32-4.54,5.48l.69.29c1-3.38,3.41-6.14,6.26-8.14l-.38-.65c-2.86,2.03-5.85,4.1-7.9,7.01l.7.19c.11-1.78,1.64-3.1,3.11-3.88,1.85-.98,4.05-1.36,6.12-1.01.47.08.67-.64.2-.72-2.32-.4-4.76.02-6.82,1.15-1.67.92-3.23,2.46-3.35,4.46-.03.4.5.47.7.19,1.97-2.79,4.89-4.78,7.64-6.74.39-.28.02-.93-.38-.65-3.01,2.11-5.54,5.01-6.6,8.59-.12.4.49.68.69.29,1.04-2.1,2.59-3.87,4.42-5.33.31-.25-.03-.7-.36-.63-2.4.53-4.71,1.44-6.75,2.81-.4.27-.02.92.38.65h0Z"/><path class="cls-9" d="m373.33,496.2c2.09-2.34,4.75-4.08,7.62-5.32l-.38-.65c-3.41,2.57-7.5,5.44-8.82,9.72-.12.4.48.66.69.29,2.06-3.74,5.81-6.29,9.74-7.76.45-.17.25-.89-.2-.72-4.11,1.53-8.03,4.19-10.19,8.1l.69.29c.6-1.95,1.89-3.58,3.32-5,1.59-1.57,3.37-2.93,5.15-4.27.39-.29.07-.84-.38-.65-2.92,1.26-5.65,3.05-7.77,5.43-.32.36.21.89.53.53h0Z"/><path class="cls-9" d="m401.17,474.45c.23-2.68,2.92-4.42,5.28-5.08l-.29-.69c-4.19,1.78-8.23,5.22-9.06,9.91-.06.34.35.67.63.36,1.58-1.77,2.61-3.88,3.76-5.93,1.22-2.18,2.67-4.15,4.85-5.46.29-.18.2-.75-.19-.7-1.86.25-3.6,1.01-5.02,2.25-1.53,1.34-2.45,3.16-3.18,5.02-.15.38.37.59.63.36,2.02-1.82,3.8-3.9,5.2-6.24l-.69-.29c-1.15,3.14-1.89,6.4-2.19,9.73l.74-.1c-.62-1.96.23-3.92,1.69-5.26.8-.74,1.75-1.2,2.71-1.69.81-.42,1.69-.9,2.11-1.75.21-.43-.43-.81-.65-.38-.48.97-1.7,1.4-2.61,1.87-1,.52-1.94,1.16-2.68,2.02-1.28,1.49-1.91,3.48-1.3,5.39.13.42.7.32.74-.1.29-3.26,1.04-6.45,2.16-9.53.15-.41-.47-.64-.69-.29-1.36,2.29-3.1,4.31-5.08,6.08l.63.36c.67-1.69,1.5-3.34,2.87-4.58,1.28-1.16,2.91-1.91,4.62-2.14l-.19-.7c-2.14,1.28-3.66,3.18-4.89,5.32s-2.23,4.35-3.87,6.19l.63.36c.79-4.52,4.69-7.75,8.71-9.46.4-.17.11-.8-.29-.69-2.72.76-5.56,2.77-5.83,5.81-.04.48.71.48.75,0h0Z"/><ellipse class="cls-2" cx="515.13" cy="220.23" rx="22.34" ry="14.27" transform="translate(176.43 666.48) rotate(-75.95)"/></svg>