<?xml version="1.0" encoding="UTF-8"?><svg id="Layer_2" xmlns="http://www.w3.org/2000/svg" viewBox="0 0 258.58 228.74"><defs><style>.cls-1,.cls-2,.cls-3,.cls-4{stroke-width:0px;}.cls-2{fill:#b2b2b2;}.cls-3{fill:#fff;}.cls-4{fill:#f6921e;}</style></defs><g id="havmåge_plain"><g id="ben_copy_5"><path class="cls-4" d="m90.4,172.73l-.32,30.74s-10-3-21-2c0,0-3,9,0,13,0,0,14,2,26-5l1-37-5.68.26Z"/><path class="cls-4" d="m107.4,173.31l-.32,40.56s-10-3.96-21-2.64c0,0-3,11.87,0,17.15,0,0,14,2.64,26-6.6l1-48.82-5.68.34Z"/></g><path id="næb" class="cls-4" d="m33.4,29.47s5,6,4,13L.4,43.47s-2-5,3-8l18.03-.82c2.6-.12,5.12-.91,7.32-2.31l4.65-2.87Z"/><path id="krop" class="cls-3" d="m32.4,29.04c0-.83-.04-1.65-.11-2.48-.31-4.1.23-20.84,29.11-26.09,28.3-5.14,32.33,33.09,32.9,44.09.19,3.72,1.02,7.39,2.61,10.76,4.37,9.26,16.15,24.15,47.48,30.15,13.81,2.64,25.72,7.27,35.65,12.49,20.54,10.79,20.78,40.25.49,51.5-14.01,7.77-30.66,15.58-47.14,20.01-41,11-78,2-99-28,0,0-18.77-28.15-3.58-72.64,1.02-2.98,1.58-6.09,1.58-9.24v-30.55Z"/><path id="sort_på_vinge" class="cls-1" d="m219.4,119.47l38,22s7,2-13,11c0,0-77-9-85-14s5-21,5-21l55,2Z"/><g id="grå_vinge_copy_5"><path class="cls-2" d="m99.5,110.85c.93-5.02,9.36-38.37,66.3-21.85,1.07.31,2.12.71,3.14,1.19,8.78,4.09,50.74,27.69,67.39,37.3,3.25,1.87,3.42,4.94.21,6.58-6.89,3.51-21.06,14.98-61.14,16.41-55.63,1.99-73.76-10.83-75.96-38.45-.03-.39-.01-.78.06-1.17Z"/></g><g id="_øje_copy_5"><circle class="cls-1" cx="63.4" cy="22.47" r="4.5"/><circle class="cls-3" cx="64.9" cy="20.97" r="2"/></g></g></svg>