<?xml version="1.0" encoding="UTF-8"?><svg id="Layer_2" xmlns="http://www.w3.org/2000/svg" viewBox="0 0 273.86 242.49"><defs><style>.cls-1,.cls-2,.cls-3,.cls-4,.cls-5,.cls-6,.cls-7{stroke-width:0px;}.cls-2{fill:#c59b6d;}.cls-3{fill:#b2b2b2;}.cls-4{fill:#ff8484;}.cls-5{fill:#fff;}.cls-6{fill:#f6921e;}.cls-7{fill:#ffd077;}</style></defs><g id="havmåge_sommer"><g id="ben"><path class="cls-6" d="m105.68,186.49l-.32,30.74s-10-3-21-2c0,0-3,9,0,13,0,0,14,2,26-5l1-37-5.68.26Z"/><path class="cls-6" d="m122.68,187.07l-.32,40.56s-10-3.96-21-2.64c0,0-3,11.87,0,17.15,0,0,14,2.64,26-6.6l1-48.82-5.68.34Z"/></g><path id="næb" class="cls-6" d="m48.68,43.23s5,6,4,13l-37,1s-2-5,3-8l18.03-.82c2.6-.12,5.12-.91,7.32-2.31l4.65-2.87Z"/><path id="krop" class="cls-5" d="m47.68,42.79c0-.83-.04-1.65-.11-2.48-.31-4.1.23-20.84,29.11-26.09,28.3-5.14,32.33,33.09,32.9,44.09.19,3.72,1.02,7.39,2.61,10.76,4.37,9.26,16.15,24.15,47.48,30.15,13.81,2.64,25.72,7.27,35.65,12.49,20.54,10.79,20.78,40.25.49,51.5-14.01,7.77-30.66,15.58-47.14,20.01-41,11-78,2-99-28,0,0-18.77-28.15-3.58-72.64,1.02-2.98,1.58-6.09,1.58-9.24v-30.55Z"/><path id="sort_på_vinge" class="cls-1" d="m234.68,133.23l38,22s7,2-13,11c0,0-77-9-85-14s5-21,5-21l55,2Z"/><g id="grå_vinge"><path class="cls-3" d="m114.78,124.61c.93-5.02,9.36-38.37,66.3-21.85,1.07.31,2.12.71,3.14,1.19,8.78,4.09,50.74,27.69,67.39,37.3,3.25,1.87,3.42,4.94.21,6.58-6.89,3.51-21.06,14.98-61.14,16.41-55.63,1.99-73.76-10.83-75.96-38.45-.03-.39-.01-.78.06-1.17Z"/></g><g id="_øje"><circle class="cls-1" cx="78.68" cy="36.23" r="4.5"/><circle class="cls-5" cx="80.18" cy="34.73" r="2"/></g><g id="badering"><path class="cls-4" d="m54.49,153.12c15.02-6.86,60.95-30.06,76.72-63.81,0,0,16.97-6.58,22.2,7.82,4.61,26.2-86.36,75.8-86.36,75.8,0,0-11.88,5.8-17.97-8.08-1.97-4.48.96-9.7,5.41-11.73Z"/><path class="cls-4" d="m49.18,150.73s-4.74,11.26-16.43,3.86c-4.24-2.69-5.74-8.18-3.77-12.8,4.38-10.24,11.25-31.27.19-43.06,0,0-9-12-22,0-3,2.77-4.24,5.38-4.28,7.63-.12,7.46,13.13,10.83,19.28,2.37,4,3-2.81,26.11-6,41-3,14,14,38,51,23"/><path class="cls-5" d="m6.55,105.7c-.07.04-.13.08-.2.13-.64.49-4.33,3.35-5.75,4.94-1.55,1.74.35,11.26.35,11.26,0,0,.82,2.19,4.47-4.25,2.74-4.83,6.3-6.64,7.91-7.25.53-.2.93-.65,1.03-1.21v-.05c.12-.6-.12-1.21-.6-1.57l-3.75-2.83c-.51-.38-1.19-.43-1.75-.12l-1.72.96Z"/><circle class="cls-5" cx="13.18" cy="104.73" r="3"/><path class="cls-1" d="m1.17,122.33s1.53,1.49,4.27-4.56c0,0-.22.06-.55.12-1.47.27-2.45-1.48-1.48-2.61l4.77-5.56S.87,114.11.02,115.92c0,0,.13,5.02,1.14,6.41Z"/><circle class="cls-1" cx="13.18" cy="104.73" r="1"/><path class="cls-4" d="m45.21,145.88s4.12,11.99,18.55,2.92-9.58,14.93-9.58,14.93c0,0-8.94-4.69-8.97-17.85Z"/></g><g id="hat"><path class="cls-7" d="m52.8,11.99c3.1,12.21,16.99,14.2,22.41,14.51,2.38.14,4.74.62,6.98,1.43,7.02,2.54,11.22,6.49,13.06,8.55,1.26,1.41,2.82,2.57,4.59,3.33,8.36,3.58,16.77-.26,16.77-.26l-4.02-9.97c-.68-1.69-.87-3.52-.52-5.29,2.2-11.22.39-12.42.39-12.42C100.51-.62,82.18.11,82.18.11c-6.27-.93-10.18,4.52-13.54,7.36-1.83,1.55-4.05,2.62-6.47,3.1l-9.03,1.79"/><path class="cls-2" d="m65.24,9.67s19.77,16.75,47.35,19.91c0,0-1.62-3.73-.52-5.29,0,0-30.66-5.27-42.28-17.91,0,0-3.49,3.24-4.55,3.3Z"/></g></g></svg>