<?xml version="1.0" encoding="UTF-8"?><svg id="Layer_3" xmlns="http://www.w3.org/2000/svg" width="1920" height="1080" viewBox="0 0 1920 1080"><defs><style>.cls-1{fill:#fffee9;stroke:#fff;}.cls-1,.cls-2,.cls-3,.cls-4,.cls-5,.cls-6{stroke-miterlimit:10;}.cls-1,.cls-6{stroke-width:2px;}.cls-2,.cls-5,.cls-7{fill:#fff;}.cls-2,.cls-6{stroke:#000;}.cls-3{fill:#ffc500;stroke:#ffc500;}.cls-4{fill:#ff9c00;stroke:#ff6d00;}.cls-5{stroke:#b0f1f4;}.cls-8,.cls-9,.cls-10,.cls-11,.cls-12,.cls-13,.cls-14,.cls-15,.cls-16,.cls-17,.cls-18,.cls-19,.cls-20,.cls-21,.cls-22,.cls-23,.cls-7,.cls-24,.cls-25,.cls-26,.cls-27,.cls-28,.cls-29,.cls-30,.cls-31,.cls-32,.cls-33{stroke-width:0px;}.cls-9{fill:#f4ac9f;}.cls-10{fill:#f4c700;}.cls-11{fill:#4a3600;}.cls-12{fill:#74ceff;}.cls-13{fill:#3d7f00;}.cls-14{fill:#09aa00;}.cls-15{fill:#d40;}.cls-16{fill:#b0f1f4;}.cls-17{fill:#8e8265;}.cls-18{fill:#8af9f9;}.cls-19{fill:#a09378;}.cls-20{fill:#ff5f64;}.cls-21{fill:#ff6ba2;}.cls-22{fill:#ff59a2;}.cls-23{fill:#63f1fc;}.cls-24{fill:#fff1d4;}.cls-25{fill:#ff2a84;}.cls-26{fill:#ff3f45;}.cls-27{fill:#ff3fd6;}.cls-28{fill:#ffcf9f;}.cls-29{fill:#eae38b;}.cls-30{fill:#0022c9;}.cls-31{fill:#003e9f;}.cls-32{fill:#03d6d6;}.cls-33{fill:#009468;}</style></defs><rect class="cls-23" x="-2.6" y=".58" width="1920" height="517"/><rect class="cls-32" x="-2.6" y="443.58" width="1920" height="333"/><path class="cls-7" d="m1764.71,704.12c-99.75-8.06-149.36-55.77-233.8-46.04-6.1.7-33.98,4.19-34,4-83.02,9.75-122.59,9.88-219,5-94.89-4.8-95.09,36.82-208,47-130.45,11.77-155.89-41.47-264-16-79.53,18.74-104.63,46.56-149,59-72.27,20.26-92.34-38.05-211-60-76.72-14.19-75.6,8.84-269.18,17.08-23.9,1.02-129.86,5.53-180.58-.59.23,19.23.42,38.45.01,57.68.47,11.5,0,23.08-.6,34.39-.02.37-.05.75-.07,1.12,154.76,377.67,1835.3,25.69,1904.43-21.67,1.49-1.02,2.41-1.65,24.07-16.52.06-15.95.11-31.91.14-47.86-42.67-32.35-83.64-10.45-159.41-16.57Z"/><path class="cls-16" d="m1764.71,702.62c-39.73-3.41-77.17-14.57-114.8-27.16-30.85-10.32-62.09-19.89-94.91-20.18-27.61-.24-55.56,5.21-82.99,8.05-34.25,3.55-68.56,5.57-103,5.38-38.95-.22-78.3-5.16-117.18-3.25-24.76,1.21-47.56,7.88-70.26,17.49-27.88,11.8-55.48,21.71-85.55,26.44-38.78,6.1-78.72,6.86-117.52.54-26.96-4.39-53.1-12.6-80.01-17.12-29.12-4.89-58.32-3.7-87.16,2.5-34.17,7.35-66.63,19.56-97.77,35.29-24.21,12.23-48.84,26.12-76.36,28.75-23.79,2.28-45.16-6.33-65.96-16.9-25.82-13.11-51.25-26.34-78.89-35.29-38.78-12.55-78.84-19.13-119.38-13.99-50.28,6.36-100,13.82-150.67,17.07-61.21,3.92-122.96,6.3-184.28,4.52-13.98-.41-27.97-1.08-41.87-2.7-.8-.09-1.51.76-1.5,1.5.26,22.68.22,45.36.2,68.04-.01,11.72-2.57,22.33,2.47,33,4.71,9.97,10.53,19.39,17.22,28.15,14.24,18.66,32.23,34.15,51.76,47.06,49.82,32.92,108.99,50.68,166.87,63.07,75.43,16.14,152.76,23.04,229.73,26.23,90.44,3.75,181.08,1.95,271.45-2.76,96.74-5.04,193.29-13.54,289.55-24.32s187.91-23.28,281.45-37.82c84.23-13.09,168.24-27.64,251.95-43.77,66.32-12.77,132.48-26.46,198.24-41.87,40.61-9.52,81.58-19.06,121.19-32.28,8.23-2.75,16.87-5.47,24.26-10.14,6.63-4.19,12.99-8.91,19.46-13.35,6.92-4.75,5.05-6.32,5.08-15.29.02-5.52.04-11.05.05-16.57.01-5.42,1.31-13.1.04-18.41-2.1-8.76-18.51-14.19-26.79-16.84-11.7-3.76-24.06-4.75-36.29-4.71-32.75.11-65.01,4.12-97.82,1.64-1.93-.15-1.92,2.85,0,3,26.85,2.03,53.42.38,80.24-1.04,21.2-1.13,43.01-1.42,62.66,7.78,3.9,1.82,9.98,4.23,12.79,7.49,4.67,5.41,2.17,17.83,2.15,24.78s2.43,19.06-2.29,24.67c-3.2,3.79-9.75,6.69-13.95,9.57-3.27,2.25-6.47,4.68-9.97,6.56-16.92,9.09-37.36,13.47-55.7,18.57-35.95,10-72.28,18.66-108.66,26.94-50.23,11.44-100.68,21.96-151.23,31.89-61.31,12.05-122.8,23.22-184.42,33.61-68.38,11.53-136.93,22.09-205.62,31.63-72.82,10.1-145.8,19.04-218.94,26.56-72.77,7.48-145.69,13.56-218.73,17.7-69.85,3.96-139.83,6.19-209.8,5.68-63.62-.46-127.3-3.11-190.59-9.73-54.56-5.7-109.08-14.26-162.03-28.83-42.37-11.66-84.53-27.23-121.5-51.36-29.18-19.04-56.96-45.13-70.57-77.9-1.84-4.44-1.31-8.27-1.11-13.09.36-8.64.24-17.22.19-25.86-.1-17.21-.59-34.72.06-51.91.16-4.16.05-4.05,4.14-3.65,2.03.2,4.07.38,6.1.54,5.18.42,10.37.73,15.56.98,11.64.57,23.29.82,34.94.94,38.97.38,77.96-.78,116.89-2.43,48.34-2.06,96.65-5.45,144.62-11.9,24.02-3.23,48.04-8.15,72.28-9.47,30.63-1.68,61.76,4.52,90.97,13.15,22.66,6.69,44.31,15.96,65.35,26.65,14.79,7.52,29.32,15.84,44.86,21.74,31.88,12.1,63.11,5.5,93.27-8.5,18.02-8.37,35.31-18.2,53.54-26.14,26.07-11.37,53.68-19.94,81.69-24.96,21.5-3.85,43.35-4.77,65.05-2.13,19.01,2.31,37.55,7.2,56.15,11.59,47.75,11.26,95.47,14.34,144.27,7.91,22.96-3.03,45.51-8.25,67.22-16.38,15.91-5.96,31.2-13.48,47.22-19.12,47.03-16.54,97.81-7.86,146.51-6.74,49.88,1.15,99-2.47,148.56-7.83,16.55-1.79,33.14-4.61,49.79-5.18,24.81-.86,49.15,3.6,72.88,10.53,48.43,14.14,94.33,32.34,145.13,36.7,1.92.17,1.91-2.84,0-3Z"/><path class="cls-7" d="m1496.9,662.08c21.73-2.55,44.35-6.07,44.34-6.12-.01-.08-44.37,5.88-44.34,6.12Z"/><path class="cls-16" d="m1496.9,663.58c13.96-1.64,27.89-3.54,41.78-5.69,1.02-.16,2.38-.14,3.32-.63,1.2-.62.81-2.37-.36-2.74-.48-.15-1.09.02-1.56.08-1.08.14-2.17.28-3.25.42-3.66.48-7.33.97-10.99,1.47-8.05,1.08-16.1,2.17-24.14,3.33-1.3.19-2.61.38-3.91.58-.75.12-1.79.15-2.18.93-.88,1.72,1.71,3.24,2.59,1.51-.26.51-1.31.71-.5.6.31-.04.63-.11.94-.16,1.07-.17,2.14-.33,3.22-.48,3.51-.51,7.03-1,10.54-1.48,7.76-1.07,15.52-2.12,23.29-3.15,1.32-.17,2.65-.35,3.97-.52.38-.05.76-.08,1.13-.14s.64.08.06-.1l-.36-2.74c.64-.33,0-.08-.31-.03-.61.1-1.22.2-1.83.29-2.16.34-4.31.66-6.47.98-6.96,1.03-13.93,2.01-20.91,2.92-4.68.62-9.37,1.2-14.06,1.75-1.89.22-1.92,3.23,0,3Z"/><ellipse class="cls-32" cx="1283.9" cy="743.08" rx="66.5" ry="33.5"/><ellipse class="cls-32" cx="1429.4" cy="726.08" rx="35" ry="16.5"/><ellipse class="cls-32" cx="1834.4" cy="734.08" rx="50" ry="8.5"/><ellipse class="cls-5" cx="119.4" cy="672.08" rx="45" ry="16.5"/><ellipse class="cls-5" cx="653.9" cy="709.58" rx="45" ry="16.5"/><ellipse class="cls-5" cx="1766.9" cy="660.58" rx="45" ry="16.5"/><ellipse class="cls-32" cx="420.4" cy="776.58" rx="90" ry="17"/><path class="cls-17" d="m213.4,392.58c19.51-4.81,36.09,1.33,43,4,68.68,26.5,95.57,142.37,61,176-11.97,11.65-31.65,12.76-71,15-24.34,1.38-30.42-1.6-69,0-25.97,1.08-27.9,2.62-32,0-32.31-20.64-6.63-176.61,68-195Z"/><path class="cls-17" d="m412.4,517.58c12.9-3.79,23.86-1.08,28,0,42.95,11.19,67.74,70.99,54,88-5.59,6.92-12.41.38-56,6-7.49.97-22.08,3.07-43,5-24.09,2.23-26.27,1.43-28,0-16.05-13.32,1.42-86.2,45-99Z"/><path class="cls-19" d="m454.01,525.12c-4.35.6-8.91,1.29-12.38,3.99-3.47,2.69-5.24,8.08-2.58,11.57,2.17,2.84,6.16,3.33,9.4,4.81s6.04,5.84,3.55,8.4c-.9.93-2.24,1.27-3.49,1.6-5.03,1.3-10.26,3.17-13.48,7.25s-3.3,10.99,1.07,13.8c1.29.83,2.84,1.24,4.03,2.21s1.88,2.88.86,4.02c-.37.41-.88.64-1.38.87-6.24,2.88-11.97,6.86-16.85,11.7-3.29,3.26-6.2,8.74-3.03,12.11,1.56,1.65,4.01,2,6.27,2.24,17.69,1.82,35.53,2.07,53.26.75,4.88-.36,10.18-1.04,13.63-4.52,3.74-3.78,4.13-9.69,3.77-15-1.58-23.09-13.52-45.28-31.93-59.32-3.42-2.61-7.04-4.94-10.66-7.27"/><path class="cls-19" d="m275.77,414.45c-17.15-2.74-35.55,4.72-45.95,18.64-2,2.67-3.78,5.89-3.19,9.17.27,1.49,1.02,2.86,1.9,4.09,6.67,9.35,21.29,12.82,23.73,24.04.22,1.01.32,2.09-.05,3.06-.52,1.35-1.82,2.2-3.04,2.96-5.01,3.12-10.02,6.24-15.03,9.35-5.91,3.68-11.88,7.4-16.76,12.38-1.28,1.31-2.51,2.76-2.99,4.52-1.06,3.9,2,7.89,5.64,9.64s7.81,1.95,11.76,2.86c4.8,1.1,9.49,3.39,12.56,7.24,3.07,3.85,4.24,9.42,2.08,13.85-3.07,6.3-10.99,8.09-17.82,9.67-6.53,1.51-13.15,3.58-18.25,7.93-5.21,4.45-8.32,10.85-10.71,17.27-.77,2.06-1.48,4.33-.77,6.4.57,1.67,1.96,2.92,3.39,3.94,7.2,5.16,16.39,6.55,25.22,7.23,21.07,1.62,42.39.07,63-4.61,4.61-1.05,9.24-2.27,13.41-4.5,3.84-2.06,7.2-4.93,10.21-8.08,14.59-15.25,21.27-37.7,17.38-58.44-3.3-17.58-13.48-33.13-18.27-50.37-1.46-5.24-2.42-10.64-4.55-15.64-3.03-7.13-8.26-13.06-13.4-18.86-5.31-5.99-11.14-12.3-18.94-14.12"/><path class="cls-18" d="m1927.93-5.37c-46.31,1.44-92.75-.57-139.11-.57H-2.29C-1.03,18.44.95,42.79,1.85,67.19c.1,2.6-1.47,4.14-3.4,4.64.15,9.24.53,18.45,1.39,27.68,1.2,12.93.1,25.96,1.66,38.87.33,2.74-1.33,4.29-3.39,4.67.66,14.38,1.02,28.76.47,43.14,1.11.8,1.87,2.08,1.87,3.86v1.77c.22.9.22,1.85,0,2.75v10.14c0,1.28-.4,2.31-1.04,3.08.32,4.03.34,8.09.35,12.12,0,1.12-.31,2.04-.8,2.77.27,3.44.5,6.88.46,10.33-.14,10.12.3,20.24,0,30.35,7.63,1.65,13.58,2.64,16.86,3.19,108.16,17.91,153.59-46.3,302.3-74.4,120.87-22.84,122.08,13.69,295.61,0,186.26-14.69,189.54-57.13,320.15-55.57,54.36.65,94.8,10.2,103.4,12.32,56.82,14.05,51.46,26.14,120.54,45.16,26.37,7.26,56.59,13.61,92,16,0,0,15.36,1.04,31,1,96.55-.22,547.08-128.47,644.26-66.58.54-49.95,2.03-99.9,2.38-149.85Z"/><path class="cls-29" d="m1923.97,770.83c-84.52-3.65-175.05-5.47-226.57,5.75-119.87,26.12-253.51,31-446,15-123.96-10.31-111.92,14.43-416,26-108.18,4.12-92.2.32-212,5-182.02,7.11-203.43,15.27-270,2-89.32-17.81-104.78-43.26-164-33-62.57,10.84-48,7-123,5-29.13-.78-48.14-18.75-69-20-.37-.02-.74-.03-1.11-.03.17,9.75-.24,19.51-.76,29.08-.46,8.51-1.17,17.02-1.66,25.54-.01,8.33.12,16.67.18,25,.01,1.83,0,3.66-.02,5.48.26,4.29.57,8.59.87,12.87,1.75,24.92.28,49.65.11,74.59-.17,24.66-.07,49.26-.87,73.92-.7,21.43-1.23,42.93.72,64.3,7.18.32,14.36.61,21.54.84,33.64,1.08,67.32,1.19,100.95-.05,33.77-1.24,67.27-5.84,101.05-3.03,16.87,1.4,33.67,3.6,50.58,4.56,4.27.24,8.55.41,12.83.52,7.44-.12,14.88-.45,22.28-.87,18.78-1.07,37.53-2.88,56.34-3.5,20.96-.69,41.94-.98,62.91-1.16,21.29-.17,42.58-.19,63.87-.18,19.13,0,38.23,1.07,57.35,1.31.81-.77,1.93-1.28,3.37-1.31,33.86-.77,67.62,1.47,101.4,3.32.71-.42,1.52-.66,2.4-.58,21.91,1.87,43.91,2.44,65.9,2.64,17.47.15,34.92.55,52.32-1.18,16.38-1.62,33.16-3.99,49.51-.87,2.59.49,5.1,1.14,7.52,1.94h.54c26.29-4.4,52.98-3.32,79.5-2.17,50.55,2.19,100.64-1.88,151.1-4.02,8.99-.38,20.91-1.97,30.37,1.18.5-.16,1.05-.25,1.66-.25,22.15.04,44.27,1.22,66.35,2.82,6.21.03,12.42.08,18.62.14.8-1.06,2.07-1.78,3.83-1.73,8.17.21,16.19-.91,24.28-1.87,7.72-.92,15.4-1.19,23.17-1.22,15.79-.06,31.56-.92,47.35-.46,16.37.48,32.7,1.63,49.08,1.65,9.76.01,19.53.06,29.28.47,6.97-3.9,16.27-4.51,23.87-4.31,12.34.33,24.47,3.68,36.78,3.84,1.17.01,2.11.32,2.84.8,4.3-.18,8.6-.31,12.9-.32,19.05-.02,38.1-.06,57.14-.9,17.36-4.42,35.12-1.13,52.83-.53.69.02,1.3.16,1.84.38,3.14-.45,6.25-.9,9.28-1.06,9.71-.53,19.43-.34,29.14.08,3.22.14,6.44.3,9.66.48,15.98-3.92,33.75-1.71,49.78,1.06,4.13-.16,8.26-.33,12.39-.53,10.96-.54,21.99-1.85,32.76.18,10.2-2.33,20.94-1.52,31.34-1.54,6.89-.02,13.78-.14,20.67-.31.24-.06.48-.13.74-.16,6.81-.84,13.63-.52,20.48-.48,1.54,0,2.71.58,3.51,1.43.62-.3,1.36-.48,2.2-.48h20.67c17.15-2.08,34.21-.02,51.35.72,12.18-.27,24.36-.69,36.55-.72,1.41,0,2.5.47,3.3,1.21,3.66-.11,7.33-.2,10.99-.25,10.64-.15,21.63-2.7,32.03.44,1.46-2.33,3.17-5.04,5.13-8.13-.27-22.12.48-44.26.53-66.38.16-79.32.82-158.64,1.15-237.96Z"/><path class="cls-14" d="m1754.58,867.49c13.32-13.81,30.68-23.67,49.36-28.05,1.28-.3,2.6-.58,3.9-.41,1.3.16,2.5.75,3.66,1.36,10.2,5.37,19.23,12.95,26.28,22.07,3.1,4.01,5.82,8.3,8.43,12.65,7.59,12.62,14.55,26.55,13.88,41.26-1.77-.66-3.34-1.77-4.9-2.83-26.64-18.16-58.39-28.73-90.6-30.16-1.29-6.04-4.71-11.6-9.52-15.48"/><path class="cls-14" d="m1755.64,868.55c6.83-7.06,14.67-13.06,23.26-17.83,4.26-2.36,8.69-4.43,13.25-6.13,2.31-.87,4.65-1.65,7.02-2.34s4.75-1.51,7.15-1.73c2.55-.24,4.86,1.36,6.98,2.58s4.28,2.59,6.32,4.03c4.09,2.89,7.9,6.18,11.38,9.78,7.31,7.58,12.89,16.7,17.92,25.9,5.63,10.31,10.16,21.62,9.68,33.56l1.9-1.45c-3.07-1.22-5.77-3.55-8.54-5.32-2.81-1.8-5.68-3.52-8.59-5.16-5.81-3.27-11.81-6.19-17.95-8.78-12.31-5.19-25.19-9.01-38.36-11.31-7.43-1.3-14.94-2.12-22.47-2.47l1.45,1.1c-1.39-6.3-4.9-12.05-9.9-16.14-1.48-1.21-3.62.9-2.12,2.12,4.64,3.8,7.84,8.96,9.13,14.82.15.66.81,1.07,1.45,1.1,26.51,1.21,52.68,8.61,75.93,21.41,3.24,1.79,6.43,3.68,9.55,5.67s6.13,4.47,9.62,5.86c.95.38,1.86-.57,1.9-1.45.45-11.09-3.26-21.75-8.21-31.52-2.51-4.94-5.33-9.74-8.29-14.43s-6.16-9.21-9.85-13.34c-3.46-3.88-7.3-7.4-11.43-10.57s-8.45-6.14-13.13-8.18c-2.69-1.17-5.18-.82-7.94-.15-2.46.6-4.9,1.29-7.31,2.08-4.88,1.59-9.64,3.55-14.22,5.85-10.28,5.15-19.68,12.05-27.68,20.31-1.34,1.39.78,3.51,2.12,2.12h0Z"/><path class="cls-27" d="m1764.21,885.47c-1.32,6.73-5.3,12.89-10.88,16.87-.53.38-1.12.8-1.21,1.45-.06.43.12.85.29,1.25,2.46,5.42,5.76,10.42,9.08,15.36,15.97,23.76,33.35,47.39,56.95,63.6.95.65,1.96,1.31,3.1,1.46,1.63.2,3.18-.67,4.56-1.56,20.68-13.38,32.36-37.95,34.36-62.5.05-.66.1-1.36-.14-1.98-.25-.66-.8-1.15-1.33-1.62-21.5-18.93-50.52-26.42-78.54-32.36-5.32-1.13-10.73-2.22-16.14-1.74"/><path class="cls-27" d="m1762.77,885.07c-1.01,4.97-3.4,9.57-6.96,13.19-.82.83-1.68,1.62-2.61,2.32s-2.05,1.32-2.44,2.5c-.41,1.26.22,2.42.75,3.54.65,1.38,1.36,2.73,2.1,4.06,2.81,5.03,6.11,9.78,9.35,14.54s6.25,9.07,9.5,13.52c12.79,17.52,27.29,34.45,45.41,46.66,2.39,1.61,4.74,1.99,7.38.71,2.25-1.09,4.32-2.73,6.28-4.26,3.8-2.94,7.27-6.28,10.38-9.95,6.36-7.5,11.2-16.17,14.58-25.39,1.68-4.58,3-9.3,3.94-14.09.48-2.46.87-4.94,1.17-7.43.28-2.33,1.03-5.27-.56-7.27s-3.81-3.44-5.73-4.92c-2.05-1.58-4.16-3.09-6.33-4.52-4.39-2.88-8.99-5.42-13.72-7.68-9.53-4.54-19.55-7.96-29.71-10.77-5.23-1.44-10.49-2.73-15.78-3.93s-10.94-2.57-16.48-3.35c-2.98-.42-5.97-.63-8.98-.38-1.91.16-1.93,3.16,0,3,5.88-.48,11.64.81,17.36,2.03,4.88,1.04,9.75,2.13,14.6,3.32,9.89,2.43,19.69,5.28,29.16,9.05,9.26,3.69,18.18,8.32,26.23,14.22,2.05,1.5,4.04,3.09,5.95,4.77.96.84,1.44,1.28,1.35,2.61-.08,1.21-.21,2.43-.36,3.63-.55,4.64-1.48,9.25-2.72,13.76-2.49,9-6.35,17.62-11.63,25.33-2.61,3.81-5.57,7.37-8.87,10.6s-7.04,6.47-11.12,8.73c-1.09.6-2.19.98-3.39.47s-2.36-1.46-3.45-2.24c-2.09-1.49-4.14-3.04-6.14-4.65-4.08-3.29-7.98-6.81-11.71-10.49-7.41-7.32-14.15-15.3-20.45-23.58s-12.35-17.01-18.14-25.78c-1.52-2.29-3-4.61-4.36-7-.68-1.19-1.34-2.4-1.95-3.63-.27-.55-.54-1.09-.8-1.65-.4-.87-.06-.87.66-1.4,3.78-2.82,6.88-6.54,8.9-10.82.99-2.11,1.74-4.32,2.2-6.6.38-1.88-2.51-2.69-2.89-.8h0Z"/><path class="cls-30" d="m1750.79,903.44c9.68,15.83,19.39,31.69,30.73,46.38,11.34,14.68,24.41,28.22,39.87,38.49-14.1,6.99-29.36,11.65-44.97,13.71-5.48.72-11.01,1.13-16.53.88-8.71-.4-17.25-2.44-25.73-4.48-1.2-.29-2.41-.58-3.51-1.14-3.89-1.98-5.44-6.7-6.1-11.01-.61-3.95-.8-7.95-.99-11.95-1.14-24.35-2.04-49.71,7.73-72.04,5.74,2.06,12.04,2.56,18.04,1.44"/><path class="cls-30" d="m1749.49,904.2c15.3,25.01,30.89,50.43,52.5,70.59,5.81,5.42,12.03,10.41,18.64,14.82v-2.59c-11.13,5.5-22.95,9.53-35.12,11.98-6.35,1.28-12.81,2.19-19.3,2.43s-13.13-.46-19.6-1.73c-3.25-.64-6.48-1.38-9.71-2.15-2.59-.62-5.47-.98-7.42-2.96-3.68-3.76-3.85-10.34-4.18-15.23-.81-12.25-1.28-24.63-.76-36.9.56-13.45,2.63-27,8.03-39.42l-1.69.69c6.06,2.13,12.53,2.58,18.84,1.44,1.9-.34,1.09-3.24-.8-2.89-5.78,1.05-11.7.51-17.24-1.44-.56-.2-1.45.12-1.69.69-10.2,23.48-9.09,49.7-7.85,74.71.29,5.81.37,12.38,3.19,17.64,1.19,2.22,2.97,4.05,5.31,5.04,2.89,1.23,6.21,1.71,9.26,2.41,6.73,1.54,13.56,2.84,20.48,3.1s13.45-.43,20.07-1.48c14.48-2.3,28.56-6.84,41.7-13.34,1.07-.53.87-2.01,0-2.59-23.76-15.84-41.32-38.95-56.6-62.69-4.6-7.14-9.03-14.39-13.46-21.64-1.01-1.64-3.6-.14-2.59,1.51h0Z"/><path class="cls-14" d="m1724.99,993.77c-5.77-2.16-11-5.55-15.88-9.3-11.35-8.72-21.12-19.66-27.64-32.41-6.51-12.75-9.67-27.34-8.01-41.56.19-1.65.47-3.35,1.41-4.72,1.11-1.61,2.97-2.51,4.75-3.31,11.92-5.38,24.31-9.72,36.98-12.96,1-.26,2.08-.5,3.04-.13.75.29,1.32.91,1.86,1.51,2.33,2.6,4.66,5.21,7,7.81.54.6,1.1,1.25,1.23,2.04.14.87-.26,1.73-.63,2.53-6.17,13.24-7.15,28.23-7.77,42.83-.67,15.57-1.03,31.38,2.8,46.48"/><path class="cls-14" d="m1725.39,992.33c-7.65-2.91-14.42-7.93-20.54-13.27-5.87-5.12-11.22-10.88-15.72-17.24-9.52-13.49-15.22-29.78-14.55-46.4.08-2.11.18-4.29.61-6.36s1.45-3.33,3.24-4.32c3.72-2.07,7.87-3.57,11.83-5.12,8.29-3.26,16.76-6.03,25.38-8.28.92-.24,1.98-.68,2.95-.62,1.11.07,1.85,1.23,2.53,1.99,1.55,1.74,3.11,3.47,4.66,5.21.71.79,1.64,1.59,2.2,2.51.6.99-.12,1.99-.54,2.93-.84,1.88-1.6,3.79-2.27,5.74-2.72,7.95-3.94,16.35-4.62,24.7-.71,8.62-1.04,17.31-1.13,25.95s.3,17.93,1.87,26.75c.39,2.19.86,4.36,1.4,6.51.47,1.87,3.36,1.08,2.89-.8-2.31-9.21-3.08-18.69-3.16-28.16s.3-18.56.95-27.79c.62-8.85,1.78-17.73,4.63-26.16.7-2.06,1.51-4.07,2.41-6.05.95-2.09,1.21-3.88-.3-5.78s-3.24-3.65-4.86-5.46c-1.4-1.57-2.85-3.84-4.83-4.72s-4.28,0-6.25.52c-2.28.61-4.56,1.25-6.82,1.93-4.45,1.33-8.86,2.8-13.23,4.41-4.41,1.62-8.77,3.39-13.07,5.27-3.78,1.66-7.56,3.24-8.64,7.63-1.01,4.11-.98,8.71-.81,12.92.18,4.45.77,8.89,1.75,13.23,1.9,8.5,5.29,16.66,9.79,24.11,4.27,7.06,9.54,13.52,15.46,19.26s12.68,11.26,20.06,15.17c1.93,1.02,3.92,1.91,5.95,2.69,1.81.69,2.59-2.21.8-2.89h0Z"/><path class="cls-30" d="m1753.1,867.82c-5.69-2.61-12.24-3.3-18.35-1.93-2.96-8.38-4.52-17.25-4.59-26.13-.01-1.61.09-3.4,1.24-4.53.79-.78,1.92-1.07,3-1.34,11.89-2.88,24.06-4.96,36.29-4.81s24.59,2.61,35.37,8.39c-4.57.43-9,1.79-13.3,3.39-9.21,3.43-17.99,8.03-26.05,13.66-5.3,3.7-10.37,7.91-14.04,13.23"/><path class="cls-30" d="m1753.85,866.52c-6.15-2.76-12.91-3.51-19.5-2.08l1.85,1.05c-2.32-6.65-3.82-13.57-4.33-20.59-.11-1.55-.18-3.11-.2-4.67-.02-1.35-.18-3.26,1.07-4.16,1.17-.84,3.07-.98,4.42-1.29,1.73-.4,3.46-.78,5.19-1.14,13.68-2.83,27.91-4.24,41.78-1.9,7.38,1.25,14.56,3.51,21.18,7.03l.76-2.8c-8.48.85-16.67,4.27-24.28,7.97s-14.74,8.05-21.21,13.32c-3.48,2.84-6.63,6.04-9.21,9.73-1.11,1.58,1.49,3.09,2.59,1.51,4.4-6.28,10.7-10.98,17.09-15.09,6.76-4.35,13.96-8.02,21.48-10.87,4.37-1.66,8.87-3.11,13.54-3.57,1.36-.14,2.19-2.03.76-2.8-12.82-6.82-27.52-9.12-41.91-8.51-7.69.33-15.34,1.44-22.88,2.98-1.89.39-3.78.8-5.67,1.24-1.6.37-3.36.62-4.82,1.41-3.08,1.66-2.94,5.3-2.84,8.33.27,8.39,1.84,16.73,4.61,24.66.28.8,1.01,1.23,1.85,1.05,5.75-1.24,11.82-.63,17.19,1.78,1.75.79,3.27-1.8,1.51-2.59h0Z"/><path class="cls-27" d="m1675.43,902.31c3.76-21.02,15.79-40.45,32.94-53.18,2.56-1.9,5.22-3.65,7.87-5.4,1.96-1.29,3.91-2.57,5.87-3.86,2.1-1.38,4.25-2.79,6.68-3.43.11,10.18,1.57,20.35,4.34,30.15-7.28,3.93-11.94,12.26-11.47,20.52-16.52,1.35-31.71,9.2-46.36,16.97"/><path class="cls-27" d="m1676.88,902.71c3.88-21.41,16.22-40.96,33.99-53.54,2.97-2.1,6.03-4.07,9.07-6.07s5.85-4.24,9.25-5.21l-1.9-1.45c.13,10.32,1.61,20.61,4.39,30.55l.69-1.69c-7.75,4.27-12.64,12.97-12.22,21.82l1.5-1.5c-16.97,1.45-32.31,9.32-47.12,17.18-1.71.9-.19,3.5,1.51,2.59,14.3-7.58,29.2-15.37,45.6-16.77.78-.07,1.54-.63,1.5-1.5-.37-7.84,3.85-15.44,10.73-19.23.58-.32.86-1.07.69-1.69-2.71-9.7-4.15-19.68-4.28-29.75-.01-.96-.95-1.72-1.9-1.45-3.18.91-5.87,2.82-8.6,4.61-2.76,1.82-5.54,3.62-8.28,5.48-4.84,3.29-9.42,6.93-13.55,11.08-7.9,7.94-14.23,17.41-18.59,27.72-2.45,5.8-4.27,11.83-5.39,18.02-.34,1.89,2.55,2.7,2.89.8h0Z"/><circle class="cls-4" cx="1739.95" cy="886.56" r="23"/><path class="cls-21" d="m135.39,530.85c-4.03-8.43-.81-19.09,5.97-25.51,6.79-6.42,16.39-9.11,25.73-9.49,13.77-.56,28.41,4.06,36.92,14.9,9.69,12.34,9.52,30.1,4.29,44.9-5.23,14.8-14.77,27.59-22.93,41,16.71-5.94,34.36-9.25,52.09-9.78,4.64-.14,9.35-.08,13.85,1.06,5.27,1.33,10.05,4.07,15.12,6.04,3.55,1.38,7.26,2.38,10.64,4.14,10.48,5.48,16.16,18.02,15.3,29.82-.86,11.79-7.46,22.65-16.24,30.57-15.37,13.88-36.54,19.31-57.09,21.96-16.98,2.19-34.69,2.72-50.73-3.25-10.16-3.79-19.36-10.14-26.48-18.32-2.73-3.13-5.18-6.55-6.82-10.37-5.6-13.01-.96-28.25,6.29-40.42,10.91-18.31,27.2-32.67,41.06-48.85,6.98-8.15,13.74-18.46,11.09-28.86-2-7.84-9.79-13.8-17.89-13.68-2.29.04-4.88.73-5.9,2.78-.75,1.5-.43,3.29-.6,4.95-.66,6.36-7.79,9.5-12.6,13.72-8.75,7.67-10.17,22.33-3.07,31.54.87,1.12,1.86,2.21,2.24,3.58.9,3.21-2.1,6.4-5.34,7.21-5.25,1.31-10.86-1.76-13.93-6.22-3.07-4.46-4.06-10.01-4.47-15.41-.74-9.77.17-19.66,2.68-29.13"/><path class="cls-22" d="m136.69,530.09c-2.38-5.1-1.88-11.14.41-16.18,2.48-5.46,6.87-9.57,12.17-12.27,10.41-5.31,23.59-5.55,34.65-2.25s20.39,10.95,24.21,22.08,2.44,23.67-1.57,34.61c-5.26,14.39-14.56,26.83-22.48,39.8-.65,1.07.44,2.65,1.69,2.2,10.95-3.88,22.28-6.66,33.8-8.25,5.77-.8,11.6-1.28,17.42-1.46,5.76-.18,11.46-.02,16.95,1.91s10.24,4.52,15.54,6.36c4.75,1.65,9.18,3.52,12.79,7.12,6.26,6.24,9.24,15.4,8.6,24.14-1.48,20.46-19.4,35.37-37.16,42.59-9.4,3.82-19.37,6.13-29.38,7.69-10.9,1.7-22.02,2.74-33.05,2.09s-21.62-3.2-31.18-8.52c-8.74-4.87-17.12-11.99-22.17-20.75-5.29-9.19-4.59-20-1.22-29.72s9.59-18.91,16.19-27.07c6.71-8.3,14.16-15.96,21.41-23.78,7.11-7.66,15-15.56,19.07-25.36,1.93-4.64,2.76-9.74,1.61-14.69-1-4.34-3.65-8.18-7.14-10.9s-7.85-4.38-12.29-4.29c-2.18.04-4.57.57-6.18,2.15-1.88,1.85-1.62,4.27-1.8,6.67-.31,4.12-3.94,6.85-7,9.1-3.44,2.53-6.78,4.97-9.15,8.59-4.59,7.02-5.34,16.41-2.04,24.1.85,1.97,1.97,3.72,3.29,5.4,1.47,1.87,2.27,3.76.53,5.78-3.23,3.73-8.93,2.37-12.4-.21-4.1-3.05-5.95-8.05-6.82-12.92-.99-5.51-1.03-11.27-.7-16.84s1.27-11.36,2.72-16.89c.49-1.87-2.4-2.67-2.89-.8-2.94,11.22-4.04,23.43-2.09,34.92.85,5.01,2.71,10.13,6.5,13.67,3.46,3.23,8.42,5.23,13.15,4.01,4.48-1.15,8.2-5.94,5.8-10.47-1.06-2-2.74-3.6-3.79-5.64-.97-1.87-1.61-3.9-1.99-5.98-.76-4.16-.29-8.54,1.2-12.48s4.25-7.23,7.68-9.8,7.21-4.84,9.44-8.51c1.19-1.96,1.55-4.04,1.59-6.29.02-1.15,0-2.41.88-3.27.78-.76,1.96-1.07,3.01-1.21,4.39-.55,9.07,1.38,12.31,4.26,3.52,3.13,5.6,7.44,5.7,12.16.24,10.95-8.25,20.26-15.08,27.89-7.32,8.17-15.05,15.96-22.24,24.25-7.01,8.09-13.74,16.75-18.4,26.45s-7.31,20.2-4.91,30.57,10.28,18.79,18.45,25.07c8.59,6.61,18.67,10.96,29.32,12.96,11.34,2.13,22.97,1.88,34.4.66,10.51-1.12,21.04-2.84,31.18-5.89,19.25-5.79,38.34-17.47,45.95-36.98,3.49-8.95,3.73-18.91-.03-27.81-1.73-4.1-4.26-7.91-7.54-10.93-3.85-3.55-8.47-5.46-13.35-7.16-5.44-1.89-10.52-4.66-15.97-6.51-5.59-1.89-11.48-2.06-17.32-1.87-11.9.38-23.77,2.01-35.33,4.83-5.64,1.38-11.21,3.05-16.69,4.99l1.69,2.2c7.54-12.35,16.15-24.16,21.66-37.63,4.77-11.65,6.82-25.02,3.26-37.3-1.72-5.95-4.84-11.48-9.24-15.85s-9.73-7.41-15.48-9.43c-11.66-4.09-25.55-4.08-36.95.84-6.5,2.81-12.17,7.55-15.25,14.02s-3.49,13.27-.57,19.54c.81,1.75,3.4.23,2.59-1.51h0Z"/><path class="cls-22" d="m136.06,650c2.15-1.2,3.73-3.03,5.34-4.85s3.39-3.51,5.25-5.1c3.85-3.28,7.99-6.21,11.68-9.69,3.47-3.27,6.62-6.9,10.35-9.89,1.92-1.54,4-2.63,6.15-3.79s2.91-3.02,3.61-5.22c1.71-5.38,4.54-10.33,8.33-14.52,1.29-1.43-.82-3.56-2.12-2.12-3.29,3.64-5.92,7.77-7.81,12.29-.43,1.03-.82,2.08-1.17,3.15s-.57,2.39-1.42,3.2c-.78.75-1.95,1.1-2.88,1.61-1.07.58-2.09,1.23-3.07,1.95-3.81,2.76-7.01,6.21-10.34,9.51-3.57,3.54-7.53,6.57-11.43,9.73-2.14,1.73-4.24,3.53-6.13,5.53s-3.46,4.27-5.86,5.62c-1.68.94-.17,3.54,1.51,2.59h0Z"/><circle class="cls-2" cx="148.23" cy="521.03" r="8.01"/><circle class="cls-6" cx="148.05" cy="521.57" r="4.09"/><circle class="cls-1" cx="147.87" cy="521.74" r="1.07"/><path class="cls-32" d="m189.99,634.36c2.95-.93,5.23-3.23,7.87-4.84,2.77-1.69,5.93-2.62,9.09-3.35,11.33-2.65,23.18-3.07,34.67-1.25,2.17.35,4.86,1.34,4.92,3.54-16.54,8.57-36.02,11.33-54.3,7.71-1.02-.2-2.31-.81-2.1-1.83"/><path class="cls-22" d="m190.39,635.8c3.34-1.13,5.78-3.63,8.8-5.33,3.41-1.92,7.39-2.77,11.2-3.52,8-1.58,16.22-2.01,24.35-1.36,2.27.18,4.56.4,6.8.82,1.07.2,3.38.64,3.5,2.04l.74-1.3c-13.12,6.75-28.01,9.81-42.73,8.9-2.12-.13-4.23-.34-6.33-.64-1.01-.15-2.01-.31-3.02-.5-.46-.08-.94-.15-1.38-.28-.29-.08-.69-.27-.68-.31.14-1.93-2.87-1.92-3,0-.12,1.73,1.38,2.79,2.89,3.2,1.96.54,4.08.75,6.1,1.01,4.11.53,8.27.75,12.41.66,8.2-.18,16.4-1.54,24.22-4.04,4.49-1.44,8.85-3.26,13.04-5.41.43-.22.79-.8.74-1.3-.32-3.7-4.1-4.72-7.2-5.17-4.47-.65-8.98-1-13.51-.99s-8.87.35-13.27.99-8.74,1.43-12.83,2.97c-2.15.81-4.12,1.86-5.98,3.2s-3.55,2.73-5.66,3.45c-1.82.62-1.04,3.52.8,2.89h0Z"/><path class="cls-22" d="m195.18,620.69c3.88-1.9,7.77-3.8,11.65-5.7,3.62-1.77,7.25-3.57,11.18-4.57,3.99-1.01,8.11-1.22,12.2-1.25s8.2-.29,12.05.84c1.86.55,2.65-2.35.8-2.89-4.12-1.21-8.6-.98-12.85-.95s-8.45.27-12.55,1.25-7.79,2.75-11.49,4.56c-4.17,2.04-8.34,4.08-12.51,6.12-1.73.85-.22,3.44,1.51,2.59h0Z"/><path class="cls-22" d="m251.26,604.96c2.55.83,5.52,1.76,6.9,4.27.67,1.22.91,2.66,1.06,4.02.17,1.57.44,3.11-.46,4.51-1.51,2.33-3.66,4.5-5.77,6.29s-4.7,3.17-7.54,3.6c-1.9.29-1.09,3.18.8,2.89,3.48-.53,6.54-2.34,9.17-4.63,1.3-1.13,2.48-2.38,3.6-3.68s2.45-2.72,3.06-4.38c.64-1.75.28-3.8.03-5.6-.23-1.7-.63-3.41-1.54-4.88-1.88-3.01-5.28-4.27-8.49-5.31-1.84-.6-2.63,2.3-.8,2.89h0Z"/><path class="cls-22" d="m173.52,623.51c-.44,1.93.14,3.82,1.34,5.36,1.13,1.44,2.7,2.43,4.22,3.4,3.32,2.13,6.91,3.42,10.89,3.28,1.93-.07,1.93-3.07,0-3-3.14.11-6.01-.77-8.66-2.42-1.89-1.17-5.54-3.05-4.9-5.82.43-1.88-2.46-2.68-2.89-.8h0Z"/><path class="cls-22" d="m166.04,654.18c11.71,6.07,24.53,9.61,37.62,11.07,13.07,1.46,26.75,1.06,38.97-4.27,6-2.62,11.5-6.46,15.77-11.44,1.25-1.46-.86-3.59-2.12-2.12-7.74,9.04-19.25,13.71-30.88,15.05-12.61,1.46-25.78-.02-38.01-3.27-6.87-1.83-13.53-4.34-19.84-7.62-1.71-.89-3.23,1.7-1.51,2.59h0Z"/><path class="cls-8" d="m132.71,539.26c-.77,5.99-1.55,12.03-1.06,18.05.12,1.46.31,2.92.52,4.37.47,3.21,1.06,6.45,2.38,9.43.83,1.86,1.94,3.6,3.28,5.15,1.96,2.25,4.49,4.12,7.43,4.84,1.21.3,2.45.39,3.69.44,1.61.06,3.36-.01,4.59-1.03.45-.37.79-.84,1.13-1.3.85-1.17,1.73-2.4,1.87-3.83.24-2.44-1.7-4.49-3.13-6.51-1.84-2.6-3-5.66-3.34-8.81-.04-.34-.07-.69-.25-.98-.17-.28-.46-.47-.74-.65-7.2-4.69-13.04-11.35-16.69-19.01"/><path class="cls-8" d="m131.58,539.26c-.54,4.21-1.09,8.43-1.19,12.68s.33,8.1,1.02,12.11c1.21,7.06,4.58,14.47,11.56,17.46,1.61.69,3.31,1,5.05,1.11,1.62.11,3.36.16,4.9-.46s2.52-2,3.41-3.35,1.51-2.89,1.3-4.55-1.11-3.04-2.06-4.34c-1.08-1.48-2.15-2.93-2.92-4.61s-1.21-3.54-1.47-5.41c-.24-1.74-1.35-2.28-2.69-3.22-6.48-4.51-11.69-10.71-15.12-17.82-.63-1.3-2.57-.16-1.94,1.14,2.68,5.55,6.43,10.56,10.99,14.7,1.11,1.01,2.28,1.96,3.48,2.86.54.4,1.08.8,1.63,1.18.31.21.74.41,1,.67.44.43.44.77.52,1.38.45,3.24,1.71,6.32,3.63,8.96.86,1.18,1.89,2.34,2.45,3.71.68,1.69.02,3.11-.95,4.53s-1.91,2.28-3.7,2.41-3.61-.02-5.28-.49c-6.72-1.89-10.17-9.01-11.39-15.32-.81-4.17-1.25-8.4-1.15-12.65s.65-8.47,1.19-12.68c.18-1.43-2.07-1.42-2.25,0h0Z"/><path class="cls-28" d="m132.75,539.21c.31-2.34.71-4.67,1.21-6.98.05-.24.11-.5.28-.68.14-.15.34-.22.53-.29,1.72-.59,3.56-.82,5.38-.65.79.07,1.59.22,2.29.6,1.7.92,2.44,2.94,3.03,4.79.38,1.17.75,2.34,1.02,3.54.38,1.75.59,3.69,1.88,4.92.63.61,1.46.96,2.26,1.31-1.35,4.33-1.67,8.98-.92,13.45-6.73-4.82-12.43-11.1-16.57-18.27-.18-.31-.36-.63-.43-.98-.08-.43,0-.87.08-1.3.47-2.43.94-4.86,1.42-7.3"/><path class="cls-28" d="m134.25,539.21c.2-1.51.45-3,.73-4.5.12-.64.14-1.49.42-2.08l-.23.08c.21-.08.43-.14.65-.2.29-.08.59-.16.88-.22,1.33-.28,2.89-.39,4.22-.04,1.21.31,1.88,1.17,2.39,2.26,1.09,2.31,1.52,4.88,2.12,7.34.63,2.59,2,4.17,4.43,5.22l-.69-1.69c-1.41,4.64-1.68,9.46-.92,14.25l2.2-1.69c-4.26-3.08-8.09-6.75-11.37-10.86-1.6-2-3.04-4.13-4.35-6.34-.44-.74-.61-1.03-.46-1.9.13-.73.28-1.46.42-2.19.31-1.62.63-3.24.94-4.86.37-1.89-2.52-2.69-2.89-.8-.35,1.78-.69,3.57-1.04,5.35-.28,1.46-.85,3.1-.28,4.56,1.03,2.62,3.08,5.13,4.79,7.34,3.62,4.7,7.91,8.81,12.72,12.28,1.19.86,2.38-.55,2.2-1.69-.67-4.24-.32-8.55.92-12.65.17-.57-.1-1.44-.69-1.69-1.48-.64-2.44-1.25-2.91-2.87-.42-1.47-.64-3-1.08-4.47-.79-2.62-1.63-5.79-4.2-7.22s-6.54-1.11-9.1.01c-1.56.68-1.67,2.25-1.96,3.75-.35,1.83-.64,3.68-.88,5.53-.11.81.77,1.49,1.5,1.5.9,0,1.39-.7,1.5-1.5h0Z"/><path class="cls-12" d="m1343.58,896.49c13.32-13.81,30.68-23.67,49.36-28.05,1.28-.3,2.6-.58,3.9-.41,1.3.16,2.5.75,3.66,1.36,10.2,5.37,19.23,12.95,26.28,22.07,3.1,4.01,5.82,8.3,8.43,12.65,7.59,12.62,14.55,26.55,13.88,41.26-1.77-.66-3.34-1.77-4.9-2.83-26.64-18.16-58.39-28.73-90.6-30.16-1.29-6.04-4.71-11.6-9.52-15.48"/><path class="cls-12" d="m1344.64,897.55c6.83-7.06,14.67-13.06,23.26-17.83,4.26-2.36,8.69-4.43,13.25-6.13,2.31-.87,4.65-1.65,7.02-2.34s4.75-1.51,7.15-1.73c2.55-.24,4.86,1.36,6.98,2.58s4.28,2.59,6.32,4.03c4.09,2.89,7.9,6.18,11.38,9.78,7.31,7.58,12.89,16.7,17.92,25.9,5.63,10.31,10.16,21.62,9.68,33.56l1.9-1.45c-3.07-1.22-5.77-3.55-8.54-5.32-2.81-1.8-5.68-3.52-8.59-5.16-5.81-3.27-11.81-6.19-17.95-8.78-12.31-5.19-25.19-9.01-38.36-11.31-7.43-1.3-14.94-2.12-22.47-2.47l1.45,1.1c-1.39-6.3-4.9-12.05-9.9-16.14-1.48-1.21-3.62.9-2.12,2.12,4.64,3.8,7.84,8.96,9.13,14.82.15.66.81,1.07,1.45,1.1,26.51,1.21,52.68,8.61,75.93,21.41,3.24,1.79,6.43,3.68,9.55,5.67s6.13,4.47,9.62,5.86c.95.38,1.86-.57,1.9-1.45.45-11.09-3.26-21.75-8.21-31.52-2.51-4.94-5.33-9.74-8.29-14.43s-6.16-9.21-9.85-13.34c-3.46-3.88-7.3-7.4-11.43-10.57s-8.45-6.14-13.13-8.18c-2.69-1.17-5.18-.82-7.94-.15-2.46.6-4.9,1.29-7.31,2.08-4.88,1.59-9.64,3.55-14.22,5.85-10.28,5.15-19.68,12.05-27.68,20.31-1.34,1.39.78,3.51,2.12,2.12h0Z"/><path class="cls-26" d="m1353.21,914.47c-1.32,6.73-5.3,12.89-10.88,16.87-.53.38-1.12.8-1.21,1.45-.06.43.12.85.29,1.25,2.46,5.42,5.76,10.42,9.08,15.36,15.97,23.76,33.35,47.39,56.95,63.6.95.65,1.96,1.31,3.1,1.46,1.63.2,3.18-.67,4.56-1.56,20.68-13.38,32.36-37.95,34.36-62.5.05-.66.1-1.36-.14-1.98-.25-.66-.8-1.15-1.33-1.62-21.5-18.93-50.52-26.42-78.54-32.36-5.32-1.13-10.73-2.22-16.14-1.74"/><path class="cls-26" d="m1351.77,914.07c-1.01,4.97-3.4,9.57-6.96,13.19-.82.83-1.68,1.62-2.61,2.32s-2.05,1.32-2.44,2.5c-.41,1.26.22,2.42.75,3.54.65,1.38,1.36,2.73,2.1,4.06,2.81,5.03,6.11,9.78,9.35,14.54s6.25,9.07,9.5,13.52c12.79,17.52,27.29,34.45,45.41,46.66,2.39,1.61,4.74,1.99,7.38.71,2.25-1.09,4.32-2.73,6.28-4.26,3.8-2.94,7.27-6.28,10.38-9.95,6.36-7.5,11.2-16.17,14.58-25.39,1.68-4.58,3-9.3,3.94-14.09.48-2.46.87-4.94,1.17-7.43.28-2.33,1.03-5.27-.56-7.27s-3.81-3.44-5.73-4.92c-2.05-1.58-4.16-3.09-6.33-4.52-4.39-2.88-8.99-5.42-13.72-7.68-9.53-4.54-19.55-7.96-29.71-10.77-5.23-1.44-10.49-2.73-15.78-3.93s-10.94-2.57-16.48-3.35c-2.98-.42-5.97-.63-8.98-.38-1.91.16-1.93,3.16,0,3,5.88-.48,11.64.81,17.36,2.03,4.88,1.04,9.75,2.13,14.6,3.32,9.89,2.43,19.69,5.28,29.16,9.05s18.18,8.32,26.23,14.22c2.05,1.5,4.04,3.09,5.95,4.77.96.84,1.44,1.28,1.35,2.61-.08,1.21-.21,2.43-.36,3.63-.55,4.64-1.48,9.25-2.72,13.76-2.49,9-6.35,17.62-11.63,25.33-2.61,3.81-5.57,7.37-8.87,10.6s-7.04,6.47-11.12,8.73c-1.09.6-2.19.98-3.39.47s-2.36-1.46-3.45-2.24c-2.09-1.49-4.14-3.04-6.14-4.65-4.08-3.29-7.98-6.81-11.71-10.49-7.41-7.32-14.15-15.3-20.45-23.58s-12.35-17.01-18.14-25.78c-1.52-2.29-3-4.61-4.36-7-.68-1.19-1.34-2.4-1.95-3.63-.27-.55-.54-1.09-.8-1.65-.4-.87-.06-.87.66-1.4,3.78-2.82,6.88-6.54,8.9-10.82.99-2.11,1.74-4.32,2.2-6.6.38-1.88-2.51-2.69-2.89-.8h0Z"/><path class="cls-12" d="m1339.79,932.44c9.68,15.83,19.39,31.69,30.73,46.38,11.34,14.68,24.41,28.22,39.87,38.49-14.1,6.99-29.36,11.65-44.97,13.71-5.48.72-11.01,1.13-16.53.88-8.71-.4-17.25-2.44-25.73-4.48-1.2-.29-2.41-.58-3.51-1.14-3.89-1.98-5.44-6.7-6.1-11.01-.61-3.95-.8-7.95-.99-11.95-1.14-24.35-2.04-49.71,7.73-72.04,5.74,2.06,12.04,2.56,18.04,1.44"/><path class="cls-12" d="m1338.49,933.2c15.3,25.01,30.89,50.43,52.5,70.59,5.81,5.42,12.03,10.41,18.64,14.82v-2.59c-11.13,5.5-22.95,9.53-35.12,11.98-6.35,1.28-12.81,2.19-19.3,2.43s-13.13-.46-19.6-1.73c-3.25-.64-6.48-1.38-9.71-2.15-2.59-.62-5.47-.98-7.42-2.96-3.68-3.76-3.85-10.34-4.18-15.23-.81-12.25-1.28-24.63-.76-36.9.56-13.45,2.63-27,8.03-39.42l-1.69.69c6.06,2.13,12.53,2.58,18.84,1.44,1.9-.34,1.09-3.24-.8-2.89-5.78,1.05-11.7.51-17.24-1.44-.56-.2-1.45.12-1.69.69-10.2,23.48-9.09,49.7-7.85,74.71.29,5.81.37,12.38,3.19,17.64,1.19,2.22,2.97,4.05,5.31,5.04,2.89,1.23,6.21,1.71,9.26,2.41,6.73,1.54,13.56,2.84,20.48,3.1s13.45-.43,20.07-1.48c14.48-2.3,28.56-6.84,41.7-13.34,1.07-.53.87-2.01,0-2.59-23.76-15.84-41.32-38.95-56.6-62.69-4.6-7.14-9.03-14.39-13.46-21.64-1.01-1.64-3.6-.14-2.59,1.51h0Z"/><path class="cls-26" d="m1313.99,1022.77c-5.77-2.16-11-5.55-15.88-9.3-11.35-8.72-21.12-19.66-27.64-32.41-6.51-12.75-9.67-27.34-8.01-41.56.19-1.65.47-3.35,1.41-4.72,1.11-1.61,2.97-2.51,4.75-3.31,11.92-5.38,24.31-9.72,36.98-12.96,1-.26,2.08-.5,3.04-.13.75.29,1.32.91,1.86,1.51,2.33,2.6,4.66,5.21,7,7.81.54.6,1.1,1.25,1.23,2.04.14.87-.26,1.73-.63,2.53-6.17,13.24-7.15,28.23-7.77,42.83-.67,15.57-1.03,31.38,2.8,46.48"/><path class="cls-26" d="m1314.39,1021.33c-7.65-2.91-14.42-7.93-20.54-13.27s-11.22-10.88-15.72-17.24c-9.52-13.49-15.22-29.78-14.55-46.4.08-2.11.18-4.29.61-6.36s1.45-3.33,3.24-4.32c3.72-2.07,7.87-3.57,11.83-5.12,8.29-3.26,16.76-6.03,25.38-8.28.92-.24,1.98-.68,2.95-.62,1.11.07,1.85,1.23,2.53,1.99,1.55,1.74,3.11,3.47,4.66,5.21.71.79,1.64,1.59,2.2,2.51.6.99-.12,1.99-.54,2.93-.84,1.88-1.6,3.79-2.27,5.74-2.72,7.95-3.94,16.35-4.62,24.7-.71,8.62-1.04,17.31-1.13,25.95-.09,8.95.3,17.93,1.87,26.75.39,2.19.86,4.36,1.4,6.51.47,1.87,3.36,1.08,2.89-.8-2.31-9.21-3.08-18.69-3.16-28.16-.08-9.26.3-18.56.95-27.79s1.78-17.73,4.63-26.16c.7-2.06,1.51-4.07,2.41-6.05.95-2.09,1.21-3.88-.3-5.78s-3.24-3.65-4.86-5.46c-1.4-1.57-2.85-3.84-4.83-4.72s-4.28,0-6.25.52c-2.28.61-4.56,1.25-6.82,1.93-4.45,1.33-8.86,2.8-13.23,4.41-4.41,1.62-8.77,3.39-13.07,5.27-3.78,1.66-7.56,3.24-8.64,7.63-1.01,4.11-.98,8.71-.81,12.92.18,4.45.77,8.89,1.75,13.23,1.9,8.5,5.29,16.66,9.79,24.11,4.27,7.06,9.54,13.52,15.46,19.26,5.98,5.8,12.68,11.26,20.06,15.17,1.93,1.02,3.92,1.91,5.95,2.69,1.81.69,2.59-2.21.8-2.89h0Z"/><path class="cls-26" d="m1342.1,896.82c-5.69-2.61-12.24-3.3-18.35-1.93-2.96-8.38-4.52-17.25-4.59-26.13-.01-1.61.09-3.4,1.24-4.53.79-.78,1.92-1.07,3-1.34,11.89-2.88,24.06-4.96,36.29-4.81s24.59,2.61,35.37,8.39c-4.57.43-9,1.79-13.3,3.39-9.21,3.43-17.99,8.03-26.05,13.66-5.3,3.7-10.37,7.91-14.04,13.23"/><path class="cls-26" d="m1342.85,895.52c-6.15-2.76-12.91-3.51-19.5-2.08l1.85,1.05c-2.32-6.65-3.82-13.57-4.33-20.59-.11-1.55-.18-3.11-.2-4.67-.02-1.35-.18-3.26,1.07-4.16,1.17-.84,3.07-.98,4.42-1.29,1.73-.4,3.46-.78,5.19-1.14,13.68-2.83,27.91-4.24,41.78-1.9,7.38,1.25,14.56,3.51,21.18,7.03l.76-2.8c-8.48.85-16.67,4.27-24.28,7.97s-14.74,8.05-21.21,13.32c-3.48,2.84-6.63,6.04-9.21,9.73-1.11,1.58,1.49,3.09,2.59,1.51,4.4-6.28,10.7-10.98,17.09-15.09,6.76-4.35,13.96-8.02,21.48-10.87,4.37-1.66,8.87-3.11,13.54-3.57,1.36-.14,2.19-2.03.76-2.8-12.82-6.82-27.52-9.12-41.91-8.51-7.69.33-15.34,1.44-22.88,2.98-1.89.39-3.78.8-5.67,1.24-1.6.37-3.36.62-4.82,1.41-3.08,1.66-2.94,5.3-2.84,8.33.27,8.39,1.84,16.73,4.61,24.66.28.8,1.01,1.23,1.85,1.05,5.75-1.24,11.82-.63,17.19,1.78,1.75.79,3.27-1.8,1.51-2.59h0Z"/><path class="cls-12" d="m1264.43,931.31c3.76-21.02,15.79-40.45,32.94-53.18,2.56-1.9,5.22-3.65,7.87-5.4,1.96-1.29,3.91-2.57,5.87-3.86,2.1-1.38,4.25-2.79,6.68-3.43.11,10.18,1.57,20.35,4.34,30.15-7.28,3.93-11.94,12.26-11.47,20.52-16.52,1.35-31.71,9.2-46.36,16.97"/><path class="cls-12" d="m1265.88,931.71c3.88-21.41,16.22-40.96,33.99-53.54,2.97-2.1,6.03-4.07,9.07-6.07s5.85-4.24,9.25-5.21l-1.9-1.45c.13,10.32,1.61,20.61,4.39,30.55l.69-1.69c-7.75,4.27-12.64,12.97-12.22,21.82l1.5-1.5c-16.97,1.45-32.31,9.32-47.12,17.18-1.71.9-.19,3.5,1.51,2.59,14.3-7.58,29.2-15.37,45.6-16.77.78-.07,1.54-.63,1.5-1.5-.37-7.84,3.85-15.44,10.73-19.23.58-.32.86-1.07.69-1.69-2.71-9.7-4.15-19.68-4.28-29.75-.01-.96-.95-1.72-1.9-1.45-3.18.91-5.87,2.82-8.6,4.61s-5.54,3.62-8.28,5.48c-4.84,3.29-9.42,6.93-13.55,11.08-7.9,7.94-14.23,17.41-18.59,27.72-2.45,5.8-4.27,11.83-5.39,18.02-.34,1.89,2.55,2.7,2.89.8h0Z"/><circle class="cls-3" cx="1328.95" cy="915.56" r="23"/><path class="cls-25" d="m434.09,944.64c15.47-37.36-22.11-37.36-6.63,0-15.47-37.36-42.05-10.78-4.69,4.69-37.36-15.47-37.36,22.11,0,6.63-37.36,15.47-10.78,42.05,4.69,4.69-15.47,37.36,22.11,37.36,6.63,0,15.47,37.36,42.05,10.78,4.69-4.69,37.36,15.47,37.36-22.11,0-6.63,37.36-15.47,10.78-42.05-4.69-4.69Z"/><circle class="cls-8" cx="430.77" cy="952.65" r="6.86"/><path class="cls-15" d="m465.87,956.26c11.65-28.11-16.64-28.11-4.99,0-11.65-28.11-31.64-8.12-3.53,3.53-28.11-11.65-28.11,16.64,0,4.99-28.11,11.65-8.12,31.64,3.53,3.53-11.65,28.11,16.64,28.11,4.99,0,11.65,28.11,31.64,8.12,3.53-3.53,28.11,11.65,28.11-16.64,0-4.99,28.11-11.65,8.12-31.64-3.53-3.53Z"/><circle class="cls-8" cx="463.37" cy="962.28" r="5.16"/><path class="cls-15" d="m174.74,932.16c15.7-37.91-22.43-37.91-6.73,0-15.7-37.91-42.67-10.95-4.76,4.76-37.91-15.7-37.91,22.43,0,6.73-37.91,15.7-10.95,42.67,4.76,4.76-15.7,37.91,22.43,37.91,6.73,0,15.7,37.91,42.67,10.95,4.76-4.76,37.91,15.7,37.91-22.43,0-6.73,37.91-15.7,10.95-42.67-4.76-4.76Z"/><circle class="cls-8" cx="171.37" cy="940.28" r="6.96"/><path class="cls-24" d="m1077.35,943.26c-.54-1.85-1-4.06.26-5.52,1.35-1.56,4.02-1.4,5.32-3.01.59-.74.78-1.73,1.31-2.51.74-1.08,2.07-1.64,3.37-1.77s2.61.12,3.91.34c.4.07.82.13,1.2,0,.31-.11.56-.34.8-.57.79-.77,1.56-1.61,2.59-2.02,2.64-1.04,5.48,1.23,8.31,1.07,1.41-.08,2.75-.76,4.16-.66,1.21.09,2.3.74,3.33,1.38,1.22.75,2.45,1.51,3.45,2.53.51.51.98,1.11,1.66,1.36.48.18,1,.16,1.51.2,1.46.12,2.89.78,3.81,1.91s1.25,2.76.73,4.12c2.78-.04,5.96.67,7.26,3.12.86,1.62.66,3.65-.11,5.32-.26.56-.57,1.23-.25,1.76.14.22.37.37.58.53,1.24.92,2,2.44,2,3.98s-.77,3.06-2.01,3.97c-.35.26-.74.49-.92.88-.17.38-.08.82-.06,1.24.11,1.93-1.27,3.7-2.97,4.64s-3.67,1.21-5.59,1.46c-2.66.35-5.33.7-7.99,1.05.83,1.41,1.08,3.14.68,4.73-.07.27-.16.55-.38.72-.26.2-.62.19-.94.16-2.12-.19-4.21-.72-6.18-1.55-1.84-.78-3.77-1.85-5.72-1.4-.73.17-1.43.55-2.18.55-1.7,0-2.74-1.81-4.12-2.81-1.15-.84-2.6-1.13-3.98-1.47-1.68-.41-3.32-.93-4.93-1.54-.7-.27-1.48-.66-1.62-1.39-.31-1.59,2.65-2.57,2.1-4.1-.15-.42-.54-.7-.91-.95-2.87-1.97-5.7-4.1-7.87-6.82-1.15-1.44-2.13-3.15-2.09-4.99.04-1.63.95-3.22,2.35-4.07"/><path class="cls-13" d="m1077.71,943.16c-.53-1.89-1.13-4.43.81-5.72,1.29-.86,2.96-.95,4.18-1.96,1.49-1.23,1.4-3.35,3.32-4.23,1.04-.47,2.18-.52,3.3-.41.99.09,2.1.5,3.1.38.64-.08,1.07-.47,1.51-.89.88-.85,1.75-1.75,3-1.98,1.96-.37,3.95.81,5.84,1.16,1.99.37,3.65-.59,5.59-.53s4.28,1.76,5.8,2.98c.76.61,1.37,1.46,2.19,1.99.77.49,1.61.42,2.48.54,2.66.38,4.76,2.78,3.86,5.51-.08.23.13.48.36.47,3.86-.02,8.33,1.74,7.3,6.46-.28,1.26-1.54,2.77-.4,3.92.84.85,1.58,1.34,1.98,2.54s.28,2.37-.26,3.44c-.72,1.45-2.56,1.89-2.53,3.64.04,2.25-1.09,3.94-3.12,4.93s-4.29,1.12-6.44,1.4-4.39.58-6.58.87c-.28.04-.47.29-.32.56.62,1.14.91,2.39.77,3.68-.09.76-.3,1.18-1.09,1.35-.62.13-1.52-.19-2.16-.32-2.24-.46-4.2-1.47-6.33-2.24-.89-.32-1.83-.56-2.78-.49-1.03.08-2.05.76-3.08.6-1.81-.28-2.87-2.42-4.48-3.21-1.78-.88-3.85-1.12-5.73-1.71-.94-.29-2.5-.56-3.24-1.24-1.04-.96-.26-1.69.48-2.45.63-.65,1.41-1.45,1.04-2.43-.24-.64-.89-1-1.42-1.38-1.05-.73-2.09-1.47-3.09-2.27-3.3-2.63-9.77-8.96-4.16-12.72.4-.27.02-.92-.38-.65-1.72,1.16-2.74,3.08-2.49,5.18s1.62,3.93,3,5.47c1.77,1.97,3.87,3.61,6.03,5.14.48.34,1.15.65,1.53,1.1.57.67.24,1.14-.24,1.67s-1.1,1-1.42,1.66c-.79,1.62.89,2.49,2.16,2.96s2.52.86,3.81,1.2,2.72.54,3.92,1.2c1.66.9,2.74,3.14,4.79,3.26,1.17.07,2.2-.65,3.39-.64,1.59.02,3.06.85,4.49,1.45s2.78,1.02,4.23,1.3c.88.17,2.45.66,3.27.1.65-.45.72-1.54.75-2.25.06-1.31-.29-2.56-.91-3.71l-.32.56c2.12-.28,4.23-.56,6.35-.84,1.74-.23,3.53-.39,5.23-.86,1.5-.42,2.94-1.12,3.98-2.3s1.2-2.27,1.35-3.75c.13-1.27,1-1.59,1.72-2.44.41-.49.73-1.06.95-1.66.5-1.37.4-2.9-.26-4.2-.36-.7-.86-1.14-1.37-1.71-.42-.46-.71-1.03-.55-1.65.12-.45.38-.88.52-1.33.43-1.39.48-2.93-.09-4.28-1.27-2.98-4.87-3.72-7.77-3.7l.36.47c.55-1.66.15-3.48-1.06-4.76-.54-.57-1.23-1.02-1.96-1.31-1.1-.45-2.5-.2-3.52-.73-.87-.46-1.52-1.45-2.29-2.06-1-.78-2.09-1.46-3.19-2.1-.75-.43-1.56-.83-2.42-.96-1.18-.18-2.27.19-3.4.43-2.58.55-4.68-.79-7.17-1.1-2.06-.26-3.42.69-4.86,2.05-.21.2-.49.56-.73.66-.47.21-1.2.08-1.69.03-.52-.05-1.04-.17-1.56-.23-1.1-.12-2.23-.12-3.29.23-.79.26-1.54.69-2.09,1.33-.71.82-.88,1.95-1.55,2.79-1.33,1.67-3.93,1.41-5.32,3.05s-.85,3.99-.32,5.85c.13.46.86.27.72-.2h0Z"/><path class="cls-13" d="m1115.57,933.6c-.75,3.48-2.1,6.75-3.54,10-1.36,3.07-2.61,6.24-4.19,9.2s-3.28,5.88-4.85,8.86c-1.65,3.14-3.31,6.29-4.96,9.43-.22.43.42.81.65.38,1.65-3.14,3.31-6.29,4.96-9.43s3.47-6.15,5.07-9.28,2.87-6.28,4.26-9.42,2.62-6.22,3.33-9.53c.1-.47-.62-.67-.72-.2h0Z"/><path class="cls-13" d="m1124.22,940.38c-1.88,2.88-3.68,5.82-5.65,8.64-1.76,2.52-4.2,4.48-6.02,6.97s-3.73,5.05-5.9,7.38c-2.33,2.49-4.72,4.93-7.08,7.4-.33.35.2.88.53.53,2.36-2.46,4.75-4.9,7.08-7.4,2.12-2.26,3.96-4.67,5.77-7.18.96-1.34,1.98-2.61,3.14-3.78,1.07-1.07,2.11-2.12,2.99-3.35,2.03-2.87,3.86-5.89,5.78-8.83.26-.41-.38-.78-.65-.38h0Z"/><path class="cls-13" d="m1129.61,949.5c-2.32,1.19-3.64,3.62-5.83,5.02-2.61,1.67-4.72,3.95-7.19,5.82-4.81,3.65-10.41,6.21-15,10.14-.37.31.17.84.53.53,4.66-3.98,10.36-6.56,15.21-10.3,2.33-1.79,4.34-3.96,6.82-5.54,1.08-.69,1.97-1.45,2.83-2.39.91-1.01,1.77-1.99,3-2.62.43-.22.05-.87-.38-.65h0Z"/><path class="cls-13" d="m1129.73,958.96c-4.7,2.1-9.08,4.87-13.88,6.75-4.49,1.75-9.48,2.06-13.72,4.44-.42.24-.04.88.38.65,4.42-2.48,9.71-2.77,14.36-4.7,4.55-1.88,8.75-4.49,13.24-6.49.44-.2.06-.84-.38-.65h0Z"/><path class="cls-13" d="m1103.03,929.57c-4,13.43-5.99,27.39-5.91,41.4,0,.48.75.48.75,0-.08-13.94,1.9-27.84,5.88-41.2.14-.46-.59-.66-.72-.2h0Z"/><path class="cls-13" d="m1092.67,931.07c-1.06,2.94-.85,6.05-.7,9.11.16,3.47.3,6.95.6,10.42.28,3.23.68,6.45,1.19,9.64s1.06,6.76,2.33,9.93c.18.44.9.25.72-.2-1.18-2.94-1.7-6.1-2.21-9.21-.56-3.37-.98-6.76-1.28-10.16-.28-3.22-.42-6.45-.57-9.68s-.47-6.55.64-9.65c.16-.45-.56-.65-.72-.2h0Z"/><path class="cls-13" d="m1082.32,935.35c.73,2.97,1.46,5.95,2.2,8.92s1.89,5.79,3.03,8.64c2.25,5.65,4.65,11.23,7.26,16.73.21.44.85.06.65-.38-2.64-5.58-5.08-11.26-7.36-17-1.07-2.7-2.15-5.36-2.85-8.19-.74-2.97-1.47-5.95-2.2-8.92-.12-.47-.84-.27-.72.2h0Z"/><path class="cls-13" d="m1076.91,943.13c.78,2.33,1.47,4.98,3,6.95.86,1.11,1.68,2.07,2.3,3.34.54,1.11,1.15,2.12,1.95,3.06s1.7,1.8,2.53,2.72c.97,1.08,1.76,2.29,2.58,3.48,1.52,2.21,3.27,4.24,5.24,6.06.35.33.89-.2.53-.53-1.98-1.83-3.73-3.86-5.25-6.08-1.38-2.03-2.91-3.76-4.56-5.57s-2.4-4.18-3.99-6.06c-1.87-2.22-2.7-4.86-3.62-7.58-.15-.46-.88-.26-.72.2h0Z"/><path class="cls-24" d="m286.12,1031.31c-1.57-1.12-3.31-2.58-3.23-4.51.09-2.07,2.3-3.6,2.32-5.67,0-.95-.46-1.85-.53-2.8-.09-1.31.61-2.58,1.56-3.49s2.13-1.53,3.29-2.16c.36-.19.73-.41.95-.75.18-.28.23-.62.28-.95.15-1.1.23-2.24.79-3.2,1.43-2.46,5.08-2.43,7.21-4.32,1.06-.94,1.69-2.31,2.86-3.1,1.01-.69,2.27-.84,3.48-.99,1.42-.17,2.87-.33,4.29-.15.72.09,1.46.27,2.15.04.49-.16.89-.5,1.31-.78,1.22-.81,2.76-1.18,4.19-.86s2.7,1.39,3.13,2.79c2.16-1.76,5.11-3.17,7.66-2.05,1.69.74,2.78,2.47,3.22,4.26.15.6.31,1.33.9,1.54.25.09.52.06.78.06,1.54-.04,3.09.68,4.04,1.89s1.29,2.89.89,4.38c-.11.42-.28.85-.17,1.26.1.41.45.7.73,1.02,1.28,1.46,1.3,3.71.54,5.5s-2.14,3.23-3.49,4.62c-1.88,1.93-3.76,3.86-5.64,5.79,1.53.59,2.8,1.81,3.47,3.3.11.25.21.53.14.8-.08.32-.37.53-.65.71-1.79,1.17-3.76,2.05-5.83,2.62-1.93.53-4.12.88-5.37,2.44-.47.59-.78,1.32-1.37,1.79-1.34,1.06-3.28.28-4.99.34-1.43.05-2.74.72-4.04,1.32-1.57.72-3.19,1.34-4.84,1.85-.71.22-1.58.4-2.14-.09-1.24-1.06.49-3.67-.89-4.53-.38-.24-.86-.21-1.31-.18-3.49.23-7.03.31-10.43-.49-1.8-.42-3.63-1.15-4.74-2.63-.98-1.31-1.25-3.13-.68-4.67"/><path class="cls-13" d="m286.31,1030.99c-1.71-1.24-3.72-2.95-2.77-5.28.58-1.42,1.81-2.58,2.01-4.15.09-.74-.1-1.4-.27-2.12-.33-1.43-.21-2.58.73-3.77.73-.92,1.73-1.55,2.74-2.13.66-.38,1.53-.69,1.98-1.34.33-.48.36-1.07.44-1.63.16-1.23.36-2.45,1.29-3.36,1.15-1.13,2.84-1.52,4.28-2.13,1.59-.68,2.6-1.61,3.66-2.95.72-.91,1.45-1.62,2.58-1.99s2.37-.44,3.53-.54c2.13-.18,4.33.67,6.19-.57,2.37-1.57,5.94-1.65,7.08,1.49.1.28.4.35.63.17,1.64-1.3,3.73-2.53,5.9-2.32,2.38.23,3.75,2.24,4.35,4.36.37,1.31.69,1.76,2.04,1.87,2.47.21,4.58,1.7,4.72,4.37.05.93-.51,1.89-.34,2.79.09.48.43.8.73,1.16,1.43,1.74,1.24,4.01.23,5.91s-2.62,3.33-4.07,4.82c-1.55,1.59-3.1,3.18-4.65,4.77-.15.15-.15.49.08.59.91.39,1.72.92,2.37,1.66.53.61,1.35,1.65.59,2.5-.33.37-1.04.64-1.47.87-1.92,1.03-3.93,1.58-6.01,2.16-1.45.41-2.89.96-3.86,2.16-.79.99-1.24,2.06-2.68,2.15-1,.07-1.99-.2-2.99-.21-2.1-.03-3.93,1.12-5.81,1.9-1.02.42-2.05.81-3.1,1.14-.73.23-2.06.78-2.52-.29-.15-.35-.07-.85-.04-1.21.09-.99.38-2.31-.64-2.94-.59-.36-1.33-.24-1.97-.2-1.27.08-2.54.13-3.82.13-4.23-.02-13.3-.97-11.2-7.47.15-.46-.58-.66-.72-.2-.61,1.9-.24,3.97,1.14,5.45,1.46,1.56,3.68,2.18,5.72,2.55,2.78.49,5.61.48,8.42.32.56-.03,1.73-.28,2.19.16.38.37.27,1.04.23,1.5-.06.76-.27,1.61.08,2.34.85,1.81,3.4.6,4.69.13,2.55-.92,5.14-2.74,7.93-2.52,1.93.16,3.72.51,5-1.26.8-1.11,1.49-1.94,2.79-2.47,1.13-.45,2.35-.67,3.52-1.02,1.26-.37,2.49-.87,3.66-1.47.8-.41,2.31-.97,2.63-1.91.28-.84-.44-1.85-.92-2.47-.75-.97-1.71-1.67-2.82-2.15l.08.59c2.64-2.71,5.65-5.33,7.93-8.36,1.63-2.17,2.68-5.38.89-7.8-.46-.62-.86-1.07-.74-1.99.04-.34.17-.67.21-1.02.07-.69.01-1.39-.17-2.06-.37-1.34-1.28-2.49-2.5-3.17-.6-.34-1.27-.56-1.96-.65-.62-.08-.79-.03-1.4-.4-.75-.46-.65-.72-.9-1.51-.42-1.3-1.16-2.53-2.26-3.36-2.92-2.21-6.6-.45-9.09,1.53l.63.17c-.61-1.69-2.04-2.88-3.83-3.13-.97-.14-1.97.02-2.88.38-1.29.51-2.06,1.48-3.55,1.41-2.48-.11-5.03-.31-7.46.45-2.25.7-2.93,2.85-4.72,4.12-1.5,1.06-3.38,1.38-4.96,2.28-1.7.97-2.36,2.45-2.63,4.34-.11.81-.13,1.57-.87,2.05-.45.29-.96.52-1.42.79-1.01.58-2.01,1.25-2.74,2.17-.54.68-.96,1.48-1.09,2.34-.18,1.16.35,2.15.45,3.27.19,2.29-2.21,3.76-2.28,6.02s1.82,3.68,3.41,4.83c.39.28.77-.37.38-.65h0Z"/><path class="cls-13" d="m310.25,1000.01c1.51,3.08,2.45,6.36,3.31,9.67s1.84,6.65,2.48,10.02,1.09,6.83,1.72,10.23,1.3,7.01,1.95,10.51c.09.47.81.27.72-.2-.66-3.58-1.33-7.17-1.99-10.75s-1.07-7-1.77-10.46-1.63-6.68-2.5-9.99c-.84-3.23-1.8-6.42-3.27-9.42-.21-.43-.86-.05-.65.38h0Z"/><path class="cls-13" d="m321.24,999.88c.3,3.28.64,6.55.89,9.84s-.5,6.48-.37,9.76.2,6.42-.08,9.67-.64,6.71-.97,10.07c-.05.48.7.48.75,0,.32-3.28.66-6.55.95-9.83s.23-6.58.1-9.91.61-6.34.39-9.52c-.23-3.36-.6-6.72-.9-10.07-.04-.48-.79-.48-.75,0h0Z"/><path class="cls-13" d="m331.18,1003.71c-.51,1.13-.68,2.29-.76,3.51-.12,1.61-.37,3.04-.9,4.56-.97,2.78-1.16,5.78-1.9,8.63-1.51,5.83-4.32,11.29-5.49,17.21-.09.47.63.67.72.2,1.14-5.76,3.86-11.1,5.38-16.76.74-2.77.93-5.71,1.8-8.44.39-1.23.86-2.39,1.01-3.68.19-1.65.1-3.3.79-4.85.2-.44-.45-.82-.65-.38h0Z"/><path class="cls-13" d="m337.16,1011.09c-2.39,4.55-4.12,9.44-6.71,13.89-2.46,4.22-6.23,7.6-8.11,12.16-.18.45.54.64.72.2,1.9-4.61,5.81-8.05,8.25-12.35s4.17-9.08,6.49-13.51c.22-.43-.42-.81-.65-.38h0Z"/><path class="cls-13" d="m297.83,1004.53c5.2,13.09,12.32,25.34,21.1,36.35.3.38.83-.16.53-.53-8.7-10.9-15.76-23.06-20.91-36.02-.18-.44-.9-.25-.72.2h0Z"/><path class="cls-13" d="m290.61,1012.15c.92,2.77,2.79,4.96,4.67,7.13,2.37,2.74,4.72,5.5,7.2,8.14s4.8,4.93,7.33,7.26,4.94,4.54,7.83,6.2c.42.24.8-.41.38-.65-2.84-1.63-5.27-3.88-7.68-6.09s-4.76-4.53-7.01-6.91-4.4-4.88-6.55-7.37-4.41-4.82-5.44-7.92c-.15-.46-.88-.26-.72.2h0Z"/><path class="cls-13" d="m285.09,1021.96c2.48,1.93,4.96,3.86,7.44,5.79,2.22,1.72,4.62,3.09,7.04,4.49,5.46,3.16,10.99,6.18,16.64,8.98.43.21.81-.43.38-.65-5.51-2.73-10.91-5.66-16.23-8.74-2.45-1.42-4.93-2.79-7.18-4.52-2.53-1.95-5.04-3.92-7.56-5.88-.38-.29-.91.23-.53.53h0Z"/><path class="cls-13" d="m285.73,1031.5c2.01,1.31,4.13,2.92,6.48,3.54,1.49.4,2.79.63,4.2,1.31,1.09.53,2.18.92,3.38,1.15s2.47.35,3.7.57c1.4.25,2.73.7,4.08,1.12,2.59.81,5.25,1.31,7.95,1.52.48.04.48-.71,0-.75-2.72-.22-5.38-.75-7.98-1.57s-4.98-1.12-7.55-1.62c-1.28-.25-2.42-.7-3.58-1.26-1.07-.52-2.14-.79-3.3-1.04-2.58-.55-4.81-2.21-6.99-3.63-.41-.26-.78.38-.38.65h0Z"/><path class="cls-10" d="m1662.87,521.81c-.91-57.13-1.21-114.27-.91-171.41.04-7.87.09-15.74.15-23.61.15-22.23.3-44.45.45-66.68,2.87-1.52,6.35-1.86,9.46-.91.05,20.35.11,40.69.16,61.04.14,53.31.28,106.62.41,159.93.02,6.31.03,12.64.82,18.9,1.01,8.05,3.22,16.63-.25,23.97-3.65.14-7.29.27-10.94.41"/><path class="cls-31" d="m1664.85,260.74c-7.89-.71-15.69,2.43-22.33,6.76-6.63,4.34-12.39,9.87-18.66,14.72-12.27,9.49-26.57,16.34-41.65,19.95,3.34,1.98,7.41,2.17,11.3,2.28,5.73.15,11.46.24,17.19.25,3.78,0,7.62-.02,11.26-1.05,3.97-1.12,7.5-3.36,11.13-5.32,8.46-4.56,17.7-7.67,27.2-9.14,1.22-.19,2.55-.4,3.41-1.3,1-1.04,1.03-2.64,1.01-4.08-.13-7.31-.26-14.62-.39-21.93"/><path class="cls-20" d="m1661.15,491.86l-103.51.36c-1.84-9.79-.96-19.88.23-29.77,2.65-22.08,6.97-44.46,18.06-63.73,15.28-26.53,41.86-44.56,69.08-58.58,5.21-2.68,10.71-5.31,16.57-5.34-8.08,21.18-11.02,43.91-13.91,66.39-1.97,15.33-3.94,30.84-2.17,46.2,1.79,15.56,7.47,30.66,16.39,43.55"/><path class="cls-9" d="m1674.15,489.18c12.41-12.43,20-29.11,23.47-46.33,3.47-17.22,3.02-35.01.99-52.46-3.58-30.63-12.04-60.69-24.96-88.69,13.14,3.01,25.78,8.23,37.22,15.36,21.59,13.46,38.48,33.42,52.02,54.96,3.01,4.79,5.87,9.66,8.59,14.62,17.77,32.34,29.59,67.93,34.7,104.48-27.17-1.62-54.44-1.5-81.59.36-17.08,1.17-34.39,3.01-51.18-.33.18-1.11,1.04-2.08,2.12-2.4"/><path class="cls-11" d="m1481.97,507.59c2.17,14.53,6.63,28.92,14.76,41.17,8.13,12.24,20.17,22.22,34.32,26.16,5.42,1.51,11.04,2.12,16.64,2.66,44.02,4.24,88.34,4.12,132.57,3.99,11.03-.03,22.07-.06,33.1-.09,26.49-.08,52.98-.15,79.48-.38,10.5-.09,21.24-.25,31.08-3.91,23.11-8.59,35.12-33.51,44.43-56.33,1.18-2.9,2-6.96-.7-8.53-.97-.56-2.14-.59-3.26-.61-37.33-.51-74.66-1.03-112-1.54-89.89-1.24-179.8-2.47-269.68-.44"/><path class="cls-25" d="m200.69,956.64c11.65-28.11-16.64-28.11-4.99,0-11.65-28.11-31.64-8.12-3.53,3.53-28.11-11.65-28.11,16.64,0,4.99-28.11,11.65-8.12,31.64,3.53,3.53-11.65,28.11,16.64,28.11,4.99,0,11.65,28.11,31.64,8.12,3.53-3.53,28.11,11.65,28.11-16.64,0-4.99,28.11-11.65,8.12-31.64-3.53-3.53Z"/><circle class="cls-8" cx="198.2" cy="962.66" r="5.16"/><path class="cls-33" d="m142.69,969.64c11.65-28.11-16.64-28.11-4.99,0-11.65-28.11-31.64-8.12-3.53,3.53-28.11-11.65-28.11,16.64,0,4.99-28.11,11.65-8.12,31.64,3.53,3.53-11.65,28.11,16.64,28.11,4.99,0,11.65,28.11,31.64,8.12,3.53-3.53,28.11,11.65,28.11-16.64,0-4.99,28.11-11.65,8.12-31.64-3.53-3.53Z"/><circle class="cls-8" cx="140.2" cy="975.66" r="5.16"/><path class="cls-15" d="m945.77,980.16c15.7-37.91-22.43-37.91-6.73,0-15.7-37.91-42.67-10.95-4.76,4.76-37.91-15.7-37.91,22.43,0,6.73-37.91,15.7-10.95,42.67,4.76,4.76-15.7,37.91,22.43,37.91,6.73,0,15.7,37.91,42.67,10.95,4.76-4.76,37.91,15.7,37.91-22.43,0-6.73,37.91-15.7,10.95-42.67-4.76-4.76Z"/><circle class="cls-8" cx="942.41" cy="988.28" r="6.96"/><path class="cls-33" d="m971.9,1009.26c11.65-28.11-16.64-28.11-4.99,0-11.65-28.11-31.64-8.12-3.53,3.53-28.11-11.65-28.11,16.64,0,4.99-28.11,11.65-8.12,31.64,3.53,3.53-11.65,28.11,16.64,28.11,4.99,0,11.65,28.11,31.64,8.12,3.53-3.53,28.11,11.65,28.11-16.64,0-4.99,28.11-11.65,8.12-31.64-3.53-3.53Z"/><circle class="cls-8" cx="969.41" cy="1015.28" r="5.16"/></svg>