<?xml version="1.0" encoding="UTF-8"?><svg id="Layer_2" xmlns="http://www.w3.org/2000/svg" viewBox="0 0 258.58 248.76"><defs><style>.cls-1{fill:none;stroke:#701914;stroke-miterlimit:10;}.cls-2,.cls-3,.cls-4,.cls-5,.cls-6,.cls-7,.cls-8{stroke-width:0px;}.cls-3{fill:#701914;}.cls-4{fill:#bf3210;}.cls-5{fill:#b2b2b2;}.cls-6{fill:#6c0911;}.cls-7{fill:#fff;}.cls-8{fill:#f6921e;}</style></defs><g id="havmåge_vinter"><g id="ben_copy"><path class="cls-8" d="m90.4,192.76l-.32,30.74s-10-3-21-2c0,0-3,9,0,13,0,0,14,2,26-5l1-37-5.68.26Z"/><path class="cls-8" d="m107.4,193.34l-.32,40.56s-10-3.96-21-2.64c0,0-3,11.87,0,17.15,0,0,14,2.64,26-6.6l1-48.82-5.68.34Z"/></g><path id="næb" class="cls-8" d="m33.4,49.5s5,6,4,13L.4,63.5s-2-5,3-8l18.03-.82c2.6-.12,5.12-.91,7.32-2.31l4.65-2.87Z"/><path id="krop" class="cls-7" d="m34.9,49.06c0-.83-.04-1.65-.11-2.48-.31-4.1.23-20.84,29.11-26.09,28.3-5.14,32.33,33.09,32.9,44.09.19,3.72,1.02,7.39,2.61,10.76,4.37,9.26,16.15,24.15,47.48,30.15,13.81,2.64,25.72,7.27,35.65,12.49,20.54,10.79,20.78,40.25.49,51.5-14.01,7.77-30.66,15.58-47.14,20.01-41,11-78,2-99-28,0,0-18.77-28.15-3.58-72.64,1.02-2.98,1.58-6.09,1.58-9.24v-30.55Z"/><path id="sort_på_vinge" class="cls-2" d="m219.4,139.5l38,22s7,2-13,11c0,0-77-9-85-14s5-21,5-21l55,2Z"/><g id="grå_vinge_copy"><path class="cls-5" d="m99.5,130.88c.93-5.02,9.36-38.37,66.3-21.85,1.07.31,2.12.71,3.14,1.19,8.78,4.09,50.74,27.69,67.39,37.3,3.25,1.87,3.42,4.94.21,6.58-6.89,3.51-21.06,14.98-61.14,16.41-55.63,1.99-73.76-10.83-75.96-38.45-.03-.39-.01-.78.06-1.17Z"/></g><g id="_øje_copy"><circle class="cls-2" cx="63.4" cy="42.5" r="4.5"/><circle class="cls-7" cx="64.9" cy="41" r="2"/></g><g id="hue"><path class="cls-4" d="m45.63,22.71s29.86-19.9,41.27-14.71,3.26,18.35,4.13,28.17-45.4-13.46-45.4-13.46Z"/><rect class="cls-3" x="41.98" y="27.56" width="51.92" height="6.6" rx="1.38" ry="1.38" transform="translate(11.5 -17.95) rotate(16.43)"/><circle class="cls-7" cx="90.9" cy="5" r="5"/></g><g id="halstørklæde"><polygon class="cls-6" points="98.66 73 64.9 83 101.9 79.27 98.66 73"/><path class="cls-4" d="m27.87,97.08s4.15,9.44-.75,14.74-9.79,19.63-7.15,27.11c0,0,5.08,4.83,14.54,1.06,0,0-6.85-15.84,4.17-27.77,0,0,4.37-8.17-.54-16.63"/><path class="cls-4" d="m101.05,78s-16.38,2.95-34.58,4.54c-12.15,1.06-25,2.9-34.44,1.46,0,0-6.18,5-4.45,15.21,0,0,54.92.79,78.62-11.21,0,0,6.2-1.65-5.15-10Z"/><path class="cls-3" d="m19.38,136.88h13.74l1.4,3.12s-9.46,3.88-14.54-1.06l-.6-2.06Z"/><path class="cls-3" d="m29.43,106.18s-.07,3.47-2.3,5.65c0,0,7.86,4.16,9.32,3.17,0,0,3.38-4.02,3.41-6.51,0,0-9.9-3.13-10.43-2.31Z"/><path class="cls-3" d="m22.47,119.57s-1,1.97-1.79,5.2c0,0,10.28,3.14,11.75,2.18,0,0,.44-4.12.95-5.54,0,0-11.33-2.28-10.91-1.85Z"/><path class="cls-3" d="m53.52,83.7l11.8-1.15s2.85,8,.71,14.73c0,0-3.67.67-14.91,1.2,0,0,4.02-14.08,2.4-14.77Z"/><path class="cls-3" d="m76.9,81s3.31,9.77,2.17,14.41c0,0,7.47-1.47,9.83-1.95,0,0-.16-12.28-1.98-13.46,0,0-7.91,1.17-10.02,1Z"/><path class="cls-3" d="m31.9,84s-5.63,5.41-4.32,15.21l14.32-.21s3.81-13.89,2.4-14.45-9.4.45-12.4-.55Z"/><path class="cls-1" d="m22.4,139.5c0,2.21.89,4,2,4"/><path class="cls-1" d="m24.4,139.5c0,2.21.89,4,2,4"/><path class="cls-1" d="m26.4,139.5c0,2.21.89,4,2,4"/><path class="cls-1" d="m28.4,139.5c0,2.21.89,4,2,4"/><path class="cls-1" d="m30.4,139.5c0,2.21.89,4,2,4"/><path class="cls-1" d="m32.4,139.5c0,2.21.89,4,2,4"/><path class="cls-3" d="m97.28,78.73s2.66,10.36,1.13,12.32c0,0,10.39-3.16,9.43-5.1,0,0,.36-3.94-6.8-7.94l-3.77.73Z"/></g></g></svg>