<?xml version="1.0" encoding="UTF-8"?><svg id="Layer_2" xmlns="http://www.w3.org/2000/svg" viewBox="0 0 390 118"><defs><style>.cls-1{fill:#c89968;opacity:.7;}.cls-1,.cls-2,.cls-3,.cls-4,.cls-5,.cls-6,.cls-7,.cls-8{stroke-width:0px;}.cls-9{font-family:Arial-Black, 'Arial Black';font-size:50.7px;font-weight:800;}.cls-9,.cls-5{fill:#fff;}.cls-10{letter-spacing:.03em;}.cls-11{fill:none;stroke:#000;stroke-miterlimit:10;stroke-width:.2px;}.cls-12{letter-spacing:.02em;}.cls-3{fill:#b2b2b2;}.cls-4{fill:#666;}.cls-6{fill:#f6921e;}.cls-7{fill:#e3c173;}.cls-8{fill:#ffd077;}</style></defs><g id="efterår-knap"><rect class="cls-7" width="390" height="118" rx="12" ry="12"/><text class="cls-9" transform="translate(35.15 77.45) scale(.88 1)"><tspan class="cls-12" x="0" y="0">Efte</tspan><tspan class="cls-10" x="115.7" y="0">r</tspan><tspan class="cls-12" x="139.83" y="0">år</tspan></text><g id="havmåge_efterår"><g id="ben_copy_2"><rect class="cls-6" x="302.03" y="86.92" width="2.09" height="10.01"/><rect class="cls-6" x="308.71" y="86.92" width="2.09" height="10.01"/></g><path id="næb" class="cls-6" d="m278.04,27.46s2.09,2.5,1.67,5.42l-15.44.42s-.83-2.09,1.25-3.34l7.52-.34c1.08-.05,2.14-.38,3.06-.96l1.94-1.2Z"/><path id="krop" class="cls-5" d="m277.62,27.27c0-.35-.02-.69-.04-1.03-.13-1.71.1-8.69,12.15-10.88,11.81-2.15,13.49,13.81,13.73,18.4.08,1.55.43,3.08,1.09,4.49,1.82,3.86,6.74,10.08,19.81,12.58,5.76,1.1,10.73,3.03,14.88,5.21,8.57,4.5,8.67,16.8.21,21.49-5.85,3.24-12.79,6.5-19.67,8.35-17.11,4.59-32.55.83-41.31-11.68,0,0-7.83-11.75-1.49-30.31.42-1.24.66-2.54.66-3.86v-12.75Z"/><path id="sort_på_vinge" class="cls-2" d="m355.65,65.01l15.86,9.18s2.92.83-5.42,4.59c0,0-32.13-3.76-35.47-5.84s2.09-8.76,2.09-8.76l22.95.83Z"/><g id="grå_vinge_copy_2"><path class="cls-3" d="m305.62,61.41c.39-2.09,3.9-16.01,27.66-9.12.45.13.89.3,1.31.49,3.66,1.71,21.17,11.55,28.12,15.56,1.35.78,1.43,2.06.09,2.74-2.87,1.47-8.79,6.25-25.51,6.85-23.21.83-30.78-4.52-31.69-16.04-.01-.16,0-.33.03-.49Z"/></g><g id="_øje_copy_2"><circle class="cls-2" cx="290.56" cy="24.54" r="1.88"/><circle class="cls-5" cx="291.18" cy="23.91" r=".83"/></g><path class="cls-8" d="m286.18,15.98s15.02,3.34,15.02,14.19-24.23,13.71-24.23,13.71c0,0-11.28,30.5,13.15,40.11,24.43,9.61,32.79-33.35,32.79-33.35,0,0-10.81-2.81-14.17-6.84s-4.78-6.79-5.53-12.3c-.75-5.51,3-11.77-3.67-17.61s-15.86,1.67-15.86,1.67"/><path class="cls-8" d="m318.64,49.19s4.93,0,11.35,1.84c1.9.55,3.89,1.43,4.59,1.67,3.21,1.1,8.35,3.69,15.87,8.5-.03,1.64-.27,3.92-.66,6.64-.51,3.53-1.4,7.49-2.87,9.2-2.95,3.41-34.24.49-36.33-2.43s-12.68-17.46,8.06-25.42Z"/><g id="gummistøvler"><path class="cls-4" d="m291.7,103.16l.1.65s2.09,2.09,11.27.42v.42h1.67l-.14-1.12-12.9-.37Z"/><path class="cls-8" d="m300.57,90.88s.83,5.84,1.25,7.09-8.35.42-8.35.42c0,0-2.92.83-2.09,4.17s13.22.97,13.22.97l.97-13.07s-2.92.83-5.01.42Z"/><circle class="cls-5" cx="303.07" cy="98.39" r=".21"/><circle class="cls-5" cx="301.82" cy="91.71" r=".21"/><circle class="cls-5" cx="300.15" cy="99.64" r=".21"/><circle class="cls-5" cx="303.49" cy="101.31" r=".21"/><circle class="cls-5" cx="300.57" cy="103.4" r=".21"/><circle class="cls-5" cx="298.48" cy="101.31" r=".21"/><circle class="cls-5" cx="295.98" cy="99.64" r=".21"/><circle class="cls-5" cx="295.98" cy="102.98" r=".21"/><circle class="cls-5" cx="293.48" cy="98.81" r=".21"/><circle class="cls-5" cx="293.06" cy="101.31" r=".21"/><circle class="cls-5" cx="302.66" cy="95.47" r=".21"/><circle class="cls-5" cx="304.33" cy="96.72" r=".21"/><circle class="cls-5" cx="304.33" cy="94.22" r=".21"/><circle class="cls-5" cx="301.82" cy="93.8" r=".21"/><circle class="cls-5" cx="304.33" cy="92.13" r=".21"/><path class="cls-4" d="m297.96,107.33l.1.65s2.09,2.09,11.27.42v.42h1.67l-.14-1.12-12.9-.37Z"/><path class="cls-8" d="m306.83,95.05s.83,5.84,1.25,7.09-8.35.42-8.35.42c0,0-2.92.83-2.09,4.17s13.22.97,13.22.97l.97-13.07s-2.92.83-5.01.42Z"/><circle class="cls-5" cx="309.33" cy="102.56" r=".21"/><circle class="cls-5" cx="308.08" cy="95.89" r=".21"/><circle class="cls-5" cx="306.41" cy="103.81" r=".21"/><circle class="cls-5" cx="309.75" cy="105.48" r=".21"/><circle class="cls-5" cx="306.83" cy="107.57" r=".21"/><circle class="cls-5" cx="304.74" cy="105.48" r=".21"/><circle class="cls-5" cx="302.24" cy="103.81" r=".21"/><circle class="cls-5" cx="302.24" cy="107.15" r=".21"/><circle class="cls-5" cx="299.74" cy="102.98" r=".21"/><circle class="cls-5" cx="299.32" cy="105.48" r=".21"/><circle class="cls-5" cx="308.92" cy="99.64" r=".21"/><circle class="cls-5" cx="310.59" cy="100.89" r=".21"/><circle class="cls-5" cx="310.59" cy="98.39" r=".21"/><circle class="cls-5" cx="308.08" cy="97.97" r=".21"/><circle class="cls-5" cx="310.59" cy="96.3" r=".21"/></g><path class="cls-11" d="m312.4,75.54s-17.62-17.34,6.24-26.35"/></g><path id="Path_262" class="cls-1" d="m224.53,91.9l-7.01,3.66-2.24-6.84-4.32,4.98-4.08-3.55-.68,8.54,3.8,5.54.63,3.68-6.31,8.52.93.81,6.49-8.46,4.12-.44,11.1-.24-3.92-3.73,4.82-4.47-6.88-1.04,3.56-6.96Z"/><path id="Path_262-2" class="cls-1" d="m99.06,96.02l-7.91.11,1.08-7.11-6.1,2.5-2.04-5.01-4.46,7.32.9,6.66-1.1,3.57-9.47,4.77.46,1.14,9.6-4.63,3.87,1.46,10.02,4.78-1.82-5.09,6.32-1.82-5.67-4.02,6.32-4.62Z"/><path id="Path_262-3" class="cls-1" d="m249.04,32.19l-5.55,5.63-4.23-5.82-2.59,6.06-4.97-2.13,1.96,8.34,5.31,4.11,1.72,3.31-3.4,10.04,1.13.49,3.59-10.04,3.78-1.68,10.49-3.63-4.87-2.35,3.22-5.73-6.86,1.12,1.26-7.72Z"/><path id="Path_262-4" class="cls-1" d="m156.04,6.19l-5.55,5.63-4.23-5.82-2.59,6.06-4.97-2.13,1.96,8.34,5.31,4.11,1.72,3.31-3.4,10.04,1.13.49,3.59-10.04,3.78-1.68,10.49-3.63-4.87-2.35,3.22-5.73-6.86,1.12,1.26-7.72Z"/><path id="Path_262-5" class="cls-1" d="m364.04,13.19l-5.55,5.63-4.23-5.82-2.59,6.06-4.97-2.13,1.96,8.34,5.31,4.11,1.72,3.31-3.4,10.04,1.13.49,3.59-10.04,3.78-1.68,10.49-3.63-4.87-2.35,3.22-5.73-6.86,1.12,1.26-7.72Z"/><path id="Path_262-6" class="cls-1" d="m44.37,12.46l-7.01,3.65-2.24-6.84-4.33,4.97-4.08-3.56-.69,8.54,3.8,5.54.62,3.68-6.31,8.51.93.81,6.5-8.45,4.12-.43,11.1-.23-3.92-3.73,4.82-4.47-6.88-1.04,3.57-6.96Z"/></g></svg>