<?xml version="1.0" encoding="UTF-8"?><svg id="Layer_2" xmlns="http://www.w3.org/2000/svg" viewBox="0 0 390 118"><defs><style>.cls-1{font-family:Arial-Black, 'Arial Black';font-size:50.7px;font-weight:800;}.cls-1,.cls-2{fill:#fff;}.cls-3{letter-spacing:.03em;}.cls-4{letter-spacing:.02em;}.cls-5{fill:none;stroke:#006837;stroke-miterlimit:10;}.cls-6,.cls-7{opacity:.3;}.cls-8,.cls-9,.cls-10,.cls-11{opacity:.6;}.cls-12,.cls-9,.cls-10,.cls-11,.cls-7,.cls-13,.cls-14,.cls-15,.cls-16,.cls-17,.cls-2,.cls-18,.cls-19,.cls-20{stroke-width:0px;}.cls-21{letter-spacing:-.02em;}.cls-9,.cls-7{fill:#7715c7;}.cls-10{fill:#88a386;}.cls-11{fill:#f8d84d;}.cls-13{fill:#c9a8cd;}.cls-14{fill:#e070b6;}.cls-15{fill:#b2b2b2;}.cls-16{fill:#a865b5;}.cls-17{fill:#ff8484;}.cls-18{fill:#f6921e;}.cls-19{fill:#ffd077;}.cls-20{fill:#f1a33f;}</style></defs><g id="forår-knap"><rect class="cls-13" width="390" height="118" rx="12" ry="12"/><text class="cls-1" transform="translate(35.15 77.45) scale(.88 1)"><tspan class="cls-21" x="0" y="0">F</tspan><tspan class="cls-4" x="32.84" y="0">o</tspan><tspan class="cls-3" x="67.42" y="0">r</tspan><tspan class="cls-4" x="91.55" y="0">år</tspan></text><g id="havmåge_forår_copy"><path class="cls-5" d="m276.46,32.82c-3.57,1.84-5.28,5.6-3.84,8.42"/><path class="cls-5" d="m275.21,30.78c-1.22,3.82.23,7.7,3.25,8.66"/><path class="cls-16" d="m271.9,38.83c0,.57-.33,1.08-.55,1.35-.1.13-.3.13-.4,0-.22-.27-.55-.78-.55-1.35s.33-1.08.55-1.35c.1-.13.3-.13.4,0,.22.27.55.78.55,1.35Z"/><path class="cls-16" d="m270.44,38.83c.37.44.44,1.04.44,1.39,0,.17-.15.29-.31.26-.35-.07-.92-.24-1.29-.68s-.44-1.04-.44-1.39c0-.17.15-.29.31-.26.35.07.92.24,1.29.68Z"/><path class="cls-16" d="m269.33,39.77c.57.1,1,.51,1.23.78.11.12.07.32-.07.4-.31.17-.86.41-1.43.31s-1-.51-1.23-.78c-.11-.12-.07-.32.07-.4.31-.17.86-.41,1.43-.31Z"/><path class="cls-16" d="m269.07,41.2c.5-.29,1.1-.25,1.45-.2.16.03.26.19.2.35-.13.33-.4.87-.89,1.16s-1.1.25-1.45.2c-.16-.03-.26-.19-.2-.35.13-.33.4-.87.89-1.16Z"/><path class="cls-16" d="m269.8,42.47c.2-.54.68-.9.98-1.08.14-.08.32-.02.38.14.12.33.25.92.06,1.46s-.68.9-.98,1.08c-.14.08-.32.02-.38-.14-.12-.33-.25-.92-.06-1.46Z"/><path class="cls-16" d="m271.17,42.96c-.2-.54-.06-1.12.06-1.46.05-.16.24-.22.38-.14.3.18.79.54.98,1.08s.06,1.12-.06,1.46c-.05.16-.24.22-.38.14-.3-.18-.79-.54-.98-1.08Z"/><path class="cls-16" d="m272.54,42.47c-.5-.29-.77-.82-.89-1.16-.06-.15.04-.32.2-.35.35-.06.95-.09,1.45.2s.77.82.89,1.16c.06.15-.04.32-.2.35-.35.06-.95.09-1.45-.2Z"/><path class="cls-16" d="m273.27,41.2c-.57.1-1.12-.14-1.43-.31-.14-.08-.18-.27-.07-.4.23-.27.67-.68,1.23-.78s1.12.14,1.43.31c.14.08.18.27.07.4-.23.27-.67.68-1.23.78Z"/><path class="cls-16" d="m273.02,39.77c-.37.44-.95.61-1.29.68-.16.03-.31-.09-.31-.26,0-.35.08-.95.44-1.39s.95-.61,1.29-.68c.16-.03.31.09.31.26,0,.35-.08.95-.44,1.39Z"/><circle class="cls-19" cx="271.17" cy="40.83" r=".78"/><path class="cls-17" d="m278.56,37.37c0,.57-.33,1.08-.55,1.35-.1.13-.3.13-.4,0-.22-.27-.55-.78-.55-1.35s.33-1.08.55-1.35c.1-.13.3-.13.4,0,.22.27.55.78.55,1.35Z"/><path class="cls-17" d="m277.11,37.36c.37.44.44,1.04.44,1.39,0,.17-.15.29-.31.26-.35-.07-.92-.24-1.29-.68s-.44-1.04-.44-1.39c0-.17.15-.29.31-.26.35.07.92.24,1.29.68Z"/><path class="cls-17" d="m275.99,38.3c.57.1,1,.51,1.23.78.11.12.07.32-.07.4-.31.17-.86.41-1.43.31s-1-.51-1.23-.78c-.11-.12-.07-.32.07-.4.31-.17.86-.41,1.43-.31Z"/><path class="cls-17" d="m275.73,39.74c.5-.29,1.1-.25,1.45-.2.16.03.26.19.2.35-.13.33-.4.87-.89,1.16s-1.1.25-1.45.2c-.16-.03-.26-.19-.2-.35.13-.33.4-.87.89-1.16Z"/><path class="cls-17" d="m276.46,41c.2-.54.68-.9.98-1.08.14-.08.32-.02.38.14.12.33.25.92.06,1.46s-.68.9-.98,1.08c-.14.08-.32.02-.38-.14-.12-.33-.25-.92-.06-1.46Z"/><path class="cls-17" d="m277.83,41.5c-.2-.54-.06-1.12.06-1.46.05-.16.24-.22.38-.14.3.18.79.54.98,1.08s.06,1.12-.06,1.46c-.05.16-.24.22-.38.14-.3-.18-.79-.54-.98-1.08Z"/><path class="cls-17" d="m279.2,41c-.5-.29-.77-.82-.89-1.16-.06-.15.04-.32.2-.35.35-.06.95-.09,1.45.2s.77.82.89,1.16c.06.15-.04.32-.2.35-.35.06-.95.09-1.45-.2Z"/><path class="cls-17" d="m279.93,39.74c-.57.1-1.12-.14-1.43-.31-.14-.08-.18-.27-.07-.4.23-.27.67-.68,1.23-.78s1.12.14,1.43.31c.14.08.18.27.07.4-.23.27-.67.68-1.23.78Z"/><path class="cls-17" d="m279.68,38.3c-.37.44-.95.61-1.29.68-.16.03-.31-.09-.31-.26,0-.35.08-.95.44-1.39s.95-.61,1.29-.68c.16-.03.31.09.31.26,0,.35-.08.95-.44,1.39Z"/><circle class="cls-19" cx="277.83" cy="39.37" r=".78"/><g id="ben_copy_7"><path class="cls-18" d="m304.73,83.36l-.12,11.75s-3.82-1.15-8.02-.76c0,0-1.15,3.44,0,4.97,0,0,5.35.76,9.94-1.91l.38-14.14-2.17.1Z"/><path class="cls-18" d="m311.23,83.59l-.12,15.5s-3.82-1.51-8.02-1.01c0,0-1.15,4.54,0,6.55,0,0,5.35,1.01,9.94-2.52l.38-18.65-2.17.13Z"/></g><path id="næb" class="cls-18" d="m282.95,28.62s1.91,2.29,1.53,4.97l-14.14.38s-.76-1.91,1.15-3.06l6.89-.31c.99-.05,1.96-.35,2.8-.88l1.78-1.1Z"/><path id="krop" class="cls-2" d="m282.57,28.45c0-.32-.02-.63-.04-.95-.12-1.57.09-7.96,11.12-9.97s12.35,12.64,12.57,16.85c.07,1.42.39,2.82,1,4.11,1.67,3.54,6.17,9.23,18.14,11.52,5.28,1.01,9.83,2.78,13.62,4.77,7.85,4.12,7.94,15.38.19,19.68-5.35,2.97-11.72,5.96-18.01,7.65-15.67,4.2-29.81.76-37.83-10.7,0,0-7.17-10.76-1.37-27.76.39-1.14.6-2.33.6-3.53v-11.67Z"/><path id="sort_på_vinge" class="cls-12" d="m354.03,63.01l14.52,8.41s2.67.76-4.97,4.2c0,0-29.42-3.44-32.48-5.35-3.06-1.91,1.91-8.02,1.91-8.02l21.02.76Z"/><g id="grå_vinge_copy_7"><path class="cls-15" d="m308.21,59.72c.36-1.92,3.58-14.66,25.33-8.35.41.12.81.27,1.2.45,3.36,1.56,19.39,10.58,25.75,14.25,1.24.72,1.31,1.89.08,2.51-2.63,1.34-8.05,5.73-23.36,6.27-21.26.76-28.19-4.14-29.03-14.69-.01-.15,0-.3.02-.45Z"/></g><g id="_øje_copy_7"><circle class="cls-12" cx="294.41" cy="25.94" r="1.72"/><circle class="cls-2" cx="294.99" cy="25.37" r=".76"/></g><g id="blomsterkrans_copy"><path class="cls-16" d="m293.88,20.66c-.27.16-.62.17-.83.15-.1,0-.16-.08-.14-.15.06-.16.18-.42.46-.58s.62-.17.83-.15c.1,0,.16.08.14.15-.06.16-.18.42-.46.58Z"/><path class="cls-16" d="m293.39,20.1c-.08.26-.34.45-.51.55-.08.05-.19.02-.23-.05-.09-.15-.2-.42-.11-.68s.34-.45.51-.55c.08-.05.19-.02.23.05.09.15.2.42.11.68Z"/><path class="cls-16" d="m292.57,19.92c.14.24.09.52.04.69-.02.08-.12.11-.21.08-.19-.07-.48-.22-.63-.46s-.09-.52-.04-.69c.02-.08.12-.11.21-.08.19.07.48.22.63.46Z"/><path class="cls-16" d="m291.8,20.21c.3.11.49.35.58.5.04.07,0,.15-.1.17-.2.04-.55.08-.85-.03s-.49-.35-.58-.5c-.04-.07,0-.15.1-.17.2-.04.55-.08.85.03Z"/><path class="cls-16" d="m291.45,20.84c.32-.07.66.02.84.08.09.03.12.12.06.18-.12.14-.35.35-.67.42s-.66-.02-.84-.08c-.09-.03-.12-.12-.06-.18.12-.14.35-.35.67-.42Z"/><path class="cls-16" d="m291.67,21.5c.19-.22.51-.33.71-.37.09-.02.18.03.19.11.02.17,0,.45-.18.67s-.51.33-.71.37c-.09.02-.18-.03-.19-.11-.02-.17,0-.45.18-.67Z"/><path class="cls-16" d="m292.37,21.89c-.03-.27.13-.52.25-.66.05-.06.17-.07.23-.02.14.12.36.34.39.61s-.13.52-.25.66c-.05.06-.17.07-.23.02-.14-.12-.36-.34-.39-.61Z"/><path class="cls-16" d="m293.21,21.83c-.24-.19-.31-.47-.33-.63-.01-.08.07-.14.16-.13.2.02.55.07.79.26s.31.47.33.63c.01.08-.07.14-.16.13-.2-.02-.55-.07-.79-.26Z"/><path class="cls-16" d="m293.81,21.34c-.33-.02-.61-.2-.76-.31-.07-.05-.06-.14.02-.19.17-.09.48-.23.81-.21s.61.2.76.31c.07.05.06.14-.02.19-.17.09-.48.23-.81.21Z"/><ellipse class="cls-19" cx="292.68" cy="20.92" rx=".45" ry=".37"/><path class="cls-16" d="m306.41,22.96c-.27.16-.62.17-.83.15-.1,0-.16-.08-.14-.15.06-.16.18-.42.46-.58s.62-.17.83-.15c.1,0,.16.08.14.15-.06.16-.18.42-.46.58Z"/><path class="cls-16" d="m305.92,22.4c-.08.26-.34.45-.51.55-.08.05-.19.02-.23-.05-.09-.15-.2-.42-.11-.68s.34-.45.51-.55c.08-.05.19-.02.23.05.09.15.2.42.11.68Z"/><path class="cls-16" d="m305.1,22.23c.14.24.09.52.04.69-.02.08-.12.11-.21.08-.19-.07-.48-.22-.63-.46s-.09-.52-.04-.69c.02-.08.12-.11.21-.08.19.07.48.22.63.46Z"/><path class="cls-16" d="m304.33,22.52c.3.11.49.35.58.5.04.07,0,.15-.1.17-.2.04-.55.08-.85-.03s-.49-.35-.58-.5c-.04-.07,0-.15.1-.17.2-.04.55-.08.85.03Z"/><path class="cls-16" d="m303.98,23.14c.32-.07.66.02.84.08.09.03.12.12.06.18-.12.14-.35.35-.67.42s-.66-.02-.84-.08c-.09-.03-.12-.12-.06-.18.12-.14.35-.35.67-.42Z"/><path class="cls-16" d="m304.2,23.8c.19-.22.51-.33.71-.37.09-.02.18.03.19.11.02.17,0,.45-.18.67s-.51.33-.71.37c-.09.02-.18-.03-.19-.11-.02-.17,0-.45.18-.67Z"/><path class="cls-16" d="m304.9,24.2c-.03-.27.13-.52.25-.66.05-.06.17-.07.23-.02.14.12.36.34.39.61s-.13.52-.25.66c-.05.06-.17.07-.23.02-.14-.12-.36-.34-.39-.61Z"/><path class="cls-16" d="m305.74,24.13c-.24-.19-.31-.47-.33-.63-.01-.08.07-.14.16-.13.2.02.55.07.79.26s.31.47.33.63c.01.08-.07.14-.16.13-.2-.02-.55-.07-.79-.26Z"/><path class="cls-16" d="m306.34,23.64c-.33-.02-.61-.2-.76-.31-.07-.05-.06-.14.02-.19.17-.09.48-.23.81-.21s.61.2.76.31c.07.05.06.14-.02.19-.17.09-.48.23-.81.21Z"/><ellipse class="cls-19" cx="305.21" cy="23.23" rx=".45" ry=".37"/><path class="cls-16" d="m287.9,18.24c0,.35-.25.66-.42.83-.08.08-.23.08-.31,0-.17-.17-.42-.48-.42-.83s.25-.66.42-.83c.08-.08.23-.08.31,0,.17.17.42.48.42.83Z"/><path class="cls-16" d="m286.79,18.24c.28.27.33.64.34.86,0,.1-.11.18-.23.16-.27-.04-.7-.15-.99-.42s-.33-.64-.34-.86c0-.1.11-.18.23-.16.27.04.7.15.99.42Z"/><path class="cls-16" d="m285.93,18.82c.43.06.76.32.94.48.08.08.06.19-.05.24-.24.11-.66.25-1.09.19s-.76-.32-.94-.48c-.08-.08-.06-.19.05-.24.24-.11.66-.25,1.09-.19Z"/><path class="cls-16" d="m285.74,19.7c.38-.18.84-.16,1.1-.12.12.02.2.12.15.21-.1.2-.3.54-.68.71s-.84.16-1.1.12c-.12-.02-.2-.12-.15-.21.1-.2.3-.54.68-.71Z"/><path class="cls-16" d="m286.3,20.48c.15-.33.52-.55.75-.67.11-.05.25-.01.29.08.09.21.19.57.04.9s-.52.55-.75.67c-.11.05-.25.01-.29-.08-.09-.21-.19-.57-.04-.9Z"/><path class="cls-16" d="m287.34,20.79c-.15-.33-.04-.69.04-.9.04-.1.18-.14.29-.08.23.11.6.33.75.67s.04.69-.04.9c-.04.1-.18.14-.29.08-.23-.11-.6-.33-.75-.67Z"/><path class="cls-16" d="m288.39,20.48c-.38-.18-.59-.51-.68-.71-.04-.1.03-.2.15-.21.27-.03.72-.06,1.1.12s.59.51.68.71c.04.1-.03.2-.15.21-.27.03-.72.06-1.1-.12Z"/><path class="cls-16" d="m288.94,19.7c-.43.06-.85-.09-1.09-.19-.11-.05-.14-.17-.05-.24.18-.17.51-.42.94-.48s.85.09,1.09.19c.11.05.14.17.05.24-.18.17-.51.42-.94.48Z"/><path class="cls-16" d="m288.75,18.82c-.28.27-.72.38-.99.42-.12.02-.24-.06-.23-.16,0-.22.06-.59.34-.86s.72-.38.99-.42c.12-.02.24.06.23.16,0,.22-.06.59-.34.86Z"/><ellipse class="cls-19" cx="287.34" cy="19.47" rx=".59" ry=".48"/><path class="cls-16" d="m299.34,20.88c0,.35-.25.66-.42.83-.08.08-.23.08-.31,0-.17-.17-.42-.48-.42-.83s.25-.66.42-.83c.08-.08.23-.08.31,0,.17.17.42.48.42.83Z"/><path class="cls-16" d="m298.23,20.88c.28.27.33.64.34.86,0,.1-.11.18-.23.16-.27-.04-.7-.15-.99-.42s-.33-.64-.34-.86c0-.1.11-.18.23-.16.27.04.7.15.99.42Z"/><path class="cls-16" d="m297.37,21.46c.43.06.76.32.94.48.08.08.06.19-.05.24-.24.11-.66.25-1.09.19s-.76-.32-.94-.48c-.08-.08-.06-.19.05-.24.24-.11.66-.25,1.09-.19Z"/><path class="cls-16" d="m297.18,22.34c.38-.18.84-.16,1.1-.12.12.02.2.12.15.21-.1.2-.3.54-.68.71s-.84.16-1.1.12c-.12-.02-.2-.12-.15-.21.1-.2.3-.54.68-.71Z"/><path class="cls-16" d="m297.74,23.12c.15-.33.52-.55.75-.67.11-.05.25-.01.29.08.09.21.19.57.04.9s-.52.55-.75.67c-.11.05-.25.01-.29-.08-.09-.21-.19-.57-.04-.9Z"/><path class="cls-16" d="m298.78,23.43c-.15-.33-.04-.69.04-.9.04-.1.18-.14.29-.08.23.11.6.33.75.67s.04.69-.04.9c-.04.1-.18.14-.29.08-.23-.11-.6-.33-.75-.67Z"/><path class="cls-16" d="m299.82,23.12c-.38-.18-.59-.51-.68-.71-.04-.1.03-.2.15-.21.27-.03.72-.06,1.1.12s.59.51.68.71c.04.1-.03.2-.15.21-.27.03-.72.06-1.1-.12Z"/><path class="cls-16" d="m300.38,22.35c-.43.06-.85-.09-1.09-.19-.11-.05-.14-.17-.05-.24.18-.17.51-.42.94-.48s.85.09,1.09.19c.11.05.14.17.05.24-.18.17-.51.42-.94.48Z"/><path class="cls-16" d="m300.19,21.46c-.28.27-.72.38-.99.42-.12.02-.24-.06-.23-.16,0-.22.06-.59.34-.86s.72-.38.99-.42c.12-.02.24.06.23.16,0,.22-.06.59-.34.86Z"/><ellipse class="cls-19" cx="298.78" cy="22.12" rx=".59" ry=".48"/><path class="cls-17" d="m296.04,20.66c0,.29-.21.54-.35.68-.07.06-.19.06-.25,0-.14-.14-.35-.39-.35-.68s.21-.54.35-.68c.07-.06.19-.06.25,0,.14.14.35.39.35.68Z"/><path class="cls-17" d="m295.13,20.66c.23.22.27.52.28.7,0,.08-.09.15-.19.13-.22-.03-.58-.12-.81-.34s-.27-.52-.28-.7c0-.08.09-.15.19-.13.22.03.58.12.81.34Z"/><path class="cls-17" d="m294.44,21.14c.35.05.63.26.77.39.07.06.05.16-.04.2-.19.09-.54.21-.89.16s-.63-.26-.77-.39c-.07-.06-.05-.16.04-.2.19-.09.54-.21.89-.16Z"/><path class="cls-17" d="m294.28,21.86c.31-.15.69-.13.9-.1.1.01.16.1.13.18-.08.17-.25.44-.56.58s-.69.13-.9.1c-.1-.01-.16-.1-.13-.18.08-.17.25-.44.56-.58Z"/><path class="cls-17" d="m294.73,22.5c.12-.27.42-.45.61-.55.09-.04.2,0,.24.07.07.17.16.46.04.74s-.42.45-.61.55c-.09.04-.2,0-.24-.07-.07-.17-.16-.46-.04-.74Z"/><path class="cls-17" d="m295.59,22.75c-.12-.27-.04-.57.04-.74.03-.08.15-.11.24-.07.19.09.49.27.61.55s.04.57-.04.74c-.03.08-.15.11-.24.07-.19-.09-.49-.27-.61-.55Z"/><path class="cls-17" d="m296.44,22.5c-.31-.15-.48-.42-.56-.58-.04-.08.02-.16.13-.18.22-.03.59-.05.9.1s.48.42.56.58c.04.08-.02.16-.13.18-.22.03-.59.05-.9-.1Z"/><path class="cls-17" d="m296.9,21.86c-.35.05-.7-.07-.89-.16-.09-.04-.11-.14-.04-.2.14-.14.42-.34.77-.39s.7.07.89.16c.09.04.11.14.04.2-.14.14-.42.34-.77.39Z"/><path class="cls-17" d="m296.74,21.14c-.23.22-.59.31-.81.34-.1.02-.19-.05-.19-.13,0-.18.05-.48.28-.7s.59-.31.81-.34c.1-.02.19.05.19.13,0,.18-.05.48-.28.7Z"/><ellipse class="cls-19" cx="295.59" cy="21.68" rx=".49" ry=".39"/><path class="cls-17" d="m291.42,19.38c-.2.27-.57.42-.79.49-.11.03-.22-.02-.24-.11-.04-.19-.06-.52.14-.8s.57-.42.79-.49c.11-.03.22.02.24.11.04.19.06.52-.14.8Z"/><path class="cls-17" d="m290.57,18.97c.06.31-.1.62-.22.78-.06.08-.19.1-.27.04-.18-.13-.46-.37-.52-.68s.1-.62.22-.78c.06-.08.19-.1.27-.04.18.13.46.37.52.68Z"/><path class="cls-17" d="m289.59,19.1c.3.21.41.52.46.72.02.09-.07.17-.18.17-.24,0-.65-.05-.95-.25s-.41-.52-.46-.72c-.02-.09.07-.17.18-.17.24,0,.65.05.95.25Z"/><path class="cls-17" d="m288.94,19.71c.39,0,.73.19.92.31.09.06.09.16,0,.22-.19.12-.53.3-.92.3s-.73-.19-.92-.31c-.09-.06-.09-.16,0-.22.19-.12.53-.3.92-.3Z"/><path class="cls-17" d="m288.93,20.51c.3-.2.71-.24.95-.24.11,0,.2.08.17.17-.05.19-.17.51-.47.71s-.71.24-.95.24c-.11,0-.2-.08-.17-.17.05-.19.17-.51.47-.71Z"/><path class="cls-17" d="m289.56,21.13c.07-.31.35-.55.54-.68.09-.06.22-.04.27.04.12.17.27.48.2.79s-.35.55-.54.68c-.09.06-.22.04-.27-.04-.12-.17-.27-.48-.2-.79Z"/><path class="cls-17" d="m290.54,21.28c-.19-.28-.17-.61-.13-.8.02-.09.13-.14.24-.11.22.07.59.22.78.5s.17.61.13.8c-.02.09-.13.14-.24.11-.22-.07-.59-.22-.78-.5Z"/><path class="cls-17" d="m291.41,20.89c-.37-.11-.61-.38-.73-.55-.06-.08-.01-.18.1-.21.23-.06.63-.14.99-.03s.61.38.73.55c.06.08.01.18-.1.21-.23.06-.63.14-.99.03Z"/><path class="cls-17" d="m291.75,20.13c-.37.11-.77.03-.99-.04-.11-.03-.15-.13-.09-.21.13-.17.37-.43.74-.54s.77-.03.99.04c.11.03.15.13.09.21-.13.17-.37.43-.74.54Z"/><ellipse class="cls-19" cx="290.3" cy="20.12" rx=".53" ry=".43"/><path class="cls-17" d="m303.41,22.02c-.2.27-.57.42-.79.49-.11.03-.22-.02-.24-.11-.04-.19-.06-.52.14-.8s.57-.42.79-.49c.11-.03.22.02.24.11.04.19.06.52-.14.8Z"/><path class="cls-17" d="m302.55,21.61c.06.31-.1.62-.22.78-.06.08-.19.1-.27.04-.18-.13-.46-.37-.52-.68s.1-.62.22-.78c.06-.08.19-.1.27-.04.18.13.46.37.52.68Z"/><path class="cls-17" d="m301.57,21.74c.3.21.41.52.46.72.02.09-.07.17-.18.17-.24,0-.65-.05-.95-.25s-.41-.52-.46-.72c-.02-.09.07-.17.18-.17.24,0,.65.05.95.25Z"/><path class="cls-17" d="m300.93,22.35c.39,0,.73.19.92.31.09.06.09.16,0,.22-.19.12-.53.3-.92.3s-.73-.19-.92-.31c-.09-.06-.09-.16,0-.22.19-.12.53-.3.92-.3Z"/><path class="cls-17" d="m300.92,23.16c.3-.2.71-.24.95-.24.11,0,.2.08.17.17-.05.19-.17.51-.47.71s-.71.24-.95.24c-.11,0-.2-.08-.17-.17.05-.19.17-.51.47-.71Z"/><path class="cls-17" d="m301.55,23.78c.07-.31.35-.55.54-.68.09-.06.22-.04.27.04.12.17.27.48.2.79s-.35.55-.54.68c-.09.06-.22.04-.27-.04-.12-.17-.27-.48-.2-.79Z"/><path class="cls-17" d="m302.53,23.92c-.19-.28-.17-.61-.13-.8.02-.09.13-.14.24-.11.22.07.59.22.78.5s.17.61.13.8c-.02.09-.13.14-.24.11-.22-.07-.59-.22-.78-.5Z"/><path class="cls-17" d="m303.39,23.53c-.37-.11-.61-.38-.73-.55-.06-.08-.01-.18.1-.21.23-.06.63-.14.99-.03s.61.38.73.55c.06.08.01.18-.1.21-.23.06-.63.14-.99.03Z"/><path class="cls-17" d="m303.74,22.78c-.37.11-.77.03-.99-.04-.11-.03-.15-.13-.09-.21.13-.17.37-.43.74-.54s.77-.03.99.04c.11.03.15.13.09.21-.13.17-.37.43-.74.54Z"/><ellipse class="cls-19" cx="302.29" cy="22.77" rx=".53" ry=".43"/></g></g></g><g id="efterår-knap"><path class="cls-10" d="m211.9,88.97c4.81,4.15,4.79,12.05,4.79,12.05,0,0-7.81,1.17-12.62-2.98s-4.79-12.05-4.79-12.05c0,0,7.81-1.17,12.62,2.98Z"/><path class="cls-10" d="m90.37,33.44c-5.24,3.59-12.87,1.56-12.87,1.56,0,0,.87-7.85,6.11-11.44s12.87-1.56,12.87-1.56c0,0-.87,7.85-6.11,11.44Z"/><path class="cls-10" d="m45.37,107.44c-5.24,3.59-12.87,1.56-12.87,1.56,0,0,.87-7.85,6.11-11.44s12.87-1.56,12.87-1.56c0,0-.87,7.85-6.11,11.44Z"/><path class="cls-10" d="m362.37,31.44c-5.24,3.59-12.87,1.56-12.87,1.56,0,0,.87-7.85,6.11-11.44s12.87-1.56,12.87-1.56c0,0-.87,7.85-6.11,11.44Z"/><path class="cls-10" d="m258.37,22.44c-5.24,3.59-12.87,1.56-12.87,1.56,0,0,.87-7.85,6.11-11.44s12.87-1.56,12.87-1.56c0,0-.87,7.85-6.11,11.44Z"/><g class="cls-6"><path id="Path_299" class="cls-9" d="m255.46,85.77c2.63-6.35-3.76-6.35-1.13,0-2.63-6.35-7.15-1.83-.8.8-6.35-2.63-6.35,3.76,0,1.13-6.35,2.63-1.83,7.15.8.8-2.63,6.35,3.76,6.35,1.13,0,2.63,6.35,7.15,1.83.8-.8,6.35,2.63,6.35-3.76,0-1.13,6.35-2.63,1.83-7.15-.8-.8Z"/><circle id="Ellipse_107" class="cls-11" cx="254.89" cy="87.13" r="1.17"/></g><g class="cls-6"><path id="Path_299-2" class="cls-9" d="m107.46,102.77c2.63-6.35-3.76-6.35-1.13,0-2.63-6.35-7.15-1.83-.8.8-6.35-2.63-6.35,3.76,0,1.13-6.35,2.63-1.83,7.15.8.8-2.63,6.35,3.76,6.35,1.13,0,2.63,6.35,7.15,1.83.8-.8,6.35,2.63,6.35-3.76,0-1.13,6.35-2.63,1.83-7.15-.8-.8Z"/><circle id="Ellipse_107-2" class="cls-11" cx="106.89" cy="104.13" r="1.17"/></g><path id="Path_299-3" class="cls-7" d="m347.46,92.77c2.63-6.35-3.76-6.35-1.13,0-2.63-6.35-7.15-1.83-.8.8-6.35-2.63-6.35,3.76,0,1.13-6.35,2.63-1.83,7.15.8.8-2.63,6.35,3.76,6.35,1.13,0,2.63,6.35,7.15,1.83.8-.8,6.35,2.63,6.35-3.76,0-1.13,6.35-2.63,1.83-7.15-.8-.8Z"/><circle id="Ellipse_107-3" class="cls-11" cx="346.89" cy="94.13" r="1.17"/><g class="cls-6"><path id="Path_299-4" class="cls-9" d="m20.46,22.77c2.63-6.35-3.76-6.35-1.13,0-2.63-6.35-7.15-1.83-.8.8-6.35-2.63-6.35,3.76,0,1.13-6.35,2.63-1.83,7.15.8.8-2.63,6.35,3.76,6.35,1.13,0,2.63,6.35,7.15,1.83.8-.8,6.35,2.63,6.35-3.76,0-1.13,6.35-2.63,1.83-7.15-.8-.8Z"/><circle id="Ellipse_107-4" class="cls-11" cx="19.89" cy="24.13" r="1.17"/></g><g class="cls-8"><path id="Path_304" class="cls-14" d="m208.78,54.39c1.53-3.7-4.98-3.7-3.45,0-1.53-3.7-6.14.91-2.44,2.44-3.7-1.53-3.7,4.98,0,3.45-3.7,1.53.91,6.14,2.44,2.44-1.53,3.7,4.98,3.7,3.45,0,1.53,3.7,6.14-.91,2.44-2.44,3.7,1.53,3.7-4.98,0-3.45,3.7-1.53-.91-6.14-2.44-2.44Z"/><circle id="Ellipse_112" class="cls-20" cx="207.06" cy="58.55" r="1.79"/></g><g class="cls-8"><path id="Path_304-2" class="cls-14" d="m145.78,15.39c1.53-3.7-4.98-3.7-3.45,0-1.53-3.7-6.14.91-2.44,2.44-3.7-1.53-3.7,4.98,0,3.45-3.7,1.53.91,6.14,2.44,2.44-1.53,3.7,4.98,3.7,3.45,0,1.53,3.7,6.14-.91,2.44-2.44,3.7,1.53,3.7-4.98,0-3.45,3.7-1.53-.91-6.14-2.44-2.44Z"/><circle id="Ellipse_112-2" class="cls-20" cx="144.06" cy="19.55" r="1.79"/></g><g class="cls-8"><path id="Path_304-3" class="cls-14" d="m334.78,11.39c1.53-3.7-4.98-3.7-3.45,0-1.53-3.7-6.14.91-2.44,2.44-3.7-1.53-3.7,4.98,0,3.45-3.7,1.53.91,6.14,2.44,2.44-1.53,3.7,4.98,3.7,3.45,0,1.53,3.7,6.14-.91,2.44-2.44,3.7,1.53,3.7-4.98,0-3.45,3.7-1.53-.91-6.14-2.44-2.44Z"/><circle id="Ellipse_112-3" class="cls-20" cx="333.06" cy="15.55" r="1.79"/></g><g class="cls-8"><path id="Path_304-4" class="cls-14" d="m19.78,61.39c1.53-3.7-4.98-3.7-3.45,0-1.53-3.7-6.14.91-2.44,2.44-3.7-1.53-3.7,4.98,0,3.45-3.7,1.53.91,6.14,2.44,2.44-1.53,3.7,4.98,3.7,3.45,0,1.53,3.7,6.14-.91,2.44-2.44,3.7,1.53,3.7-4.98,0-3.45,3.7-1.53-.91-6.14-2.44-2.44Z"/><circle id="Ellipse_112-4" class="cls-20" cx="18.06" cy="65.55" r="1.79"/></g></g></svg>