<?xml version="1.0" encoding="UTF-8"?><svg id="Layer_2" xmlns="http://www.w3.org/2000/svg" viewBox="0 0 390 118"><defs><style>.cls-1{font-family:Arial-Black, 'Arial Black';font-size:50.7px;font-weight:800;letter-spacing:.02em;}.cls-1,.cls-2{fill:#fff;}.cls-3{fill:#f0a039;stroke:#ec762f;}.cls-3,.cls-4{stroke-miterlimit:10;}.cls-4{fill:#f5c644;stroke:#f5c644;}.cls-5,.cls-6{opacity:.3;}.cls-7,.cls-8{opacity:.6;}.cls-9{opacity:.5;}.cls-10,.cls-8,.cls-6,.cls-11,.cls-12,.cls-13,.cls-14,.cls-15,.cls-16,.cls-17,.cls-18,.cls-19,.cls-2,.cls-20,.cls-21,.cls-22,.cls-23,.cls-24,.cls-25{stroke-width:0px;}.cls-8{fill:#f8d84d;}.cls-6{fill:#7715c7;}.cls-11{fill:#4e7d22;}.cls-12{fill:#4da630;}.cls-13{fill:#0921c0;}.cls-14{fill:#ddcaab;}.cls-15{fill:#c59b6d;}.cls-16{fill:#e070b6;}.cls-17{fill:#b2b2b2;}.cls-18{fill:#89cbf9;}.cls-19{fill:#ff8484;}.cls-20{fill:#f6921e;}.cls-21{fill:#fcf0d6;}.cls-22{fill:#ffd077;}.cls-23{fill:#f1a33f;}.cls-24{fill:#ea51cf;}.cls-25{fill:#ea514d;}</style></defs><g id="sommer-knap"><rect class="cls-14" width="390" height="118" rx="12" ry="12"/><text class="cls-1" transform="translate(35.15 77.45) scale(.88 1)"><tspan x="0" y="0">Sommer</tspan></text><g id="havmåge_sommer_copy_2"><g id="ben_copy_6"><path class="cls-20" d="m308.69,86.11l-.13,11.89s-3.87-1.16-8.12-.77c0,0-1.16,3.48,0,5.03,0,0,5.41.77,10.05-1.93l.39-14.31-2.19.1Z"/><path class="cls-20" d="m315.26,86.33l-.13,15.68s-3.87-1.53-8.12-1.02c0,0-1.16,4.59,0,6.63,0,0,5.41,1.02,10.05-2.55l.39-18.88-2.19.13Z"/></g><path id="næb" class="cls-20" d="m286.65,30.72s1.93,2.32,1.55,5.03l-14.31.39s-.77-1.93,1.16-3.09l6.97-.32c1.01-.05,1.98-.35,2.83-.89l1.8-1.11Z"/><path id="krop" class="cls-2" d="m286.26,30.55c0-.32-.02-.64-.04-.96-.12-1.59.09-8.06,11.25-10.09s12.5,12.79,12.72,17.05c.08,1.44.4,2.86,1.01,4.16,1.69,3.58,6.24,9.34,18.36,11.66,5.34,1.02,9.94,2.81,13.79,4.83,7.94,4.17,8.04,15.56.19,19.91-5.42,3-11.85,6.03-18.23,7.74-15.85,4.25-30.16.77-38.28-10.83,0,0-7.26-10.89-1.38-28.09.39-1.15.61-2.36.61-3.57v-11.81Z"/><path id="sort_på_vinge" class="cls-10" d="m358.57,65.52l14.69,8.51s2.71.77-5.03,4.25c0,0-29.77-3.48-32.87-5.41s1.93-8.12,1.93-8.12l21.27.77Z"/><g id="grå_vinge_copy_6"><path class="cls-17" d="m312.2,62.18c.36-1.94,3.62-14.83,25.64-8.45.42.12.82.28,1.21.46,3.4,1.58,19.62,10.71,26.06,14.42,1.26.72,1.32,1.91.08,2.54-2.66,1.36-8.14,5.79-23.64,6.35-21.51.77-28.52-4.19-29.37-14.87-.01-.15,0-.3.02-.45Z"/></g><g id="_øje_copy_6"><circle class="cls-10" cx="298.25" cy="28.01" r="1.74"/><circle class="cls-2" cx="298.83" cy="27.43" r=".77"/></g><g id="badering"><path class="cls-19" d="m288.89,73.21c5.81-2.65,23.57-11.62,29.67-24.67,0,0,6.56-2.54,8.58,3.02,1.78,10.13-33.39,29.31-33.39,29.31,0,0-4.59,2.24-6.95-3.12-.76-1.73.37-3.75,2.09-4.53Z"/><path class="cls-19" d="m286.84,72.28s-1.83,4.36-6.35,1.49c-1.64-1.04-2.22-3.16-1.46-4.95,1.69-3.96,4.35-12.09.07-16.65,0,0-3.48-4.64-8.51,0-1.16,1.07-1.64,2.08-1.66,2.95-.05,2.89,5.08,4.19,7.46.92,1.55,1.16-1.09,10.09-2.32,15.85-1.16,5.41,5.41,14.69,19.72,8.89"/><path class="cls-2" d="m270.36,54.87s-.05.03-.08.05c-.25.19-1.67,1.3-2.22,1.91-.6.67.14,4.35.14,4.35,0,0,.32.85,1.73-1.64,1.06-1.87,2.44-2.57,3.06-2.8.21-.08.36-.25.4-.47v-.02c.05-.23-.04-.47-.23-.61l-1.45-1.09c-.2-.15-.46-.17-.67-.05l-.67.37Z"/><circle class="cls-2" cx="272.92" cy="54.5" r="1.16"/><path class="cls-10" d="m268.27,61.3s.59.58,1.65-1.76c0,0-.09.02-.21.05-.57.1-.95-.57-.57-1.01l1.84-2.15s-2.82,1.69-3.15,2.39c0,0,.05,1.94.44,2.48Z"/><circle class="cls-10" cx="272.92" cy="54.5" r=".39"/><path class="cls-19" d="m285.3,70.41s1.59,4.64,7.17,1.13c5.58-3.51-3.7,5.77-3.7,5.77,0,0-3.46-1.81-3.47-6.9Z"/></g><g id="hat"><path class="cls-22" d="m288.24,18.64c1.2,4.72,6.57,5.49,8.67,5.61.92.05,1.83.24,2.7.55,2.72.98,4.34,2.51,5.05,3.31.49.55,1.09.99,1.77,1.29,3.23,1.38,6.49-.1,6.49-.1l-1.56-3.86c-.26-.65-.33-1.36-.2-2.04.85-4.34.15-4.8.15-4.8-4.62-4.83-11.71-4.55-11.71-4.55-2.43-.36-3.94,1.75-5.23,2.85-.71.6-1.57,1.01-2.5,1.2l-3.49.69"/><path class="cls-15" d="m293.05,17.74s7.64,6.48,18.31,7.7c0,0-.63-1.44-.2-2.04,0,0-11.86-2.04-16.35-6.93,0,0-1.35,1.25-1.76,1.27Z"/></g></g><g class="cls-5"><path id="Path_356" class="cls-18" d="m249.51,87.06c1.77-1.83,4.03-3.11,6.51-3.7.17-.05.34-.07.51-.05.17.03.33.09.48.18,1.35.71,2.53,1.7,3.46,2.91.4.53.77,1.09,1.11,1.67,1,1.66,1.92,3.5,1.83,5.44-.23-.1-.45-.22-.65-.37-3.54-2.4-7.67-3.78-11.94-3.98-.17-.8-.62-1.52-1.26-2.04"/><path id="Path_358" class="cls-25" d="m250.78,89.44c-.18.9-.69,1.69-1.43,2.22-.07.05-.15.11-.16.19,0,.06.01.11.04.16.34.71.74,1.38,1.2,2.03,2.11,3.13,4.4,6.25,7.51,8.38.12.1.26.16.41.19.21.03.42-.09.6-.21,2.73-1.76,4.27-5,4.53-8.24.01-.09,0-.18-.02-.26-.04-.08-.1-.16-.18-.21-2.83-2.5-6.66-3.48-10.35-4.27-.7-.15-1.41-.29-2.13-.23"/><path id="Path_360" class="cls-18" d="m249.01,91.8c1.28,2.09,2.56,4.18,4.05,6.11s3.22,3.72,5.26,5.07c-1.86.92-3.87,1.53-5.93,1.81-.72.1-1.45.14-2.18.12-1.15-.05-2.27-.32-3.39-.59-.16-.03-.31-.08-.46-.15-.51-.26-.72-.88-.8-1.45-.07-.52-.11-1.05-.13-1.58-.15-3.21-.27-6.55,1.02-9.5.76.27,1.58.34,2.38.19"/><path id="Path_362" class="cls-25" d="m245.61,103.71c-.75-.3-1.46-.72-2.09-1.23-1.5-1.15-2.78-2.59-3.64-4.27s-1.27-3.6-1.06-5.48c.01-.22.07-.43.19-.62.15-.21.39-.33.63-.44,1.57-.71,3.2-1.28,4.88-1.71.13-.05.27-.05.4-.02.1.05.18.11.25.2.31.34.61.69.92,1.03.08.07.13.17.16.27,0,.12-.02.23-.08.33-.81,1.75-.94,3.72-1.02,5.65-.09,2.05-.14,4.14.37,6.13"/><path id="Path_364" class="cls-25" d="m249.31,87.11c-.76-.34-1.61-.43-2.42-.25-.39-1.11-.6-2.27-.61-3.44,0-.21.01-.45.16-.6.11-.09.25-.15.4-.18,1.57-.38,3.17-.65,4.78-.63s3.24.34,4.66,1.11c-.6.07-1.19.22-1.75.45-1.22.45-2.37,1.06-3.43,1.8-.7.49-1.37,1.04-1.85,1.74"/><path id="Path_366" class="cls-18" d="m239.07,91.66c.51-2.8,2.06-5.3,4.34-7.01.34-.25.69-.48,1.04-.71.26-.17.52-.34.77-.51.27-.2.56-.35.88-.45.01,1.34.21,2.68.57,3.97-.97.54-1.56,1.59-1.51,2.71-2.18.18-4.18,1.21-6.11,2.24"/><circle id="Ellipse_134" class="cls-4" cx="247.58" cy="89.58" r="3.03"/></g><g class="cls-5"><path id="Path_356-2" class="cls-18" d="m23.26,16.47c1.24-1.28,2.81-2.17,4.54-2.58.12-.03.24-.05.36-.04.12.02.23.06.34.13.94.5,1.77,1.19,2.42,2.03.28.37.54.76.78,1.16.7,1.16,1.34,2.44,1.28,3.79-.16-.07-.31-.16-.45-.26-2.47-1.68-5.35-2.64-8.33-2.77-.12-.56-.43-1.06-.88-1.42"/><path id="Path_358-2" class="cls-25" d="m24.14,18.12c-.13.62-.48,1.18-1,1.55-.05.03-.1.07-.11.13,0,.04,0,.08.03.11.24.49.52.97.84,1.41,1.47,2.19,3.07,4.36,5.24,5.85.08.07.18.11.29.13.15.02.29-.06.42-.14,1.9-1.23,2.98-3.49,3.16-5.75,0-.06,0-.12-.01-.18-.03-.06-.07-.11-.12-.15-1.98-1.74-4.65-2.43-7.22-2.98-.49-.1-.99-.2-1.48-.16"/><path id="Path_360-2" class="cls-18" d="m22.91,19.77c.89,1.46,1.78,2.91,2.83,4.27s2.24,2.6,3.67,3.54c-1.3.64-2.7,1.07-4.14,1.26-.5.07-1.01.1-1.52.08-.8-.04-1.59-.22-2.37-.41-.11-.02-.22-.06-.32-.1-.36-.18-.5-.62-.56-1.01-.05-.36-.08-.73-.09-1.1-.1-2.24-.19-4.57.71-6.63.53.19,1.1.24,1.66.13"/><path id="Path_362-2" class="cls-25" d="m20.54,28.08c-.53-.21-1.02-.5-1.46-.86-1.04-.8-1.94-1.81-2.54-2.98s-.89-2.51-.74-3.82c0-.15.05-.3.13-.43.1-.15.27-.23.44-.3,1.1-.49,2.23-.89,3.4-1.19.09-.03.19-.04.28-.01.07.03.13.08.17.14.21.24.43.48.64.72.05.05.09.12.11.19,0,.08-.02.16-.06.23-.57,1.22-.66,2.6-.71,3.94-.06,1.43-.09,2.89.26,4.27"/><path id="Path_364-2" class="cls-25" d="m23.12,16.5c-.53-.24-1.12-.3-1.69-.18-.27-.77-.42-1.58-.42-2.4,0-.15,0-.31.11-.42.08-.06.17-.11.28-.12,1.09-.26,2.21-.46,3.34-.44s2.26.24,3.25.77c-.42.05-.83.15-1.22.31-.85.32-1.65.74-2.4,1.26-.49.34-.95.73-1.29,1.22"/><path id="Path_366-2" class="cls-18" d="m15.98,19.67c.36-1.95,1.44-3.7,3.03-4.89.24-.17.48-.34.72-.5.18-.12.36-.24.54-.35.19-.14.39-.24.61-.32.01.94.14,1.87.4,2.77-.68.38-1.09,1.11-1.05,1.89-1.52.12-2.92.85-4.26,1.56"/><circle id="Ellipse_134-2" class="cls-4" cx="21.91" cy="18.22" r="2.12"/></g><g class="cls-5"><path id="Path_331" class="cls-12" d="m191.76,25.19c1.4-1.45,3.19-2.46,5.15-2.92.13-.04.27-.05.41-.04.13.02.26.07.38.14,1.07.56,2,1.35,2.74,2.3.32.42.61.86.88,1.32.79,1.32,1.52,2.77,1.45,4.3-.18-.08-.35-.18-.51-.29-2.8-1.9-6.07-2.99-9.44-3.14-.14-.64-.49-1.2-.99-1.61"/><path id="Path_333" class="cls-24" d="m192.76,27.06c-.14.71-.55,1.34-1.13,1.76-.06.04-.12.08-.13.15,0,.05,0,.09.03.13.27.56.59,1.09.95,1.6,1.66,2.48,3.48,4.94,5.94,6.63.09.08.21.13.32.15.17.02.33-.07.48-.16,2.16-1.39,3.37-3.96,3.58-6.51.01-.07,0-.14-.01-.21-.03-.07-.08-.12-.14-.17-2.24-1.97-5.27-2.75-8.19-3.37-.55-.12-1.12-.23-1.68-.18"/><path id="Path_335" class="cls-13" d="m191.36,28.94c1.01,1.65,2.02,3.3,3.2,4.83s2.54,2.94,4.16,4.01c-1.47.73-3.06,1.21-4.69,1.43-.57.08-1.15.11-1.72.09-.91-.04-1.8-.25-2.68-.47-.13-.03-.25-.07-.37-.12-.41-.21-.57-.7-.64-1.15-.06-.41-.09-.83-.1-1.25-.12-2.54-.21-5.18.81-7.51.6.21,1.25.27,1.88.15"/><path id="Path_337" class="cls-12" d="m188.68,38.35c-.6-.24-1.15-.57-1.66-.97-1.18-.91-2.2-2.05-2.88-3.38s-1.01-2.85-.83-4.33c0-.17.06-.34.15-.49.12-.17.31-.26.5-.35,1.24-.56,2.53-1.01,3.85-1.35.1-.04.21-.04.32-.01.08.04.14.09.19.16.24.27.49.54.73.81.06.06.11.13.13.21,0,.09-.02.18-.07.26-.64,1.38-.75,2.94-.81,4.46-.07,1.62-.11,3.27.29,4.84"/><path id="Path_339" class="cls-13" d="m191.61,25.22c-.6-.27-1.27-.34-1.91-.2-.31-.88-.47-1.8-.48-2.72,0-.17,0-.35.13-.47.09-.07.2-.12.31-.14,1.24-.3,2.51-.52,3.78-.5s2.56.27,3.69.87c-.48.06-.94.18-1.39.35-.96.36-1.87.84-2.72,1.42-.55.39-1.08.82-1.46,1.38"/><path id="Path_341" class="cls-24" d="m183.51,28.82c.41-2.21,1.63-4.19,3.43-5.54.27-.2.54-.38.82-.56.2-.13.41-.27.61-.4.21-.16.45-.28.7-.36.01,1.06.16,2.12.45,3.14-.77.43-1.23,1.26-1.2,2.14-1.72.14-3.31.96-4.83,1.77"/><circle id="Ellipse_130" class="cls-3" cx="190.23" cy="27.18" r="2.4"/></g><g class="cls-5"><path id="Path_331-2" class="cls-12" d="m361.96,22.55c1.4-1.45,3.19-2.46,5.15-2.92.13-.04.27-.05.41-.04.13.02.26.07.38.14,1.07.56,2,1.35,2.74,2.3.32.42.61.86.88,1.32.79,1.32,1.52,2.77,1.45,4.3-.18-.08-.35-.18-.51-.29-2.8-1.9-6.07-2.99-9.44-3.14-.14-.64-.49-1.2-.99-1.61"/><path id="Path_333-2" class="cls-24" d="m362.96,24.43c-.14.71-.55,1.34-1.13,1.76-.06.04-.12.08-.13.15,0,.05,0,.09.03.13.27.56.59,1.09.95,1.6,1.66,2.48,3.48,4.94,5.94,6.63.09.08.21.13.32.15.17.02.33-.07.48-.16,2.16-1.39,3.37-3.96,3.58-6.51.01-.07,0-.14-.01-.21-.03-.07-.08-.12-.14-.17-2.24-1.97-5.27-2.75-8.19-3.37-.55-.12-1.12-.23-1.68-.18"/><path id="Path_335-2" class="cls-13" d="m361.56,26.3c1.01,1.65,2.02,3.3,3.2,4.83s2.54,2.94,4.16,4.01c-1.47.73-3.06,1.21-4.69,1.43-.57.08-1.15.11-1.72.09-.91-.04-1.8-.25-2.68-.47-.13-.03-.25-.07-.37-.12-.41-.21-.57-.7-.64-1.15-.06-.41-.09-.83-.1-1.25-.12-2.54-.21-5.18.81-7.51.6.21,1.25.27,1.88.15"/><path id="Path_337-2" class="cls-12" d="m358.87,35.71c-.6-.24-1.15-.57-1.66-.97-1.18-.91-2.2-2.05-2.88-3.38s-1.01-2.85-.83-4.33c0-.17.06-.34.15-.49.12-.17.31-.26.5-.35,1.24-.56,2.53-1.01,3.85-1.35.1-.04.21-.04.32-.01.08.04.14.09.19.16.24.27.49.54.73.81.06.06.11.13.13.21,0,.09-.02.18-.07.26-.64,1.38-.75,2.94-.81,4.46-.07,1.62-.11,3.27.29,4.84"/><path id="Path_339-2" class="cls-13" d="m361.8,22.59c-.6-.27-1.27-.34-1.91-.2-.31-.88-.47-1.8-.48-2.72,0-.17,0-.35.13-.47.09-.07.2-.12.31-.14,1.24-.3,2.51-.52,3.78-.5s2.56.27,3.69.87c-.48.06-.94.18-1.39.35-.96.36-1.87.84-2.72,1.42-.55.39-1.08.82-1.46,1.38"/><path id="Path_341-2" class="cls-24" d="m353.71,26.18c.41-2.21,1.63-4.19,3.43-5.54.27-.2.54-.38.82-.56.2-.13.41-.27.61-.4.21-.16.45-.28.7-.36.01,1.06.16,2.12.45,3.14-.77.43-1.23,1.26-1.2,2.14-1.72.14-3.31.96-4.83,1.77"/><circle id="Ellipse_130-2" class="cls-3" cx="360.43" cy="24.54" r="2.4"/></g><g class="cls-9"><path id="Path_371" class="cls-21" d="m57.5,100.84c-.18-.62-.33-1.35.09-1.84.45-.52,1.34-.47,1.77-1,.2-.25.26-.58.44-.84.27-.35.68-.56,1.12-.59.44-.02.87.02,1.3.11.13.03.27.03.4,0,.1-.04.19-.11.27-.19.24-.28.53-.51.86-.67.88-.35,1.82.41,2.77.36.47-.03.92-.25,1.38-.22.4.06.78.22,1.11.46.42.23.8.52,1.15.84.15.19.34.34.55.45.16.05.33.07.5.07.49.03.95.26,1.27.64.31.38.41.9.24,1.37.93-.01,1.98.22,2.42,1.04.26.56.25,1.22-.04,1.77-.09.19-.19.41-.08.59.05.07.12.13.19.18.73.54.88,1.57.34,2.3-.1.13-.21.25-.35.34-.12.07-.23.17-.31.29-.04.13-.05.28-.02.41-.02.66-.4,1.25-.99,1.54-.58.28-1.22.44-1.86.49l-2.66.35c.28.48.36,1.04.23,1.57-.01.09-.06.18-.13.24-.09.06-.21.07-.31.05-.71-.06-1.4-.24-2.06-.52-.61-.26-1.25-.62-1.9-.47-.23.09-.48.15-.73.18-.57,0-.91-.6-1.37-.94-.41-.25-.86-.41-1.32-.49-.56-.14-1.11-.31-1.64-.51-.23-.09-.49-.22-.54-.46-.1-.53.88-.86.7-1.36-.07-.13-.17-.25-.3-.32-.98-.62-1.86-1.39-2.62-2.27-.42-.46-.66-1.04-.7-1.66.02-.55.31-1.06.78-1.35"/><path id="Path_372" class="cls-11" d="m57.62,100.81c-.18-.63-.38-1.47.27-1.9.43-.29.99-.32,1.39-.65.5-.41.47-1.12,1.11-1.41.35-.14.73-.19,1.1-.14.34.08.68.12,1.03.13.2-.04.37-.14.5-.3.26-.31.61-.54,1-.66.65-.12,1.31.27,1.94.39.66.12,1.22-.2,1.86-.18s1.42.59,1.93.99c.23.23.48.45.73.66.26.12.54.18.83.18.89.13,1.58.93,1.28,1.83-.02.07.02.13.09.15.01,0,.02,0,.03,0,1.28,0,2.77.58,2.43,2.15-.09.42-.51.92-.13,1.3.29.22.52.51.66.85.13.38.1.79-.09,1.15-.24.48-.85.63-.84,1.21.03.71-.39,1.36-1.04,1.64-.68.27-1.41.43-2.14.47-.72.09-1.46.19-2.19.29-.07,0-.12.06-.12.13,0,.02,0,.04.02.06.21.37.3.8.26,1.22-.03.25-.1.39-.36.45-.24,0-.49-.03-.72-.11-.72-.2-1.42-.45-2.11-.75-.29-.12-.61-.17-.93-.16-.34.03-.68.25-1.03.2-.6-.09-.96-.81-1.49-1.07-.59-.29-1.28-.37-1.91-.57-.31-.1-.83-.19-1.08-.41-.35-.32-.09-.56.16-.82.21-.22.47-.48.35-.81-.08-.21-.3-.33-.47-.46-.35-.24-.7-.49-1.03-.76-1.1-.88-3.25-2.98-1.38-4.23.13-.09,0-.31-.13-.22-.58.37-.9,1.04-.83,1.72.08.7.54,1.31,1,1.82.6.64,1.28,1.22,2.01,1.71.18.1.35.22.51.37.19.22.08.38-.08.56-.18.16-.34.35-.47.55-.26.54.3.83.72.99s.84.29,1.27.4c.45.08.89.21,1.3.4.55.3.91,1.05,1.59,1.09.39.02.73-.22,1.13-.21.52.06,1.03.23,1.49.48.45.19.92.34,1.41.43.29.06.82.22,1.09.03.22-.15.24-.51.25-.75.01-.43-.09-.86-.3-1.23l-.11.19,2.11-.28c.59-.06,1.17-.15,1.74-.29.51-.12.97-.39,1.32-.77.29-.35.45-.79.45-1.25.04-.42.33-.53.57-.81.14-.16.24-.35.32-.55.17-.46.13-.96-.09-1.4-.13-.21-.28-.4-.46-.57-.15-.14-.22-.35-.18-.55.04-.15.13-.29.17-.44.16-.46.15-.97-.03-1.42-.42-.99-1.62-1.24-2.59-1.23l.12.16c.18-.55.05-1.16-.35-1.58-.18-.19-.41-.34-.65-.44-.37-.15-.83-.07-1.17-.24-.27-.21-.53-.44-.76-.69-.34-.26-.69-.49-1.06-.7-.25-.16-.52-.26-.81-.32-.38-.02-.77.03-1.13.14-.86.18-1.56-.26-2.39-.37-.69-.09-1.14.23-1.62.68-.07.08-.15.16-.24.22-.18.05-.38.05-.56,0-.17-.02-.35-.06-.52-.08-.37-.05-.74-.03-1.1.08-.27.08-.51.23-.7.44-.24.27-.29.65-.52.93-.44.56-1.31.47-1.77,1.02s-.28,1.33-.11,1.95c.02.07.09.1.16.08.06-.02.1-.08.08-.15h-.01Z"/><path id="Path_373" class="cls-11" d="m70.23,97.63c-.28,1.15-.67,2.26-1.18,3.33-.45,1.02-.87,2.08-1.39,3.06s-1.09,1.96-1.61,2.95c-.55,1.05-1.1,2.09-1.65,3.14-.07.14.14.27.22.13.55-1.05,1.1-2.09,1.65-3.14.55-1.05,1.16-2.05,1.69-3.09s.96-2.09,1.42-3.14c.48-1.02.85-2.08,1.11-3.17.03-.16-.21-.22-.24-.07h0Z"/><path id="Path_374" class="cls-11" d="m73.11,99.89c-.63.96-1.23,1.94-1.88,2.88-.59.84-1.4,1.49-2,2.32-.61.86-1.26,1.68-1.96,2.46-.78.83-1.57,1.64-2.36,2.46-.11.12.07.29.18.18.79-.82,1.58-1.63,2.36-2.46.69-.75,1.33-1.55,1.92-2.39.31-.45.66-.87,1.05-1.26.36-.34.69-.72,1-1.12.68-.96,1.28-1.96,1.92-2.94.09-.14-.13-.26-.22-.13h0Z"/><path id="Path_375" class="cls-11" d="m74.9,102.92c-.77.4-1.21,1.21-1.94,1.67-.87.56-1.57,1.31-2.39,1.94-1.6,1.22-3.47,2.07-4.99,3.38-.12.1.06.28.18.18,1.55-1.32,3.45-2.18,5.06-3.43.78-.6,1.44-1.32,2.27-1.84.35-.22.67-.49.94-.8.28-.35.61-.65,1-.87.14-.07.02-.29-.13-.22h0Z"/><path id="Path_376" class="cls-11" d="m74.94,106.07c-1.56.7-3.02,1.62-4.62,2.25-1.49.58-3.16.69-4.57,1.48-.14.08-.01.29.13.22,1.47-.83,3.23-.92,4.78-1.56,1.51-.63,2.91-1.49,4.41-2.16.15-.07.02-.28-.13-.22Z"/><path id="Path_377" class="cls-11" d="m66.05,96.29c-1.33,4.47-1.99,9.12-1.97,13.78,0,.07.06.12.12.12s.12-.06.12-.12c-.03-4.64.63-9.26,1.96-13.71.02-.07-.03-.13-.09-.15-.06-.01-.13.02-.15.08Z"/><path id="Path_378" class="cls-11" d="m62.6,96.79c-.35.98-.28,2.01-.23,3.03.05,1.16.1,2.31.2,3.47.09,1.08.23,2.15.4,3.21.14,1.13.4,2.24.78,3.31.06.15.3.08.24-.07-.36-.99-.6-2.02-.74-3.07-.19-1.12-.33-2.25-.43-3.38-.09-1.07-.14-2.15-.19-3.22s-.16-2.18.21-3.21c.05-.15-.19-.22-.24-.07h0Z"/><path id="Path_379" class="cls-11" d="m59.16,98.21c.24.99.49,1.98.73,2.97.27.98.61,1.94,1.01,2.88.75,1.88,1.55,3.74,2.42,5.57.07.15.28.02.22-.13-.88-1.86-1.7-3.74-2.45-5.66-.38-.89-.69-1.8-.95-2.73-.25-.99-.49-1.98-.73-2.97-.02-.07-.09-.1-.16-.08-.06.02-.1.08-.08.15h0Z"/><path id="Path_380" class="cls-11" d="m57.36,100.8c.26.78.49,1.66,1,2.31.29.34.55.72.77,1.11.17.37.39.71.65,1.02.27.31.57.6.84.91.31.37.6.75.86,1.16.5.74,1.09,1.41,1.74,2.02.12.11.3-.07.18-.18-.66-.61-1.24-1.29-1.75-2.02-.46-.65-.97-1.27-1.52-1.85-.55-.6-.8-1.39-1.33-2.02-.62-.74-.9-1.62-1.21-2.52-.05-.15-.29-.09-.24.07h0Z"/></g><g class="cls-9"><path id="Path_371-2" class="cls-21" d="m162.5,99.84c-.18-.62-.33-1.35.09-1.84.45-.52,1.34-.47,1.77-1,.2-.25.26-.58.44-.84.27-.35.68-.56,1.12-.59.44-.02.87.02,1.3.11.13.03.27.03.4,0,.1-.04.19-.11.27-.19.24-.28.53-.51.86-.67.88-.35,1.82.41,2.77.36.47-.03.92-.25,1.38-.22.4.06.78.22,1.11.46.42.23.8.52,1.15.84.15.19.34.34.55.45.16.05.33.07.5.07.49.03.95.26,1.27.64.31.38.41.9.24,1.37.93-.01,1.98.22,2.42,1.04.26.56.25,1.22-.04,1.77-.09.19-.19.41-.08.59.05.07.12.13.19.18.73.54.88,1.57.34,2.3-.1.13-.21.25-.35.34-.12.07-.23.17-.31.29-.04.13-.05.28-.02.41-.02.66-.4,1.25-.99,1.54-.58.28-1.22.44-1.86.49l-2.66.35c.28.48.36,1.04.23,1.57-.01.09-.06.18-.13.24-.09.06-.21.07-.31.05-.71-.06-1.4-.24-2.06-.52-.61-.26-1.25-.62-1.9-.47-.23.09-.48.15-.73.18-.57,0-.91-.6-1.37-.94-.41-.25-.86-.41-1.32-.49-.56-.14-1.11-.31-1.64-.51-.23-.09-.49-.22-.54-.46-.1-.53.88-.86.7-1.36-.07-.13-.17-.25-.3-.32-.98-.62-1.86-1.39-2.62-2.27-.42-.46-.66-1.04-.7-1.66.02-.55.31-1.06.78-1.35"/><path id="Path_372-2" class="cls-11" d="m162.62,99.81c-.18-.63-.38-1.47.27-1.9.43-.29.99-.32,1.39-.65.5-.41.47-1.12,1.11-1.41.35-.14.73-.19,1.1-.14.34.08.68.12,1.03.13.2-.04.37-.14.5-.3.26-.31.61-.54,1-.66.65-.12,1.31.27,1.94.39.66.12,1.22-.2,1.86-.18s1.42.59,1.93.99c.23.23.48.45.73.66.26.12.54.18.83.18.89.13,1.58.93,1.28,1.83-.02.07.02.13.09.15.01,0,.02,0,.03,0,1.28,0,2.77.58,2.43,2.15-.09.42-.51.92-.13,1.3.29.22.52.51.66.85.13.38.1.79-.09,1.15-.24.48-.85.63-.84,1.21.03.71-.39,1.36-1.04,1.64-.68.27-1.41.43-2.14.47-.72.09-1.46.19-2.19.29-.07,0-.12.06-.12.13,0,.02,0,.04.02.06.21.37.3.8.26,1.22-.03.25-.1.39-.36.45-.24,0-.49-.03-.72-.11-.72-.2-1.42-.45-2.11-.75-.29-.12-.61-.17-.93-.16-.34.03-.68.25-1.03.2-.6-.09-.96-.81-1.49-1.07-.59-.29-1.28-.37-1.91-.57-.31-.1-.83-.19-1.08-.41-.35-.32-.09-.56.16-.82.21-.22.47-.48.35-.81-.08-.21-.3-.33-.47-.46-.35-.24-.7-.49-1.03-.76-1.1-.88-3.25-2.98-1.38-4.23.13-.09,0-.31-.13-.22-.58.37-.9,1.04-.83,1.72.08.7.54,1.31,1,1.82.6.64,1.28,1.22,2.01,1.71.18.1.35.22.51.37.19.22.08.38-.08.56-.18.16-.34.35-.47.55-.26.54.3.83.72.99s.84.29,1.27.4c.45.08.89.21,1.3.4.55.3.91,1.05,1.59,1.09.39.02.73-.22,1.13-.21.52.06,1.03.23,1.49.48.45.19.92.34,1.41.43.29.06.82.22,1.09.03.22-.15.24-.51.25-.75.01-.43-.09-.86-.3-1.23l-.11.19,2.11-.28c.59-.06,1.17-.15,1.74-.29.51-.12.97-.39,1.32-.77.29-.35.45-.79.45-1.25.04-.42.33-.53.57-.81.14-.16.24-.35.32-.55.17-.46.13-.96-.09-1.4-.13-.21-.28-.4-.46-.57-.15-.14-.22-.35-.18-.55.04-.15.13-.29.17-.44.16-.46.15-.97-.03-1.42-.42-.99-1.62-1.24-2.59-1.23l.12.16c.18-.55.05-1.16-.35-1.58-.18-.19-.41-.34-.65-.44-.37-.15-.83-.07-1.17-.24-.27-.21-.53-.44-.76-.69-.34-.26-.69-.49-1.06-.7-.25-.16-.52-.26-.81-.32-.38-.02-.77.03-1.13.14-.86.18-1.56-.26-2.39-.37-.69-.09-1.14.23-1.62.68-.07.08-.15.16-.24.22-.18.05-.38.05-.56,0-.17-.02-.35-.06-.52-.08-.37-.05-.74-.03-1.1.08-.27.08-.51.23-.7.44-.24.27-.29.65-.52.93-.44.56-1.31.47-1.77,1.02s-.28,1.33-.11,1.95c.02.07.09.1.16.08.06-.02.1-.08.08-.15h-.01Z"/><path id="Path_373-2" class="cls-11" d="m175.23,96.63c-.28,1.15-.67,2.26-1.18,3.33-.45,1.02-.87,2.08-1.39,3.06s-1.09,1.96-1.61,2.95c-.55,1.05-1.1,2.09-1.65,3.14-.07.14.14.27.22.13.55-1.05,1.1-2.09,1.65-3.14.55-1.05,1.16-2.05,1.69-3.09s.96-2.09,1.42-3.14c.48-1.02.85-2.08,1.11-3.17.03-.16-.21-.22-.24-.07h0Z"/><path id="Path_374-2" class="cls-11" d="m178.11,98.89c-.63.96-1.23,1.94-1.88,2.88-.59.84-1.4,1.49-2,2.32-.61.86-1.26,1.68-1.96,2.46-.78.83-1.57,1.64-2.36,2.46-.11.12.07.29.18.18.79-.82,1.58-1.63,2.36-2.46.69-.75,1.33-1.55,1.92-2.39.31-.45.66-.87,1.05-1.26.36-.34.69-.72,1-1.12.68-.96,1.28-1.96,1.92-2.94.09-.14-.13-.26-.22-.13h0Z"/><path id="Path_375-2" class="cls-11" d="m179.9,101.92c-.77.4-1.21,1.21-1.94,1.67-.87.56-1.57,1.31-2.39,1.94-1.6,1.22-3.47,2.07-4.99,3.38-.12.1.06.28.18.18,1.55-1.32,3.45-2.18,5.06-3.43.78-.6,1.44-1.32,2.27-1.84.35-.22.67-.49.94-.8.28-.35.61-.65,1-.87.14-.07.02-.29-.13-.22h0Z"/><path id="Path_376-2" class="cls-11" d="m179.94,105.07c-1.56.7-3.02,1.62-4.62,2.25-1.49.58-3.16.69-4.57,1.48-.14.08-.01.29.13.22,1.47-.83,3.23-.92,4.78-1.56,1.51-.63,2.91-1.49,4.41-2.16.15-.07.02-.28-.13-.22Z"/><path id="Path_377-2" class="cls-11" d="m171.05,95.29c-1.33,4.47-1.99,9.12-1.97,13.78,0,.07.06.12.12.12s.12-.06.12-.12c-.03-4.64.63-9.26,1.96-13.71.02-.07-.03-.13-.09-.15-.06-.01-.13.02-.15.08Z"/><path id="Path_378-2" class="cls-11" d="m167.6,95.79c-.35.98-.28,2.01-.23,3.03.05,1.16.1,2.31.2,3.47.09,1.08.23,2.15.4,3.21.14,1.13.4,2.24.78,3.31.06.15.3.08.24-.07-.36-.99-.6-2.02-.74-3.07-.19-1.12-.33-2.25-.43-3.38-.09-1.07-.14-2.15-.19-3.22s-.16-2.18.21-3.21c.05-.15-.19-.22-.24-.07h0Z"/><path id="Path_379-2" class="cls-11" d="m164.16,97.21c.24.99.49,1.98.73,2.97.27.98.61,1.94,1.01,2.88.75,1.88,1.55,3.74,2.42,5.57.07.15.28.02.22-.13-.88-1.86-1.7-3.74-2.45-5.66-.38-.89-.69-1.8-.95-2.73-.25-.99-.49-1.98-.73-2.97-.02-.07-.09-.1-.16-.08-.06.02-.1.08-.08.15h0Z"/><path id="Path_380-2" class="cls-11" d="m162.36,99.8c.26.78.49,1.66,1,2.31.29.34.55.72.77,1.11.17.37.39.71.65,1.02.27.31.57.6.84.91.31.37.6.75.86,1.16.5.74,1.09,1.41,1.74,2.02.12.11.3-.07.18-.18-.66-.61-1.24-1.29-1.75-2.02-.46-.65-.97-1.27-1.52-1.85-.55-.6-.8-1.39-1.33-2.02-.62-.74-.9-1.62-1.21-2.52-.05-.15-.29-.09-.24.07h0Z"/></g></g><g id="efterår-knap"><path id="Path_299" class="cls-6" d="m39.46,88.77c2.63-6.35-3.76-6.35-1.13,0-2.63-6.35-7.15-1.83-.8.8-6.35-2.63-6.35,3.76,0,1.13-6.35,2.63-1.83,7.15.8.8-2.63,6.35,3.76,6.35,1.13,0,2.63,6.35,7.15,1.83.8-.8,6.35,2.63,6.35-3.76,0-1.13,6.35-2.63,1.83-7.15-.8-.8Z"/><circle id="Ellipse_107" class="cls-8" cx="38.89" cy="90.13" r="1.17"/><path id="Path_299-2" class="cls-6" d="m110.46,17.77c2.63-6.35-3.76-6.35-1.13,0-2.63-6.35-7.15-1.83-.8.8-6.35-2.63-6.35,3.76,0,1.13-6.35,2.63-1.83,7.15.8.8-2.63,6.35,3.76,6.35,1.13,0,2.63,6.35,7.15,1.83.8-.8,6.35,2.63,6.35-3.76,0-1.13,6.35-2.63,1.83-7.15-.8-.8Z"/><circle id="Ellipse_107-2" class="cls-8" cx="109.89" cy="19.13" r="1.17"/><g class="cls-7"><path id="Path_304" class="cls-16" d="m242.78,16.39c1.53-3.7-4.98-3.7-3.45,0-1.53-3.7-6.14.91-2.44,2.44-3.7-1.53-3.7,4.98,0,3.45-3.7,1.53.91,6.14,2.44,2.44-1.53,3.7,4.98,3.7,3.45,0,1.53,3.7,6.14-.91,2.44-2.44,3.7,1.53,3.7-4.98,0-3.45,3.7-1.53-.91-6.14-2.44-2.44Z"/><circle id="Ellipse_112" class="cls-23" cx="241.06" cy="20.55" r="1.79"/></g><g class="cls-7"><path id="Path_304-2" class="cls-16" d="m118.78,93.39c1.53-3.7-4.98-3.7-3.45,0-1.53-3.7-6.14.91-2.44,2.44-3.7-1.53-3.7,4.98,0,3.45-3.7,1.53.91,6.14,2.44,2.44-1.53,3.7,4.98,3.7,3.45,0,1.53,3.7,6.14-.91,2.44-2.44,3.7,1.53,3.7-4.98,0-3.45,3.7-1.53-.91-6.14-2.44-2.44Z"/><circle id="Ellipse_112-2" class="cls-23" cx="117.06" cy="97.55" r="1.79"/></g></g></svg>