<?xml version="1.0" encoding="UTF-8"?><svg id="Layer_2" xmlns="http://www.w3.org/2000/svg" viewBox="0 0 390.28 118"><defs><style>.cls-1{letter-spacing:.03em;}.cls-2{font-family:Arial-Black, 'Arial Black';font-size:50.7px;font-weight:800;}.cls-2,.cls-3{fill:#fff;}.cls-4{letter-spacing:.02em;}.cls-5{fill:none;stroke:#701914;stroke-miterlimit:10;}.cls-6{opacity:.4;}.cls-7,.cls-8,.cls-9,.cls-10,.cls-11,.cls-12,.cls-3,.cls-13{stroke-width:0px;}.cls-8{fill:#88b9d4;}.cls-9{fill:#701914;}.cls-10{fill:#bf3210;}.cls-11{fill:#b2b2b2;}.cls-12{fill:#6c0911;}.cls-13{fill:#f6921e;}</style></defs><g id="vinter-knap"><rect class="cls-8" x=".28" width="390" height="118" rx="12" ry="12"/><text class="cls-2" transform="translate(35.43 76.45) scale(.88 1)"><tspan class="cls-1" x="0" y="0">V</tspan><tspan class="cls-4" x="41.01" y="0">inter</tspan></text><g id="havmåge_vinter_copy"><g id="ben_copy_8"><path class="cls-13" d="m311.55,85.98l-.13,11.96s-3.89-1.17-8.17-.78c0,0-1.17,3.5,0,5.06,0,0,5.45.78,10.11-1.94l.39-14.39-2.21.1Z"/><path class="cls-13" d="m318.16,86.21l-.13,15.78s-3.89-1.54-8.17-1.03c0,0-1.17,4.62,0,6.67,0,0,5.45,1.03,10.11-2.57l.39-18.99-2.21.13Z"/></g><path id="næb" class="cls-13" d="m289.37,30.25s1.94,2.33,1.56,5.06l-14.39.39s-.78-1.94,1.17-3.11l7.01-.32c1.01-.05,1.99-.36,2.85-.9l1.81-1.12Z"/><path id="krop" class="cls-3" d="m289.96,30.08c0-.32-.02-.64-.04-.96-.12-1.6.09-8.1,11.32-10.15s12.58,12.87,12.8,17.15c.08,1.45.4,2.87,1.02,4.18,1.7,3.6,6.28,9.39,18.47,11.73,5.37,1.03,10,2.83,13.87,4.86,7.99,4.2,8.08,15.66.19,20.03-5.45,3.02-11.93,6.06-18.34,7.78-15.95,4.28-30.34.78-38.51-10.89,0,0-7.3-10.95-1.39-28.26.4-1.16.61-2.37.61-3.59v-11.88Z"/><path id="sort_på_vinge" class="cls-7" d="m361.72,65.26l14.78,8.56s2.72.78-5.06,4.28c0,0-29.95-3.5-33.06-5.45s1.94-8.17,1.94-8.17l21.39.78Z"/><g id="grå_vinge_copy_8"><path class="cls-11" d="m315.09,61.91c.36-1.95,3.64-14.92,25.79-8.5.42.12.83.28,1.22.46,3.42,1.59,19.74,10.77,26.21,14.51,1.26.73,1.33,1.92.08,2.56-2.68,1.37-8.19,5.83-23.78,6.39-21.64.77-28.69-4.21-29.55-14.96-.01-.15,0-.3.02-.45Z"/></g><g id="_øje_copy_8"><circle class="cls-7" cx="301.04" cy="27.53" r="1.75"/><circle class="cls-3" cx="301.63" cy="26.95" r=".78"/></g><g id="hue"><path class="cls-10" d="m294.13,19.83s11.61-7.74,16.05-5.72,1.27,7.14,1.61,10.96-17.66-5.24-17.66-5.24Z"/><rect class="cls-9" x="292.71" y="21.72" width="20.2" height="2.57" rx="1.28" ry="1.28" transform="translate(18.87 -84.69) rotate(16.43)"/><circle class="cls-3" cx="311.74" cy="12.94" r="1.94"/></g><g id="halstørklæde_copy"><polygon class="cls-12" points="314.76 39.4 301.63 43.29 316.02 41.83 314.76 39.4"/><path class="cls-10" d="m287.23,48.76s1.61,3.67-.29,5.73-3.81,7.64-2.78,10.55c0,0,1.98,1.88,5.65.41,0,0-2.66-6.16,1.62-10.8,0,0,1.7-3.18-.21-6.47"/><path class="cls-10" d="m315.69,41.34s-6.37,1.15-13.45,1.77c-4.72.41-9.72,1.13-13.4.57,0,0-2.4,1.94-1.73,5.91,0,0,21.36.31,30.58-4.36,0,0,2.41-.64-2-3.89Z"/><path class="cls-9" d="m283.92,64.24h5.34l.54,1.21s-3.68,1.51-5.65-.41l-.23-.8Z"/><path class="cls-9" d="m287.83,52.3s-.03,1.35-.9,2.2c0,0,3.06,1.62,3.62,1.23,0,0,1.31-1.56,1.33-2.53,0,0-3.85-1.22-4.06-.9Z"/><path class="cls-9" d="m285.13,57.51s-.39.77-.7,2.02c0,0,4,1.22,4.57.85,0,0,.17-1.6.37-2.15,0,0-4.41-.89-4.24-.72Z"/><path class="cls-9" d="m297.2,43.56l4.59-.45s1.11,3.11.28,5.73c0,0-1.43.26-5.8.47,0,0,1.57-5.48.93-5.75Z"/><path class="cls-9" d="m306.29,42.51s1.29,3.8.84,5.6c0,0,2.91-.57,3.82-.76,0,0-.06-4.77-.77-5.23,0,0-3.08.45-3.9.39Z"/><path class="cls-9" d="m288.79,43.67s-2.19,2.11-1.68,5.91l5.57-.08s1.48-5.4.94-5.62-3.66.17-4.83-.21Z"/><path class="cls-5" d="m285.1,65.26c0,.86.35,1.56.78,1.56"/><path class="cls-5" d="m285.87,65.26c0,.86.35,1.56.78,1.56"/><path class="cls-5" d="m286.65,65.26c0,.86.35,1.56.78,1.56"/><path class="cls-5" d="m287.43,65.26c0,.86.35,1.56.78,1.56"/><path class="cls-5" d="m288.21,65.26c0,.86.35,1.56.78,1.56"/><path class="cls-5" d="m288.98,65.26c0,.86.35,1.56.78,1.56"/><path class="cls-9" d="m314.23,41.62s1.03,4.03.44,4.79c0,0,4.04-1.23,3.67-1.98,0,0,.14-1.53-2.64-3.09l-1.47.28Z"/></g></g><g class="cls-6"><path class="cls-3" d="m189.17,91.36c-.07-.4-.46-.66-.86-.59-.4.07-.66.46-.59.86l2.12,11.35c.07.4.46.66.86.59.4-.07.66-.46.59-.86l-2.12-11.35Z"/><path class="cls-3" d="m192.4,92.67c-.33-.24-.79-.16-1.03.17l-2.51,3.49c-.24.33-.16.79.17,1.03s.79.16,1.03-.17l2.51-3.49c.24-.33.16-.79-.17-1.03Z"/><path class="cls-3" d="m189.61,96.01l-3.68-2.22c-.35-.21-.8-.1-1.01.25s-.1.8.25,1.01l3.68,2.22c.35.21.8.1,1.01-.25s.1-.8-.25-1.01Z"/><path class="cls-3" d="m191.38,103.23c-.07-.4-.46-.66-.85-.59s-.66.46-.59.85l2.07,11.36c.07.4.46.66.85.59.4-.07.66-.46.59-.85l-2.07-11.36Z"/><path class="cls-3" d="m192.17,108.86c-.33-.24-.79-.16-1.03.16l-2.52,3.48c-.24.33-.16.79.16,1.03s.79.16,1.03-.16l2.52-3.48c.24-.33.16-.79-.16-1.03Z"/><path class="cls-3" d="m196.02,111.19l-3.67-2.23c-.35-.21-.8-.1-1.01.25-.21.35-.1.8.25,1.01l3.67,2.23c.35.21.8.1,1.01-.25.21-.35.1-.8-.25-1.01Z"/><path class="cls-3" d="m190.75,102.87c-.08-.4-.47-.65-.87-.57l-11.3,2.38c-.4.08-.65.47-.57.87s.47.65.87.57l11.3-2.38c.4-.08.65-.47.57-.87Z"/><path class="cls-3" d="m184.38,103.66l-3.55-2.42c-.33-.23-.79-.14-1.02.19-.23.33-.14.79.19,1.02l3.55,2.42c.33.23.79.14,1.02-.19s.14-.79-.19-1.02Z"/><path class="cls-3" d="m184.22,103.86c-.35-.2-.8-.08-1,.27l-2.13,3.73c-.2.35-.08.8.27,1,.35.2.8.08,1-.27l2.13-3.73c.2-.35.08-.8-.27-1Z"/><path class="cls-3" d="m202.22,100.24l-11.35,2.09c-.4.07-.66.46-.59.86.07.4.46.66.86.59l11.35-2.09c.4-.07.66-.46.59-.86-.07-.4-.46-.66-.86-.59Z"/><path class="cls-3" d="m201,103.88l-3.48-2.51c-.33-.24-.79-.16-1.03.17-.24.33-.16.79.17,1.03l3.48,2.51c.33.24.79.16,1.03-.17s.16-.79-.17-1.03Z"/><path class="cls-3" d="m199.82,97.43c-.35-.21-.8-.1-1.01.25l-2.23,3.67c-.21.35-.1.8.25,1.01.35.21.8.1,1.01-.25l2.23-3.67c.21-.35.1-.8-.25-1.01Z"/></g><g class="cls-6"><path class="cls-3" d="m252.13,65.85c-.4-.08-.79.18-.87.57l-2.31,11.31c-.08.4.18.79.57.87s.79-.17.87-.57l2.31-11.31c.08-.4-.18-.79-.57-.87Z"/><path class="cls-3" d="m255.2,69.14c-.22-.34-.67-.45-1.01-.23l-3.64,2.29c-.34.22-.45.67-.23,1.01.22.34.67.45,1.01.23l3.64-2.29c.34-.22.45-.67.23-1.01Z"/><path class="cls-3" d="m251.36,71.18l-2.57-3.44c-.24-.33-.7-.39-1.03-.15-.33.24-.39.7-.15,1.03l2.57,3.44c.24.33.7.39,1.03.15s.39-.7.15-1.03Z"/><path class="cls-3" d="m249.7,77.67c-.4-.08-.79.17-.87.57l-2.36,11.3c-.08.4.17.79.57.87s.79-.17.87-.57l2.36-11.3c.08-.4-.17-.79-.57-.87Z"/><path class="cls-3" d="m248.88,84.05c-.21-.34-.67-.45-1.01-.24l-3.65,2.27c-.34.21-.45.67-.24,1.01s.67.45,1.01.24l3.65-2.27c.34-.21.45-.67.24-1.01Z"/><path class="cls-3" d="m251.57,87.66l-2.56-3.45c-.24-.33-.7-.39-1.03-.15-.33.24-.39.7-.15,1.03l2.56,3.45c.24.33.7.39,1.03.15s.39-.7.15-1.03Z"/><path class="cls-3" d="m249.23,77.11l-11.36-2.05c-.4-.07-.78.19-.85.59-.07.4.19.78.59.85l11.36,2.05c.4.07.78-.19.85-.59.07-.4-.19-.78-.59-.85Z"/><path class="cls-3" d="m243.63,76.3l-2.37-3.58c-.22-.34-.68-.43-1.02-.21-.34.22-.43.68-.21,1.02l2.37,3.58c.22.34.68.43,1.02.21.34-.22.43-.68.21-1.02Z"/><path class="cls-3" d="m243.4,76.42c-.25-.32-.71-.38-1.03-.13l-3.38,2.65c-.32.25-.38.71-.13,1.03s.71.38,1.03.13l3.38-2.65c.32-.25.38-.71.13-1.03Z"/><path class="cls-3" d="m261.44,79.85l-11.31-2.34c-.4-.08-.79.17-.87.57-.08.4.17.79.57.87l11.31,2.34c.4.08.79-.17.87-.57.08-.4-.17-.79-.57-.87Z"/><path class="cls-3" d="m258.94,82.76l-2.28-3.64c-.22-.34-.67-.45-1.01-.23-.34.22-.45.67-.23,1.01l2.28,3.64c.22.34.67.45,1.01.23.34-.22.45-.67.23-1.01Z"/><path class="cls-3" d="m260.28,76.35c-.24-.33-.7-.39-1.03-.15l-3.45,2.56c-.33.24-.39.7-.15,1.03.24.33.7.39,1.03.15l3.45-2.56c.33-.24.39-.7.15-1.03Z"/></g><g class="cls-6"><path class="cls-3" d="m357.17,88.36c-.07-.4-.46-.66-.86-.59-.4.07-.66.46-.59.86l2.12,11.35c.07.4.46.66.86.59.4-.07.66-.46.59-.86l-2.12-11.35Z"/><path class="cls-3" d="m360.4,89.67c-.33-.24-.79-.16-1.03.17l-2.51,3.49c-.24.33-.16.79.17,1.03s.79.16,1.03-.17l2.51-3.49c.24-.33.16-.79-.17-1.03Z"/><path class="cls-3" d="m357.61,93.01l-3.68-2.22c-.35-.21-.8-.1-1.01.25s-.1.8.25,1.01l3.68,2.22c.35.21.8.1,1.01-.25s.1-.8-.25-1.01Z"/><path class="cls-3" d="m359.38,100.23c-.07-.4-.46-.66-.85-.59s-.66.46-.59.85l2.07,11.36c.07.4.46.66.85.59.4-.07.66-.46.59-.85l-2.07-11.36Z"/><path class="cls-3" d="m360.17,105.86c-.33-.24-.79-.16-1.03.16l-2.52,3.48c-.24.33-.16.79.16,1.03s.79.16,1.03-.16l2.52-3.48c.24-.33.16-.79-.16-1.03Z"/><path class="cls-3" d="m364.02,108.19l-3.67-2.23c-.35-.21-.8-.1-1.01.25-.21.35-.1.8.25,1.01l3.67,2.23c.35.21.8.1,1.01-.25.21-.35.1-.8-.25-1.01Z"/><path class="cls-3" d="m358.75,99.87c-.08-.4-.47-.65-.87-.57l-11.3,2.38c-.4.08-.65.47-.57.87s.47.65.87.57l11.3-2.38c.4-.08.65-.47.57-.87Z"/><path class="cls-3" d="m352.38,100.66l-3.55-2.42c-.33-.23-.79-.14-1.02.19-.23.33-.14.79.19,1.02l3.55,2.42c.33.23.79.14,1.02-.19s.14-.79-.19-1.02Z"/><path class="cls-3" d="m352.22,100.86c-.35-.2-.8-.08-1,.27l-2.13,3.73c-.2.35-.08.8.27,1,.35.2.8.08,1-.27l2.13-3.73c.2-.35.08-.8-.27-1Z"/><path class="cls-3" d="m370.22,97.24l-11.35,2.09c-.4.07-.66.46-.59.86.07.4.46.66.86.59l11.35-2.09c.4-.07.66-.46.59-.86-.07-.4-.46-.66-.86-.59Z"/><path class="cls-3" d="m369,100.88l-3.48-2.51c-.33-.24-.79-.16-1.03.17-.24.33-.16.79.17,1.03l3.48,2.51c.33.24.79.16,1.03-.17s.16-.79-.17-1.03Z"/><path class="cls-3" d="m367.82,94.43c-.35-.21-.8-.1-1.01.25l-2.23,3.67c-.21.35-.1.8.25,1.01.35.21.8.1,1.01-.25l2.23-3.67c.21-.35.1-.8-.25-1.01Z"/></g><g class="cls-6"><path class="cls-3" d="m97.17,9.36c-.07-.4-.46-.66-.86-.59-.4.07-.66.46-.59.86l2.12,11.35c.07.4.46.66.86.59.4-.07.66-.46.59-.86l-2.12-11.35Z"/><path class="cls-3" d="m100.4,10.67c-.33-.24-.79-.16-1.03.17l-2.51,3.49c-.24.33-.16.79.17,1.03s.79.16,1.03-.17l2.51-3.49c.24-.33.16-.79-.17-1.03Z"/><path class="cls-3" d="m97.61,14.01l-3.68-2.22c-.35-.21-.8-.1-1.01.25s-.1.8.25,1.01l3.68,2.22c.35.21.8.1,1.01-.25s.1-.8-.25-1.01Z"/><path class="cls-3" d="m99.38,21.23c-.07-.4-.46-.66-.85-.59s-.66.46-.59.85l2.07,11.36c.07.4.46.66.85.59.4-.07.66-.46.59-.85l-2.07-11.36Z"/><path class="cls-3" d="m100.17,26.86c-.33-.24-.79-.16-1.03.16l-2.52,3.48c-.24.33-.16.79.16,1.03s.79.16,1.03-.16l2.52-3.48c.24-.33.16-.79-.16-1.03Z"/><path class="cls-3" d="m104.02,29.19l-3.67-2.23c-.35-.21-.8-.1-1.01.25-.21.35-.1.8.25,1.01l3.67,2.23c.35.21.8.1,1.01-.25.21-.35.1-.8-.25-1.01Z"/><path class="cls-3" d="m98.75,20.87c-.08-.4-.47-.65-.87-.57l-11.3,2.38c-.4.08-.65.47-.57.87s.47.65.87.57l11.3-2.38c.4-.08.65-.47.57-.87Z"/><path class="cls-3" d="m92.38,21.66l-3.55-2.42c-.33-.23-.79-.14-1.02.19-.23.33-.14.79.19,1.02l3.55,2.42c.33.23.79.14,1.02-.19s.14-.79-.19-1.02Z"/><path class="cls-3" d="m92.22,21.86c-.35-.2-.8-.08-1,.27l-2.13,3.73c-.2.35-.08.8.27,1,.35.2.8.08,1-.27l2.13-3.73c.2-.35.08-.8-.27-1Z"/><path class="cls-3" d="m110.22,18.24l-11.35,2.09c-.4.07-.66.46-.59.86.07.4.46.66.86.59l11.35-2.09c.4-.07.66-.46.59-.86-.07-.4-.46-.66-.86-.59Z"/><path class="cls-3" d="m109,21.88l-3.48-2.51c-.33-.24-.79-.16-1.03.17-.24.33-.16.79.17,1.03l3.48,2.51c.33.24.79.16,1.03-.17s.16-.79-.17-1.03Z"/><path class="cls-3" d="m107.82,15.43c-.35-.21-.8-.1-1.01.25l-2.23,3.67c-.21.35-.1.8.25,1.01.35.21.8.1,1.01-.25l2.23-3.67c.21-.35.1-.8-.25-1.01Z"/></g><g class="cls-6"><path class="cls-3" d="m94.17,90.36c-.07-.4-.46-.66-.86-.59-.4.07-.66.46-.59.86l2.12,11.35c.07.4.46.66.86.59.4-.07.66-.46.59-.86l-2.12-11.35Z"/><path class="cls-3" d="m98.4,93.67c-.33-.24-.79-.16-1.03.17l-2.51,3.49c-.24.33-.16.79.17,1.03s.79.16,1.03-.17l2.51-3.49c.24-.33.16-.79-.17-1.03Z"/><path class="cls-3" d="m94.61,97.01l-3.68-2.22c-.35-.21-.8-.1-1.01.25s-.1.8.25,1.01l3.68,2.22c.35.21.8.1,1.01-.25s.1-.8-.25-1.01Z"/><path class="cls-3" d="m96.38,102.23c-.07-.4-.46-.66-.85-.59s-.66.46-.59.85l2.07,11.36c.07.4.46.66.85.59.4-.07.66-.46.59-.85l-2.07-11.36Z"/><path class="cls-3" d="m97.17,106.86c-.33-.24-.79-.16-1.03.16l-2.52,3.48c-.24.33-.16.79.16,1.03s.79.16,1.03-.16l2.52-3.48c.24-.33.16-.79-.16-1.03Z"/><path class="cls-3" d="m101.02,109.19l-3.67-2.23c-.35-.21-.8-.1-1.01.25-.21.35-.1.8.25,1.01l3.67,2.23c.35.21.8.1,1.01-.25.21-.35.1-.8-.25-1.01Z"/><path class="cls-3" d="m95.75,101.87c-.08-.4-.47-.65-.87-.57l-11.3,2.38c-.4.08-.65.47-.57.87s.47.65.87.57l11.3-2.38c.4-.08.65-.47.57-.87Z"/><path class="cls-3" d="m90.38,101.66l-3.55-2.42c-.33-.23-.79-.14-1.02.19-.23.33-.14.79.19,1.02l3.55,2.42c.33.23.79.14,1.02-.19s.14-.79-.19-1.02Z"/><path class="cls-3" d="m91.22,102.86c-.35-.2-.8-.08-1,.27l-2.13,3.73c-.2.35-.08.8.27,1,.35.2.8.08,1-.27l2.13-3.73c.2-.35.08-.8-.27-1Z"/><path class="cls-3" d="m107.22,99.24l-11.35,2.09c-.4.07-.66.46-.59.86.07.4.46.66.86.59l11.35-2.09c.4-.07.66-.46.59-.86-.07-.4-.46-.66-.86-.59Z"/><path class="cls-3" d="m105,102.88l-3.48-2.51c-.33-.24-.79-.16-1.03.17-.24.33-.16.79.17,1.03l3.48,2.51c.33.24.79.16,1.03-.17s.16-.79-.17-1.03Z"/><path class="cls-3" d="m103.82,96.43c-.35-.21-.8-.1-1.01.25l-2.23,3.67c-.21.35-.1.8.25,1.01.35.21.8.1,1.01-.25l2.23-3.67c.21-.35.1-.8-.25-1.01Z"/></g><g class="cls-6"><path class="cls-3" d="m215.17,21.36c-.07-.4-.46-.66-.86-.59-.4.07-.66.46-.59.86l2.12,11.35c.07.4.46.66.86.59.4-.07.66-.46.59-.86l-2.12-11.35Z"/><path class="cls-3" d="m219.4,24.67c-.33-.24-.79-.16-1.03.17l-2.51,3.49c-.24.33-.16.79.17,1.03s.79.16,1.03-.17l2.51-3.49c.24-.33.16-.79-.17-1.03Z"/><path class="cls-3" d="m215.61,28.01l-3.68-2.22c-.35-.21-.8-.1-1.01.25s-.1.8.25,1.01l3.68,2.22c.35.21.8.1,1.01-.25s.1-.8-.25-1.01Z"/><path class="cls-3" d="m217.38,33.23c-.07-.4-.46-.66-.85-.59s-.66.46-.59.85l2.07,11.36c.07.4.46.66.85.59.4-.07.66-.46.59-.85l-2.07-11.36Z"/><path class="cls-3" d="m218.17,37.86c-.33-.24-.79-.16-1.03.16l-2.52,3.48c-.24.33-.16.79.16,1.03s.79.16,1.03-.16l2.52-3.48c.24-.33.16-.79-.16-1.03Z"/><path class="cls-3" d="m222.02,40.19l-3.67-2.23c-.35-.21-.8-.1-1.01.25-.21.35-.1.8.25,1.01l3.67,2.23c.35.21.8.1,1.01-.25.21-.35.1-.8-.25-1.01Z"/><path class="cls-3" d="m216.75,32.87c-.08-.4-.47-.65-.87-.57l-11.3,2.38c-.4.08-.65.47-.57.87s.47.65.87.57l11.3-2.38c.4-.08.65-.47.57-.87Z"/><path class="cls-3" d="m211.38,32.66l-3.55-2.42c-.33-.23-.79-.14-1.02.19-.23.33-.14.79.19,1.02l3.55,2.42c.33.23.79.14,1.02-.19s.14-.79-.19-1.02Z"/><path class="cls-3" d="m212.22,33.86c-.35-.2-.8-.08-1,.27l-2.13,3.73c-.2.35-.08.8.27,1,.35.2.8.08,1-.27l2.13-3.73c.2-.35.08-.8-.27-1Z"/><path class="cls-3" d="m228.22,30.24l-11.35,2.09c-.4.07-.66.46-.59.86.07.4.46.66.86.59l11.35-2.09c.4-.07.66-.46.59-.86-.07-.4-.46-.66-.86-.59Z"/><path class="cls-3" d="m226,33.88l-3.48-2.51c-.33-.24-.79-.16-1.03.17-.24.33-.16.79.17,1.03l3.48,2.51c.33.24.79.16,1.03-.17s.16-.79-.17-1.03Z"/><path class="cls-3" d="m224.82,27.43c-.35-.21-.8-.1-1.01.25l-2.23,3.67c-.21.35-.1.8.25,1.01.35.21.8.1,1.01-.25l2.23-3.67c.21-.35.1-.8-.25-1.01Z"/></g><g class="cls-6"><path class="cls-3" d="m359.18,27.62l-4.14-10.78c-.15-.38-.57-.57-.95-.42-.38.15-.57.57-.42.95l4.14,10.78c.15.38.57.57.95.42.38-.15.57-.57.42-.95Z"/><path class="cls-3" d="m359.79,19.33c-.37-.17-.8-.02-.98.35l-1.83,3.89c-.17.37-.02.8.35.98.37.17.8.02.98-.35l1.83-3.89c.17-.37.02-.8-.35-.98Z"/><path class="cls-3" d="m356.67,23.29l-4.02-1.52c-.38-.14-.8.05-.95.43-.14.38.05.8.43.95l4.02,1.52c.38.14.8-.05.95-.43.14-.38-.05-.8-.43-.95Z"/><path class="cls-3" d="m363.44,38.91l-4.09-10.8c-.14-.38-.57-.57-.95-.43-.38.14-.57.57-.43.95l4.09,10.8c.14.38.57.57.95.43s.57-.57.43-.95Z"/><path class="cls-3" d="m360.97,32.53c-.37-.17-.8-.02-.98.35l-1.85,3.88c-.17.37-.02.8.35.98.37.17.8.02.98-.35l1.85-3.88c.17-.37.02-.8-.35-.98Z"/><path class="cls-3" d="m365.17,34.12l-4.01-1.53c-.38-.14-.8.04-.95.42h0c-.15.38.04.8.42.95l4.01,1.53c.38.14.8-.04.95-.42.14-.38-.04-.8-.42-.95Z"/><path class="cls-3" d="m358.67,27.87c-.15-.38-.58-.55-.96-.4l-10.68,4.39c-.38.15-.55.58-.4.96s.58.55.96.4l10.68-4.39c.38-.15.55-.58.4-.96Z"/><path class="cls-3" d="m353.35,28.64l-3.93-1.74c-.37-.16-.8,0-.97.37s0,.8.37.97l3.93,1.74c.37.16.8,0,.97-.37.16-.37,0-.8-.37-.97Z"/><path class="cls-3" d="m354.39,29.67c-.38-.13-.8.07-.94.45l-1.42,4.05c-.13.38.07.8.45.94s.8-.07.94-.45l1.42-4.05c.13-.38-.07-.8-.45-.94Z"/><path class="cls-3" d="m370.42,23.64c-.14-.38-.57-.57-.95-.42l-10.79,4.11c-.38.14-.57.57-.42.95.14.38.57.57.95.42l10.79-4.11c.38-.14.57-.57.42-.95Z"/><path class="cls-3" d="m367.95,27.19l-3.88-1.84c-.37-.17-.8-.02-.98.35-.17.37-.02.8.35.98l3.88,1.84c.37.17.8.02.98-.35.17-.37.02-.8-.35-.98Z"/><path class="cls-3" d="m365.62,21.06c-.38-.14-.8.05-.95.43l-1.53,4.02c-.14.38.05.8.43.95.38.14.8-.05.95-.43l1.53-4.02c.14-.38-.05-.8-.43-.95Z"/></g><g class="cls-6"><path class="cls-3" d="m12.17,74.36c-.07-.4-.46-.66-.86-.59-.4.07-.66.46-.59.86l2.12,11.35c.07.4.46.66.86.59.4-.07.66-.46.59-.86l-2.12-11.35Z"/><path class="cls-3" d="m15.4,75.67c-.33-.24-.79-.16-1.03.17l-2.51,3.49c-.24.33-.16.79.17,1.03s.79.16,1.03-.17l2.51-3.49c.24-.33.16-.79-.17-1.03Z"/><path class="cls-3" d="m12.61,79.01l-3.68-2.22c-.35-.21-.8-.1-1.01.25s-.1.8.25,1.01l3.68,2.22c.35.21.8.1,1.01-.25s.1-.8-.25-1.01Z"/><path class="cls-3" d="m14.38,86.23c-.07-.4-.46-.66-.85-.59s-.66.46-.59.85l2.07,11.36c.07.4.46.66.85.59.4-.07.66-.46.59-.85l-2.07-11.36Z"/><path class="cls-3" d="m15.17,91.86c-.33-.24-.79-.16-1.03.16l-2.52,3.48c-.24.33-.16.79.16,1.03s.79.16,1.03-.16l2.52-3.48c.24-.33.16-.79-.16-1.03Z"/><path class="cls-3" d="m19.02,94.19l-3.67-2.23c-.35-.21-.8-.1-1.01.25-.21.35-.1.8.25,1.01l3.67,2.23c.35.21.8.1,1.01-.25.21-.35.1-.8-.25-1.01Z"/><path class="cls-3" d="m13.75,85.87c-.08-.4-.47-.65-.87-.57l-11.3,2.38c-.4.08-.65.47-.57.87s.47.65.87.57l11.3-2.38c.4-.08.65-.47.57-.87Z"/><path class="cls-3" d="m7.38,86.66l-3.55-2.42c-.33-.23-.79-.14-1.02.19-.23.33-.14.79.19,1.02l3.55,2.42c.33.23.79.14,1.02-.19s.14-.79-.19-1.02Z"/><path class="cls-3" d="m7.22,86.86c-.35-.2-.8-.08-1,.27l-2.13,3.73c-.2.35-.08.8.27,1,.35.2.8.08,1-.27l2.13-3.73c.2-.35.08-.8-.27-1Z"/><path class="cls-3" d="m25.22,83.24l-11.35,2.09c-.4.07-.66.46-.59.86.07.4.46.66.86.59l11.35-2.09c.4-.07.66-.46.59-.86-.07-.4-.46-.66-.86-.59Z"/><path class="cls-3" d="m24,86.88l-3.48-2.51c-.33-.24-.79-.16-1.03.17-.24.33-.16.79.17,1.03l3.48,2.51c.33.24.79.16,1.03-.17s.16-.79-.17-1.03Z"/><path class="cls-3" d="m22.82,80.43c-.35-.21-.8-.1-1.01.25l-2.23,3.67c-.21.35-.1.8.25,1.01.35.21.8.1,1.01-.25l2.23-3.67c.21-.35.1-.8-.25-1.01Z"/></g><g class="cls-6"><path class="cls-3" d="m11.17,7.36c-.07-.4-.46-.66-.86-.59-.4.07-.66.46-.59.86l2.12,11.35c.07.4.46.66.86.59.4-.07.66-.46.59-.86l-2.12-11.35Z"/><path class="cls-3" d="m14.4,8.67c-.33-.24-.79-.16-1.03.17l-2.51,3.49c-.24.33-.16.79.17,1.03s.79.16,1.03-.17l2.51-3.49c.24-.33.16-.79-.17-1.03Z"/><path class="cls-3" d="m11.61,12.01l-3.68-2.22c-.35-.21-.8-.1-1.01.25s-.1.8.25,1.01l3.68,2.22c.35.21.8.1,1.01-.25s.1-.8-.25-1.01Z"/><path class="cls-3" d="m13.38,19.23c-.07-.4-.46-.66-.85-.59s-.66.46-.59.85l2.07,11.36c.07.4.46.66.85.59.4-.07.66-.46.59-.85l-2.07-11.36Z"/><path class="cls-3" d="m14.17,24.86c-.33-.24-.79-.16-1.03.16l-2.52,3.48c-.24.33-.16.79.16,1.03s.79.16,1.03-.16l2.52-3.48c.24-.33.16-.79-.16-1.03Z"/><path class="cls-3" d="m18.02,27.19l-3.67-2.23c-.35-.21-.8-.1-1.01.25-.21.35-.1.8.25,1.01l3.67,2.23c.35.21.8.1,1.01-.25.21-.35.1-.8-.25-1.01Z"/><path class="cls-3" d="m12.75,18.87c-.08-.4-.47-.65-.87-.57L.58,20.68c-.4.08-.65.47-.57.87s.47.65.87.57l11.3-2.38c.4-.08.65-.47.57-.87Z"/><path class="cls-3" d="m6.38,19.66l-3.55-2.42c-.33-.23-.79-.14-1.02.19-.23.33-.14.79.19,1.02l3.55,2.42c.33.23.79.14,1.02-.19s.14-.79-.19-1.02Z"/><path class="cls-3" d="m6.22,19.86c-.35-.2-.8-.08-1,.27l-2.13,3.73c-.2.35-.08.8.27,1,.35.2.8.08,1-.27l2.13-3.73c.2-.35.08-.8-.27-1Z"/><path class="cls-3" d="m24.22,16.24l-11.35,2.09c-.4.07-.66.46-.59.86.07.4.46.66.86.59l11.35-2.09c.4-.07.66-.46.59-.86-.07-.4-.46-.66-.86-.59Z"/><path class="cls-3" d="m23,19.88l-3.48-2.51c-.33-.24-.79-.16-1.03.17-.24.33-.16.79.17,1.03l3.48,2.51c.33.24.79.16,1.03-.17s.16-.79-.17-1.03Z"/><path class="cls-3" d="m21.82,13.43c-.35-.21-.8-.1-1.01.25l-2.23,3.67c-.21.35-.1.8.25,1.01.35.21.8.1,1.01-.25l2.23-3.67c.21-.35.1-.8-.25-1.01Z"/></g></g></svg>